<?xml version="1.0" encoding="utf-8"?>
<svg xmlns="http://www.w3.org/2000/svg" xmlns:xlink="http://www.w3.org/1999/xlink" width="600" height="400" viewBox="0 0 2400 1600">
<defs>
  <clipPath id="clip880">
    <rect x="0" y="0" width="2400" height="1600"/>
  </clipPath>
</defs>
<path clip-path="url(#clip880)" d="
M0 1600 L2400 1600 L2400 0 L0 0  Z
  " fill="#ffffff" fill-rule="evenodd" fill-opacity="1"/>
<defs>
  <clipPath id="clip881">
    <rect x="480" y="0" width="1681" height="1600"/>
  </clipPath>
</defs>
<path clip-path="url(#clip880)" d="
M178.867 1474.16 L2352.76 1474.16 L2352.76 47.2441 L178.867 47.2441  Z
  " fill="#ffffff" fill-rule="evenodd" fill-opacity="1"/>
<defs>
  <clipPath id="clip882">
    <rect x="178" y="47" width="2175" height="1428"/>
  </clipPath>
</defs>
<polyline clip-path="url(#clip882)" style="stroke:#000000; stroke-linecap:butt; stroke-linejoin:round; stroke-width:2; stroke-opacity:0.1; fill:none" points="
  240.392,1474.16 240.392,47.2441 
  "/>
<polyline clip-path="url(#clip882)" style="stroke:#000000; stroke-linecap:butt; stroke-linejoin:round; stroke-width:2; stroke-opacity:0.1; fill:none" points="
  705.435,1474.16 705.435,47.2441 
  "/>
<polyline clip-path="url(#clip882)" style="stroke:#000000; stroke-linecap:butt; stroke-linejoin:round; stroke-width:2; stroke-opacity:0.1; fill:none" points="
  1170.48,1474.16 1170.48,47.2441 
  "/>
<polyline clip-path="url(#clip882)" style="stroke:#000000; stroke-linecap:butt; stroke-linejoin:round; stroke-width:2; stroke-opacity:0.1; fill:none" points="
  1635.52,1474.16 1635.52,47.2441 
  "/>
<polyline clip-path="url(#clip882)" style="stroke:#000000; stroke-linecap:butt; stroke-linejoin:round; stroke-width:2; stroke-opacity:0.1; fill:none" points="
  2100.56,1474.16 2100.56,47.2441 
  "/>
<polyline clip-path="url(#clip880)" style="stroke:#000000; stroke-linecap:butt; stroke-linejoin:round; stroke-width:4; stroke-opacity:1; fill:none" points="
  178.867,1474.16 2352.76,1474.16 
  "/>
<polyline clip-path="url(#clip880)" style="stroke:#000000; stroke-linecap:butt; stroke-linejoin:round; stroke-width:4; stroke-opacity:1; fill:none" points="
  240.392,1474.16 240.392,1455.27 
  "/>
<polyline clip-path="url(#clip880)" style="stroke:#000000; stroke-linecap:butt; stroke-linejoin:round; stroke-width:4; stroke-opacity:1; fill:none" points="
  705.435,1474.16 705.435,1455.27 
  "/>
<polyline clip-path="url(#clip880)" style="stroke:#000000; stroke-linecap:butt; stroke-linejoin:round; stroke-width:4; stroke-opacity:1; fill:none" points="
  1170.48,1474.16 1170.48,1455.27 
  "/>
<polyline clip-path="url(#clip880)" style="stroke:#000000; stroke-linecap:butt; stroke-linejoin:round; stroke-width:4; stroke-opacity:1; fill:none" points="
  1635.52,1474.16 1635.52,1455.27 
  "/>
<polyline clip-path="url(#clip880)" style="stroke:#000000; stroke-linecap:butt; stroke-linejoin:round; stroke-width:4; stroke-opacity:1; fill:none" points="
  2100.56,1474.16 2100.56,1455.27 
  "/>
<path clip-path="url(#clip880)" d="M240.392 1505.08 Q236.781 1505.08 234.952 1508.65 Q233.146 1512.19 233.146 1519.32 Q233.146 1526.43 234.952 1529.99 Q236.781 1533.53 240.392 1533.53 Q244.026 1533.53 245.832 1529.99 Q247.66 1526.43 247.66 1519.32 Q247.66 1512.19 245.832 1508.65 Q244.026 1505.08 240.392 1505.08 M240.392 1501.38 Q246.202 1501.38 249.257 1505.99 Q252.336 1510.57 252.336 1519.32 Q252.336 1528.05 249.257 1532.65 Q246.202 1537.24 240.392 1537.24 Q234.582 1537.24 231.503 1532.65 Q228.447 1528.05 228.447 1519.32 Q228.447 1510.57 231.503 1505.99 Q234.582 1501.38 240.392 1501.38 Z" fill="#000000" fill-rule="evenodd" fill-opacity="1" /><path clip-path="url(#clip880)" d="M598.251 1517.66 L616.608 1517.66 L616.608 1521.6 L602.534 1521.6 L602.534 1530.07 Q603.552 1529.72 604.571 1529.56 Q605.589 1529.38 606.608 1529.38 Q612.395 1529.38 615.774 1532.55 Q619.154 1535.72 619.154 1541.14 Q619.154 1546.72 615.682 1549.82 Q612.21 1552.9 605.89 1552.9 Q603.714 1552.9 601.446 1552.53 Q599.2 1552.16 596.793 1551.41 L596.793 1546.72 Q598.876 1547.85 601.099 1548.41 Q603.321 1548.96 605.798 1548.96 Q609.802 1548.96 612.14 1546.85 Q614.478 1544.75 614.478 1541.14 Q614.478 1537.53 612.14 1535.42 Q609.802 1533.31 605.798 1533.31 Q603.923 1533.31 602.048 1533.73 Q600.196 1534.15 598.251 1535.03 L598.251 1517.66 Z" fill="#000000" fill-rule="evenodd" fill-opacity="1" /><path clip-path="url(#clip880)" d="M628.367 1546.35 L633.251 1546.35 L633.251 1552.22 L628.367 1552.22 L628.367 1546.35 Z" fill="#000000" fill-rule="evenodd" fill-opacity="1" /><path clip-path="url(#clip880)" d="M653.436 1520.74 Q649.825 1520.74 647.996 1524.31 Q646.191 1527.85 646.191 1534.98 Q646.191 1542.09 647.996 1545.65 Q649.825 1549.19 653.436 1549.19 Q657.07 1549.19 658.876 1545.65 Q660.705 1542.09 660.705 1534.98 Q660.705 1527.85 658.876 1524.31 Q657.07 1520.74 653.436 1520.74 M653.436 1517.04 Q659.246 1517.04 662.302 1521.65 Q665.381 1526.23 665.381 1534.98 Q665.381 1543.71 662.302 1548.31 Q659.246 1552.9 653.436 1552.9 Q647.626 1552.9 644.547 1548.31 Q641.492 1543.71 641.492 1534.98 Q641.492 1526.23 644.547 1521.65 Q647.626 1517.04 653.436 1517.04 Z" fill="#000000" fill-rule="evenodd" fill-opacity="1" /><path clip-path="url(#clip880)" d="M683.598 1520.74 Q679.987 1520.74 678.158 1524.31 Q676.353 1527.85 676.353 1534.98 Q676.353 1542.09 678.158 1545.65 Q679.987 1549.19 683.598 1549.19 Q687.232 1549.19 689.038 1545.65 Q690.867 1542.09 690.867 1534.98 Q690.867 1527.85 689.038 1524.31 Q687.232 1520.74 683.598 1520.74 M683.598 1517.04 Q689.408 1517.04 692.464 1521.65 Q695.542 1526.23 695.542 1534.98 Q695.542 1543.71 692.464 1548.31 Q689.408 1552.9 683.598 1552.9 Q677.788 1552.9 674.709 1548.31 Q671.654 1543.71 671.654 1534.98 Q671.654 1526.23 674.709 1521.65 Q677.788 1517.04 683.598 1517.04 Z" fill="#000000" fill-rule="evenodd" fill-opacity="1" /><path clip-path="url(#clip880)" d="M731.931 1526.76 L721.353 1537.39 L731.931 1547.97 L729.177 1550.77 L718.552 1540.14 L707.927 1550.77 L705.195 1547.97 L715.751 1537.39 L705.195 1526.76 L707.927 1523.96 L718.552 1534.59 L729.177 1523.96 L731.931 1526.76 Z" fill="#000000" fill-rule="evenodd" fill-opacity="1" /><path clip-path="url(#clip880)" d="M744.292 1548.29 L751.931 1548.29 L751.931 1521.92 L743.621 1523.59 L743.621 1519.33 L751.885 1517.66 L756.561 1517.66 L756.561 1548.29 L764.2 1548.29 L764.2 1552.22 L744.292 1552.22 L744.292 1548.29 Z" fill="#000000" fill-rule="evenodd" fill-opacity="1" /><path clip-path="url(#clip880)" d="M783.644 1520.74 Q780.033 1520.74 778.204 1524.31 Q776.399 1527.85 776.399 1534.98 Q776.399 1542.09 778.204 1545.65 Q780.033 1549.19 783.644 1549.19 Q787.278 1549.19 789.084 1545.65 Q790.912 1542.09 790.912 1534.98 Q790.912 1527.85 789.084 1524.31 Q787.278 1520.74 783.644 1520.74 M783.644 1517.04 Q789.454 1517.04 792.51 1521.65 Q795.588 1526.23 795.588 1534.98 Q795.588 1543.71 792.51 1548.31 Q789.454 1552.9 783.644 1552.9 Q777.834 1552.9 774.755 1548.31 Q771.699 1543.71 771.699 1534.98 Q771.699 1526.23 774.755 1521.65 Q777.834 1517.04 783.644 1517.04 Z" fill="#000000" fill-rule="evenodd" fill-opacity="1" /><path clip-path="url(#clip880)" d="M808.283 1509.67 Q811.011 1510.26 812.534 1512.1 Q814.076 1513.94 814.076 1516.65 Q814.076 1520.81 811.217 1523.08 Q808.359 1525.36 803.093 1525.36 Q801.325 1525.36 799.444 1525 Q797.582 1524.66 795.588 1523.97 L795.588 1520.3 Q797.168 1521.22 799.049 1521.69 Q800.93 1522.16 802.98 1522.16 Q806.553 1522.16 808.415 1520.75 Q810.296 1519.34 810.296 1516.65 Q810.296 1514.17 808.547 1512.78 Q806.816 1511.37 803.713 1511.37 L800.441 1511.37 L800.441 1508.24 L803.864 1508.24 Q806.666 1508.24 808.152 1507.13 Q809.638 1506.01 809.638 1503.9 Q809.638 1501.74 808.095 1500.59 Q806.572 1499.42 803.713 1499.42 Q802.152 1499.42 800.365 1499.76 Q798.579 1500.1 796.435 1500.82 L796.435 1497.43 Q798.597 1496.83 800.478 1496.53 Q802.378 1496.23 804.052 1496.23 Q808.378 1496.23 810.898 1498.2 Q813.418 1500.16 813.418 1503.51 Q813.418 1505.84 812.083 1507.45 Q810.747 1509.05 808.283 1509.67 Z" fill="#000000" fill-rule="evenodd" fill-opacity="1" /><path clip-path="url(#clip880)" d="M1062.3 1548.29 L1069.93 1548.29 L1069.93 1521.92 L1061.62 1523.59 L1061.62 1519.33 L1069.89 1517.66 L1074.56 1517.66 L1074.56 1548.29 L1082.2 1548.29 L1082.2 1552.22 L1062.3 1552.22 L1062.3 1548.29 Z" fill="#000000" fill-rule="evenodd" fill-opacity="1" /><path clip-path="url(#clip880)" d="M1091.65 1546.35 L1096.53 1546.35 L1096.53 1552.22 L1091.65 1552.22 L1091.65 1546.35 Z" fill="#000000" fill-rule="evenodd" fill-opacity="1" /><path clip-path="url(#clip880)" d="M1116.72 1520.74 Q1113.11 1520.74 1111.28 1524.31 Q1109.47 1527.85 1109.47 1534.98 Q1109.47 1542.09 1111.28 1545.65 Q1113.11 1549.19 1116.72 1549.19 Q1120.35 1549.19 1122.16 1545.65 Q1123.98 1542.09 1123.98 1534.98 Q1123.98 1527.85 1122.16 1524.31 Q1120.35 1520.74 1116.72 1520.74 M1116.72 1517.04 Q1122.53 1517.04 1125.58 1521.65 Q1128.66 1526.23 1128.66 1534.98 Q1128.66 1543.71 1125.58 1548.31 Q1122.53 1552.9 1116.72 1552.9 Q1110.91 1552.9 1107.83 1548.31 Q1104.77 1543.71 1104.77 1534.98 Q1104.77 1526.23 1107.83 1521.65 Q1110.91 1517.04 1116.72 1517.04 Z" fill="#000000" fill-rule="evenodd" fill-opacity="1" /><path clip-path="url(#clip880)" d="M1146.88 1520.74 Q1143.27 1520.74 1141.44 1524.31 Q1139.63 1527.85 1139.63 1534.98 Q1139.63 1542.09 1141.44 1545.65 Q1143.27 1549.19 1146.88 1549.19 Q1150.51 1549.19 1152.32 1545.65 Q1154.15 1542.09 1154.15 1534.98 Q1154.15 1527.85 1152.32 1524.31 Q1150.51 1520.74 1146.88 1520.74 M1146.88 1517.04 Q1152.69 1517.04 1155.74 1521.65 Q1158.82 1526.23 1158.82 1534.98 Q1158.82 1543.71 1155.74 1548.31 Q1152.69 1552.9 1146.88 1552.9 Q1141.07 1552.9 1137.99 1548.31 Q1134.93 1543.71 1134.93 1534.98 Q1134.93 1526.23 1137.99 1521.65 Q1141.07 1517.04 1146.88 1517.04 Z" fill="#000000" fill-rule="evenodd" fill-opacity="1" /><path clip-path="url(#clip880)" d="M1195.21 1526.76 L1184.63 1537.39 L1195.21 1547.97 L1192.46 1550.77 L1181.83 1540.14 L1171.21 1550.77 L1168.48 1547.97 L1179.03 1537.39 L1168.48 1526.76 L1171.21 1523.96 L1181.83 1534.59 L1192.46 1523.96 L1195.21 1526.76 Z" fill="#000000" fill-rule="evenodd" fill-opacity="1" /><path clip-path="url(#clip880)" d="M1207.57 1548.29 L1215.21 1548.29 L1215.21 1521.92 L1206.9 1523.59 L1206.9 1519.33 L1215.16 1517.66 L1219.84 1517.66 L1219.84 1548.29 L1227.48 1548.29 L1227.48 1552.22 L1207.57 1552.22 L1207.57 1548.29 Z" fill="#000000" fill-rule="evenodd" fill-opacity="1" /><path clip-path="url(#clip880)" d="M1246.92 1520.74 Q1243.31 1520.74 1241.48 1524.31 Q1239.68 1527.85 1239.68 1534.98 Q1239.68 1542.09 1241.48 1545.65 Q1243.31 1549.19 1246.92 1549.19 Q1250.56 1549.19 1252.36 1545.65 Q1254.19 1542.09 1254.19 1534.98 Q1254.19 1527.85 1252.36 1524.31 Q1250.56 1520.74 1246.92 1520.74 M1246.92 1517.04 Q1252.73 1517.04 1255.79 1521.65 Q1258.87 1526.23 1258.87 1534.98 Q1258.87 1543.71 1255.79 1548.31 Q1252.73 1552.9 1246.92 1552.9 Q1241.11 1552.9 1238.03 1548.31 Q1234.98 1543.71 1234.98 1534.98 Q1234.98 1526.23 1238.03 1521.65 Q1241.11 1517.04 1246.92 1517.04 Z" fill="#000000" fill-rule="evenodd" fill-opacity="1" /><path clip-path="url(#clip880)" d="M1271.54 1500.04 L1261.95 1515.03 L1271.54 1515.03 L1271.54 1500.04 M1270.55 1496.73 L1275.33 1496.73 L1275.33 1515.03 L1279.33 1515.03 L1279.33 1518.19 L1275.33 1518.19 L1275.33 1524.81 L1271.54 1524.81 L1271.54 1518.19 L1258.87 1518.19 L1258.87 1514.53 L1270.55 1496.73 Z" fill="#000000" fill-rule="evenodd" fill-opacity="1" /><path clip-path="url(#clip880)" d="M1527.34 1548.29 L1534.98 1548.29 L1534.98 1521.92 L1526.67 1523.59 L1526.67 1519.33 L1534.93 1517.66 L1539.61 1517.66 L1539.61 1548.29 L1547.25 1548.29 L1547.25 1552.22 L1527.34 1552.22 L1527.34 1548.29 Z" fill="#000000" fill-rule="evenodd" fill-opacity="1" /><path clip-path="url(#clip880)" d="M1556.69 1546.35 L1561.57 1546.35 L1561.57 1552.22 L1556.69 1552.22 L1556.69 1546.35 Z" fill="#000000" fill-rule="evenodd" fill-opacity="1" /><path clip-path="url(#clip880)" d="M1571.81 1517.66 L1590.16 1517.66 L1590.16 1521.6 L1576.09 1521.6 L1576.09 1530.07 Q1577.11 1529.72 1578.12 1529.56 Q1579.14 1529.38 1580.16 1529.38 Q1585.95 1529.38 1589.33 1532.55 Q1592.71 1535.72 1592.71 1541.14 Q1592.71 1546.72 1589.24 1549.82 Q1585.76 1552.9 1579.44 1552.9 Q1577.27 1552.9 1575 1552.53 Q1572.75 1552.16 1570.35 1551.41 L1570.35 1546.72 Q1572.43 1547.85 1574.65 1548.41 Q1576.87 1548.96 1579.35 1548.96 Q1583.36 1548.96 1585.69 1546.85 Q1588.03 1544.75 1588.03 1541.14 Q1588.03 1537.53 1585.69 1535.42 Q1583.36 1533.31 1579.35 1533.31 Q1577.48 1533.31 1575.6 1533.73 Q1573.75 1534.15 1571.81 1535.03 L1571.81 1517.66 Z" fill="#000000" fill-rule="evenodd" fill-opacity="1" /><path clip-path="url(#clip880)" d="M1611.92 1520.74 Q1608.31 1520.74 1606.48 1524.31 Q1604.68 1527.85 1604.68 1534.98 Q1604.68 1542.09 1606.48 1545.65 Q1608.31 1549.19 1611.92 1549.19 Q1615.56 1549.19 1617.36 1545.65 Q1619.19 1542.09 1619.19 1534.98 Q1619.19 1527.85 1617.36 1524.31 Q1615.56 1520.74 1611.92 1520.74 M1611.92 1517.04 Q1617.73 1517.04 1620.79 1521.65 Q1623.87 1526.23 1623.87 1534.98 Q1623.87 1543.71 1620.79 1548.31 Q1617.73 1552.9 1611.92 1552.9 Q1606.11 1552.9 1603.03 1548.31 Q1599.98 1543.71 1599.98 1534.98 Q1599.98 1526.23 1603.03 1521.65 Q1606.11 1517.04 1611.92 1517.04 Z" fill="#000000" fill-rule="evenodd" fill-opacity="1" /><path clip-path="url(#clip880)" d="M1660.25 1526.76 L1649.68 1537.39 L1660.25 1547.97 L1657.5 1550.77 L1646.87 1540.14 L1636.25 1550.77 L1633.52 1547.97 L1644.07 1537.39 L1633.52 1526.76 L1636.25 1523.96 L1646.87 1534.59 L1657.5 1523.96 L1660.25 1526.76 Z" fill="#000000" fill-rule="evenodd" fill-opacity="1" /><path clip-path="url(#clip880)" d="M1672.62 1548.29 L1680.25 1548.29 L1680.25 1521.92 L1671.94 1523.59 L1671.94 1519.33 L1680.21 1517.66 L1684.88 1517.66 L1684.88 1548.29 L1692.52 1548.29 L1692.52 1552.22 L1672.62 1552.22 L1672.62 1548.29 Z" fill="#000000" fill-rule="evenodd" fill-opacity="1" /><path clip-path="url(#clip880)" d="M1711.97 1520.74 Q1708.36 1520.74 1706.53 1524.31 Q1704.72 1527.85 1704.72 1534.98 Q1704.72 1542.09 1706.53 1545.65 Q1708.36 1549.19 1711.97 1549.19 Q1715.6 1549.19 1717.41 1545.65 Q1719.24 1542.09 1719.24 1534.98 Q1719.24 1527.85 1717.41 1524.31 Q1715.6 1520.74 1711.97 1520.74 M1711.97 1517.04 Q1717.78 1517.04 1720.83 1521.65 Q1723.91 1526.23 1723.91 1534.98 Q1723.91 1543.71 1720.83 1548.31 Q1717.78 1552.9 1711.97 1552.9 Q1706.16 1552.9 1703.08 1548.31 Q1700.02 1543.71 1700.02 1534.98 Q1700.02 1526.23 1703.08 1521.65 Q1706.16 1517.04 1711.97 1517.04 Z" fill="#000000" fill-rule="evenodd" fill-opacity="1" /><path clip-path="url(#clip880)" d="M1736.59 1500.04 L1727 1515.03 L1736.59 1515.03 L1736.59 1500.04 M1735.59 1496.73 L1740.37 1496.73 L1740.37 1515.03 L1744.37 1515.03 L1744.37 1518.19 L1740.37 1518.19 L1740.37 1524.81 L1736.59 1524.81 L1736.59 1518.19 L1723.91 1518.19 L1723.91 1514.53 L1735.59 1496.73 Z" fill="#000000" fill-rule="evenodd" fill-opacity="1" /><path clip-path="url(#clip880)" d="M1996.47 1548.29 L2012.79 1548.29 L2012.79 1552.22 L1990.84 1552.22 L1990.84 1548.29 Q1993.5 1545.53 1998.09 1540.91 Q2002.69 1536.25 2003.87 1534.91 Q2006.12 1532.39 2007 1530.65 Q2007.9 1528.89 2007.9 1527.2 Q2007.9 1524.45 2005.96 1522.71 Q2004.04 1520.97 2000.93 1520.97 Q1998.74 1520.97 1996.28 1521.74 Q1993.85 1522.5 1991.07 1524.05 L1991.07 1519.33 Q1993.9 1518.2 1996.35 1517.62 Q1998.8 1517.04 2000.84 1517.04 Q2006.21 1517.04 2009.41 1519.72 Q2012.6 1522.41 2012.6 1526.9 Q2012.6 1529.03 2011.79 1530.95 Q2011 1532.85 2008.9 1535.44 Q2008.32 1536.11 2005.22 1539.33 Q2002.11 1542.53 1996.47 1548.29 Z" fill="#000000" fill-rule="evenodd" fill-opacity="1" /><path clip-path="url(#clip880)" d="M2022.6 1546.35 L2027.48 1546.35 L2027.48 1552.22 L2022.6 1552.22 L2022.6 1546.35 Z" fill="#000000" fill-rule="evenodd" fill-opacity="1" /><path clip-path="url(#clip880)" d="M2047.67 1520.74 Q2044.06 1520.74 2042.23 1524.31 Q2040.42 1527.85 2040.42 1534.98 Q2040.42 1542.09 2042.23 1545.65 Q2044.06 1549.19 2047.67 1549.19 Q2051.3 1549.19 2053.11 1545.65 Q2054.94 1542.09 2054.94 1534.98 Q2054.94 1527.85 2053.11 1524.31 Q2051.3 1520.74 2047.67 1520.74 M2047.67 1517.04 Q2053.48 1517.04 2056.54 1521.65 Q2059.61 1526.23 2059.61 1534.98 Q2059.61 1543.71 2056.54 1548.31 Q2053.48 1552.9 2047.67 1552.9 Q2041.86 1552.9 2038.78 1548.31 Q2035.73 1543.71 2035.73 1534.98 Q2035.73 1526.23 2038.78 1521.65 Q2041.86 1517.04 2047.67 1517.04 Z" fill="#000000" fill-rule="evenodd" fill-opacity="1" /><path clip-path="url(#clip880)" d="M2077.83 1520.74 Q2074.22 1520.74 2072.39 1524.31 Q2070.59 1527.85 2070.59 1534.98 Q2070.59 1542.09 2072.39 1545.65 Q2074.22 1549.19 2077.83 1549.19 Q2081.47 1549.19 2083.27 1545.65 Q2085.1 1542.09 2085.1 1534.98 Q2085.1 1527.85 2083.27 1524.31 Q2081.47 1520.74 2077.83 1520.74 M2077.83 1517.04 Q2083.64 1517.04 2086.7 1521.65 Q2089.78 1526.23 2089.78 1534.98 Q2089.78 1543.71 2086.7 1548.31 Q2083.64 1552.9 2077.83 1552.9 Q2072.02 1552.9 2068.94 1548.31 Q2065.89 1543.71 2065.89 1534.98 Q2065.89 1526.23 2068.94 1521.65 Q2072.02 1517.04 2077.83 1517.04 Z" fill="#000000" fill-rule="evenodd" fill-opacity="1" /><path clip-path="url(#clip880)" d="M2126.16 1526.76 L2115.59 1537.39 L2126.16 1547.97 L2123.41 1550.77 L2112.79 1540.14 L2102.16 1550.77 L2099.43 1547.97 L2109.98 1537.39 L2099.43 1526.76 L2102.16 1523.96 L2112.79 1534.59 L2123.41 1523.96 L2126.16 1526.76 Z" fill="#000000" fill-rule="evenodd" fill-opacity="1" /><path clip-path="url(#clip880)" d="M2138.53 1548.29 L2146.16 1548.29 L2146.16 1521.92 L2137.85 1523.59 L2137.85 1519.33 L2146.12 1517.66 L2150.79 1517.66 L2150.79 1548.29 L2158.43 1548.29 L2158.43 1552.22 L2138.53 1552.22 L2138.53 1548.29 Z" fill="#000000" fill-rule="evenodd" fill-opacity="1" /><path clip-path="url(#clip880)" d="M2177.88 1520.74 Q2174.27 1520.74 2172.44 1524.31 Q2170.63 1527.85 2170.63 1534.98 Q2170.63 1542.09 2172.44 1545.65 Q2174.27 1549.19 2177.88 1549.19 Q2181.51 1549.19 2183.32 1545.65 Q2185.15 1542.09 2185.15 1534.98 Q2185.15 1527.85 2183.32 1524.31 Q2181.51 1520.74 2177.88 1520.74 M2177.88 1517.04 Q2183.69 1517.04 2186.74 1521.65 Q2189.82 1526.23 2189.82 1534.98 Q2189.82 1543.71 2186.74 1548.31 Q2183.69 1552.9 2177.88 1552.9 Q2172.07 1552.9 2168.99 1548.31 Q2165.93 1543.71 2165.93 1534.98 Q2165.93 1526.23 2168.99 1521.65 Q2172.07 1517.04 2177.88 1517.04 Z" fill="#000000" fill-rule="evenodd" fill-opacity="1" /><path clip-path="url(#clip880)" d="M2202.5 1500.04 L2192.91 1515.03 L2202.5 1515.03 L2202.5 1500.04 M2201.5 1496.73 L2206.28 1496.73 L2206.28 1515.03 L2210.28 1515.03 L2210.28 1518.19 L2206.28 1518.19 L2206.28 1524.81 L2202.5 1524.81 L2202.5 1518.19 L2189.82 1518.19 L2189.82 1514.53 L2201.5 1496.73 Z" fill="#000000" fill-rule="evenodd" fill-opacity="1" /><polyline clip-path="url(#clip882)" style="stroke:#000000; stroke-linecap:butt; stroke-linejoin:round; stroke-width:2; stroke-opacity:0.1; fill:none" points="
  178.867,1283.91 2352.76,1283.91 
  "/>
<polyline clip-path="url(#clip882)" style="stroke:#000000; stroke-linecap:butt; stroke-linejoin:round; stroke-width:2; stroke-opacity:0.1; fill:none" points="
  178.867,903.396 2352.76,903.396 
  "/>
<polyline clip-path="url(#clip882)" style="stroke:#000000; stroke-linecap:butt; stroke-linejoin:round; stroke-width:2; stroke-opacity:0.1; fill:none" points="
  178.867,522.884 2352.76,522.884 
  "/>
<polyline clip-path="url(#clip882)" style="stroke:#000000; stroke-linecap:butt; stroke-linejoin:round; stroke-width:2; stroke-opacity:0.1; fill:none" points="
  178.867,142.372 2352.76,142.372 
  "/>
<polyline clip-path="url(#clip880)" style="stroke:#000000; stroke-linecap:butt; stroke-linejoin:round; stroke-width:4; stroke-opacity:1; fill:none" points="
  178.867,1474.16 178.867,47.2441 
  "/>
<polyline clip-path="url(#clip880)" style="stroke:#000000; stroke-linecap:butt; stroke-linejoin:round; stroke-width:4; stroke-opacity:1; fill:none" points="
  178.867,1283.91 197.764,1283.91 
  "/>
<polyline clip-path="url(#clip880)" style="stroke:#000000; stroke-linecap:butt; stroke-linejoin:round; stroke-width:4; stroke-opacity:1; fill:none" points="
  178.867,903.396 197.764,903.396 
  "/>
<polyline clip-path="url(#clip880)" style="stroke:#000000; stroke-linecap:butt; stroke-linejoin:round; stroke-width:4; stroke-opacity:1; fill:none" points="
  178.867,522.884 197.764,522.884 
  "/>
<polyline clip-path="url(#clip880)" style="stroke:#000000; stroke-linecap:butt; stroke-linejoin:round; stroke-width:4; stroke-opacity:1; fill:none" points="
  178.867,142.372 197.764,142.372 
  "/>
<path clip-path="url(#clip880)" d="M50.9921 1284.36 L80.6679 1284.36 L80.6679 1288.3 L50.9921 1288.3 L50.9921 1284.36 Z" fill="#000000" fill-rule="evenodd" fill-opacity="1" /><path clip-path="url(#clip880)" d="M101.339 1282.05 Q98.1909 1282.05 96.3391 1284.2 Q94.5104 1286.35 94.5104 1290.1 Q94.5104 1293.83 96.3391 1296 Q98.1909 1298.16 101.339 1298.16 Q104.487 1298.16 106.316 1296 Q108.168 1293.83 108.168 1290.1 Q108.168 1286.35 106.316 1284.2 Q104.487 1282.05 101.339 1282.05 M110.621 1267.39 L110.621 1271.65 Q108.862 1270.82 107.057 1270.38 Q105.274 1269.94 103.515 1269.94 Q98.8854 1269.94 96.4317 1273.06 Q94.0012 1276.19 93.6539 1282.51 Q95.0197 1280.49 97.0798 1279.43 Q99.14 1278.34 101.617 1278.34 Q106.825 1278.34 109.834 1281.51 Q112.867 1284.66 112.867 1290.1 Q112.867 1295.42 109.719 1298.64 Q106.571 1301.86 101.339 1301.86 Q95.3437 1301.86 92.1725 1297.28 Q89.0012 1292.67 89.0012 1283.94 Q89.0012 1275.75 92.89 1270.89 Q96.7789 1266 103.33 1266 Q105.089 1266 106.871 1266.35 Q108.677 1266.7 110.621 1267.39 Z" fill="#000000" fill-rule="evenodd" fill-opacity="1" /><path clip-path="url(#clip880)" d="M130.922 1269.71 Q127.311 1269.71 125.482 1273.27 Q123.677 1276.81 123.677 1283.94 Q123.677 1291.05 125.482 1294.61 Q127.311 1298.16 130.922 1298.16 Q134.556 1298.16 136.362 1294.61 Q138.191 1291.05 138.191 1283.94 Q138.191 1276.81 136.362 1273.27 Q134.556 1269.71 130.922 1269.71 M130.922 1266 Q136.732 1266 139.788 1270.61 Q142.867 1275.19 142.867 1283.94 Q142.867 1292.67 139.788 1297.28 Q136.732 1301.86 130.922 1301.86 Q125.112 1301.86 122.033 1297.28 Q118.978 1292.67 118.978 1283.94 Q118.978 1275.19 122.033 1270.61 Q125.112 1266 130.922 1266 Z" fill="#000000" fill-rule="evenodd" fill-opacity="1" /><path clip-path="url(#clip880)" d="M50.9921 903.848 L80.6679 903.848 L80.6679 907.783 L50.9921 907.783 L50.9921 903.848 Z" fill="#000000" fill-rule="evenodd" fill-opacity="1" /><path clip-path="url(#clip880)" d="M103.608 890.19 L91.8021 908.639 L103.608 908.639 L103.608 890.19 M102.381 886.116 L108.26 886.116 L108.26 908.639 L113.191 908.639 L113.191 912.528 L108.26 912.528 L108.26 920.676 L103.608 920.676 L103.608 912.528 L88.0058 912.528 L88.0058 908.014 L102.381 886.116 Z" fill="#000000" fill-rule="evenodd" fill-opacity="1" /><path clip-path="url(#clip880)" d="M130.922 889.195 Q127.311 889.195 125.482 892.76 Q123.677 896.302 123.677 903.431 Q123.677 910.538 125.482 914.102 Q127.311 917.644 130.922 917.644 Q134.556 917.644 136.362 914.102 Q138.191 910.538 138.191 903.431 Q138.191 896.302 136.362 892.76 Q134.556 889.195 130.922 889.195 M130.922 885.491 Q136.732 885.491 139.788 890.098 Q142.867 894.681 142.867 903.431 Q142.867 912.158 139.788 916.764 Q136.732 921.348 130.922 921.348 Q125.112 921.348 122.033 916.764 Q118.978 912.158 118.978 903.431 Q118.978 894.681 122.033 890.098 Q125.112 885.491 130.922 885.491 Z" fill="#000000" fill-rule="evenodd" fill-opacity="1" /><path clip-path="url(#clip880)" d="M50.9921 523.336 L80.6679 523.336 L80.6679 527.271 L50.9921 527.271 L50.9921 523.336 Z" fill="#000000" fill-rule="evenodd" fill-opacity="1" /><path clip-path="url(#clip880)" d="M94.7882 536.229 L111.108 536.229 L111.108 540.164 L89.1632 540.164 L89.1632 536.229 Q91.8252 533.475 96.4085 528.845 Q101.015 524.192 102.196 522.85 Q104.441 520.326 105.321 518.59 Q106.223 516.831 106.223 515.141 Q106.223 512.387 104.279 510.651 Q102.358 508.914 99.2558 508.914 Q97.0567 508.914 94.603 509.678 Q92.1725 510.442 89.3947 511.993 L89.3947 507.271 Q92.2188 506.137 94.6724 505.558 Q97.1261 504.979 99.1632 504.979 Q104.534 504.979 107.728 507.664 Q110.922 510.35 110.922 514.84 Q110.922 516.97 110.112 518.891 Q109.325 520.789 107.219 523.382 Q106.64 524.053 103.538 527.271 Q100.436 530.465 94.7882 536.229 Z" fill="#000000" fill-rule="evenodd" fill-opacity="1" /><path clip-path="url(#clip880)" d="M130.922 508.683 Q127.311 508.683 125.482 512.248 Q123.677 515.789 123.677 522.919 Q123.677 530.025 125.482 533.59 Q127.311 537.132 130.922 537.132 Q134.556 537.132 136.362 533.59 Q138.191 530.025 138.191 522.919 Q138.191 515.789 136.362 512.248 Q134.556 508.683 130.922 508.683 M130.922 504.979 Q136.732 504.979 139.788 509.586 Q142.867 514.169 142.867 522.919 Q142.867 531.646 139.788 536.252 Q136.732 540.836 130.922 540.836 Q125.112 540.836 122.033 536.252 Q118.978 531.646 118.978 522.919 Q118.978 514.169 122.033 509.586 Q125.112 504.979 130.922 504.979 Z" fill="#000000" fill-rule="evenodd" fill-opacity="1" /><path clip-path="url(#clip880)" d="M130.922 128.171 Q127.311 128.171 125.482 131.736 Q123.677 135.277 123.677 142.407 Q123.677 149.513 125.482 153.078 Q127.311 156.62 130.922 156.62 Q134.556 156.62 136.362 153.078 Q138.191 149.513 138.191 142.407 Q138.191 135.277 136.362 131.736 Q134.556 128.171 130.922 128.171 M130.922 124.467 Q136.732 124.467 139.788 129.074 Q142.867 133.657 142.867 142.407 Q142.867 151.134 139.788 155.74 Q136.732 160.323 130.922 160.323 Q125.112 160.323 122.033 155.74 Q118.978 151.134 118.978 142.407 Q118.978 133.657 122.033 129.074 Q125.112 124.467 130.922 124.467 Z" fill="#000000" fill-rule="evenodd" fill-opacity="1" /><polyline clip-path="url(#clip882)" style="stroke:#009af9; stroke-linecap:butt; stroke-linejoin:round; stroke-width:4; stroke-opacity:1; fill:none" points="
  242.443,1901.66 244.493,1672.08 246.544,1537.27 248.595,1441.05 250.646,1365.84 252.697,1303.79 254.748,1250.71 256.799,1204.1 258.849,1162.34 260.9,1124.33 
  262.951,1089.26 265.002,1056.56 267.053,1025.76 269.104,996.504 271.154,968.512 273.205,941.544 275.256,915.397 277.307,889.9 279.358,864.9 281.409,840.262 
  283.459,815.861 285.51,791.578 287.561,767.301 289.612,742.919 291.663,718.322 293.714,693.393 295.764,668.014 297.815,642.056 299.866,615.378 301.917,587.823 
  303.968,559.218 306.019,529.364 308.069,498.035 310.12,464.976 312.171,429.909 314.222,392.56 316.273,352.726 318.324,310.47 320.375,266.561 322.425,223.34 
  324.476,185.623 326.527,159.388 328.578,146.572 330.629,142.806 332.68,142.374 334.73,142.398 336.781,143.331 338.832,148.194 340.883,160.821 342.934,182.783 
  344.985,211.914 347.035,244.405 349.086,277.239 351.137,308.786 353.188,338.383 355.239,365.879 357.29,391.351 359.34,414.96 361.391,436.892 363.442,457.326 
  365.493,476.424 367.544,494.333 369.595,511.177 371.645,527.067 373.696,542.097 375.747,556.352 377.798,569.902 379.849,582.812 381.9,595.137 383.951,606.927 
  386.001,618.223 388.052,629.066 390.103,639.489 392.154,649.524 394.205,659.197 396.256,668.533 398.306,677.556 400.357,686.286 402.408,694.74 404.459,702.937 
  406.51,710.89 408.561,718.615 410.611,726.125 412.662,733.431 414.713,740.544 416.764,747.474 418.815,754.231 420.866,760.823 422.916,767.259 424.967,773.546 
  427.018,779.691 429.069,785.7 431.12,791.58 433.171,797.336 435.222,802.974 437.272,808.498 439.323,813.914 441.374,819.225 443.425,824.436 445.476,829.551 
  447.527,834.573 449.577,839.507 451.628,844.354 453.679,849.119 455.73,853.804 457.781,858.413 459.832,862.947 461.882,867.41 463.933,871.803 465.984,876.13 
  468.035,880.391 470.086,884.59 472.137,888.728 474.187,892.807 476.238,896.83 478.289,900.796 480.34,904.709 482.391,908.57 484.442,912.381 486.492,916.142 
  488.543,919.855 490.594,923.522 492.645,927.143 494.696,930.721 496.747,934.255 498.798,937.748 500.848,941.2 502.899,944.613 504.95,947.987 507.001,951.323 
  509.052,954.623 511.103,957.887 513.153,961.116 515.204,964.311 517.255,967.472 519.306,970.601 521.357,973.698 523.408,976.764 525.458,979.8 527.509,982.806 
  529.56,985.783 531.611,988.731 533.662,991.652 535.713,994.545 537.763,997.412 539.814,1000.25 541.865,1003.07 543.916,1005.86 545.967,1008.62 548.018,1011.37 
  550.068,1014.08 552.119,1016.78 554.17,1019.45 556.221,1022.1 558.272,1024.73 560.323,1027.34 562.374,1029.92 564.424,1032.49 566.475,1035.03 568.526,1037.56 
  570.577,1040.06 572.628,1042.55 574.679,1045.02 576.729,1047.47 578.78,1049.9 580.831,1052.31 582.882,1054.71 584.933,1057.09 586.984,1059.45 589.034,1061.8 
  591.085,1064.13 593.136,1066.44 595.187,1068.74 597.238,1071.02 599.289,1073.28 601.339,1075.54 603.39,1077.77 605.441,1079.99 607.492,1082.2 609.543,1084.39 
  611.594,1086.57 613.644,1088.74 615.695,1090.89 617.746,1093.03 619.797,1095.16 621.848,1097.27 623.899,1099.37 625.95,1101.46 628,1103.53 630.051,1105.6 
  632.102,1107.65 634.153,1109.69 636.204,1111.71 638.255,1113.73 640.305,1115.73 642.356,1117.73 644.407,1119.71 646.458,1121.68 648.509,1123.64 650.56,1125.59 
  652.61,1127.53 654.661,1129.46 656.712,1131.38 658.763,1133.29 660.814,1135.19 662.865,1137.08 664.915,1138.96 666.966,1140.84 669.017,1142.7 671.068,1144.55 
  673.119,1146.39 675.17,1148.23 677.22,1150.05 679.271,1151.87 681.322,1153.68 683.373,1155.48 685.424,1157.27 687.475,1159.05 689.526,1160.82 691.576,1162.59 
  693.627,1164.35 695.678,1166.1 697.729,1167.84 699.78,1169.57 701.831,1171.3 703.881,1173.02 705.932,1174.73 707.983,1176.44 710.034,1178.13 712.085,1179.82 
  714.136,1181.5 716.186,1183.18 718.237,1184.85 720.288,1186.51 722.339,1188.16 724.39,1189.81 726.441,1191.45 728.491,1193.09 730.542,1194.72 732.593,1196.34 
  734.644,1197.95 736.695,1199.56 738.746,1201.17 740.797,1202.76 742.847,1204.35 744.898,1205.94 746.949,1207.52 749,1209.09 751.051,1210.66 753.102,1212.22 
  755.152,1213.77 757.203,1215.32 759.254,1216.87 761.305,1218.4 763.356,1219.94 765.407,1221.46 767.457,1222.99 769.508,1224.5 771.559,1226.02 773.61,1227.52 
  775.661,1229.02 777.712,1230.52 779.762,1232.01 781.813,1233.5 783.864,1234.98 785.915,1236.45 787.966,1237.93 790.017,1239.39 792.067,1240.86 794.118,1242.31 
  796.169,1243.77 798.22,1245.21 800.271,1246.66 802.322,1248.1 804.373,1249.53 806.423,1250.96 808.474,1252.39 810.525,1253.81 812.576,1255.23 814.627,1256.64 
  816.678,1258.05 818.728,1259.45 820.779,1260.85 822.83,1262.25 824.881,1263.64 826.932,1265.03 828.983,1266.42 831.033,1267.8 833.084,1269.17 835.135,1270.55 
  837.186,1271.91 839.237,1273.28 841.288,1274.64 843.338,1276 845.389,1277.35 847.44,1278.7 849.491,1280.05 851.542,1281.39 853.593,1282.73 855.643,1284.07 
  857.694,1285.4 859.745,1286.73 861.796,1288.06 863.847,1289.38 865.898,1290.7 867.949,1292.02 869.999,1293.33 872.05,1294.64 874.101,1295.95 876.152,1297.25 
  878.203,1298.55 880.254,1299.85 882.304,1301.14 884.355,1302.43 886.406,1303.72 888.457,1305.01 890.508,1306.29 892.559,1307.57 894.609,1308.84 896.66,1310.12 
  898.711,1311.39 900.762,1312.66 902.813,1313.92 904.864,1315.18 906.914,1316.44 908.965,1317.7 911.016,1318.95 913.067,1320.2 915.118,1321.45 917.169,1322.7 
  919.219,1323.94 921.27,1325.18 923.321,1326.42 925.372,1327.66 927.423,1328.89 929.474,1330.12 931.525,1331.35 933.575,1332.57 935.626,1333.8 937.677,1335.02 
  939.728,1336.24 941.779,1337.45 943.83,1338.67 945.88,1339.88 947.931,1341.09 949.982,1342.3 952.033,1343.5 954.084,1344.7 956.135,1345.9 958.185,1347.1 
  960.236,1348.3 962.287,1349.49 964.338,1350.68 966.389,1351.87 968.44,1353.06 970.49,1354.25 972.541,1355.43 974.592,1356.61 976.643,1357.79 978.694,1358.97 
  980.745,1360.15 982.795,1361.32 984.846,1362.49 986.897,1363.66 988.948,1364.83 990.999,1366 993.05,1367.16 995.101,1368.33 997.151,1369.49 999.202,1370.65 
  1001.25,1371.8 1003.3,1372.96 1005.35,1374.11 1007.41,1375.27 1009.46,1376.42 1011.51,1377.57 1013.56,1378.71 1015.61,1379.86 1017.66,1381 1019.71,1382.14 
  1021.76,1383.29 1023.81,1384.43 1025.86,1385.56 1027.91,1386.7 1029.96,1387.83 1032.02,1388.97 1034.07,1390.1 1036.12,1391.23 1038.17,1392.36 1040.22,1393.48 
  1042.27,1394.61 1044.32,1395.73 1046.37,1396.86 1048.42,1397.98 1050.47,1399.1 1052.52,1400.22 1054.57,1401.34 1056.63,1402.45 1058.68,1403.57 1060.73,1404.68 
  1062.78,1405.79 1064.83,1406.9 1066.88,1408.01 1068.93,1409.12 1070.98,1410.23 1073.03,1411.34 1075.08,1412.44 1077.13,1413.55 1079.18,1414.65 1081.24,1415.75 
  1083.29,1416.85 1085.34,1417.95 1087.39,1419.05 1089.44,1420.14 1091.49,1421.24 1093.54,1422.34 1095.59,1423.43 1097.64,1424.52 1099.69,1425.61 1101.74,1426.7 
  1103.79,1427.79 1105.85,1428.88 1107.9,1429.97 1109.95,1431.06 1112,1432.14 1114.05,1433.23 1116.1,1434.31 1118.15,1435.4 1120.2,1436.48 1122.25,1437.56 
  1124.3,1438.64 1126.35,1439.72 1128.41,1440.8 1130.46,1441.88 1132.51,1442.95 1134.56,1444.03 1136.61,1445.11 1138.66,1446.18 1140.71,1447.25 1142.76,1448.33 
  1144.81,1449.4 1146.86,1450.47 1148.91,1451.54 1150.96,1452.61 1153.02,1453.68 1155.07,1454.75 1157.12,1455.82 1159.17,1456.89 1161.22,1457.95 1163.27,1459.02 
  1165.32,1460.09 1167.37,1461.15 1169.42,1462.22 1171.47,1463.28 1173.52,1464.34 1175.57,1465.41 1177.63,1466.47 1179.68,1467.53 1181.73,1468.59 1183.78,1469.65 
  1185.83,1470.71 1187.88,1471.77 1189.93,1472.83 1191.98,1473.89 1194.03,1474.95 1196.08,1476.01 1198.13,1477.06 1200.18,1478.12 1202.24,1479.18 1204.29,1480.23 
  1206.34,1481.29 1208.39,1482.34 1210.44,1483.4 1212.49,1484.45 1214.54,1485.51 1216.59,1486.56 1218.64,1487.61 1220.69,1488.67 1222.74,1489.72 1224.79,1490.77 
  1226.85,1491.82 1228.9,1492.88 1230.95,1493.93 1233,1494.98 1235.05,1496.03 1237.1,1497.08 1239.15,1498.13 1241.2,1499.18 1243.25,1500.23 1245.3,1501.28 
  1247.35,1502.33 1249.4,1503.38 1251.46,1504.43 1253.51,1505.48 1255.56,1506.53 1257.61,1507.58 1259.66,1508.63 1261.71,1509.68 1263.76,1510.73 1265.81,1511.78 
  1267.86,1512.83 1269.91,1513.88 1271.96,1514.93 1274.01,1515.97 1276.07,1517.02 1278.12,1518.07 1280.17,1519.12 1282.22,1520.17 1284.27,1521.22 1286.32,1522.27 
  1288.37,1523.32 1290.42,1524.36 1292.47,1525.41 1294.52,1526.46 1296.57,1527.51 1298.62,1528.56 1300.68,1529.61 1302.73,1530.66 1304.78,1531.71 1306.83,1532.76 
  1308.88,1533.81 1310.93,1534.86 1312.98,1535.91 1315.03,1536.96 1317.08,1538.01 1319.13,1539.06 1321.18,1540.11 1323.23,1541.16 1325.29,1542.21 1327.34,1543.27 
  1329.39,1544.32 1331.44,1545.37 1333.49,1546.42 1335.54,1547.48 1337.59,1548.53 1339.64,1549.58 1341.69,1550.64 1343.74,1551.69 1345.79,1552.74 1347.84,1553.8 
  1349.9,1554.85 1351.95,1555.91 1354,1556.96 1356.05,1558.02 1358.1,1559.08 1360.15,1560.13 1362.2,1561.19 1364.25,1562.25 1366.3,1563.31 1368.35,1564.37 
  1370.4,1565.43 1372.45,1566.49 1374.51,1567.55 1376.56,1568.61 1378.61,1569.67 1380.66,1570.73 1382.71,1571.79 1384.76,1572.86 1386.81,1573.92 1388.86,1574.98 
  1390.91,1576.05 1392.96,1577.11 1395.01,1578.18 1397.06,1579.25 1399.12,1580.31 1401.17,1581.38 1403.22,1582.45 1405.27,1583.52 1407.32,1584.59 1409.37,1585.66 
  1411.42,1586.73 1413.47,1587.8 1415.52,1588.88 1417.57,1589.95 1419.62,1591.02 1421.68,1592.1 1423.73,1593.17 1425.78,1594.25 1427.83,1595.33 1429.88,1596.41 
  1431.93,1597.49 1433.98,1598.56 1436.03,1599.65 1438.08,1600.73 1440.13,1601.81 1442.18,1602.89 1444.23,1603.98 1446.29,1605.06 1448.34,1606.15 1450.39,1607.24 
  1452.44,1608.32 1454.49,1609.41 1456.54,1610.5 1458.59,1611.59 1460.64,1612.68 1462.69,1613.78 1464.74,1614.87 1466.79,1615.97 1468.84,1617.06 1470.9,1618.16 
  1472.95,1619.26 1475,1620.36 1477.05,1621.46 1479.1,1622.56 1481.15,1623.66 1483.2,1624.77 1485.25,1625.87 1487.3,1626.98 1489.35,1628.08 1491.4,1629.19 
  1493.45,1630.3 1495.51,1631.41 1497.56,1632.53 1499.61,1633.64 1501.66,1634.75 1503.71,1635.87 1505.76,1636.99 1507.81,1638.11 1509.86,1639.23 1511.91,1640.35 
  1513.96,1641.47 1516.01,1642.59 1518.06,1643.72 1520.12,1644.85 1522.17,1645.97 1524.22,1647.1 1526.27,1648.24 1528.32,1649.37 1530.37,1650.5 1532.42,1651.64 
  1534.47,1652.77 1536.52,1653.91 1538.57,1655.05 1540.62,1656.2 1542.67,1657.34 1544.73,1658.48 1546.78,1659.63 1548.83,1660.78 1550.88,1661.93 1552.93,1663.08 
  1554.98,1664.23 1557.03,1665.39 1559.08,1666.54 1561.13,1667.7 1563.18,1668.86 1565.23,1670.02 1567.28,1671.19 1569.34,1672.35 1571.39,1673.52 1573.44,1674.69 
  1575.49,1675.86 1577.54,1677.03 1579.59,1678.21 1581.64,1679.38 1583.69,1680.56 1585.74,1681.74 1587.79,1682.92 1589.84,1684.11 1591.89,1685.29 1593.95,1686.48 
  1596,1687.67 1598.05,1688.86 1600.1,1690.06 1602.15,1691.25 1604.2,1692.45 1606.25,1693.65 1608.3,1694.86 1610.35,1696.06 1612.4,1697.27 1614.45,1698.48 
  1616.5,1699.69 1618.56,1700.9 1620.61,1702.12 1622.66,1703.34 1624.71,1704.56 1626.76,1705.78 1628.81,1707 1630.86,1708.23 1632.91,1709.46 1634.96,1710.69 
  1637.01,1711.93 1639.06,1713.17 1641.11,1714.41 1643.17,1715.65 1645.22,1716.89 1647.27,1718.14 1649.32,1719.39 1651.37,1720.64 1653.42,1721.9 1655.47,1723.15 
  1657.52,1724.42 1659.57,1725.68 1661.62,1726.94 1663.67,1728.21 1665.72,1729.48 1667.78,1730.76 1669.83,1732.03 1671.88,1733.31 1673.93,1734.6 1675.98,1735.88 
  1678.03,1737.17 1680.08,1738.46 1682.13,1739.76 1684.18,1741.05 1686.23,1742.35 1688.28,1743.66 1690.33,1744.96 1692.39,1746.27 1694.44,1747.58 1696.49,1748.9 
  1698.54,1750.22 1700.59,1751.54 1702.64,1752.87 1704.69,1754.2 1706.74,1755.53 1708.79,1756.86 1710.84,1758.2 1712.89,1759.54 1714.94,1760.89 1717,1762.24 
  1719.05,1763.59 1721.1,1764.95 1723.15,1766.3 1725.2,1767.67 1727.25,1769.03 1729.3,1770.4 1731.35,1771.78 1733.4,1773.16 1735.45,1774.54 1737.5,1775.92 
  1739.56,1777.31 1741.61,1778.7 1743.66,1780.1 1745.71,1781.5 1747.76,1782.91 1749.81,1784.32 1751.86,1785.73 1753.91,1787.14 1755.96,1788.57 1758.01,1789.99 
  1760.06,1791.42 1762.11,1792.85 1764.17,1794.29 1766.22,1795.73 1768.27,1797.18 1770.32,1798.63 1772.37,1800.09 1774.42,1801.54 1776.47,1803.01 1778.52,1804.48 
  1780.57,1805.95 1782.62,1807.43 1784.67,1808.91 1786.72,1810.4 1788.78,1811.89 1790.83,1813.39 1792.88,1814.89 1794.93,1816.4 1796.98,1817.91 1799.03,1819.42 
  1801.08,1820.95 1803.13,1822.47 1805.18,1824.01 1807.23,1825.54 1809.28,1827.09 1811.33,1828.63 1813.39,1830.19 1815.44,1831.74 1817.49,1833.31 1819.54,1834.88 
  1821.59,1836.45 1823.64,1838.03 1825.69,1839.62 1827.74,1841.21 1829.79,1842.81 1831.84,1844.42 1833.89,1846.03 1835.94,1847.64 1838,1849.26 1840.05,1850.89 
  1842.1,1852.53 1844.15,1854.17 1846.2,1855.81 1848.25,1857.47 1850.3,1859.12 1852.35,1860.79 1854.4,1862.46 1856.45,1864.14 1858.5,1865.83 1860.55,1867.52 
  1862.61,1869.22 1864.66,1870.93 1866.71,1872.64 1868.76,1874.36 1870.81,1876.09 1872.86,1877.82 1874.91,1879.57 1876.96,1881.32 1879.01,1883.07 1881.06,1884.84 
  1883.11,1886.61 1885.16,1888.39 1887.22,1890.18 1889.27,1891.97 1891.32,1893.78 1893.37,1895.59 1895.42,1897.41 1897.47,1899.24 1899.52,1901.07 1901.57,1902.92 
  1903.62,1904.77 1905.67,1906.63 1907.72,1908.5 1909.77,1910.38 1911.83,1912.27 1913.88,1914.17 1915.93,1916.08 1917.98,1917.99 1920.03,1919.92 1922.08,1921.85 
  1924.13,1923.8 1926.18,1925.75 1928.23,1927.71 1930.28,1929.69 1932.33,1931.67 1934.38,1933.66 1936.44,1935.67 1938.49,1937.68 1940.54,1939.71 1942.59,1941.74 
  1944.64,1943.79 1946.69,1945.85 1948.74,1947.92 1950.79,1950 1952.84,1952.09 1954.89,1954.19 1956.94,1956.31 1958.99,1958.43 1961.05,1960.57 1963.1,1962.72 
  1965.15,1964.89 1967.2,1967.06 1969.25,1969.25 1971.3,1971.45 1973.35,1973.66 1975.4,1975.89 1977.45,1978.13 1979.5,1980.38 1981.55,1982.65 1983.6,1984.93 
  1985.66,1987.23 1987.71,1989.54 1989.76,1991.86 1991.81,1994.2 1993.86,1996.56 1995.91,1998.93 1997.96,2001.31 2000.01,2003.71 2002.06,2006.13 2004.11,2008.56 
  2006.16,2011.01 2008.21,2013.47 2010.27,2015.95 2012.32,2018.45 2014.37,2020.97 2016.42,2023.5 2018.47,2026.05 2020.52,2028.62 2022.57,2031.21 2024.62,2033.81 
  2026.67,2036.44 2028.72,2039.08 2030.77,2041.75 2032.83,2044.43 2034.88,2047.13 2036.93,2049.86 2038.98,2052.6 2041.03,2055.37 2043.08,2058.16 2045.13,2060.97 
  2047.18,2063.8 2049.23,2066.66 2051.28,2069.54 2053.33,2072.44 2055.38,2075.37 2057.44,2078.32 2059.49,2081.29 2061.54,2084.29 2063.59,2087.32 2065.64,2090.37 
  2067.69,2093.45 2069.74,2096.56 2071.79,2099.69 2073.84,2102.86 2075.89,2106.05 2077.94,2109.27 2079.99,2112.52 2082.05,2115.8 2084.1,2119.12 2086.15,2122.46 
  2088.2,2125.84 2090.25,2129.25 2092.3,2132.69 2094.35,2136.17 2096.4,2139.69 2098.45,2143.24 2100.5,2146.82 2102.55,2150.45 2104.6,2154.11 2106.66,2157.81 
  2108.71,2161.56 2110.76,2165.34 2112.81,2169.17 2114.86,2173.04 2116.91,2176.95 2118.96,2180.91 2121.01,2184.91 2123.06,2188.96 2125.11,2193.06 2127.16,2197.21 
  2129.21,2201.42 2131.27,2205.67 2133.32,2209.98 2135.37,2214.34 2137.42,2218.76 2139.47,2223.24 2141.52,2227.78 2143.57,2232.38 2145.62,2237.04 2147.67,2241.76 
  2149.72,2246.56 2151.77,2251.42 2153.82,2256.36 2155.88,2261.36 2157.93,2266.45 2159.98,2271.61 2162.03,2276.85 2164.08,2282.17 2166.13,2287.58 2168.18,2293.07 
  2170.23,2298.66 2172.28,2304.34 2174.33,2310.12 2176.38,2316 2178.43,2321.99 2180.49,2328.09 2182.54,2334.29 2184.59,2340.62 2186.64,2347.06 2188.69,2353.64 
  2190.74,2360.34 2192.79,2367.18 2194.84,2374.17 2196.89,2381.3 2198.94,2388.59 2200.99,2396.04 2203.04,2403.67 2205.1,2411.47 2207.15,2419.45 2209.2,2427.64 
  2211.25,2436.03 2213.3,2444.63 2215.35,2453.47 2217.4,2462.54 2219.45,2471.87 2221.5,2481.47 2223.55,2491.36 2225.6,2501.55 2227.65,2512.06 2229.71,2522.91 
  2231.76,2534.13 2233.81,2545.75 2235.86,2557.78 2237.91,2570.27 2239.96,2583.25 2242.01,2596.75 2244.06,2610.83 2246.11,2625.54 2248.16,2640.92 2250.21,2657.06 
  2252.26,2674.02 2254.32,2691.9 2256.37,2710.8 2258.42,2730.85 2260.47,2752.19 2262.52,2775 2264.57,2799.5 2266.62,2825.96 2268.67,2854.73 2270.72,2886.23 
  2272.77,2921.06 2274.82,2959.99 2276.87,3004.13 2278.93,3055.08 2280.98,3115.35 2283.03,3189.1 2285.08,3284.18 2287.13,3418.19 2289.18,3647.29 2291.23,13852 
  
  "/>
<polyline clip-path="url(#clip882)" style="stroke:#e26f46; stroke-linecap:butt; stroke-linejoin:round; stroke-width:4; stroke-opacity:1; fill:none" points="
  242.443,1047.68 244.493,932.927 246.544,865.582 248.595,817.564 250.646,780.073 252.697,749.188 254.748,722.817 256.799,699.71 258.849,679.058 260.9,660.309 
  262.951,643.068 265.002,627.042 267.053,612.005 269.104,597.782 271.154,584.233 273.205,571.241 275.256,558.71 277.307,546.558 279.358,534.715 281.409,523.119 
  283.459,511.713 285.51,500.448 287.561,489.277 289.612,478.155 291.663,467.041 293.714,455.892 295.764,444.667 297.815,433.326 299.866,421.823 301.917,410.115 
  303.968,398.153 306.019,385.885 308.069,373.253 310.12,360.195 312.171,346.641 314.222,332.51 316.273,317.713 318.324,302.149 320.375,285.702 322.425,268.249 
  324.476,249.657 326.527,229.805 328.578,208.618 330.629,186.151 332.68,162.765 334.73,139.457 336.781,118.363 338.832,103.019 340.883,97.2809 342.934,102.568 
  344.985,116.52 347.035,135.133 349.086,155.223 351.137,175.008 353.188,193.704 355.239,211.053 357.29,227.043 359.34,241.759 361.391,255.325 363.442,267.862 
  365.493,279.488 367.544,290.305 369.595,300.405 371.645,309.866 373.696,318.757 375.747,327.136 377.798,335.054 379.849,342.556 381.9,349.681 383.951,356.462 
  386.001,362.93 388.052,369.11 390.103,375.027 392.154,380.699 394.205,386.147 396.256,391.387 398.306,396.434 400.357,401.3 402.408,405.999 404.459,410.54 
  406.51,414.935 408.561,419.192 410.611,423.32 412.662,427.325 414.713,431.216 416.764,434.998 418.815,438.678 420.866,442.26 422.916,445.751 424.967,449.154 
  427.018,452.474 429.069,455.715 431.12,458.88 433.171,461.974 435.222,464.999 437.272,467.959 439.323,470.856 441.374,473.694 443.425,476.474 445.476,479.198 
  447.527,481.871 449.577,484.492 451.628,487.065 453.679,489.59 455.73,492.071 457.781,494.508 459.832,496.904 461.882,499.259 463.933,501.575 465.984,503.854 
  468.035,506.096 470.086,508.303 472.137,510.476 474.187,512.617 476.238,514.725 478.289,516.803 480.34,518.851 482.391,520.87 484.442,522.861 486.492,524.825 
  488.543,526.763 490.594,528.675 492.645,530.562 494.696,532.424 496.747,534.264 498.798,536.08 500.848,537.874 502.899,539.646 504.95,541.397 507.001,543.128 
  509.052,544.839 511.103,546.53 513.153,548.202 515.204,549.856 517.255,551.491 519.306,553.109 521.357,554.709 523.408,556.293 525.458,557.86 527.509,559.411 
  529.56,560.947 531.611,562.467 533.662,563.972 535.713,565.462 537.763,566.938 539.814,568.401 541.865,569.849 543.916,571.284 545.967,572.705 548.018,574.114 
  550.068,575.51 552.119,576.894 554.17,578.266 556.221,579.626 558.272,580.974 560.323,582.311 562.374,583.636 564.424,584.951 566.475,586.255 568.526,587.548 
  570.577,588.831 572.628,590.104 574.679,591.367 576.729,592.62 578.78,593.863 580.831,595.097 582.882,596.321 584.933,597.537 586.984,598.743 589.034,599.941 
  591.085,601.13 593.136,602.311 595.187,603.483 597.238,604.647 599.289,605.802 601.339,606.95 603.39,608.09 605.441,609.223 607.492,610.348 609.543,611.465 
  611.594,612.575 613.644,613.678 615.695,614.773 617.746,615.862 619.797,616.944 621.848,618.019 623.899,619.087 625.95,620.149 628,621.204 630.051,622.253 
  632.102,623.296 634.153,624.332 636.204,625.363 638.255,626.387 640.305,627.405 642.356,628.418 644.407,629.425 646.458,630.426 648.509,631.421 650.56,632.411 
  652.61,633.396 654.661,634.375 656.712,635.349 658.763,636.317 660.814,637.281 662.865,638.239 664.915,639.193 666.966,640.141 669.017,641.085 671.068,642.023 
  673.119,642.957 675.17,643.887 677.22,644.811 679.271,645.731 681.322,646.647 683.373,647.558 685.424,648.465 687.475,649.367 689.526,650.265 691.576,651.159 
  693.627,652.049 695.678,652.934 697.729,653.816 699.78,654.693 701.831,655.567 703.881,656.436 705.932,657.302 707.983,658.164 710.034,659.022 712.085,659.876 
  714.136,660.726 716.186,661.573 718.237,662.417 720.288,663.256 722.339,664.092 724.39,664.925 726.441,665.754 728.491,666.58 730.542,667.403 732.593,668.222 
  734.644,669.037 736.695,669.85 738.746,670.659 740.797,671.465 742.847,672.268 744.898,673.068 746.949,673.865 749,674.659 751.051,675.449 753.102,676.237 
  755.152,677.022 757.203,677.804 759.254,678.583 761.305,679.359 763.356,680.132 765.407,680.903 767.457,681.67 769.508,682.435 771.559,683.198 773.61,683.957 
  775.661,684.714 777.712,685.469 779.762,686.221 781.813,686.97 783.864,687.716 785.915,688.461 787.966,689.202 790.017,689.941 792.067,690.678 794.118,691.413 
  796.169,692.145 798.22,692.874 800.271,693.602 802.322,694.327 804.373,695.049 806.423,695.77 808.474,696.488 810.525,697.204 812.576,697.918 814.627,698.629 
  816.678,699.339 818.728,700.046 820.779,700.751 822.83,701.454 824.881,702.155 826.932,702.854 828.983,703.551 831.033,704.246 833.084,704.939 835.135,705.63 
  837.186,706.319 839.237,707.006 841.288,707.691 843.338,708.375 845.389,709.056 847.44,709.736 849.491,710.413 851.542,711.089 853.593,711.763 855.643,712.436 
  857.694,713.106 859.745,713.775 861.796,714.442 863.847,715.107 865.898,715.771 867.949,716.433 869.999,717.093 872.05,717.752 874.101,718.409 876.152,719.064 
  878.203,719.718 880.254,720.37 882.304,721.021 884.355,721.67 886.406,722.318 888.457,722.963 890.508,723.608 892.559,724.251 894.609,724.892 896.66,725.532 
  898.711,726.171 900.762,726.808 902.813,727.444 904.864,728.078 906.914,728.711 908.965,729.342 911.016,729.972 913.067,730.601 915.118,731.228 917.169,731.854 
  919.219,732.479 921.27,733.102 923.321,733.724 925.372,734.345 927.423,734.965 929.474,735.583 931.525,736.2 933.575,736.816 935.626,737.43 937.677,738.043 
  939.728,738.655 941.779,739.266 943.83,739.876 945.88,740.485 947.931,741.092 949.982,741.698 952.033,742.303 954.084,742.907 956.135,743.51 958.185,744.112 
  960.236,744.713 962.287,745.312 964.338,745.911 966.389,746.508 968.44,747.104 970.49,747.7 972.541,748.294 974.592,748.887 976.643,749.48 978.694,750.071 
  980.745,750.661 982.795,751.25 984.846,751.839 986.897,752.426 988.948,753.012 990.999,753.598 993.05,754.182 995.101,754.766 997.151,755.349 999.202,755.93 
  1001.25,756.511 1003.3,757.091 1005.35,757.67 1007.41,758.248 1009.46,758.826 1011.51,759.402 1013.56,759.978 1015.61,760.553 1017.66,761.127 1019.71,761.7 
  1021.76,762.272 1023.81,762.844 1025.86,763.415 1027.91,763.985 1029.96,764.554 1032.02,765.122 1034.07,765.69 1036.12,766.257 1038.17,766.823 1040.22,767.388 
  1042.27,767.953 1044.32,768.517 1046.37,769.08 1048.42,769.643 1050.47,770.205 1052.52,770.766 1054.57,771.326 1056.63,771.886 1058.68,772.445 1060.73,773.004 
  1062.78,773.562 1064.83,774.119 1066.88,774.676 1068.93,775.232 1070.98,775.787 1073.03,776.342 1075.08,776.896 1077.13,777.449 1079.18,778.002 1081.24,778.554 
  1083.29,779.106 1085.34,779.657 1087.39,780.208 1089.44,780.758 1091.49,781.307 1093.54,781.856 1095.59,782.405 1097.64,782.953 1099.69,783.5 1101.74,784.047 
  1103.79,784.593 1105.85,785.139 1107.9,785.684 1109.95,786.229 1112,786.773 1114.05,787.317 1116.1,787.861 1118.15,788.404 1120.2,788.946 1122.25,789.488 
  1124.3,790.03 1126.35,790.571 1128.41,791.111 1130.46,791.652 1132.51,792.192 1134.56,792.731 1136.61,793.27 1138.66,793.809 1140.71,794.347 1142.76,794.885 
  1144.81,795.422 1146.86,795.96 1148.91,796.496 1150.96,797.033 1153.02,797.569 1155.07,798.104 1157.12,798.64 1159.17,799.175 1161.22,799.709 1163.27,800.244 
  1165.32,800.778 1167.37,801.311 1169.42,801.845 1171.47,802.378 1173.52,802.911 1175.57,803.443 1177.63,803.975 1179.68,804.507 1181.73,805.039 1183.78,805.57 
  1185.83,806.101 1187.88,806.632 1189.93,807.163 1191.98,807.693 1194.03,808.224 1196.08,808.753 1198.13,809.283 1200.18,809.813 1202.24,810.342 1204.29,810.871 
  1206.34,811.4 1208.39,811.928 1210.44,812.457 1212.49,812.985 1214.54,813.513 1216.59,814.041 1218.64,814.569 1220.69,815.096 1222.74,815.624 1224.79,816.151 
  1226.85,816.678 1228.9,817.205 1230.95,817.732 1233,818.258 1235.05,818.785 1237.1,819.311 1239.15,819.838 1241.2,820.364 1243.25,820.89 1245.3,821.416 
  1247.35,821.942 1249.4,822.468 1251.46,822.994 1253.51,823.519 1255.56,824.045 1257.61,824.57 1259.66,825.096 1261.71,825.621 1263.76,826.147 1265.81,826.672 
  1267.86,827.197 1269.91,827.722 1271.96,828.248 1274.01,828.773 1276.07,829.298 1278.12,829.823 1280.17,830.348 1282.22,830.874 1284.27,831.399 1286.32,831.924 
  1288.37,832.449 1290.42,832.974 1292.47,833.5 1294.52,834.025 1296.57,834.55 1298.62,835.075 1300.68,835.601 1302.73,836.126 1304.78,836.652 1306.83,837.177 
  1308.88,837.703 1310.93,838.229 1312.98,838.755 1315.03,839.28 1317.08,839.806 1319.13,840.332 1321.18,840.859 1323.23,841.385 1325.29,841.911 1327.34,842.438 
  1329.39,842.964 1331.44,843.491 1333.49,844.018 1335.54,844.545 1337.59,845.072 1339.64,845.6 1341.69,846.127 1343.74,846.655 1345.79,847.183 1347.84,847.711 
  1349.9,848.239 1351.95,848.767 1354,849.296 1356.05,849.825 1358.1,850.354 1360.15,850.883 1362.2,851.412 1364.25,851.942 1366.3,852.471 1368.35,853.002 
  1370.4,853.532 1372.45,854.062 1374.51,854.593 1376.56,855.124 1378.61,855.655 1380.66,856.187 1382.71,856.719 1384.76,857.251 1386.81,857.783 1388.86,858.316 
  1390.91,858.849 1392.96,859.382 1395.01,859.916 1397.06,860.449 1399.12,860.984 1401.17,861.518 1403.22,862.053 1405.27,862.588 1407.32,863.123 1409.37,863.659 
  1411.42,864.195 1413.47,864.732 1415.52,865.269 1417.57,865.806 1419.62,866.344 1421.68,866.882 1423.73,867.42 1425.78,867.959 1427.83,868.498 1429.88,869.038 
  1431.93,869.578 1433.98,870.118 1436.03,870.659 1438.08,871.2 1440.13,871.742 1442.18,872.284 1444.23,872.827 1446.29,873.37 1448.34,873.913 1450.39,874.457 
  1452.44,875.002 1454.49,875.547 1456.54,876.092 1458.59,876.638 1460.64,877.185 1462.69,877.732 1464.74,878.279 1466.79,878.827 1468.84,879.375 1470.9,879.924 
  1472.95,880.474 1475,881.024 1477.05,881.575 1479.1,882.126 1481.15,882.678 1483.2,883.23 1485.25,883.783 1487.3,884.336 1489.35,884.89 1491.4,885.445 
  1493.45,886 1495.51,886.556 1497.56,887.113 1499.61,887.67 1501.66,888.228 1503.71,888.786 1505.76,889.345 1507.81,889.905 1509.86,890.466 1511.91,891.027 
  1513.96,891.588 1516.01,892.151 1518.06,892.714 1520.12,893.278 1522.17,893.842 1524.22,894.408 1526.27,894.974 1528.32,895.54 1530.37,896.108 1532.42,896.676 
  1534.47,897.245 1536.52,897.815 1538.57,898.385 1540.62,898.956 1542.67,899.528 1544.73,900.101 1546.78,900.675 1548.83,901.249 1550.88,901.824 1552.93,902.4 
  1554.98,902.977 1557.03,903.555 1559.08,904.134 1561.13,904.713 1563.18,905.294 1565.23,905.875 1567.28,906.457 1569.34,907.04 1571.39,907.624 1573.44,908.208 
  1575.49,908.794 1577.54,909.381 1579.59,909.968 1581.64,910.557 1583.69,911.146 1585.74,911.737 1587.79,912.328 1589.84,912.921 1591.89,913.514 1593.95,914.108 
  1596,914.704 1598.05,915.3 1600.1,915.898 1602.15,916.496 1604.2,917.096 1606.25,917.696 1608.3,918.298 1610.35,918.901 1612.4,919.504 1614.45,920.109 
  1616.5,920.715 1618.56,921.322 1620.61,921.931 1622.66,922.54 1624.71,923.151 1626.76,923.762 1628.81,924.375 1630.86,924.989 1632.91,925.605 1634.96,926.221 
  1637.01,926.839 1639.06,927.458 1641.11,928.078 1643.17,928.699 1645.22,929.322 1647.27,929.946 1649.32,930.571 1651.37,931.197 1653.42,931.825 1655.47,932.454 
  1657.52,933.085 1659.57,933.717 1661.62,934.35 1663.67,934.984 1665.72,935.62 1667.78,936.257 1669.83,936.896 1671.88,937.536 1673.93,938.178 1675.98,938.821 
  1678.03,939.465 1680.08,940.111 1682.13,940.758 1684.18,941.407 1686.23,942.057 1688.28,942.709 1690.33,943.363 1692.39,944.018 1694.44,944.674 1696.49,945.332 
  1698.54,945.992 1700.59,946.653 1702.64,947.316 1704.69,947.981 1706.74,948.647 1708.79,949.315 1710.84,949.984 1712.89,950.656 1714.94,951.329 1717,952.003 
  1719.05,952.68 1721.1,953.358 1723.15,954.038 1725.2,954.72 1727.25,955.403 1729.3,956.088 1731.35,956.776 1733.4,957.465 1735.45,958.156 1737.5,958.848 
  1739.56,959.543 1741.61,960.24 1743.66,960.938 1745.71,961.639 1747.76,962.342 1749.81,963.046 1751.86,963.753 1753.91,964.461 1755.96,965.172 1758.01,965.885 
  1760.06,966.599 1762.11,967.316 1764.17,968.035 1766.22,968.757 1768.27,969.48 1770.32,970.206 1772.37,970.933 1774.42,971.663 1776.47,972.396 1778.52,973.13 
  1780.57,973.867 1782.62,974.606 1784.67,975.348 1786.72,976.091 1788.78,976.838 1790.83,977.586 1792.88,978.338 1794.93,979.091 1796.98,979.847 1799.03,980.606 
  1801.08,981.367 1803.13,982.13 1805.18,982.897 1807.23,983.665 1809.28,984.437 1811.33,985.211 1813.39,985.988 1815.44,986.767 1817.49,987.549 1819.54,988.334 
  1821.59,989.122 1823.64,989.913 1825.69,990.706 1827.74,991.502 1829.79,992.302 1831.84,993.104 1833.89,993.909 1835.94,994.717 1838,995.528 1840.05,996.342 
  1842.1,997.159 1844.15,997.98 1846.2,998.803 1848.25,999.63 1850.3,1000.46 1852.35,1001.29 1854.4,1002.13 1856.45,1002.97 1858.5,1003.81 1860.55,1004.66 
  1862.61,1005.51 1864.66,1006.36 1866.71,1007.22 1868.76,1008.08 1870.81,1008.94 1872.86,1009.81 1874.91,1010.68 1876.96,1011.56 1879.01,1012.44 1881.06,1013.32 
  1883.11,1014.2 1885.16,1015.1 1887.22,1015.99 1889.27,1016.89 1891.32,1017.79 1893.37,1018.69 1895.42,1019.6 1897.47,1020.52 1899.52,1021.44 1901.57,1022.36 
  1903.62,1023.29 1905.67,1024.22 1907.72,1025.15 1909.77,1026.09 1911.83,1027.04 1913.88,1027.99 1915.93,1028.94 1917.98,1029.9 1920.03,1030.86 1922.08,1031.83 
  1924.13,1032.8 1926.18,1033.78 1928.23,1034.76 1930.28,1035.75 1932.33,1036.74 1934.38,1037.74 1936.44,1038.74 1938.49,1039.75 1940.54,1040.76 1942.59,1041.78 
  1944.64,1042.8 1946.69,1043.83 1948.74,1044.86 1950.79,1045.9 1952.84,1046.95 1954.89,1048 1956.94,1049.06 1958.99,1050.12 1961.05,1051.19 1963.1,1052.27 
  1965.15,1053.35 1967.2,1054.44 1969.25,1055.53 1971.3,1056.63 1973.35,1057.74 1975.4,1058.85 1977.45,1059.97 1979.5,1061.1 1981.55,1062.23 1983.6,1063.37 
  1985.66,1064.52 1987.71,1065.68 1989.76,1066.84 1991.81,1068.01 1993.86,1069.18 1995.91,1070.37 1997.96,1071.56 2000.01,1072.76 2002.06,1073.97 2004.11,1075.19 
  2006.16,1076.41 2008.21,1077.64 2010.27,1078.88 2012.32,1080.13 2014.37,1081.39 2016.42,1082.66 2018.47,1083.93 2020.52,1085.22 2022.57,1086.51 2024.62,1087.81 
  2026.67,1089.13 2028.72,1090.45 2030.77,1091.78 2032.83,1093.12 2034.88,1094.48 2036.93,1095.84 2038.98,1097.21 2041.03,1098.59 2043.08,1099.99 2045.13,1101.39 
  2047.18,1102.81 2049.23,1104.24 2051.28,1105.68 2053.33,1107.13 2055.38,1108.59 2057.44,1110.07 2059.49,1111.56 2061.54,1113.06 2063.59,1114.57 2065.64,1116.1 
  2067.69,1117.64 2069.74,1119.19 2071.79,1120.76 2073.84,1122.34 2075.89,1123.93 2077.94,1125.55 2079.99,1127.17 2082.05,1128.81 2084.1,1130.47 2086.15,1132.14 
  2088.2,1133.83 2090.25,1135.53 2092.3,1137.26 2094.35,1139 2096.4,1140.75 2098.45,1142.53 2100.5,1144.32 2102.55,1146.13 2104.6,1147.97 2106.66,1149.82 
  2108.71,1151.69 2110.76,1153.58 2112.81,1155.49 2114.86,1157.43 2116.91,1159.39 2118.96,1161.36 2121.01,1163.37 2123.06,1165.39 2125.11,1167.44 2127.16,1169.52 
  2129.21,1171.62 2131.27,1173.75 2133.32,1175.9 2135.37,1178.08 2137.42,1180.29 2139.47,1182.53 2141.52,1184.8 2143.57,1187.1 2145.62,1189.43 2147.67,1191.79 
  2149.72,1194.19 2151.77,1196.62 2153.82,1199.09 2155.88,1201.59 2157.93,1204.14 2159.98,1206.72 2162.03,1209.34 2164.08,1212 2166.13,1214.7 2168.18,1217.45 
  2170.23,1220.24 2172.28,1223.08 2174.33,1225.97 2176.38,1228.92 2178.43,1231.91 2180.49,1234.96 2182.54,1238.06 2184.59,1241.22 2186.64,1244.45 2188.69,1247.73 
  2190.74,1251.08 2192.79,1254.5 2194.84,1258 2196.89,1261.56 2198.94,1265.21 2200.99,1268.93 2203.04,1272.75 2205.1,1276.65 2207.15,1280.64 2209.2,1284.73 
  2211.25,1288.93 2213.3,1293.23 2215.35,1297.65 2217.4,1302.19 2219.45,1306.85 2221.5,1311.65 2223.55,1316.59 2225.6,1321.69 2227.65,1326.94 2229.71,1332.37 
  2231.76,1337.98 2233.81,1343.79 2235.86,1349.8 2237.91,1356.05 2239.96,1362.54 2242.01,1369.29 2244.06,1376.33 2246.11,1383.68 2248.16,1391.37 2250.21,1399.44 
  2252.26,1407.93 2254.32,1416.87 2256.37,1426.32 2258.42,1436.34 2260.47,1447.01 2262.52,1458.41 2264.57,1470.66 2266.62,1483.9 2268.67,1498.28 2270.72,1514.03 
  2272.77,1531.44 2274.82,1550.91 2276.87,1572.98 2278.93,1598.46 2280.98,1628.59 2283.03,1665.46 2285.08,1713 2287.13,1780.01 2289.18,1894.56 2291.23,6996.9 
  
  "/>
<polyline clip-path="url(#clip882)" style="stroke:#3da44d; stroke-linecap:butt; stroke-linejoin:round; stroke-width:4; stroke-opacity:1; fill:none" points="
  242.443,996.352 244.493,881.528 246.544,814.057 248.595,765.863 250.646,728.143 252.697,696.976 254.748,670.267 256.799,646.764 258.849,625.657 260.9,606.391 
  262.951,588.567 265.002,571.887 267.053,556.123 269.104,541.094 271.154,526.652 273.205,512.675 275.256,499.059 277.307,485.714 279.358,472.558 281.409,459.516 
  283.459,446.52 285.51,433.502 287.561,420.396 289.612,407.137 291.663,393.653 293.714,379.874 295.764,365.719 297.815,351.102 299.866,335.926 301.917,320.08 
  303.968,303.438 306.019,285.852 308.069,267.154 310.12,247.152 312.171,225.64 314.222,202.422 316.273,177.385 318.324,150.693 320.375,123.231 322.425,97.4632 
  324.476,78.3386 326.527,71.9551 328.578,80.3262 330.629,99.0268 332.68,121.981 334.73,145.313 336.781,167.34 338.832,187.547 340.883,205.912 342.934,222.587 
  344.985,237.766 347.035,251.644 349.086,264.389 351.137,276.15 353.188,287.051 355.239,297.198 357.29,306.68 359.34,315.572 361.391,323.939 363.442,331.836 
  365.493,339.309 367.544,346.4 369.595,353.144 371.645,359.573 373.696,365.712 375.747,371.588 377.798,377.22 379.849,382.628 381.9,387.828 383.951,392.836 
  386.001,397.665 388.052,402.328 390.103,406.835 392.154,411.196 394.205,415.421 396.256,419.518 398.306,423.495 400.357,427.358 402.408,431.114 404.459,434.768 
  406.51,438.327 408.561,441.795 410.611,445.177 412.662,448.477 414.713,451.7 416.764,454.848 418.815,457.925 420.866,460.935 422.916,463.88 424.967,466.764 
  427.018,469.589 429.069,472.358 431.12,475.072 433.171,477.734 435.222,480.347 437.272,482.911 439.323,485.429 441.374,487.903 443.425,490.334 445.476,492.724 
  447.527,495.075 449.577,497.387 451.628,499.662 453.679,501.901 455.73,504.106 457.781,506.277 459.832,508.416 461.882,510.523 463.933,512.6 465.984,514.648 
  468.035,516.668 470.086,518.659 472.137,520.624 474.187,522.563 476.238,524.476 478.289,526.365 480.34,528.23 482.391,530.072 484.442,531.891 486.492,533.688 
  488.543,535.464 490.594,537.219 492.645,538.954 494.696,540.668 496.747,542.364 498.798,544.04 500.848,545.698 502.899,547.339 504.95,548.962 507.001,550.567 
  509.052,552.156 511.103,553.729 513.153,555.286 515.204,556.827 517.255,558.353 519.306,559.864 521.357,561.361 523.408,562.843 525.458,564.312 527.509,565.767 
  529.56,567.208 531.611,568.637 533.662,570.052 535.713,571.455 537.763,572.846 539.814,574.225 541.865,575.591 543.916,576.947 545.967,578.291 548.018,579.623 
  550.068,580.945 552.119,582.257 554.17,583.557 556.221,584.847 558.272,586.128 560.323,587.398 562.374,588.658 564.424,589.909 566.475,591.151 568.526,592.383 
  570.577,593.606 572.628,594.82 574.679,596.025 576.729,597.222 578.78,598.41 580.831,599.59 582.882,600.762 584.933,601.925 586.984,603.081 589.034,604.228 
  591.085,605.368 593.136,606.501 595.187,607.626 597.238,608.744 599.289,609.854 601.339,610.957 603.39,612.054 605.441,613.143 607.492,614.226 609.543,615.302 
  611.594,616.371 613.644,617.434 615.695,618.49 617.746,619.541 619.797,620.585 621.848,621.622 623.899,622.654 625.95,623.68 628,624.7 630.051,625.714 
  632.102,626.723 634.153,627.726 636.204,628.723 638.255,629.715 640.305,630.701 642.356,631.683 644.407,632.659 646.458,633.629 648.509,634.595 650.56,635.555 
  652.61,636.511 654.661,637.462 656.712,638.408 658.763,639.349 660.814,640.285 662.865,641.217 664.915,642.144 666.966,643.066 669.017,643.984 671.068,644.898 
  673.119,645.807 675.17,646.712 677.22,647.613 679.271,648.509 681.322,649.402 683.373,650.29 685.424,651.174 687.475,652.054 689.526,652.93 691.576,653.802 
  693.627,654.67 695.678,655.535 697.729,656.396 699.78,657.253 701.831,658.106 703.881,658.956 705.932,659.802 707.983,660.644 710.034,661.483 712.085,662.318 
  714.136,663.15 716.186,663.979 718.237,664.804 720.288,665.626 722.339,666.445 724.39,667.26 726.441,668.072 728.491,668.881 730.542,669.687 732.593,670.489 
  734.644,671.289 736.695,672.085 738.746,672.879 740.797,673.669 742.847,674.457 744.898,675.242 746.949,676.023 749,676.802 751.051,677.578 753.102,678.352 
  755.152,679.122 757.203,679.89 759.254,680.655 761.305,681.417 763.356,682.177 765.407,682.934 767.457,683.689 769.508,684.441 771.559,685.19 773.61,685.937 
  775.661,686.681 777.712,687.423 779.762,688.163 781.813,688.9 783.864,689.634 785.915,690.366 787.966,691.096 790.017,691.824 792.067,692.549 794.118,693.272 
  796.169,693.993 798.22,694.712 800.271,695.428 802.322,696.142 804.373,696.854 806.423,697.564 808.474,698.272 810.525,698.977 812.576,699.681 814.627,700.382 
  816.678,701.082 818.728,701.779 820.779,702.474 822.83,703.168 824.881,703.859 826.932,704.549 828.983,705.236 831.033,705.922 833.084,706.606 835.135,707.288 
  837.186,707.968 839.237,708.646 841.288,709.322 843.338,709.997 845.389,710.67 847.44,711.341 849.491,712.01 851.542,712.678 853.593,713.343 855.643,714.008 
  857.694,714.67 859.745,715.331 861.796,715.99 863.847,716.647 865.898,717.303 867.949,717.958 869.999,718.61 872.05,719.261 874.101,719.911 876.152,720.559 
  878.203,721.205 880.254,721.85 882.304,722.494 884.355,723.136 886.406,723.776 888.457,724.415 890.508,725.053 892.559,725.689 894.609,726.324 896.66,726.957 
  898.711,727.589 900.762,728.219 902.813,728.849 904.864,729.476 906.914,730.103 908.965,730.728 911.016,731.352 913.067,731.974 915.118,732.595 917.169,733.215 
  919.219,733.834 921.27,734.451 923.321,735.068 925.372,735.683 927.423,736.296 929.474,736.909 931.525,737.52 933.575,738.13 935.626,738.739 937.677,739.347 
  939.728,739.953 941.779,740.559 943.83,741.163 945.88,741.766 947.931,742.368 949.982,742.969 952.033,743.569 954.084,744.168 956.135,744.766 958.185,745.362 
  960.236,745.958 962.287,746.553 964.338,747.146 966.389,747.739 968.44,748.33 970.49,748.921 972.541,749.51 974.592,750.099 976.643,750.686 978.694,751.273 
  980.745,751.859 982.795,752.443 984.846,753.027 986.897,753.61 988.948,754.192 990.999,754.773 993.05,755.353 995.101,755.932 997.151,756.511 999.202,757.088 
  1001.25,757.665 1003.3,758.241 1005.35,758.816 1007.41,759.39 1009.46,759.963 1011.51,760.535 1013.56,761.107 1015.61,761.678 1017.66,762.248 1019.71,762.817 
  1021.76,763.386 1023.81,763.953 1025.86,764.52 1027.91,765.086 1029.96,765.652 1032.02,766.217 1034.07,766.78 1036.12,767.344 1038.17,767.906 1040.22,768.468 
  1042.27,769.029 1044.32,769.59 1046.37,770.149 1048.42,770.708 1050.47,771.267 1052.52,771.824 1054.57,772.382 1056.63,772.938 1058.68,773.494 1060.73,774.049 
  1062.78,774.603 1064.83,775.157 1066.88,775.711 1068.93,776.263 1070.98,776.815 1073.03,777.367 1075.08,777.918 1077.13,778.468 1079.18,779.018 1081.24,779.567 
  1083.29,780.116 1085.34,780.664 1087.39,781.211 1089.44,781.758 1091.49,782.305 1093.54,782.851 1095.59,783.396 1097.64,783.941 1099.69,784.486 1101.74,785.03 
  1103.79,785.573 1105.85,786.116 1107.9,786.659 1109.95,787.201 1112,787.742 1114.05,788.283 1116.1,788.824 1118.15,789.364 1120.2,789.904 1122.25,790.443 
  1124.3,790.982 1126.35,791.521 1128.41,792.059 1130.46,792.597 1132.51,793.134 1134.56,793.671 1136.61,794.207 1138.66,794.744 1140.71,795.279 1142.76,795.815 
  1144.81,796.35 1146.86,796.884 1148.91,797.419 1150.96,797.953 1153.02,798.486 1155.07,799.019 1157.12,799.552 1159.17,800.085 1161.22,800.617 1163.27,801.149 
  1165.32,801.681 1167.37,802.213 1169.42,802.744 1171.47,803.274 1173.52,803.805 1175.57,804.335 1177.63,804.865 1179.68,805.395 1181.73,805.925 1183.78,806.454 
  1185.83,806.983 1187.88,807.511 1189.93,808.04 1191.98,808.568 1194.03,809.096 1196.08,809.624 1198.13,810.152 1200.18,810.679 1202.24,811.206 1204.29,811.733 
  1206.34,812.26 1208.39,812.787 1210.44,813.313 1212.49,813.84 1214.54,814.366 1216.59,814.892 1218.64,815.417 1220.69,815.943 1222.74,816.469 1224.79,816.994 
  1226.85,817.519 1228.9,818.044 1230.95,818.569 1233,819.094 1235.05,819.619 1237.1,820.143 1239.15,820.668 1241.2,821.192 1243.25,821.717 1245.3,822.241 
  1247.35,822.765 1249.4,823.289 1251.46,823.813 1253.51,824.337 1255.56,824.861 1257.61,825.385 1259.66,825.908 1261.71,826.432 1263.76,826.956 1265.81,827.479 
  1267.86,828.003 1269.91,828.527 1271.96,829.05 1274.01,829.574 1276.07,830.097 1278.12,830.621 1280.17,831.145 1282.22,831.668 1284.27,832.192 1286.32,832.715 
  1288.37,833.239 1290.42,833.763 1292.47,834.286 1294.52,834.81 1296.57,835.334 1298.62,835.858 1300.68,836.382 1302.73,836.906 1304.78,837.43 1306.83,837.954 
  1308.88,838.478 1310.93,839.002 1312.98,839.527 1315.03,840.051 1317.08,840.576 1319.13,841.1 1321.18,841.625 1323.23,842.15 1325.29,842.675 1327.34,843.2 
  1329.39,843.725 1331.44,844.251 1333.49,844.776 1335.54,845.302 1337.59,845.828 1339.64,846.354 1341.69,846.88 1343.74,847.406 1345.79,847.933 1347.84,848.46 
  1349.9,848.986 1351.95,849.513 1354,850.041 1356.05,850.568 1358.1,851.096 1360.15,851.624 1362.2,852.152 1364.25,852.68 1366.3,853.209 1368.35,853.738 
  1370.4,854.267 1372.45,854.796 1374.51,855.326 1376.56,855.855 1378.61,856.386 1380.66,856.916 1382.71,857.447 1384.76,857.977 1386.81,858.509 1388.86,859.04 
  1390.91,859.572 1392.96,860.104 1395.01,860.636 1397.06,861.169 1399.12,861.702 1401.17,862.236 1403.22,862.769 1405.27,863.303 1407.32,863.838 1409.37,864.372 
  1411.42,864.908 1413.47,865.443 1415.52,865.979 1417.57,866.515 1419.62,867.052 1421.68,867.589 1423.73,868.126 1425.78,868.664 1427.83,869.202 1429.88,869.74 
  1431.93,870.279 1433.98,870.819 1436.03,871.359 1438.08,871.899 1440.13,872.44 1442.18,872.981 1444.23,873.522 1446.29,874.064 1448.34,874.607 1450.39,875.15 
  1452.44,875.694 1454.49,876.237 1456.54,876.782 1458.59,877.327 1460.64,877.872 1462.69,878.418 1464.74,878.965 1466.79,879.512 1468.84,880.059 1470.9,880.608 
  1472.95,881.156 1475,881.705 1477.05,882.255 1479.1,882.805 1481.15,883.356 1483.2,883.908 1485.25,884.46 1487.3,885.012 1489.35,885.566 1491.4,886.119 
  1493.45,886.674 1495.51,887.229 1497.56,887.785 1499.61,888.341 1501.66,888.898 1503.71,889.455 1505.76,890.014 1507.81,890.573 1509.86,891.132 1511.91,891.692 
  1513.96,892.253 1516.01,892.815 1518.06,893.377 1520.12,893.94 1522.17,894.504 1524.22,895.069 1526.27,895.634 1528.32,896.2 1530.37,896.766 1532.42,897.334 
  1534.47,897.902 1536.52,898.471 1538.57,899.041 1540.62,899.611 1542.67,900.182 1544.73,900.754 1546.78,901.327 1548.83,901.901 1550.88,902.475 1552.93,903.051 
  1554.98,903.627 1557.03,904.204 1559.08,904.782 1561.13,905.361 1563.18,905.94 1565.23,906.521 1567.28,907.102 1569.34,907.684 1571.39,908.268 1573.44,908.852 
  1575.49,909.437 1577.54,910.023 1579.59,910.609 1581.64,911.197 1583.69,911.786 1585.74,912.376 1587.79,912.967 1589.84,913.558 1591.89,914.151 1593.95,914.745 
  1596,915.339 1598.05,915.935 1600.1,916.532 1602.15,917.13 1604.2,917.729 1606.25,918.329 1608.3,918.93 1610.35,919.532 1612.4,920.135 1614.45,920.739 
  1616.5,921.345 1618.56,921.951 1620.61,922.559 1622.66,923.168 1624.71,923.778 1626.76,924.389 1628.81,925.001 1630.86,925.614 1632.91,926.229 1634.96,926.845 
  1637.01,927.462 1639.06,928.08 1641.11,928.7 1643.17,929.321 1645.22,929.943 1647.27,930.566 1649.32,931.191 1651.37,931.817 1653.42,932.444 1655.47,933.073 
  1657.52,933.702 1659.57,934.334 1661.62,934.966 1663.67,935.6 1665.72,936.236 1667.78,936.872 1669.83,937.51 1671.88,938.15 1673.93,938.791 1675.98,939.433 
  1678.03,940.077 1680.08,940.723 1682.13,941.369 1684.18,942.018 1686.23,942.668 1688.28,943.319 1690.33,943.972 1692.39,944.626 1694.44,945.282 1696.49,945.94 
  1698.54,946.599 1700.59,947.26 1702.64,947.922 1704.69,948.586 1706.74,949.252 1708.79,949.92 1710.84,950.589 1712.89,951.259 1714.94,951.932 1717,952.606 
  1719.05,953.282 1721.1,953.96 1723.15,954.639 1725.2,955.32 1727.25,956.003 1729.3,956.688 1731.35,957.375 1733.4,958.064 1735.45,958.754 1737.5,959.447 
  1739.56,960.141 1741.61,960.837 1743.66,961.535 1745.71,962.235 1747.76,962.937 1749.81,963.642 1751.86,964.348 1753.91,965.056 1755.96,965.766 1758.01,966.478 
  1760.06,967.193 1762.11,967.909 1764.17,968.628 1766.22,969.349 1768.27,970.072 1770.32,970.797 1772.37,971.524 1774.42,972.254 1776.47,972.986 1778.52,973.72 
  1780.57,974.456 1782.62,975.195 1784.67,975.936 1786.72,976.68 1788.78,977.425 1790.83,978.174 1792.88,978.924 1794.93,979.678 1796.98,980.433 1799.03,981.191 
  1801.08,981.952 1803.13,982.715 1805.18,983.481 1807.23,984.25 1809.28,985.021 1811.33,985.794 1813.39,986.571 1815.44,987.35 1817.49,988.132 1819.54,988.916 
  1821.59,989.704 1823.64,990.494 1825.69,991.287 1827.74,992.083 1829.79,992.882 1831.84,993.684 1833.89,994.488 1835.94,995.296 1838,996.107 1840.05,996.921 
  1842.1,997.738 1844.15,998.558 1846.2,999.381 1848.25,1000.21 1850.3,1001.04 1852.35,1001.87 1854.4,1002.71 1856.45,1003.55 1858.5,1004.39 1860.55,1005.23 
  1862.61,1006.08 1864.66,1006.94 1866.71,1007.79 1868.76,1008.65 1870.81,1009.52 1872.86,1010.38 1874.91,1011.26 1876.96,1012.13 1879.01,1013.01 1881.06,1013.89 
  1883.11,1014.78 1885.16,1015.67 1887.22,1016.56 1889.27,1017.46 1891.32,1018.36 1893.37,1019.27 1895.42,1020.18 1897.47,1021.09 1899.52,1022.01 1901.57,1022.93 
  1903.62,1023.86 1905.67,1024.79 1907.72,1025.72 1909.77,1026.66 1911.83,1027.61 1913.88,1028.55 1915.93,1029.51 1917.98,1030.47 1920.03,1031.43 1922.08,1032.39 
  1924.13,1033.37 1926.18,1034.34 1928.23,1035.33 1930.28,1036.31 1932.33,1037.3 1934.38,1038.3 1936.44,1039.3 1938.49,1040.31 1940.54,1041.32 1942.59,1042.34 
  1944.64,1043.36 1946.69,1044.39 1948.74,1045.43 1950.79,1046.47 1952.84,1047.51 1954.89,1048.56 1956.94,1049.62 1958.99,1050.68 1961.05,1051.75 1963.1,1052.83 
  1965.15,1053.91 1967.2,1055 1969.25,1056.09 1971.3,1057.19 1973.35,1058.3 1975.4,1059.41 1977.45,1060.53 1979.5,1061.66 1981.55,1062.79 1983.6,1063.93 
  1985.66,1065.08 1987.71,1066.24 1989.76,1067.4 1991.81,1068.57 1993.86,1069.74 1995.91,1070.93 1997.96,1072.12 2000.01,1073.32 2002.06,1074.53 2004.11,1075.74 
  2006.16,1076.97 2008.21,1078.2 2010.27,1079.44 2012.32,1080.69 2014.37,1081.95 2016.42,1083.21 2018.47,1084.49 2020.52,1085.77 2022.57,1087.07 2024.62,1088.37 
  2026.67,1089.68 2028.72,1091 2030.77,1092.34 2032.83,1093.68 2034.88,1095.03 2036.93,1096.39 2038.98,1097.77 2041.03,1099.15 2043.08,1100.54 2045.13,1101.95 
  2047.18,1103.36 2049.23,1104.79 2051.28,1106.23 2053.33,1107.68 2055.38,1109.15 2057.44,1110.62 2059.49,1112.11 2061.54,1113.61 2063.59,1115.12 2065.64,1116.65 
  2067.69,1118.19 2069.74,1119.74 2071.79,1121.31 2073.84,1122.89 2075.89,1124.49 2077.94,1126.1 2079.99,1127.72 2082.05,1129.36 2084.1,1131.02 2086.15,1132.69 
  2088.2,1134.38 2090.25,1136.09 2092.3,1137.81 2094.35,1139.55 2096.4,1141.3 2098.45,1143.08 2100.5,1144.87 2102.55,1146.69 2104.6,1148.52 2106.66,1150.37 
  2108.71,1152.24 2110.76,1154.13 2112.81,1156.04 2114.86,1157.98 2116.91,1159.93 2118.96,1161.91 2121.01,1163.92 2123.06,1165.94 2125.11,1167.99 2127.16,1170.07 
  2129.21,1172.17 2131.27,1174.3 2133.32,1176.45 2135.37,1178.63 2137.42,1180.84 2139.47,1183.08 2141.52,1185.35 2143.57,1187.65 2145.62,1189.98 2147.67,1192.34 
  2149.72,1194.74 2151.77,1197.17 2153.82,1199.64 2155.88,1202.14 2157.93,1204.68 2159.98,1207.26 2162.03,1209.88 2164.08,1212.54 2166.13,1215.25 2168.18,1218 
  2170.23,1220.79 2172.28,1223.63 2174.33,1226.52 2176.38,1229.46 2178.43,1232.45 2180.49,1235.5 2182.54,1238.61 2184.59,1241.77 2186.64,1244.99 2188.69,1248.28 
  2190.74,1251.63 2192.79,1255.05 2194.84,1258.54 2196.89,1262.11 2198.94,1265.75 2200.99,1269.48 2203.04,1273.29 2205.1,1277.19 2207.15,1281.19 2209.2,1285.28 
  2211.25,1289.47 2213.3,1293.78 2215.35,1298.19 2217.4,1302.73 2219.45,1307.4 2221.5,1312.2 2223.55,1317.14 2225.6,1322.23 2227.65,1327.49 2229.71,1332.91 
  2231.76,1338.53 2233.81,1344.33 2235.86,1350.35 2237.91,1356.59 2239.96,1363.08 2242.01,1369.83 2244.06,1376.87 2246.11,1384.23 2248.16,1391.92 2250.21,1399.99 
  2252.26,1408.47 2254.32,1417.41 2256.37,1426.86 2258.42,1436.88 2260.47,1447.55 2262.52,1458.96 2264.57,1471.21 2266.62,1484.44 2268.67,1498.82 2270.72,1514.58 
  2272.77,1531.99 2274.82,1551.46 2276.87,1573.52 2278.93,1599 2280.98,1629.13 2283.03,1666.01 2285.08,1713.55 2287.13,1780.56 2289.18,1895.1 2291.23,6997.44 
  
  "/>
<path clip-path="url(#clip880)" d="
M1985.74 302.168 L2280.29 302.168 L2280.29 94.8081 L1985.74 94.8081  Z
  " fill="#ffffff" fill-rule="evenodd" fill-opacity="1"/>
<polyline clip-path="url(#clip880)" style="stroke:#000000; stroke-linecap:butt; stroke-linejoin:round; stroke-width:4; stroke-opacity:1; fill:none" points="
  1985.74,302.168 2280.29,302.168 2280.29,94.8081 1985.74,94.8081 1985.74,302.168 
  "/>
<polyline clip-path="url(#clip880)" style="stroke:#009af9; stroke-linecap:butt; stroke-linejoin:round; stroke-width:4; stroke-opacity:1; fill:none" points="
  2009.9,146.648 2154.82,146.648 
  "/>
<path clip-path="url(#clip880)" d="M2192.82 166.336 Q2191.01 170.965 2189.3 172.377 Q2187.59 173.789 2184.72 173.789 L2181.31 173.789 L2181.31 170.224 L2183.81 170.224 Q2185.57 170.224 2186.54 169.391 Q2187.52 168.558 2188.7 165.456 L2189.46 163.511 L2178.98 138.002 L2183.49 138.002 L2191.59 158.28 L2199.69 138.002 L2204.21 138.002 L2192.82 166.336 Z" fill="#000000" fill-rule="evenodd" fill-opacity="1" /><path clip-path="url(#clip880)" d="M2211.5 159.993 L2219.14 159.993 L2219.14 133.627 L2210.83 135.294 L2210.83 131.035 L2219.09 129.368 L2223.77 129.368 L2223.77 159.993 L2231.41 159.993 L2231.41 163.928 L2211.5 163.928 L2211.5 159.993 Z" fill="#000000" fill-rule="evenodd" fill-opacity="1" /><polyline clip-path="url(#clip880)" style="stroke:#e26f46; stroke-linecap:butt; stroke-linejoin:round; stroke-width:4; stroke-opacity:1; fill:none" points="
  2009.9,198.488 2154.82,198.488 
  "/>
<path clip-path="url(#clip880)" d="M2192.82 218.176 Q2191.01 222.805 2189.3 224.217 Q2187.59 225.629 2184.72 225.629 L2181.31 225.629 L2181.31 222.064 L2183.81 222.064 Q2185.57 222.064 2186.54 221.231 Q2187.52 220.398 2188.7 217.296 L2189.46 215.351 L2178.98 189.842 L2183.49 189.842 L2191.59 210.12 L2199.69 189.842 L2204.21 189.842 L2192.82 218.176 Z" fill="#000000" fill-rule="evenodd" fill-opacity="1" /><path clip-path="url(#clip880)" d="M2214.72 211.833 L2231.04 211.833 L2231.04 215.768 L2209.09 215.768 L2209.09 211.833 Q2211.75 209.078 2216.34 204.449 Q2220.94 199.796 2222.12 198.453 Q2224.37 195.93 2225.25 194.194 Q2226.15 192.435 2226.15 190.745 Q2226.15 187.99 2224.21 186.254 Q2222.29 184.518 2219.18 184.518 Q2216.98 184.518 2214.53 185.282 Q2212.1 186.046 2209.32 187.597 L2209.32 182.875 Q2212.15 181.741 2214.6 181.162 Q2217.05 180.583 2219.09 180.583 Q2224.46 180.583 2227.66 183.268 Q2230.85 185.953 2230.85 190.444 Q2230.85 192.574 2230.04 194.495 Q2229.25 196.393 2227.15 198.986 Q2226.57 199.657 2223.47 202.875 Q2220.36 206.069 2214.72 211.833 Z" fill="#000000" fill-rule="evenodd" fill-opacity="1" /><polyline clip-path="url(#clip880)" style="stroke:#3da44d; stroke-linecap:butt; stroke-linejoin:round; stroke-width:4; stroke-opacity:1; fill:none" points="
  2009.9,250.328 2154.82,250.328 
  "/>
<path clip-path="url(#clip880)" d="M2192.82 270.016 Q2191.01 274.645 2189.3 276.057 Q2187.59 277.469 2184.72 277.469 L2181.31 277.469 L2181.31 273.904 L2183.81 273.904 Q2185.57 273.904 2186.54 273.071 Q2187.52 272.238 2188.7 269.136 L2189.46 267.191 L2178.98 241.682 L2183.49 241.682 L2191.59 261.96 L2199.69 241.682 L2204.21 241.682 L2192.82 270.016 Z" fill="#000000" fill-rule="evenodd" fill-opacity="1" /><path clip-path="url(#clip880)" d="M2224.85 248.974 Q2228.21 249.692 2230.09 251.96 Q2231.98 254.229 2231.98 257.562 Q2231.98 262.678 2228.47 265.478 Q2224.95 268.279 2218.47 268.279 Q2216.29 268.279 2213.98 267.84 Q2211.68 267.423 2209.23 266.566 L2209.23 262.053 Q2211.17 263.187 2213.49 263.766 Q2215.8 264.344 2218.33 264.344 Q2222.73 264.344 2225.02 262.608 Q2227.33 260.872 2227.33 257.562 Q2227.33 254.506 2225.18 252.793 Q2223.05 251.057 2219.23 251.057 L2215.2 251.057 L2215.2 247.215 L2219.41 247.215 Q2222.86 247.215 2224.69 245.849 Q2226.52 244.46 2226.52 241.868 Q2226.52 239.205 2224.62 237.793 Q2222.75 236.358 2219.23 236.358 Q2217.31 236.358 2215.11 236.775 Q2212.91 237.192 2210.27 238.071 L2210.27 233.905 Q2212.93 233.164 2215.25 232.793 Q2217.59 232.423 2219.65 232.423 Q2224.97 232.423 2228.07 234.854 Q2231.17 237.261 2231.17 241.381 Q2231.17 244.252 2229.53 246.242 Q2227.89 248.21 2224.85 248.974 Z" fill="#000000" fill-rule="evenodd" fill-opacity="1" /></svg>
