<?xml version="1.0" encoding="utf-8"?>
<svg xmlns="http://www.w3.org/2000/svg" xmlns:xlink="http://www.w3.org/1999/xlink" width="600" height="400" viewBox="0 0 2400 1600">
<defs>
  <clipPath id="clip850">
    <rect x="0" y="0" width="2400" height="1600"/>
  </clipPath>
</defs>
<path clip-path="url(#clip850)" d="
M0 1600 L2400 1600 L2400 0 L0 0  Z
  " fill="#ffffff" fill-rule="evenodd" fill-opacity="1"/>
<defs>
  <clipPath id="clip851">
    <rect x="480" y="0" width="1681" height="1600"/>
  </clipPath>
</defs>
<path clip-path="url(#clip850)" d="
M178.867 1474.16 L2352.76 1474.16 L2352.76 47.2441 L178.867 47.2441  Z
  " fill="#ffffff" fill-rule="evenodd" fill-opacity="1"/>
<defs>
  <clipPath id="clip852">
    <rect x="178" y="47" width="2175" height="1428"/>
  </clipPath>
</defs>
<polyline clip-path="url(#clip852)" style="stroke:#000000; stroke-linecap:butt; stroke-linejoin:round; stroke-width:2; stroke-opacity:0.1; fill:none" points="
  240.392,1474.16 240.392,47.2441 
  "/>
<polyline clip-path="url(#clip852)" style="stroke:#000000; stroke-linecap:butt; stroke-linejoin:round; stroke-width:2; stroke-opacity:0.1; fill:none" points="
  705.435,1474.16 705.435,47.2441 
  "/>
<polyline clip-path="url(#clip852)" style="stroke:#000000; stroke-linecap:butt; stroke-linejoin:round; stroke-width:2; stroke-opacity:0.1; fill:none" points="
  1170.48,1474.16 1170.48,47.2441 
  "/>
<polyline clip-path="url(#clip852)" style="stroke:#000000; stroke-linecap:butt; stroke-linejoin:round; stroke-width:2; stroke-opacity:0.1; fill:none" points="
  1635.52,1474.16 1635.52,47.2441 
  "/>
<polyline clip-path="url(#clip852)" style="stroke:#000000; stroke-linecap:butt; stroke-linejoin:round; stroke-width:2; stroke-opacity:0.1; fill:none" points="
  2100.56,1474.16 2100.56,47.2441 
  "/>
<polyline clip-path="url(#clip850)" style="stroke:#000000; stroke-linecap:butt; stroke-linejoin:round; stroke-width:4; stroke-opacity:1; fill:none" points="
  178.867,1474.16 2352.76,1474.16 
  "/>
<polyline clip-path="url(#clip850)" style="stroke:#000000; stroke-linecap:butt; stroke-linejoin:round; stroke-width:4; stroke-opacity:1; fill:none" points="
  240.392,1474.16 240.392,1455.27 
  "/>
<polyline clip-path="url(#clip850)" style="stroke:#000000; stroke-linecap:butt; stroke-linejoin:round; stroke-width:4; stroke-opacity:1; fill:none" points="
  705.435,1474.16 705.435,1455.27 
  "/>
<polyline clip-path="url(#clip850)" style="stroke:#000000; stroke-linecap:butt; stroke-linejoin:round; stroke-width:4; stroke-opacity:1; fill:none" points="
  1170.48,1474.16 1170.48,1455.27 
  "/>
<polyline clip-path="url(#clip850)" style="stroke:#000000; stroke-linecap:butt; stroke-linejoin:round; stroke-width:4; stroke-opacity:1; fill:none" points="
  1635.52,1474.16 1635.52,1455.27 
  "/>
<polyline clip-path="url(#clip850)" style="stroke:#000000; stroke-linecap:butt; stroke-linejoin:round; stroke-width:4; stroke-opacity:1; fill:none" points="
  2100.56,1474.16 2100.56,1455.27 
  "/>
<path clip-path="url(#clip850)" d="M240.392 1505.08 Q236.781 1505.08 234.952 1508.65 Q233.146 1512.19 233.146 1519.32 Q233.146 1526.43 234.952 1529.99 Q236.781 1533.53 240.392 1533.53 Q244.026 1533.53 245.832 1529.99 Q247.66 1526.43 247.66 1519.32 Q247.66 1512.19 245.832 1508.65 Q244.026 1505.08 240.392 1505.08 M240.392 1501.38 Q246.202 1501.38 249.257 1505.99 Q252.336 1510.57 252.336 1519.32 Q252.336 1528.05 249.257 1532.65 Q246.202 1537.24 240.392 1537.24 Q234.582 1537.24 231.503 1532.65 Q228.447 1528.05 228.447 1519.32 Q228.447 1510.57 231.503 1505.99 Q234.582 1501.38 240.392 1501.38 Z" fill="#000000" fill-rule="evenodd" fill-opacity="1" /><path clip-path="url(#clip850)" d="M598.251 1517.66 L616.608 1517.66 L616.608 1521.6 L602.534 1521.6 L602.534 1530.07 Q603.552 1529.72 604.571 1529.56 Q605.589 1529.38 606.608 1529.38 Q612.395 1529.38 615.774 1532.55 Q619.154 1535.72 619.154 1541.14 Q619.154 1546.72 615.682 1549.82 Q612.21 1552.9 605.89 1552.9 Q603.714 1552.9 601.446 1552.53 Q599.2 1552.16 596.793 1551.41 L596.793 1546.72 Q598.876 1547.85 601.099 1548.41 Q603.321 1548.96 605.798 1548.96 Q609.802 1548.96 612.14 1546.85 Q614.478 1544.75 614.478 1541.14 Q614.478 1537.53 612.14 1535.42 Q609.802 1533.31 605.798 1533.31 Q603.923 1533.31 602.048 1533.73 Q600.196 1534.15 598.251 1535.03 L598.251 1517.66 Z" fill="#000000" fill-rule="evenodd" fill-opacity="1" /><path clip-path="url(#clip850)" d="M628.367 1546.35 L633.251 1546.35 L633.251 1552.22 L628.367 1552.22 L628.367 1546.35 Z" fill="#000000" fill-rule="evenodd" fill-opacity="1" /><path clip-path="url(#clip850)" d="M653.436 1520.74 Q649.825 1520.74 647.996 1524.31 Q646.191 1527.85 646.191 1534.98 Q646.191 1542.09 647.996 1545.65 Q649.825 1549.19 653.436 1549.19 Q657.07 1549.19 658.876 1545.65 Q660.705 1542.09 660.705 1534.98 Q660.705 1527.85 658.876 1524.31 Q657.07 1520.74 653.436 1520.74 M653.436 1517.04 Q659.246 1517.04 662.302 1521.65 Q665.381 1526.23 665.381 1534.98 Q665.381 1543.71 662.302 1548.31 Q659.246 1552.9 653.436 1552.9 Q647.626 1552.9 644.547 1548.31 Q641.492 1543.71 641.492 1534.98 Q641.492 1526.23 644.547 1521.65 Q647.626 1517.04 653.436 1517.04 Z" fill="#000000" fill-rule="evenodd" fill-opacity="1" /><path clip-path="url(#clip850)" d="M683.598 1520.74 Q679.987 1520.74 678.158 1524.31 Q676.353 1527.85 676.353 1534.98 Q676.353 1542.09 678.158 1545.65 Q679.987 1549.19 683.598 1549.19 Q687.232 1549.19 689.038 1545.65 Q690.867 1542.09 690.867 1534.98 Q690.867 1527.85 689.038 1524.31 Q687.232 1520.74 683.598 1520.74 M683.598 1517.04 Q689.408 1517.04 692.464 1521.65 Q695.542 1526.23 695.542 1534.98 Q695.542 1543.71 692.464 1548.31 Q689.408 1552.9 683.598 1552.9 Q677.788 1552.9 674.709 1548.31 Q671.654 1543.71 671.654 1534.98 Q671.654 1526.23 674.709 1521.65 Q677.788 1517.04 683.598 1517.04 Z" fill="#000000" fill-rule="evenodd" fill-opacity="1" /><path clip-path="url(#clip850)" d="M731.931 1526.76 L721.353 1537.39 L731.931 1547.97 L729.177 1550.77 L718.552 1540.14 L707.927 1550.77 L705.195 1547.97 L715.751 1537.39 L705.195 1526.76 L707.927 1523.96 L718.552 1534.59 L729.177 1523.96 L731.931 1526.76 Z" fill="#000000" fill-rule="evenodd" fill-opacity="1" /><path clip-path="url(#clip850)" d="M744.292 1548.29 L751.931 1548.29 L751.931 1521.92 L743.621 1523.59 L743.621 1519.33 L751.885 1517.66 L756.561 1517.66 L756.561 1548.29 L764.2 1548.29 L764.2 1552.22 L744.292 1552.22 L744.292 1548.29 Z" fill="#000000" fill-rule="evenodd" fill-opacity="1" /><path clip-path="url(#clip850)" d="M783.644 1520.74 Q780.033 1520.74 778.204 1524.31 Q776.399 1527.85 776.399 1534.98 Q776.399 1542.09 778.204 1545.65 Q780.033 1549.19 783.644 1549.19 Q787.278 1549.19 789.084 1545.65 Q790.912 1542.09 790.912 1534.98 Q790.912 1527.85 789.084 1524.31 Q787.278 1520.74 783.644 1520.74 M783.644 1517.04 Q789.454 1517.04 792.51 1521.65 Q795.588 1526.23 795.588 1534.98 Q795.588 1543.71 792.51 1548.31 Q789.454 1552.9 783.644 1552.9 Q777.834 1552.9 774.755 1548.31 Q771.699 1543.71 771.699 1534.98 Q771.699 1526.23 774.755 1521.65 Q777.834 1517.04 783.644 1517.04 Z" fill="#000000" fill-rule="evenodd" fill-opacity="1" /><path clip-path="url(#clip850)" d="M808.283 1509.67 Q811.011 1510.26 812.534 1512.1 Q814.076 1513.94 814.076 1516.65 Q814.076 1520.81 811.217 1523.08 Q808.359 1525.36 803.093 1525.36 Q801.325 1525.36 799.444 1525 Q797.582 1524.66 795.588 1523.97 L795.588 1520.3 Q797.168 1521.22 799.049 1521.69 Q800.93 1522.16 802.98 1522.16 Q806.553 1522.16 808.415 1520.75 Q810.296 1519.34 810.296 1516.65 Q810.296 1514.17 808.547 1512.78 Q806.816 1511.37 803.713 1511.37 L800.441 1511.37 L800.441 1508.24 L803.864 1508.24 Q806.666 1508.24 808.152 1507.13 Q809.638 1506.01 809.638 1503.9 Q809.638 1501.74 808.095 1500.59 Q806.572 1499.42 803.713 1499.42 Q802.152 1499.42 800.365 1499.76 Q798.579 1500.1 796.435 1500.82 L796.435 1497.43 Q798.597 1496.83 800.478 1496.53 Q802.378 1496.23 804.052 1496.23 Q808.378 1496.23 810.898 1498.2 Q813.418 1500.16 813.418 1503.51 Q813.418 1505.84 812.083 1507.45 Q810.747 1509.05 808.283 1509.67 Z" fill="#000000" fill-rule="evenodd" fill-opacity="1" /><path clip-path="url(#clip850)" d="M1062.3 1548.29 L1069.93 1548.29 L1069.93 1521.92 L1061.62 1523.59 L1061.62 1519.33 L1069.89 1517.66 L1074.56 1517.66 L1074.56 1548.29 L1082.2 1548.29 L1082.2 1552.22 L1062.3 1552.22 L1062.3 1548.29 Z" fill="#000000" fill-rule="evenodd" fill-opacity="1" /><path clip-path="url(#clip850)" d="M1091.65 1546.35 L1096.53 1546.35 L1096.53 1552.22 L1091.65 1552.22 L1091.65 1546.35 Z" fill="#000000" fill-rule="evenodd" fill-opacity="1" /><path clip-path="url(#clip850)" d="M1116.72 1520.74 Q1113.11 1520.74 1111.28 1524.31 Q1109.47 1527.85 1109.47 1534.98 Q1109.47 1542.09 1111.28 1545.65 Q1113.11 1549.19 1116.72 1549.19 Q1120.35 1549.19 1122.16 1545.65 Q1123.98 1542.09 1123.98 1534.98 Q1123.98 1527.85 1122.16 1524.31 Q1120.35 1520.74 1116.72 1520.74 M1116.72 1517.04 Q1122.53 1517.04 1125.58 1521.65 Q1128.66 1526.23 1128.66 1534.98 Q1128.66 1543.71 1125.58 1548.31 Q1122.53 1552.9 1116.72 1552.9 Q1110.91 1552.9 1107.83 1548.31 Q1104.77 1543.71 1104.77 1534.98 Q1104.77 1526.23 1107.83 1521.65 Q1110.91 1517.04 1116.72 1517.04 Z" fill="#000000" fill-rule="evenodd" fill-opacity="1" /><path clip-path="url(#clip850)" d="M1146.88 1520.74 Q1143.27 1520.74 1141.44 1524.31 Q1139.63 1527.85 1139.63 1534.98 Q1139.63 1542.09 1141.44 1545.65 Q1143.27 1549.19 1146.88 1549.19 Q1150.51 1549.19 1152.32 1545.65 Q1154.15 1542.09 1154.15 1534.98 Q1154.15 1527.85 1152.32 1524.31 Q1150.51 1520.74 1146.88 1520.74 M1146.88 1517.04 Q1152.69 1517.04 1155.74 1521.65 Q1158.82 1526.23 1158.82 1534.98 Q1158.82 1543.71 1155.74 1548.31 Q1152.69 1552.9 1146.88 1552.9 Q1141.07 1552.9 1137.99 1548.31 Q1134.93 1543.71 1134.93 1534.98 Q1134.93 1526.23 1137.99 1521.65 Q1141.07 1517.04 1146.88 1517.04 Z" fill="#000000" fill-rule="evenodd" fill-opacity="1" /><path clip-path="url(#clip850)" d="M1195.21 1526.76 L1184.63 1537.39 L1195.21 1547.97 L1192.46 1550.77 L1181.83 1540.14 L1171.21 1550.77 L1168.48 1547.97 L1179.03 1537.39 L1168.48 1526.76 L1171.21 1523.96 L1181.83 1534.59 L1192.46 1523.96 L1195.21 1526.76 Z" fill="#000000" fill-rule="evenodd" fill-opacity="1" /><path clip-path="url(#clip850)" d="M1207.57 1548.29 L1215.21 1548.29 L1215.21 1521.92 L1206.9 1523.59 L1206.9 1519.33 L1215.16 1517.66 L1219.84 1517.66 L1219.84 1548.29 L1227.48 1548.29 L1227.48 1552.22 L1207.57 1552.22 L1207.57 1548.29 Z" fill="#000000" fill-rule="evenodd" fill-opacity="1" /><path clip-path="url(#clip850)" d="M1246.92 1520.74 Q1243.31 1520.74 1241.48 1524.31 Q1239.68 1527.85 1239.68 1534.98 Q1239.68 1542.09 1241.48 1545.65 Q1243.31 1549.19 1246.92 1549.19 Q1250.56 1549.19 1252.36 1545.65 Q1254.19 1542.09 1254.19 1534.98 Q1254.19 1527.85 1252.36 1524.31 Q1250.56 1520.74 1246.92 1520.74 M1246.92 1517.04 Q1252.73 1517.04 1255.79 1521.65 Q1258.87 1526.23 1258.87 1534.98 Q1258.87 1543.71 1255.79 1548.31 Q1252.73 1552.9 1246.92 1552.9 Q1241.11 1552.9 1238.03 1548.31 Q1234.98 1543.71 1234.98 1534.98 Q1234.98 1526.23 1238.03 1521.65 Q1241.11 1517.04 1246.92 1517.04 Z" fill="#000000" fill-rule="evenodd" fill-opacity="1" /><path clip-path="url(#clip850)" d="M1271.54 1500.04 L1261.95 1515.03 L1271.54 1515.03 L1271.54 1500.04 M1270.55 1496.73 L1275.33 1496.73 L1275.33 1515.03 L1279.33 1515.03 L1279.33 1518.19 L1275.33 1518.19 L1275.33 1524.81 L1271.54 1524.81 L1271.54 1518.19 L1258.87 1518.19 L1258.87 1514.53 L1270.55 1496.73 Z" fill="#000000" fill-rule="evenodd" fill-opacity="1" /><path clip-path="url(#clip850)" d="M1527.34 1548.29 L1534.98 1548.29 L1534.98 1521.92 L1526.67 1523.59 L1526.67 1519.33 L1534.93 1517.66 L1539.61 1517.66 L1539.61 1548.29 L1547.25 1548.29 L1547.25 1552.22 L1527.34 1552.22 L1527.34 1548.29 Z" fill="#000000" fill-rule="evenodd" fill-opacity="1" /><path clip-path="url(#clip850)" d="M1556.69 1546.35 L1561.57 1546.35 L1561.57 1552.22 L1556.69 1552.22 L1556.69 1546.35 Z" fill="#000000" fill-rule="evenodd" fill-opacity="1" /><path clip-path="url(#clip850)" d="M1571.81 1517.66 L1590.16 1517.66 L1590.16 1521.6 L1576.09 1521.6 L1576.09 1530.07 Q1577.11 1529.72 1578.12 1529.56 Q1579.14 1529.38 1580.16 1529.38 Q1585.95 1529.38 1589.33 1532.55 Q1592.71 1535.72 1592.71 1541.14 Q1592.71 1546.72 1589.24 1549.82 Q1585.76 1552.9 1579.44 1552.9 Q1577.27 1552.9 1575 1552.53 Q1572.75 1552.16 1570.35 1551.41 L1570.35 1546.72 Q1572.43 1547.85 1574.65 1548.41 Q1576.87 1548.96 1579.35 1548.96 Q1583.36 1548.96 1585.69 1546.85 Q1588.03 1544.75 1588.03 1541.14 Q1588.03 1537.53 1585.69 1535.42 Q1583.36 1533.31 1579.35 1533.31 Q1577.48 1533.31 1575.6 1533.73 Q1573.75 1534.15 1571.81 1535.03 L1571.81 1517.66 Z" fill="#000000" fill-rule="evenodd" fill-opacity="1" /><path clip-path="url(#clip850)" d="M1611.92 1520.74 Q1608.31 1520.74 1606.48 1524.31 Q1604.68 1527.85 1604.68 1534.98 Q1604.68 1542.09 1606.48 1545.65 Q1608.31 1549.19 1611.92 1549.19 Q1615.56 1549.19 1617.36 1545.65 Q1619.19 1542.09 1619.19 1534.98 Q1619.19 1527.85 1617.36 1524.31 Q1615.56 1520.74 1611.92 1520.74 M1611.92 1517.04 Q1617.73 1517.04 1620.79 1521.65 Q1623.87 1526.23 1623.87 1534.98 Q1623.87 1543.71 1620.79 1548.31 Q1617.73 1552.9 1611.92 1552.9 Q1606.11 1552.9 1603.03 1548.31 Q1599.98 1543.71 1599.98 1534.98 Q1599.98 1526.23 1603.03 1521.65 Q1606.11 1517.04 1611.92 1517.04 Z" fill="#000000" fill-rule="evenodd" fill-opacity="1" /><path clip-path="url(#clip850)" d="M1660.25 1526.76 L1649.68 1537.39 L1660.25 1547.97 L1657.5 1550.77 L1646.87 1540.14 L1636.25 1550.77 L1633.52 1547.97 L1644.07 1537.39 L1633.52 1526.76 L1636.25 1523.96 L1646.87 1534.59 L1657.5 1523.96 L1660.25 1526.76 Z" fill="#000000" fill-rule="evenodd" fill-opacity="1" /><path clip-path="url(#clip850)" d="M1672.62 1548.29 L1680.25 1548.29 L1680.25 1521.92 L1671.94 1523.59 L1671.94 1519.33 L1680.21 1517.66 L1684.88 1517.66 L1684.88 1548.29 L1692.52 1548.29 L1692.52 1552.22 L1672.62 1552.22 L1672.62 1548.29 Z" fill="#000000" fill-rule="evenodd" fill-opacity="1" /><path clip-path="url(#clip850)" d="M1711.97 1520.74 Q1708.36 1520.74 1706.53 1524.31 Q1704.72 1527.85 1704.72 1534.98 Q1704.72 1542.09 1706.53 1545.65 Q1708.36 1549.19 1711.97 1549.19 Q1715.6 1549.19 1717.41 1545.65 Q1719.24 1542.09 1719.24 1534.98 Q1719.24 1527.85 1717.41 1524.31 Q1715.6 1520.74 1711.97 1520.74 M1711.97 1517.04 Q1717.78 1517.04 1720.83 1521.65 Q1723.91 1526.23 1723.91 1534.98 Q1723.91 1543.71 1720.83 1548.31 Q1717.78 1552.9 1711.97 1552.9 Q1706.16 1552.9 1703.08 1548.31 Q1700.02 1543.71 1700.02 1534.98 Q1700.02 1526.23 1703.08 1521.65 Q1706.16 1517.04 1711.97 1517.04 Z" fill="#000000" fill-rule="evenodd" fill-opacity="1" /><path clip-path="url(#clip850)" d="M1736.59 1500.04 L1727 1515.03 L1736.59 1515.03 L1736.59 1500.04 M1735.59 1496.73 L1740.37 1496.73 L1740.37 1515.03 L1744.37 1515.03 L1744.37 1518.19 L1740.37 1518.19 L1740.37 1524.81 L1736.59 1524.81 L1736.59 1518.19 L1723.91 1518.19 L1723.91 1514.53 L1735.59 1496.73 Z" fill="#000000" fill-rule="evenodd" fill-opacity="1" /><path clip-path="url(#clip850)" d="M1996.47 1548.29 L2012.79 1548.29 L2012.79 1552.22 L1990.84 1552.22 L1990.84 1548.29 Q1993.5 1545.53 1998.09 1540.91 Q2002.69 1536.25 2003.87 1534.91 Q2006.12 1532.39 2007 1530.65 Q2007.9 1528.89 2007.9 1527.2 Q2007.9 1524.45 2005.96 1522.71 Q2004.04 1520.97 2000.93 1520.97 Q1998.74 1520.97 1996.28 1521.74 Q1993.85 1522.5 1991.07 1524.05 L1991.07 1519.33 Q1993.9 1518.2 1996.35 1517.62 Q1998.8 1517.04 2000.84 1517.04 Q2006.21 1517.04 2009.41 1519.72 Q2012.6 1522.41 2012.6 1526.9 Q2012.6 1529.03 2011.79 1530.95 Q2011 1532.85 2008.9 1535.44 Q2008.32 1536.11 2005.22 1539.33 Q2002.11 1542.53 1996.47 1548.29 Z" fill="#000000" fill-rule="evenodd" fill-opacity="1" /><path clip-path="url(#clip850)" d="M2022.6 1546.35 L2027.48 1546.35 L2027.48 1552.22 L2022.6 1552.22 L2022.6 1546.35 Z" fill="#000000" fill-rule="evenodd" fill-opacity="1" /><path clip-path="url(#clip850)" d="M2047.67 1520.74 Q2044.06 1520.74 2042.23 1524.31 Q2040.42 1527.85 2040.42 1534.98 Q2040.42 1542.09 2042.23 1545.65 Q2044.06 1549.19 2047.67 1549.19 Q2051.3 1549.19 2053.11 1545.65 Q2054.94 1542.09 2054.94 1534.98 Q2054.94 1527.85 2053.11 1524.31 Q2051.3 1520.74 2047.67 1520.74 M2047.67 1517.04 Q2053.48 1517.04 2056.54 1521.65 Q2059.61 1526.23 2059.61 1534.98 Q2059.61 1543.71 2056.54 1548.31 Q2053.48 1552.9 2047.67 1552.9 Q2041.86 1552.9 2038.78 1548.31 Q2035.73 1543.71 2035.73 1534.98 Q2035.73 1526.23 2038.78 1521.65 Q2041.86 1517.04 2047.67 1517.04 Z" fill="#000000" fill-rule="evenodd" fill-opacity="1" /><path clip-path="url(#clip850)" d="M2077.83 1520.74 Q2074.22 1520.74 2072.39 1524.31 Q2070.59 1527.85 2070.59 1534.98 Q2070.59 1542.09 2072.39 1545.65 Q2074.22 1549.19 2077.83 1549.19 Q2081.47 1549.19 2083.27 1545.65 Q2085.1 1542.09 2085.1 1534.98 Q2085.1 1527.85 2083.27 1524.31 Q2081.47 1520.74 2077.83 1520.74 M2077.83 1517.04 Q2083.64 1517.04 2086.7 1521.65 Q2089.78 1526.23 2089.78 1534.98 Q2089.78 1543.71 2086.7 1548.31 Q2083.64 1552.9 2077.83 1552.9 Q2072.02 1552.9 2068.94 1548.31 Q2065.89 1543.71 2065.89 1534.98 Q2065.89 1526.23 2068.94 1521.65 Q2072.02 1517.04 2077.83 1517.04 Z" fill="#000000" fill-rule="evenodd" fill-opacity="1" /><path clip-path="url(#clip850)" d="M2126.16 1526.76 L2115.59 1537.39 L2126.16 1547.97 L2123.41 1550.77 L2112.79 1540.14 L2102.16 1550.77 L2099.43 1547.97 L2109.98 1537.39 L2099.43 1526.76 L2102.16 1523.96 L2112.79 1534.59 L2123.41 1523.96 L2126.16 1526.76 Z" fill="#000000" fill-rule="evenodd" fill-opacity="1" /><path clip-path="url(#clip850)" d="M2138.53 1548.29 L2146.16 1548.29 L2146.16 1521.92 L2137.85 1523.59 L2137.85 1519.33 L2146.12 1517.66 L2150.79 1517.66 L2150.79 1548.29 L2158.43 1548.29 L2158.43 1552.22 L2138.53 1552.22 L2138.53 1548.29 Z" fill="#000000" fill-rule="evenodd" fill-opacity="1" /><path clip-path="url(#clip850)" d="M2177.88 1520.74 Q2174.27 1520.74 2172.44 1524.31 Q2170.63 1527.85 2170.63 1534.98 Q2170.63 1542.09 2172.44 1545.65 Q2174.27 1549.19 2177.88 1549.19 Q2181.51 1549.19 2183.32 1545.65 Q2185.15 1542.09 2185.15 1534.98 Q2185.15 1527.85 2183.32 1524.31 Q2181.51 1520.74 2177.88 1520.74 M2177.88 1517.04 Q2183.69 1517.04 2186.74 1521.65 Q2189.82 1526.23 2189.82 1534.98 Q2189.82 1543.71 2186.74 1548.31 Q2183.69 1552.9 2177.88 1552.9 Q2172.07 1552.9 2168.99 1548.31 Q2165.93 1543.71 2165.93 1534.98 Q2165.93 1526.23 2168.99 1521.65 Q2172.07 1517.04 2177.88 1517.04 Z" fill="#000000" fill-rule="evenodd" fill-opacity="1" /><path clip-path="url(#clip850)" d="M2202.5 1500.04 L2192.91 1515.03 L2202.5 1515.03 L2202.5 1500.04 M2201.5 1496.73 L2206.28 1496.73 L2206.28 1515.03 L2210.28 1515.03 L2210.28 1518.19 L2206.28 1518.19 L2206.28 1524.81 L2202.5 1524.81 L2202.5 1518.19 L2189.82 1518.19 L2189.82 1514.53 L2201.5 1496.73 Z" fill="#000000" fill-rule="evenodd" fill-opacity="1" /><polyline clip-path="url(#clip852)" style="stroke:#000000; stroke-linecap:butt; stroke-linejoin:round; stroke-width:2; stroke-opacity:0.1; fill:none" points="
  178.867,1283.91 2352.76,1283.91 
  "/>
<polyline clip-path="url(#clip852)" style="stroke:#000000; stroke-linecap:butt; stroke-linejoin:round; stroke-width:2; stroke-opacity:0.1; fill:none" points="
  178.867,903.396 2352.76,903.396 
  "/>
<polyline clip-path="url(#clip852)" style="stroke:#000000; stroke-linecap:butt; stroke-linejoin:round; stroke-width:2; stroke-opacity:0.1; fill:none" points="
  178.867,522.884 2352.76,522.884 
  "/>
<polyline clip-path="url(#clip852)" style="stroke:#000000; stroke-linecap:butt; stroke-linejoin:round; stroke-width:2; stroke-opacity:0.1; fill:none" points="
  178.867,142.372 2352.76,142.372 
  "/>
<polyline clip-path="url(#clip850)" style="stroke:#000000; stroke-linecap:butt; stroke-linejoin:round; stroke-width:4; stroke-opacity:1; fill:none" points="
  178.867,1474.16 178.867,47.2441 
  "/>
<polyline clip-path="url(#clip850)" style="stroke:#000000; stroke-linecap:butt; stroke-linejoin:round; stroke-width:4; stroke-opacity:1; fill:none" points="
  178.867,1283.91 197.764,1283.91 
  "/>
<polyline clip-path="url(#clip850)" style="stroke:#000000; stroke-linecap:butt; stroke-linejoin:round; stroke-width:4; stroke-opacity:1; fill:none" points="
  178.867,903.396 197.764,903.396 
  "/>
<polyline clip-path="url(#clip850)" style="stroke:#000000; stroke-linecap:butt; stroke-linejoin:round; stroke-width:4; stroke-opacity:1; fill:none" points="
  178.867,522.884 197.764,522.884 
  "/>
<polyline clip-path="url(#clip850)" style="stroke:#000000; stroke-linecap:butt; stroke-linejoin:round; stroke-width:4; stroke-opacity:1; fill:none" points="
  178.867,142.372 197.764,142.372 
  "/>
<path clip-path="url(#clip850)" d="M50.9921 1284.36 L80.6679 1284.36 L80.6679 1288.3 L50.9921 1288.3 L50.9921 1284.36 Z" fill="#000000" fill-rule="evenodd" fill-opacity="1" /><path clip-path="url(#clip850)" d="M101.339 1282.05 Q98.1909 1282.05 96.3391 1284.2 Q94.5104 1286.35 94.5104 1290.1 Q94.5104 1293.83 96.3391 1296 Q98.1909 1298.16 101.339 1298.16 Q104.487 1298.16 106.316 1296 Q108.168 1293.83 108.168 1290.1 Q108.168 1286.35 106.316 1284.2 Q104.487 1282.05 101.339 1282.05 M110.621 1267.39 L110.621 1271.65 Q108.862 1270.82 107.057 1270.38 Q105.274 1269.94 103.515 1269.94 Q98.8854 1269.94 96.4317 1273.06 Q94.0012 1276.19 93.6539 1282.51 Q95.0197 1280.49 97.0798 1279.43 Q99.14 1278.34 101.617 1278.34 Q106.825 1278.34 109.834 1281.51 Q112.867 1284.66 112.867 1290.1 Q112.867 1295.42 109.719 1298.64 Q106.571 1301.86 101.339 1301.86 Q95.3437 1301.86 92.1725 1297.28 Q89.0012 1292.67 89.0012 1283.94 Q89.0012 1275.75 92.89 1270.89 Q96.7789 1266 103.33 1266 Q105.089 1266 106.871 1266.35 Q108.677 1266.7 110.621 1267.39 Z" fill="#000000" fill-rule="evenodd" fill-opacity="1" /><path clip-path="url(#clip850)" d="M130.922 1269.71 Q127.311 1269.71 125.482 1273.27 Q123.677 1276.81 123.677 1283.94 Q123.677 1291.05 125.482 1294.61 Q127.311 1298.16 130.922 1298.16 Q134.556 1298.16 136.362 1294.61 Q138.191 1291.05 138.191 1283.94 Q138.191 1276.81 136.362 1273.27 Q134.556 1269.71 130.922 1269.71 M130.922 1266 Q136.732 1266 139.788 1270.61 Q142.867 1275.19 142.867 1283.94 Q142.867 1292.67 139.788 1297.28 Q136.732 1301.86 130.922 1301.86 Q125.112 1301.86 122.033 1297.28 Q118.978 1292.67 118.978 1283.94 Q118.978 1275.19 122.033 1270.61 Q125.112 1266 130.922 1266 Z" fill="#000000" fill-rule="evenodd" fill-opacity="1" /><path clip-path="url(#clip850)" d="M50.9921 903.848 L80.6679 903.848 L80.6679 907.783 L50.9921 907.783 L50.9921 903.848 Z" fill="#000000" fill-rule="evenodd" fill-opacity="1" /><path clip-path="url(#clip850)" d="M103.608 890.19 L91.8021 908.639 L103.608 908.639 L103.608 890.19 M102.381 886.116 L108.26 886.116 L108.26 908.639 L113.191 908.639 L113.191 912.528 L108.26 912.528 L108.26 920.676 L103.608 920.676 L103.608 912.528 L88.0058 912.528 L88.0058 908.014 L102.381 886.116 Z" fill="#000000" fill-rule="evenodd" fill-opacity="1" /><path clip-path="url(#clip850)" d="M130.922 889.195 Q127.311 889.195 125.482 892.76 Q123.677 896.302 123.677 903.431 Q123.677 910.538 125.482 914.102 Q127.311 917.644 130.922 917.644 Q134.556 917.644 136.362 914.102 Q138.191 910.538 138.191 903.431 Q138.191 896.302 136.362 892.76 Q134.556 889.195 130.922 889.195 M130.922 885.491 Q136.732 885.491 139.788 890.098 Q142.867 894.681 142.867 903.431 Q142.867 912.158 139.788 916.764 Q136.732 921.348 130.922 921.348 Q125.112 921.348 122.033 916.764 Q118.978 912.158 118.978 903.431 Q118.978 894.681 122.033 890.098 Q125.112 885.491 130.922 885.491 Z" fill="#000000" fill-rule="evenodd" fill-opacity="1" /><path clip-path="url(#clip850)" d="M50.9921 523.336 L80.6679 523.336 L80.6679 527.271 L50.9921 527.271 L50.9921 523.336 Z" fill="#000000" fill-rule="evenodd" fill-opacity="1" /><path clip-path="url(#clip850)" d="M94.7882 536.229 L111.108 536.229 L111.108 540.164 L89.1632 540.164 L89.1632 536.229 Q91.8252 533.475 96.4085 528.845 Q101.015 524.192 102.196 522.85 Q104.441 520.326 105.321 518.59 Q106.223 516.831 106.223 515.141 Q106.223 512.387 104.279 510.651 Q102.358 508.914 99.2558 508.914 Q97.0567 508.914 94.603 509.678 Q92.1725 510.442 89.3947 511.993 L89.3947 507.271 Q92.2188 506.137 94.6724 505.558 Q97.1261 504.979 99.1632 504.979 Q104.534 504.979 107.728 507.664 Q110.922 510.35 110.922 514.84 Q110.922 516.97 110.112 518.891 Q109.325 520.789 107.219 523.382 Q106.64 524.053 103.538 527.271 Q100.436 530.465 94.7882 536.229 Z" fill="#000000" fill-rule="evenodd" fill-opacity="1" /><path clip-path="url(#clip850)" d="M130.922 508.683 Q127.311 508.683 125.482 512.248 Q123.677 515.789 123.677 522.919 Q123.677 530.025 125.482 533.59 Q127.311 537.132 130.922 537.132 Q134.556 537.132 136.362 533.59 Q138.191 530.025 138.191 522.919 Q138.191 515.789 136.362 512.248 Q134.556 508.683 130.922 508.683 M130.922 504.979 Q136.732 504.979 139.788 509.586 Q142.867 514.169 142.867 522.919 Q142.867 531.646 139.788 536.252 Q136.732 540.836 130.922 540.836 Q125.112 540.836 122.033 536.252 Q118.978 531.646 118.978 522.919 Q118.978 514.169 122.033 509.586 Q125.112 504.979 130.922 504.979 Z" fill="#000000" fill-rule="evenodd" fill-opacity="1" /><path clip-path="url(#clip850)" d="M130.922 128.171 Q127.311 128.171 125.482 131.736 Q123.677 135.277 123.677 142.407 Q123.677 149.513 125.482 153.078 Q127.311 156.62 130.922 156.62 Q134.556 156.62 136.362 153.078 Q138.191 149.513 138.191 142.407 Q138.191 135.277 136.362 131.736 Q134.556 128.171 130.922 128.171 M130.922 124.467 Q136.732 124.467 139.788 129.074 Q142.867 133.657 142.867 142.407 Q142.867 151.134 139.788 155.74 Q136.732 160.323 130.922 160.323 Q125.112 160.323 122.033 155.74 Q118.978 151.134 118.978 142.407 Q118.978 133.657 122.033 129.074 Q125.112 124.467 130.922 124.467 Z" fill="#000000" fill-rule="evenodd" fill-opacity="1" /><polyline clip-path="url(#clip852)" style="stroke:#009af9; stroke-linecap:butt; stroke-linejoin:round; stroke-width:4; stroke-opacity:1; fill:none" points="
  242.443,1896.81 244.493,1667.23 246.544,1532.4 248.595,1436.17 250.646,1360.93 252.697,1298.85 254.748,1245.73 256.799,1199.07 258.849,1157.26 260.9,1119.19 
  262.951,1084.06 265.002,1051.28 267.053,1020.39 269.104,991.046 271.154,962.951 273.205,935.866 275.256,909.591 277.307,883.952 279.358,858.796 281.409,833.983 
  283.459,809.388 285.51,784.889 287.561,760.372 289.612,735.722 291.663,710.824 293.714,685.557 295.764,659.797 297.815,633.406 299.866,606.236 301.917,578.121 
  303.968,548.873 306.019,518.281 308.069,486.107 310.12,452.089 312.171,415.959 314.222,377.495 316.273,336.664 318.324,293.957 320.375,251.085 322.425,211.952 
  324.476,182.388 326.527,166.11 328.578,160.554 330.629,159.774 332.68,159.44 334.73,158.203 336.781,157.308 338.832,160.128 340.883,170.783 342.934,191.147 
  344.985,219.166 347.035,250.917 349.086,283.228 351.137,314.365 353.188,343.614 355.239,370.803 357.29,395.995 359.34,419.35 361.391,441.048 363.442,461.266 
  365.493,480.167 367.544,497.892 369.595,514.566 371.645,530.298 373.696,545.183 375.747,559.302 377.798,572.726 379.849,585.519 381.9,597.734 383.951,609.42 
  386.001,620.621 388.052,631.373 390.103,641.711 392.154,651.666 394.205,661.263 396.256,670.529 398.306,679.485 400.357,688.151 402.408,696.545 404.459,704.685 
  406.51,712.585 408.561,720.258 410.611,727.719 412.662,734.978 414.713,742.047 416.764,748.935 418.815,755.651 420.866,762.205 422.916,768.604 424.967,774.856 
  427.018,780.967 429.069,786.944 431.12,792.793 433.171,798.519 435.222,804.129 437.272,809.625 439.323,815.015 441.374,820.301 443.425,825.487 445.476,830.579 
  447.527,835.579 449.577,840.49 451.628,845.317 453.679,850.061 455.73,854.727 457.781,859.317 459.832,863.833 461.882,868.278 463.933,872.654 465.984,876.964 
  468.035,881.209 470.086,885.393 472.137,889.516 474.187,893.58 476.238,897.588 478.289,901.542 480.34,905.441 482.391,909.289 484.442,913.087 486.492,916.836 
  488.543,920.537 490.594,924.193 492.645,927.803 494.696,931.37 496.747,934.894 498.798,938.376 500.848,941.819 502.899,945.222 504.95,948.586 507.001,951.913 
  509.052,955.204 511.103,958.459 513.153,961.68 515.204,964.866 517.255,968.02 519.306,971.141 521.357,974.23 523.408,977.289 525.458,980.317 527.509,983.316 
  529.56,986.286 531.611,989.227 533.662,992.141 535.713,995.028 537.763,997.889 539.814,1000.72 541.865,1003.53 543.916,1006.32 545.967,1009.08 548.018,1011.81 
  550.068,1014.52 552.119,1017.21 554.17,1019.88 556.221,1022.53 558.272,1025.15 560.323,1027.75 562.374,1030.33 564.424,1032.89 566.475,1035.43 568.526,1037.96 
  570.577,1040.46 572.628,1042.94 574.679,1045.4 576.729,1047.85 578.78,1050.28 580.831,1052.69 582.882,1055.08 584.933,1057.45 586.984,1059.81 589.034,1062.15 
  591.085,1064.48 593.136,1066.79 595.187,1069.08 597.238,1071.36 599.289,1073.62 601.339,1075.87 603.39,1078.1 605.441,1080.32 607.492,1082.53 609.543,1084.72 
  611.594,1086.89 613.644,1089.05 615.695,1091.2 617.746,1093.34 619.797,1095.46 621.848,1097.57 623.899,1099.67 625.95,1101.75 628,1103.83 630.051,1105.89 
  632.102,1107.94 634.153,1109.97 636.204,1112 638.255,1114.01 640.305,1116.01 642.356,1118.01 644.407,1119.99 646.458,1121.96 648.509,1123.91 650.56,1125.86 
  652.61,1127.8 654.661,1129.73 656.712,1131.65 658.763,1133.55 660.814,1135.45 662.865,1137.34 664.915,1139.22 666.966,1141.09 669.017,1142.95 671.068,1144.8 
  673.119,1146.64 675.17,1148.47 677.22,1150.29 679.271,1152.11 681.322,1153.92 683.373,1155.71 685.424,1157.5 687.475,1159.28 689.526,1161.05 691.576,1162.82 
  693.627,1164.58 695.678,1166.32 697.729,1168.06 699.78,1169.8 701.831,1171.52 703.881,1173.24 705.932,1174.95 707.983,1176.65 710.034,1178.35 712.085,1180.04 
  714.136,1181.72 716.186,1183.39 718.237,1185.06 720.288,1186.72 722.339,1188.37 724.39,1190.02 726.441,1191.66 728.491,1193.29 730.542,1194.92 732.593,1196.54 
  734.644,1198.15 736.695,1199.76 738.746,1201.36 740.797,1202.96 742.847,1204.55 744.898,1206.13 746.949,1207.71 749,1209.28 751.051,1210.85 753.102,1212.41 
  755.152,1213.96 757.203,1215.51 759.254,1217.05 761.305,1218.59 763.356,1220.12 765.407,1221.65 767.457,1223.17 769.508,1224.69 771.559,1226.2 773.61,1227.7 
  775.661,1229.2 777.712,1230.7 779.762,1232.19 781.813,1233.67 783.864,1235.15 785.915,1236.63 787.966,1238.1 790.017,1239.57 792.067,1241.03 794.118,1242.48 
  796.169,1243.93 798.22,1245.38 800.271,1246.82 802.322,1248.26 804.373,1249.7 806.423,1251.13 808.474,1252.55 810.525,1253.97 812.576,1255.39 814.627,1256.8 
  816.678,1258.21 818.728,1259.61 820.779,1261.01 822.83,1262.41 824.881,1263.8 826.932,1265.19 828.983,1266.57 831.033,1267.95 833.084,1269.33 835.135,1270.7 
  837.186,1272.07 839.237,1273.43 841.288,1274.79 843.338,1276.15 845.389,1277.5 847.44,1278.85 849.491,1280.2 851.542,1281.54 853.593,1282.88 855.643,1284.22 
  857.694,1285.55 859.745,1286.88 861.796,1288.21 863.847,1289.53 865.898,1290.85 867.949,1292.16 869.999,1293.48 872.05,1294.78 874.101,1296.09 876.152,1297.39 
  878.203,1298.69 880.254,1299.99 882.304,1301.28 884.355,1302.57 886.406,1303.86 888.457,1305.15 890.508,1306.43 892.559,1307.71 894.609,1308.98 896.66,1310.25 
  898.711,1311.52 900.762,1312.79 902.813,1314.05 904.864,1315.32 906.914,1316.58 908.965,1317.83 911.016,1319.08 913.067,1320.34 915.118,1321.58 917.169,1322.83 
  919.219,1324.07 921.27,1325.31 923.321,1326.55 925.372,1327.79 927.423,1329.02 929.474,1330.25 931.525,1331.48 933.575,1332.7 935.626,1333.92 937.677,1335.14 
  939.728,1336.36 941.779,1337.58 943.83,1338.79 945.88,1340 947.931,1341.21 949.982,1342.42 952.033,1343.62 954.084,1344.83 956.135,1346.03 958.185,1347.23 
  960.236,1348.42 962.287,1349.61 964.338,1350.81 966.389,1352 968.44,1353.18 970.49,1354.37 972.541,1355.55 974.592,1356.73 976.643,1357.91 978.694,1359.09 
  980.745,1360.27 982.795,1361.44 984.846,1362.61 986.897,1363.78 988.948,1364.95 990.999,1366.12 993.05,1367.28 995.101,1368.44 997.151,1369.6 999.202,1370.76 
  1001.25,1371.92 1003.3,1373.07 1005.35,1374.23 1007.41,1375.38 1009.46,1376.53 1011.51,1377.68 1013.56,1378.83 1015.61,1379.97 1017.66,1381.12 1019.71,1382.26 
  1021.76,1383.4 1023.81,1384.54 1025.86,1385.67 1027.91,1386.81 1029.96,1387.94 1032.02,1389.08 1034.07,1390.21 1036.12,1391.34 1038.17,1392.47 1040.22,1393.59 
  1042.27,1394.72 1044.32,1395.84 1046.37,1396.97 1048.42,1398.09 1050.47,1399.21 1052.52,1400.33 1054.57,1401.44 1056.63,1402.56 1058.68,1403.67 1060.73,1404.79 
  1062.78,1405.9 1064.83,1407.01 1066.88,1408.12 1068.93,1409.23 1070.98,1410.34 1073.03,1411.44 1075.08,1412.55 1077.13,1413.65 1079.18,1414.75 1081.24,1415.85 
  1083.29,1416.95 1085.34,1418.05 1087.39,1419.15 1089.44,1420.25 1091.49,1421.34 1093.54,1422.44 1095.59,1423.53 1097.64,1424.62 1099.69,1425.72 1101.74,1426.81 
  1103.79,1427.9 1105.85,1428.98 1107.9,1430.07 1109.95,1431.16 1112,1432.24 1114.05,1433.33 1116.1,1434.41 1118.15,1435.5 1120.2,1436.58 1122.25,1437.66 
  1124.3,1438.74 1126.35,1439.82 1128.41,1440.9 1130.46,1441.98 1132.51,1443.05 1134.56,1444.13 1136.61,1445.2 1138.66,1446.28 1140.71,1447.35 1142.76,1448.43 
  1144.81,1449.5 1146.86,1450.57 1148.91,1451.64 1150.96,1452.71 1153.02,1453.78 1155.07,1454.85 1157.12,1455.92 1159.17,1456.98 1161.22,1458.05 1163.27,1459.12 
  1165.32,1460.18 1167.37,1461.25 1169.42,1462.31 1171.47,1463.38 1173.52,1464.44 1175.57,1465.5 1177.63,1466.56 1179.68,1467.63 1181.73,1468.69 1183.78,1469.75 
  1185.83,1470.81 1187.88,1471.87 1189.93,1472.92 1191.98,1473.98 1194.03,1475.04 1196.08,1476.1 1198.13,1477.16 1200.18,1478.21 1202.24,1479.27 1204.29,1480.32 
  1206.34,1481.38 1208.39,1482.44 1210.44,1483.49 1212.49,1484.54 1214.54,1485.6 1216.59,1486.65 1218.64,1487.71 1220.69,1488.76 1222.74,1489.81 1224.79,1490.86 
  1226.85,1491.92 1228.9,1492.97 1230.95,1494.02 1233,1495.07 1235.05,1496.12 1237.1,1497.17 1239.15,1498.22 1241.2,1499.27 1243.25,1500.32 1245.3,1501.37 
  1247.35,1502.42 1249.4,1503.47 1251.46,1504.52 1253.51,1505.57 1255.56,1506.62 1257.61,1507.67 1259.66,1508.72 1261.71,1509.77 1263.76,1510.82 1265.81,1511.87 
  1267.86,1512.92 1269.91,1513.97 1271.96,1515.01 1274.01,1516.06 1276.07,1517.11 1278.12,1518.16 1280.17,1519.21 1282.22,1520.26 1284.27,1521.31 1286.32,1522.35 
  1288.37,1523.4 1290.42,1524.45 1292.47,1525.5 1294.52,1526.55 1296.57,1527.6 1298.62,1528.65 1300.68,1529.7 1302.73,1530.75 1304.78,1531.8 1306.83,1532.85 
  1308.88,1533.89 1310.93,1534.94 1312.98,1535.99 1315.03,1537.05 1317.08,1538.1 1319.13,1539.15 1321.18,1540.2 1323.23,1541.25 1325.29,1542.3 1327.34,1543.35 
  1329.39,1544.4 1331.44,1545.45 1333.49,1546.51 1335.54,1547.56 1337.59,1548.61 1339.64,1549.67 1341.69,1550.72 1343.74,1551.77 1345.79,1552.83 1347.84,1553.88 
  1349.9,1554.94 1351.95,1555.99 1354,1557.05 1356.05,1558.1 1358.1,1559.16 1360.15,1560.22 1362.2,1561.28 1364.25,1562.33 1366.3,1563.39 1368.35,1564.45 
  1370.4,1565.51 1372.45,1566.57 1374.51,1567.63 1376.56,1568.69 1378.61,1569.75 1380.66,1570.81 1382.71,1571.88 1384.76,1572.94 1386.81,1574 1388.86,1575.07 
  1390.91,1576.13 1392.96,1577.2 1395.01,1578.26 1397.06,1579.33 1399.12,1580.4 1401.17,1581.46 1403.22,1582.53 1405.27,1583.6 1407.32,1584.67 1409.37,1585.74 
  1411.42,1586.81 1413.47,1587.88 1415.52,1588.96 1417.57,1590.03 1419.62,1591.1 1421.68,1592.18 1423.73,1593.25 1425.78,1594.33 1427.83,1595.41 1429.88,1596.49 
  1431.93,1597.57 1433.98,1598.65 1436.03,1599.73 1438.08,1600.81 1440.13,1601.89 1442.18,1602.97 1444.23,1604.06 1446.29,1605.14 1448.34,1606.23 1450.39,1607.32 
  1452.44,1608.4 1454.49,1609.49 1456.54,1610.58 1458.59,1611.67 1460.64,1612.76 1462.69,1613.86 1464.74,1614.95 1466.79,1616.05 1468.84,1617.14 1470.9,1618.24 
  1472.95,1619.34 1475,1620.44 1477.05,1621.54 1479.1,1622.64 1481.15,1623.74 1483.2,1624.84 1485.25,1625.95 1487.3,1627.06 1489.35,1628.16 1491.4,1629.27 
  1493.45,1630.38 1495.51,1631.49 1497.56,1632.6 1499.61,1633.72 1501.66,1634.83 1503.71,1635.95 1505.76,1637.06 1507.81,1638.18 1509.86,1639.3 1511.91,1640.42 
  1513.96,1641.55 1516.01,1642.67 1518.06,1643.8 1520.12,1644.92 1522.17,1646.05 1524.22,1647.18 1526.27,1648.31 1528.32,1649.44 1530.37,1650.58 1532.42,1651.71 
  1534.47,1652.85 1536.52,1653.99 1538.57,1655.13 1540.62,1656.27 1542.67,1657.42 1544.73,1658.56 1546.78,1659.71 1548.83,1660.85 1550.88,1662 1552.93,1663.16 
  1554.98,1664.31 1557.03,1665.46 1559.08,1666.62 1561.13,1667.78 1563.18,1668.94 1565.23,1670.1 1567.28,1671.26 1569.34,1672.43 1571.39,1673.59 1573.44,1674.76 
  1575.49,1675.93 1577.54,1677.11 1579.59,1678.28 1581.64,1679.46 1583.69,1680.64 1585.74,1681.82 1587.79,1683 1589.84,1684.18 1591.89,1685.37 1593.95,1686.56 
  1596,1687.75 1598.05,1688.94 1600.1,1690.13 1602.15,1691.33 1604.2,1692.53 1606.25,1693.73 1608.3,1694.93 1610.35,1696.14 1612.4,1697.34 1614.45,1698.55 
  1616.5,1699.76 1618.56,1700.98 1620.61,1702.19 1622.66,1703.41 1624.71,1704.63 1626.76,1705.85 1628.81,1707.08 1630.86,1708.31 1632.91,1709.54 1634.96,1710.77 
  1637.01,1712 1639.06,1713.24 1641.11,1714.48 1643.17,1715.72 1645.22,1716.97 1647.27,1718.21 1649.32,1719.46 1651.37,1720.72 1653.42,1721.97 1655.47,1723.23 
  1657.52,1724.49 1659.57,1725.75 1661.62,1727.02 1663.67,1728.29 1665.72,1729.56 1667.78,1730.83 1669.83,1732.11 1671.88,1733.39 1673.93,1734.67 1675.98,1735.96 
  1678.03,1737.24 1680.08,1738.53 1682.13,1739.83 1684.18,1741.13 1686.23,1742.43 1688.28,1743.73 1690.33,1745.04 1692.39,1746.35 1694.44,1747.66 1696.49,1748.97 
  1698.54,1750.29 1700.59,1751.61 1702.64,1752.94 1704.69,1754.27 1706.74,1755.6 1708.79,1756.94 1710.84,1758.27 1712.89,1759.62 1714.94,1760.96 1717,1762.31 
  1719.05,1763.66 1721.1,1765.02 1723.15,1766.38 1725.2,1767.74 1727.25,1769.11 1729.3,1770.48 1731.35,1771.85 1733.4,1773.23 1735.45,1774.61 1737.5,1776 
  1739.56,1777.38 1741.61,1778.78 1743.66,1780.17 1745.71,1781.57 1747.76,1782.98 1749.81,1784.39 1751.86,1785.8 1753.91,1787.22 1755.96,1788.64 1758.01,1790.06 
  1760.06,1791.49 1762.11,1792.93 1764.17,1794.36 1766.22,1795.8 1768.27,1797.25 1770.32,1798.7 1772.37,1800.16 1774.42,1801.62 1776.47,1803.08 1778.52,1804.55 
  1780.57,1806.02 1782.62,1807.5 1784.67,1808.98 1786.72,1810.47 1788.78,1811.96 1790.83,1813.46 1792.88,1814.96 1794.93,1816.47 1796.98,1817.98 1799.03,1819.5 
  1801.08,1821.02 1803.13,1822.54 1805.18,1824.08 1807.23,1825.61 1809.28,1827.16 1811.33,1828.7 1813.39,1830.26 1815.44,1831.82 1817.49,1833.38 1819.54,1834.95 
  1821.59,1836.52 1823.64,1838.11 1825.69,1839.69 1827.74,1841.28 1829.79,1842.88 1831.84,1844.49 1833.89,1846.1 1835.94,1847.71 1838,1849.33 1840.05,1850.96 
  1842.1,1852.6 1844.15,1854.24 1846.2,1855.88 1848.25,1857.54 1850.3,1859.2 1852.35,1860.86 1854.4,1862.53 1856.45,1864.21 1858.5,1865.9 1860.55,1867.59 
  1862.61,1869.29 1864.66,1871 1866.71,1872.71 1868.76,1874.43 1870.81,1876.16 1872.86,1877.89 1874.91,1879.64 1876.96,1881.39 1879.01,1883.14 1881.06,1884.91 
  1883.11,1886.68 1885.16,1888.46 1887.22,1890.25 1889.27,1892.04 1891.32,1893.85 1893.37,1895.66 1895.42,1897.48 1897.47,1899.31 1899.52,1901.14 1901.57,1902.99 
  1903.62,1904.84 1905.67,1906.7 1907.72,1908.57 1909.77,1910.45 1911.83,1912.34 1913.88,1914.24 1915.93,1916.15 1917.98,1918.06 1920.03,1919.99 1922.08,1921.92 
  1924.13,1923.87 1926.18,1925.82 1928.23,1927.78 1930.28,1929.76 1932.33,1931.74 1934.38,1933.73 1936.44,1935.74 1938.49,1937.75 1940.54,1939.78 1942.59,1941.81 
  1944.64,1943.86 1946.69,1945.92 1948.74,1947.99 1950.79,1950.07 1952.84,1952.16 1954.89,1954.26 1956.94,1956.38 1958.99,1958.5 1961.05,1960.64 1963.1,1962.79 
  1965.15,1964.96 1967.2,1967.13 1969.25,1969.32 1971.3,1971.52 1973.35,1973.73 1975.4,1975.96 1977.45,1978.2 1979.5,1980.45 1981.55,1982.72 1983.6,1985 
  1985.66,1987.3 1987.71,1989.61 1989.76,1991.93 1991.81,1994.27 1993.86,1996.63 1995.91,1998.99 1997.96,2001.38 2000.01,2003.78 2002.06,2006.19 2004.11,2008.63 
  2006.16,2011.07 2008.21,2013.54 2010.27,2016.02 2012.32,2018.52 2014.37,2021.03 2016.42,2023.57 2018.47,2026.12 2020.52,2028.69 2022.57,2031.27 2024.62,2033.88 
  2026.67,2036.51 2028.72,2039.15 2030.77,2041.81 2032.83,2044.5 2034.88,2047.2 2036.93,2049.93 2038.98,2052.67 2041.03,2055.44 2043.08,2058.23 2045.13,2061.04 
  2047.18,2063.87 2049.23,2066.73 2051.28,2069.61 2053.33,2072.51 2055.38,2075.43 2057.44,2078.39 2059.49,2081.36 2061.54,2084.36 2063.59,2087.39 2065.64,2090.44 
  2067.69,2093.52 2069.74,2096.63 2071.79,2099.76 2073.84,2102.93 2075.89,2106.12 2077.94,2109.34 2079.99,2112.59 2082.05,2115.87 2084.1,2119.18 2086.15,2122.53 
  2088.2,2125.91 2090.25,2129.32 2092.3,2132.76 2094.35,2136.24 2096.4,2139.75 2098.45,2143.3 2100.5,2146.89 2102.55,2150.52 2104.6,2154.18 2106.66,2157.88 
  2108.71,2161.62 2110.76,2165.41 2112.81,2169.23 2114.86,2173.1 2116.91,2177.02 2118.96,2180.98 2121.01,2184.98 2123.06,2189.03 2125.11,2193.13 2127.16,2197.28 
  2129.21,2201.49 2131.27,2205.74 2133.32,2210.05 2135.37,2214.41 2137.42,2218.83 2139.47,2223.31 2141.52,2227.84 2143.57,2232.44 2145.62,2237.11 2147.67,2241.83 
  2149.72,2246.63 2151.77,2251.49 2153.82,2256.42 2155.88,2261.43 2157.93,2266.51 2159.98,2271.67 2162.03,2276.91 2164.08,2282.24 2166.13,2287.65 2168.18,2293.14 
  2170.23,2298.73 2172.28,2304.41 2174.33,2310.19 2176.38,2316.07 2178.43,2322.06 2180.49,2328.15 2182.54,2334.36 2184.59,2340.69 2186.64,2347.13 2188.69,2353.71 
  2190.74,2360.41 2192.79,2367.25 2194.84,2374.24 2196.89,2381.37 2198.94,2388.66 2200.99,2396.11 2203.04,2403.73 2205.1,2411.53 2207.15,2419.52 2209.2,2427.71 
  2211.25,2436.09 2213.3,2444.7 2215.35,2453.54 2217.4,2462.61 2219.45,2471.94 2221.5,2481.54 2223.55,2491.43 2225.6,2501.62 2227.65,2512.13 2229.71,2522.98 
  2231.76,2534.2 2233.81,2545.81 2235.86,2557.85 2237.91,2570.34 2239.96,2583.31 2242.01,2596.82 2244.06,2610.9 2246.11,2625.6 2248.16,2640.99 2250.21,2657.13 
  2252.26,2674.09 2254.32,2691.97 2256.37,2710.87 2258.42,2730.92 2260.47,2752.26 2262.52,2775.07 2264.57,2799.57 2266.62,2826.03 2268.67,2854.8 2270.72,2886.3 
  2272.77,2921.13 2274.82,2960.06 2276.87,3004.2 2278.93,3055.15 2280.98,3115.41 2283.03,3189.17 2285.08,3284.25 2287.13,3418.26 2289.18,3647.35 2291.23,13852 
  
  "/>
<polyline clip-path="url(#clip852)" style="stroke:#e26f46; stroke-linecap:butt; stroke-linejoin:round; stroke-width:4; stroke-opacity:1; fill:none" points="
  242.443,1048.1 244.493,933.351 246.544,866.007 248.595,817.99 250.646,780.5 252.697,749.617 254.748,723.248 256.799,700.142 258.849,679.493 260.9,660.747 
  262.951,643.51 265.002,627.486 267.053,612.454 269.104,598.235 271.154,584.69 273.205,571.703 275.256,559.178 277.307,547.033 279.358,535.196 281.409,523.607 
  283.459,512.209 285.51,500.953 287.561,489.791 289.612,478.679 291.663,467.575 293.714,456.438 295.764,445.227 297.815,433.899 299.866,422.411 301.917,410.719 
  303.968,398.775 306.019,386.526 308.069,373.915 310.12,360.88 312.171,347.35 314.222,333.246 316.273,318.477 318.324,302.942 320.375,286.525 322.425,269.1 
  324.476,250.533 326.527,230.694 328.578,209.499 330.629,186.982 332.68,163.465 334.73,139.891 336.781,118.325 338.832,102.299 340.883,95.8292 342.934,100.609 
  344.985,114.395 347.035,133.088 349.086,153.366 351.137,173.361 353.188,192.252 355.239,209.772 357.29,225.906 359.34,240.746 361.391,254.414 363.442,267.04 
  365.493,278.741 367.544,289.623 369.595,299.78 371.645,309.29 373.696,318.224 375.747,326.642 377.798,334.595 379.849,342.127 381.9,349.28 383.951,356.086 
  386.001,362.576 388.052,368.777 390.103,374.712 392.154,380.402 394.205,385.866 396.256,391.121 398.306,396.181 400.357,401.06 402.408,405.77 404.459,410.323 
  406.51,414.728 408.561,418.995 410.611,423.131 412.662,427.145 414.713,431.044 416.764,434.834 418.815,438.52 420.866,442.109 422.916,445.606 424.967,449.015 
  427.018,452.341 429.069,455.587 431.12,458.757 433.171,461.856 435.222,464.886 437.272,467.85 439.323,470.752 441.374,473.593 443.425,476.377 445.476,479.105 
  447.527,481.781 449.577,484.406 451.628,486.982 453.679,489.51 455.73,491.994 457.781,494.434 459.832,496.832 461.882,499.19 463.933,501.509 465.984,503.79 
  468.035,506.035 470.086,508.244 472.137,510.42 474.187,512.562 476.238,514.673 478.289,516.753 480.34,518.803 482.391,520.824 484.442,522.816 486.492,524.782 
  488.543,526.721 490.594,528.635 492.645,530.523 494.696,532.388 496.747,534.228 498.798,536.046 500.848,537.841 502.899,539.615 504.95,541.368 507.001,543.1 
  509.052,544.812 511.103,546.504 513.153,548.177 515.204,549.832 517.255,551.468 519.306,553.087 521.357,554.689 523.408,556.274 525.458,557.842 527.509,559.394 
  529.56,560.93 531.611,562.451 533.662,563.957 535.713,565.449 537.763,566.926 539.814,568.389 541.865,569.838 543.916,571.273 545.967,572.696 548.018,574.105 
  550.068,575.502 552.119,576.887 554.17,578.259 556.221,579.62 558.272,580.969 560.323,582.306 562.374,583.632 564.424,584.948 566.475,586.252 568.526,587.546 
  570.577,588.83 572.628,590.103 574.679,591.366 576.729,592.62 578.78,593.864 580.831,595.098 582.882,596.323 584.933,597.539 586.984,598.746 589.034,599.944 
  591.085,601.134 593.136,602.315 595.187,603.488 597.238,604.652 599.289,605.808 601.339,606.957 603.39,608.097 605.441,609.23 607.492,610.355 609.543,611.473 
  611.594,612.583 613.644,613.686 615.695,614.783 617.746,615.872 619.797,616.954 621.848,618.029 623.899,619.098 625.95,620.16 628,621.216 630.051,622.265 
  632.102,623.308 634.153,624.345 636.204,625.375 638.255,626.4 640.305,627.419 642.356,628.431 644.407,629.438 646.458,630.44 648.509,631.436 650.56,632.426 
  652.61,633.411 654.661,634.39 656.712,635.364 658.763,636.333 660.814,637.297 662.865,638.256 664.915,639.209 666.966,640.158 669.017,641.102 671.068,642.041 
  673.119,642.975 675.17,643.905 677.22,644.829 679.271,645.75 681.322,646.666 683.373,647.577 685.424,648.484 687.475,649.387 689.526,650.285 691.576,651.179 
  693.627,652.069 695.678,652.955 697.729,653.836 699.78,654.714 701.831,655.587 703.881,656.457 705.932,657.323 707.983,658.185 710.034,659.043 712.085,659.898 
  714.136,660.748 716.186,661.595 718.237,662.439 720.288,663.279 722.339,664.115 724.39,664.948 726.441,665.777 728.491,666.603 730.542,667.426 732.593,668.245 
  734.644,669.061 736.695,669.874 738.746,670.683 740.797,671.489 742.847,672.292 744.898,673.092 746.949,673.889 749,674.683 751.051,675.474 753.102,676.262 
  755.152,677.047 757.203,677.829 759.254,678.608 761.305,679.384 763.356,680.158 765.407,680.928 767.457,681.696 769.508,682.461 771.559,683.224 773.61,683.984 
  775.661,684.741 777.712,685.495 779.762,686.247 781.813,686.996 783.864,687.743 785.915,688.487 787.966,689.229 790.017,689.969 792.067,690.705 794.118,691.44 
  796.169,692.172 798.22,692.902 800.271,693.629 802.322,694.354 804.373,695.077 806.423,695.798 808.474,696.516 810.525,697.232 812.576,697.946 814.627,698.657 
  816.678,699.367 818.728,700.074 820.779,700.78 822.83,701.483 824.881,702.184 826.932,702.883 828.983,703.58 831.033,704.275 833.084,704.968 835.135,705.659 
  837.186,706.348 839.237,707.036 841.288,707.721 843.338,708.404 845.389,709.086 847.44,709.765 849.491,710.443 851.542,711.119 853.593,711.793 855.643,712.466 
  857.694,713.136 859.745,713.805 861.796,714.472 863.847,715.138 865.898,715.802 867.949,716.464 869.999,717.124 872.05,717.783 874.101,718.44 876.152,719.095 
  878.203,719.749 880.254,720.401 882.304,721.052 884.355,721.701 886.406,722.349 888.457,722.995 890.508,723.639 892.559,724.282 894.609,724.924 896.66,725.564 
  898.711,726.202 900.762,726.84 902.813,727.475 904.864,728.11 906.914,728.743 908.965,729.374 911.016,730.004 913.067,730.633 915.118,731.26 917.169,731.886 
  919.219,732.511 921.27,733.135 923.321,733.757 925.372,734.377 927.423,734.997 929.474,735.615 931.525,736.232 933.575,736.848 935.626,737.463 937.677,738.076 
  939.728,738.688 941.779,739.299 943.83,739.909 945.88,740.517 947.931,741.125 949.982,741.731 952.033,742.336 954.084,742.94 956.135,743.543 958.185,744.145 
  960.236,744.746 962.287,745.345 964.338,745.944 966.389,746.541 968.44,747.138 970.49,747.733 972.541,748.327 974.592,748.921 976.643,749.513 978.694,750.104 
  980.745,750.695 982.795,751.284 984.846,751.872 986.897,752.46 988.948,753.046 990.999,753.632 993.05,754.216 995.101,754.8 997.151,755.383 999.202,755.964 
  1001.25,756.545 1003.3,757.125 1005.35,757.704 1007.41,758.283 1009.46,758.86 1011.51,759.437 1013.56,760.012 1015.61,760.587 1017.66,761.161 1019.71,761.734 
  1021.76,762.307 1023.81,762.878 1025.86,763.449 1027.91,764.019 1029.96,764.588 1032.02,765.157 1034.07,765.725 1036.12,766.292 1038.17,766.858 1040.22,767.423 
  1042.27,767.988 1044.32,768.552 1046.37,769.115 1048.42,769.678 1050.47,770.24 1052.52,770.801 1054.57,771.362 1056.63,771.921 1058.68,772.481 1060.73,773.039 
  1062.78,773.597 1064.83,774.154 1066.88,774.711 1068.93,775.267 1070.98,775.822 1073.03,776.377 1075.08,776.931 1077.13,777.485 1079.18,778.037 1081.24,778.59 
  1083.29,779.142 1085.34,779.693 1087.39,780.243 1089.44,780.793 1091.49,781.343 1093.54,781.892 1095.59,782.44 1097.64,782.988 1099.69,783.536 1101.74,784.082 
  1103.79,784.629 1105.85,785.175 1107.9,785.72 1109.95,786.265 1112,786.809 1114.05,787.353 1116.1,787.897 1118.15,788.439 1120.2,788.982 1122.25,789.524 
  1124.3,790.066 1126.35,790.607 1128.41,791.148 1130.46,791.688 1132.51,792.228 1134.56,792.767 1136.61,793.306 1138.66,793.845 1140.71,794.383 1142.76,794.921 
  1144.81,795.459 1146.86,795.996 1148.91,796.533 1150.96,797.069 1153.02,797.605 1155.07,798.141 1157.12,798.676 1159.17,799.211 1161.22,799.746 1163.27,800.28 
  1165.32,800.814 1167.37,801.348 1169.42,801.881 1171.47,802.414 1173.52,802.947 1175.57,803.48 1177.63,804.012 1179.68,804.544 1181.73,805.076 1183.78,805.607 
  1185.83,806.138 1187.88,806.669 1189.93,807.2 1191.98,807.73 1194.03,808.26 1196.08,808.79 1198.13,809.32 1200.18,809.849 1202.24,810.379 1204.29,810.908 
  1206.34,811.437 1208.39,811.965 1210.44,812.494 1212.49,813.022 1214.54,813.55 1216.59,814.078 1218.64,814.606 1220.69,815.133 1222.74,815.661 1224.79,816.188 
  1226.85,816.715 1228.9,817.242 1230.95,817.769 1233,818.296 1235.05,818.822 1237.1,819.349 1239.15,819.875 1241.2,820.401 1243.25,820.927 1245.3,821.453 
  1247.35,821.979 1249.4,822.505 1251.46,823.031 1253.51,823.557 1255.56,824.082 1257.61,824.608 1259.66,825.133 1261.71,825.659 1263.76,826.184 1265.81,826.709 
  1267.86,827.235 1269.91,827.76 1271.96,828.285 1274.01,828.81 1276.07,829.336 1278.12,829.861 1280.17,830.386 1282.22,830.911 1284.27,831.436 1286.32,831.961 
  1288.37,832.487 1290.42,833.012 1292.47,833.537 1294.52,834.062 1296.57,834.588 1298.62,835.113 1300.68,835.639 1302.73,836.164 1304.78,836.69 1306.83,837.215 
  1308.88,837.741 1310.93,838.267 1312.98,838.792 1315.03,839.318 1317.08,839.844 1319.13,840.37 1321.18,840.896 1323.23,841.423 1325.29,841.949 1327.34,842.476 
  1329.39,843.002 1331.44,843.529 1333.49,844.056 1335.54,844.583 1337.59,845.11 1339.64,845.638 1341.69,846.165 1343.74,846.693 1345.79,847.221 1347.84,847.749 
  1349.9,848.277 1351.95,848.805 1354,849.334 1356.05,849.863 1358.1,850.392 1360.15,850.921 1362.2,851.45 1364.25,851.98 1366.3,852.51 1368.35,853.04 
  1370.4,853.57 1372.45,854.1 1374.51,854.631 1376.56,855.162 1378.61,855.694 1380.66,856.225 1382.71,856.757 1384.76,857.289 1386.81,857.821 1388.86,858.354 
  1390.91,858.887 1392.96,859.42 1395.01,859.954 1397.06,860.488 1399.12,861.022 1401.17,861.556 1403.22,862.091 1405.27,862.626 1407.32,863.162 1409.37,863.698 
  1411.42,864.234 1413.47,864.77 1415.52,865.307 1417.57,865.845 1419.62,866.382 1421.68,866.92 1423.73,867.459 1425.78,867.997 1427.83,868.537 1429.88,869.076 
  1431.93,869.616 1433.98,870.157 1436.03,870.698 1438.08,871.239 1440.13,871.781 1442.18,872.323 1444.23,872.865 1446.29,873.408 1448.34,873.952 1450.39,874.496 
  1452.44,875.04 1454.49,875.585 1456.54,876.131 1458.59,876.677 1460.64,877.223 1462.69,877.77 1464.74,878.318 1466.79,878.866 1468.84,879.414 1470.9,879.963 
  1472.95,880.513 1475,881.063 1477.05,881.613 1479.1,882.165 1481.15,882.716 1483.2,883.269 1485.25,883.822 1487.3,884.375 1489.35,884.929 1491.4,885.484 
  1493.45,886.039 1495.51,886.595 1497.56,887.152 1499.61,887.709 1501.66,888.267 1503.71,888.825 1505.76,889.384 1507.81,889.944 1509.86,890.504 1511.91,891.065 
  1513.96,891.627 1516.01,892.19 1518.06,892.753 1520.12,893.317 1522.17,893.881 1524.22,894.446 1526.27,895.012 1528.32,895.579 1530.37,896.147 1532.42,896.715 
  1534.47,897.284 1536.52,897.853 1538.57,898.424 1540.62,898.995 1542.67,899.567 1544.73,900.14 1546.78,900.714 1548.83,901.288 1550.88,901.863 1552.93,902.439 
  1554.98,903.016 1557.03,903.594 1559.08,904.173 1561.13,904.752 1563.18,905.333 1565.23,905.914 1567.28,906.496 1569.34,907.079 1571.39,907.663 1573.44,908.247 
  1575.49,908.833 1577.54,909.42 1579.59,910.007 1581.64,910.596 1583.69,911.185 1585.74,911.776 1587.79,912.367 1589.84,912.96 1591.89,913.553 1593.95,914.147 
  1596,914.743 1598.05,915.339 1600.1,915.937 1602.15,916.535 1604.2,917.135 1606.25,917.735 1608.3,918.337 1610.35,918.94 1612.4,919.544 1614.45,920.148 
  1616.5,920.754 1618.56,921.362 1620.61,921.97 1622.66,922.579 1624.71,923.19 1626.76,923.802 1628.81,924.414 1630.86,925.029 1632.91,925.644 1634.96,926.26 
  1637.01,926.878 1639.06,927.497 1641.11,928.117 1643.17,928.738 1645.22,929.361 1647.27,929.985 1649.32,930.61 1651.37,931.237 1653.42,931.865 1655.47,932.494 
  1657.52,933.124 1659.57,933.756 1661.62,934.389 1663.67,935.024 1665.72,935.659 1667.78,936.297 1669.83,936.935 1671.88,937.575 1673.93,938.217 1675.98,938.86 
  1678.03,939.504 1680.08,940.15 1682.13,940.798 1684.18,941.446 1686.23,942.097 1688.28,942.749 1690.33,943.402 1692.39,944.057 1694.44,944.714 1696.49,945.372 
  1698.54,946.031 1700.59,946.693 1702.64,947.356 1704.69,948.02 1706.74,948.686 1708.79,949.354 1710.84,950.024 1712.89,950.695 1714.94,951.368 1717,952.043 
  1719.05,952.719 1721.1,953.397 1723.15,954.077 1725.2,954.759 1727.25,955.443 1729.3,956.128 1731.35,956.815 1733.4,957.504 1735.45,958.195 1737.5,958.888 
  1739.56,959.583 1741.61,960.279 1743.66,960.978 1745.71,961.678 1747.76,962.381 1749.81,963.086 1751.86,963.792 1753.91,964.501 1755.96,965.211 1758.01,965.924 
  1760.06,966.639 1762.11,967.356 1764.17,968.075 1766.22,968.796 1768.27,969.519 1770.32,970.245 1772.37,970.973 1774.42,971.703 1776.47,972.435 1778.52,973.17 
  1780.57,973.906 1782.62,974.646 1784.67,975.387 1786.72,976.131 1788.78,976.877 1790.83,977.626 1792.88,978.377 1794.93,979.131 1796.98,979.887 1799.03,980.645 
  1801.08,981.406 1803.13,982.17 1805.18,982.936 1807.23,983.705 1809.28,984.476 1811.33,985.25 1813.39,986.027 1815.44,986.807 1817.49,987.589 1819.54,988.374 
  1821.59,989.162 1823.64,989.952 1825.69,990.746 1827.74,991.542 1829.79,992.341 1831.84,993.143 1833.89,993.948 1835.94,994.757 1838,995.568 1840.05,996.382 
  1842.1,997.199 1844.15,998.019 1846.2,998.843 1848.25,999.67 1850.3,1000.5 1852.35,1001.33 1854.4,1002.17 1856.45,1003.01 1858.5,1003.85 1860.55,1004.7 
  1862.61,1005.55 1864.66,1006.4 1866.71,1007.26 1868.76,1008.12 1870.81,1008.98 1872.86,1009.85 1874.91,1010.72 1876.96,1011.6 1879.01,1012.48 1881.06,1013.36 
  1883.11,1014.24 1885.16,1015.13 1887.22,1016.03 1889.27,1016.93 1891.32,1017.83 1893.37,1018.73 1895.42,1019.64 1897.47,1020.56 1899.52,1021.48 1901.57,1022.4 
  1903.62,1023.33 1905.67,1024.26 1907.72,1025.19 1909.77,1026.13 1911.83,1027.08 1913.88,1028.03 1915.93,1028.98 1917.98,1029.94 1920.03,1030.9 1922.08,1031.87 
  1924.13,1032.84 1926.18,1033.82 1928.23,1034.8 1930.28,1035.79 1932.33,1036.78 1934.38,1037.78 1936.44,1038.78 1938.49,1039.79 1940.54,1040.8 1942.59,1041.82 
  1944.64,1042.84 1946.69,1043.87 1948.74,1044.9 1950.79,1045.94 1952.84,1046.99 1954.89,1048.04 1956.94,1049.1 1958.99,1050.16 1961.05,1051.23 1963.1,1052.31 
  1965.15,1053.39 1967.2,1054.48 1969.25,1055.57 1971.3,1056.67 1973.35,1057.78 1975.4,1058.89 1977.45,1060.01 1979.5,1061.14 1981.55,1062.27 1983.6,1063.41 
  1985.66,1064.56 1987.71,1065.72 1989.76,1066.88 1991.81,1068.05 1993.86,1069.22 1995.91,1070.41 1997.96,1071.6 2000.01,1072.8 2002.06,1074.01 2004.11,1075.23 
  2006.16,1076.45 2008.21,1077.68 2010.27,1078.92 2012.32,1080.17 2014.37,1081.43 2016.42,1082.7 2018.47,1083.97 2020.52,1085.26 2022.57,1086.55 2024.62,1087.85 
  2026.67,1089.17 2028.72,1090.49 2030.77,1091.82 2032.83,1093.16 2034.88,1094.52 2036.93,1095.88 2038.98,1097.25 2041.03,1098.63 2043.08,1100.03 2045.13,1101.43 
  2047.18,1102.85 2049.23,1104.28 2051.28,1105.72 2053.33,1107.17 2055.38,1108.63 2057.44,1110.11 2059.49,1111.6 2061.54,1113.1 2063.59,1114.61 2065.64,1116.14 
  2067.69,1117.68 2069.74,1119.23 2071.79,1120.8 2073.84,1122.38 2075.89,1123.97 2077.94,1125.59 2079.99,1127.21 2082.05,1128.85 2084.1,1130.51 2086.15,1132.18 
  2088.2,1133.87 2090.25,1135.57 2092.3,1137.3 2094.35,1139.04 2096.4,1140.79 2098.45,1142.57 2100.5,1144.36 2102.55,1146.17 2104.6,1148.01 2106.66,1149.86 
  2108.71,1151.73 2110.76,1153.62 2112.81,1155.53 2114.86,1157.47 2116.91,1159.43 2118.96,1161.4 2121.01,1163.41 2123.06,1165.43 2125.11,1167.48 2127.16,1169.56 
  2129.21,1171.66 2131.27,1173.79 2133.32,1175.94 2135.37,1178.12 2137.42,1180.33 2139.47,1182.57 2141.52,1184.84 2143.57,1187.14 2145.62,1189.47 2147.67,1191.83 
  2149.72,1194.23 2151.77,1196.66 2153.82,1199.13 2155.88,1201.63 2157.93,1204.18 2159.98,1206.76 2162.03,1209.38 2164.08,1212.04 2166.13,1214.74 2168.18,1217.49 
  2170.23,1220.28 2172.28,1223.12 2174.33,1226.01 2176.38,1228.96 2178.43,1231.95 2180.49,1235 2182.54,1238.1 2184.59,1241.26 2186.64,1244.48 2188.69,1247.77 
  2190.74,1251.12 2192.79,1254.54 2194.84,1258.04 2196.89,1261.6 2198.94,1265.25 2200.99,1268.97 2203.04,1272.79 2205.1,1276.69 2207.15,1280.68 2209.2,1284.77 
  2211.25,1288.97 2213.3,1293.27 2215.35,1297.69 2217.4,1302.23 2219.45,1306.89 2221.5,1311.69 2223.55,1316.63 2225.6,1321.73 2227.65,1326.98 2229.71,1332.41 
  2231.76,1338.02 2233.81,1343.83 2235.86,1349.84 2237.91,1356.09 2239.96,1362.58 2242.01,1369.33 2244.06,1376.37 2246.11,1383.72 2248.16,1391.41 2250.21,1399.48 
  2252.26,1407.97 2254.32,1416.91 2256.37,1426.36 2258.42,1436.38 2260.47,1447.05 2262.52,1458.45 2264.57,1470.7 2266.62,1483.93 2268.67,1498.32 2270.72,1514.07 
  2272.77,1531.48 2274.82,1550.95 2276.87,1573.02 2278.93,1598.5 2280.98,1628.63 2283.03,1665.5 2285.08,1713.04 2287.13,1780.05 2289.18,1894.6 2291.23,6996.94 
  
  "/>
<polyline clip-path="url(#clip852)" style="stroke:#3da44d; stroke-linecap:butt; stroke-linejoin:round; stroke-width:4; stroke-opacity:1; fill:none" points="
  242.443,991.085 244.493,876.252 246.544,808.767 248.595,760.551 250.646,722.804 252.697,691.604 254.748,664.855 256.799,641.305 258.849,620.144 260.9,600.816 
  262.951,582.922 265.002,566.163 267.053,550.311 269.104,535.183 271.154,520.632 273.205,506.535 275.256,492.785 277.307,479.292 279.358,465.972 281.409,452.748 
  283.459,439.55 285.51,426.309 287.561,412.954 289.612,399.415 291.663,385.621 293.714,371.491 295.764,356.942 297.815,341.88 299.866,326.197 301.917,309.774 
  303.968,292.47 306.019,274.128 308.069,254.564 310.12,233.581 312.171,210.981 314.222,186.621 316.273,160.559 318.324,133.387 320.375,106.932 322.425,85.2235 
  324.476,74.2279 326.527,77.7882 328.578,93.4268 330.629,115.164 332.68,138.347 334.73,160.685 336.781,181.355 338.832,200.201 340.883,217.326 342.934,232.91 
  344.985,247.143 347.035,260.201 349.086,272.235 351.137,283.376 353.188,293.734 355.239,303.403 357.29,312.461 359.34,320.976 361.391,329.006 363.442,336.599 
  365.493,343.798 367.544,350.64 369.595,357.158 371.645,363.38 373.696,369.331 375.747,375.032 377.798,380.504 379.849,385.763 381.9,390.826 383.951,395.706 
  386.001,400.416 388.052,404.968 390.103,409.371 392.154,413.635 394.205,417.769 396.256,421.78 398.306,425.676 400.357,429.463 402.408,433.147 404.459,436.734 
  406.51,440.229 408.561,443.636 410.611,446.96 412.662,450.205 414.713,453.375 416.764,456.473 418.815,459.503 420.866,462.468 422.916,465.371 424.967,468.213 
  427.018,470.999 429.069,473.73 431.12,476.408 433.171,479.035 435.222,481.615 437.272,484.147 439.323,486.635 441.374,489.08 443.425,491.483 445.476,493.846 
  447.527,496.17 449.577,498.456 451.628,500.707 453.679,502.923 455.73,505.105 457.781,507.254 459.832,509.372 461.882,511.46 463.933,513.517 465.984,515.546 
  468.035,517.547 470.086,519.521 472.137,521.468 474.187,523.391 476.238,525.288 478.289,527.161 480.34,529.011 482.391,530.838 484.442,532.643 486.492,534.426 
  488.543,536.188 490.594,537.93 492.645,539.652 494.696,541.354 496.747,543.038 498.798,544.703 500.848,546.349 502.899,547.979 504.95,549.591 507.001,551.186 
  509.052,552.765 511.103,554.327 513.153,555.875 515.204,557.406 517.255,558.923 519.306,560.425 521.357,561.913 523.408,563.387 525.458,564.847 527.509,566.294 
  529.56,567.727 531.611,569.148 533.662,570.556 535.713,571.952 537.763,573.335 539.814,574.707 541.865,576.067 543.916,577.415 545.967,578.753 548.018,580.079 
  550.068,581.395 552.119,582.7 554.17,583.994 556.221,585.279 558.272,586.553 560.323,587.818 562.374,589.073 564.424,590.318 566.475,591.554 568.526,592.781 
  570.577,593.999 572.628,595.208 574.679,596.409 576.729,597.6 578.78,598.784 580.831,599.959 582.882,601.126 584.933,602.285 586.984,603.436 589.034,604.58 
  591.085,605.716 593.136,606.844 595.187,607.965 597.238,609.079 599.289,610.185 601.339,611.285 603.39,612.378 605.441,613.463 607.492,614.542 609.543,615.615 
  611.594,616.681 613.644,617.74 615.695,618.793 617.746,619.84 619.797,620.881 621.848,621.915 623.899,622.944 625.95,623.967 628,624.984 630.051,625.995 
  632.102,627.001 634.153,628.001 636.204,628.995 638.255,629.984 640.305,630.968 642.356,631.947 644.407,632.92 646.458,633.888 648.509,634.851 650.56,635.809 
  652.61,636.762 654.661,637.71 656.712,638.654 658.763,639.593 660.814,640.527 662.865,641.456 664.915,642.381 666.966,643.301 669.017,644.217 671.068,645.128 
  673.119,646.035 675.17,646.938 677.22,647.837 679.271,648.731 681.322,649.622 683.373,650.508 685.424,651.39 687.475,652.268 689.526,653.142 691.576,654.013 
  693.627,654.879 695.678,655.742 697.729,656.601 699.78,657.456 701.831,658.307 703.881,659.155 705.932,660 707.983,660.84 710.034,661.678 712.085,662.511 
  714.136,663.342 716.186,664.169 718.237,664.992 720.288,665.813 722.339,666.63 724.39,667.444 726.441,668.254 728.491,669.062 730.542,669.866 732.593,670.667 
  734.644,671.466 736.695,672.261 738.746,673.053 740.797,673.842 742.847,674.628 744.898,675.412 746.949,676.192 749,676.97 751.051,677.744 753.102,678.516 
  755.152,679.286 757.203,680.052 759.254,680.816 761.305,681.577 763.356,682.336 765.407,683.092 767.457,683.845 769.508,684.596 771.559,685.344 773.61,686.09 
  775.661,686.833 777.712,687.574 779.762,688.312 781.813,689.048 783.864,689.782 785.915,690.513 787.966,691.242 790.017,691.969 792.067,692.693 794.118,693.415 
  796.169,694.135 798.22,694.852 800.271,695.568 802.322,696.281 804.373,696.992 806.423,697.701 808.474,698.408 810.525,699.112 812.576,699.815 814.627,700.516 
  816.678,701.214 818.728,701.911 820.779,702.605 822.83,703.298 824.881,703.988 826.932,704.677 828.983,705.364 831.033,706.049 833.084,706.732 835.135,707.413 
  837.186,708.092 839.237,708.769 841.288,709.445 843.338,710.119 845.389,710.791 847.44,711.461 849.491,712.13 851.542,712.797 853.593,713.462 855.643,714.125 
  857.694,714.787 859.745,715.447 861.796,716.106 863.847,716.762 865.898,717.418 867.949,718.071 869.999,718.723 872.05,719.374 874.101,720.023 876.152,720.67 
  878.203,721.316 880.254,721.96 882.304,722.603 884.355,723.244 886.406,723.884 888.457,724.522 890.508,725.159 892.559,725.795 894.609,726.429 896.66,727.062 
  898.711,727.693 900.762,728.323 902.813,728.952 904.864,729.579 906.914,730.205 908.965,730.829 911.016,731.453 913.067,732.075 915.118,732.695 917.169,733.315 
  919.219,733.933 921.27,734.55 923.321,735.165 925.372,735.78 927.423,736.393 929.474,737.005 931.525,737.616 933.575,738.225 935.626,738.834 937.677,739.441 
  939.728,740.047 941.779,740.652 943.83,741.256 945.88,741.859 947.931,742.46 949.982,743.061 952.033,743.66 954.084,744.259 956.135,744.856 958.185,745.452 
  960.236,746.047 962.287,746.642 964.338,747.235 966.389,747.827 968.44,748.418 970.49,749.008 972.541,749.597 974.592,750.185 976.643,750.772 978.694,751.359 
  980.745,751.944 982.795,752.528 984.846,753.112 986.897,753.694 988.948,754.276 990.999,754.856 993.05,755.436 995.101,756.015 997.151,756.593 999.202,757.17 
  1001.25,757.746 1003.3,758.322 1005.35,758.896 1007.41,759.47 1009.46,760.043 1011.51,760.615 1013.56,761.186 1015.61,761.757 1017.66,762.326 1019.71,762.895 
  1021.76,763.463 1023.81,764.031 1025.86,764.597 1027.91,765.163 1029.96,765.728 1032.02,766.293 1034.07,766.856 1036.12,767.419 1038.17,767.981 1040.22,768.543 
  1042.27,769.104 1044.32,769.664 1046.37,770.223 1048.42,770.782 1050.47,771.34 1052.52,771.898 1054.57,772.454 1056.63,773.01 1058.68,773.566 1060.73,774.121 
  1062.78,774.675 1064.83,775.229 1066.88,775.782 1068.93,776.334 1070.98,776.886 1073.03,777.437 1075.08,777.988 1077.13,778.538 1079.18,779.087 1081.24,779.636 
  1083.29,780.185 1085.34,780.732 1087.39,781.28 1089.44,781.826 1091.49,782.373 1093.54,782.918 1095.59,783.464 1097.64,784.008 1099.69,784.553 1101.74,785.096 
  1103.79,785.639 1105.85,786.182 1107.9,786.724 1109.95,787.266 1112,787.808 1114.05,788.348 1116.1,788.889 1118.15,789.429 1120.2,789.968 1122.25,790.508 
  1124.3,791.046 1126.35,791.584 1128.41,792.122 1130.46,792.66 1132.51,793.197 1134.56,793.734 1136.61,794.27 1138.66,794.806 1140.71,795.341 1142.76,795.876 
  1144.81,796.411 1146.86,796.946 1148.91,797.48 1150.96,798.014 1153.02,798.547 1155.07,799.08 1157.12,799.613 1159.17,800.145 1161.22,800.677 1163.27,801.209 
  1165.32,801.741 1167.37,802.272 1169.42,802.803 1171.47,803.333 1173.52,803.864 1175.57,804.394 1177.63,804.924 1179.68,805.453 1181.73,805.983 1183.78,806.512 
  1185.83,807.04 1187.88,807.569 1189.93,808.097 1191.98,808.625 1194.03,809.153 1196.08,809.681 1198.13,810.208 1200.18,810.735 1202.24,811.263 1204.29,811.789 
  1206.34,812.316 1208.39,812.842 1210.44,813.369 1212.49,813.895 1214.54,814.421 1216.59,814.947 1218.64,815.472 1220.69,815.998 1222.74,816.523 1224.79,817.048 
  1226.85,817.573 1228.9,818.098 1230.95,818.623 1233,819.148 1235.05,819.672 1237.1,820.197 1239.15,820.721 1241.2,821.245 1243.25,821.769 1245.3,822.293 
  1247.35,822.817 1249.4,823.341 1251.46,823.865 1253.51,824.389 1255.56,824.913 1257.61,825.436 1259.66,825.96 1261.71,826.484 1263.76,827.007 1265.81,827.531 
  1267.86,828.054 1269.91,828.578 1271.96,829.101 1274.01,829.624 1276.07,830.148 1278.12,830.671 1280.17,831.195 1282.22,831.718 1284.27,832.242 1286.32,832.765 
  1288.37,833.289 1290.42,833.812 1292.47,834.336 1294.52,834.859 1296.57,835.383 1298.62,835.907 1300.68,836.431 1302.73,836.954 1304.78,837.478 1306.83,838.002 
  1308.88,838.526 1310.93,839.05 1312.98,839.575 1315.03,840.099 1317.08,840.623 1319.13,841.148 1321.18,841.673 1323.23,842.197 1325.29,842.722 1327.34,843.247 
  1329.39,843.772 1331.44,844.298 1333.49,844.823 1335.54,845.349 1337.59,845.874 1339.64,846.4 1341.69,846.926 1343.74,847.453 1345.79,847.979 1347.84,848.506 
  1349.9,849.032 1351.95,849.559 1354,850.086 1356.05,850.614 1358.1,851.141 1360.15,851.669 1362.2,852.197 1364.25,852.725 1366.3,853.254 1368.35,853.783 
  1370.4,854.312 1372.45,854.841 1374.51,855.37 1376.56,855.9 1378.61,856.43 1380.66,856.96 1382.71,857.491 1384.76,858.022 1386.81,858.553 1388.86,859.084 
  1390.91,859.616 1392.96,860.148 1395.01,860.68 1397.06,861.213 1399.12,861.746 1401.17,862.279 1403.22,862.812 1405.27,863.346 1407.32,863.881 1409.37,864.415 
  1411.42,864.95 1413.47,865.486 1415.52,866.021 1417.57,866.558 1419.62,867.094 1421.68,867.631 1423.73,868.168 1425.78,868.706 1427.83,869.244 1429.88,869.782 
  1431.93,870.321 1433.98,870.861 1436.03,871.4 1438.08,871.941 1440.13,872.481 1442.18,873.022 1444.23,873.564 1446.29,874.106 1448.34,874.648 1450.39,875.191 
  1452.44,875.735 1454.49,876.278 1456.54,876.823 1458.59,877.368 1460.64,877.913 1462.69,878.459 1464.74,879.005 1466.79,879.552 1468.84,880.1 1470.9,880.648 
  1472.95,881.196 1475,881.746 1477.05,882.295 1479.1,882.845 1481.15,883.396 1483.2,883.948 1485.25,884.5 1487.3,885.052 1489.35,885.605 1491.4,886.159 
  1493.45,886.713 1495.51,887.268 1497.56,887.824 1499.61,888.38 1501.66,888.937 1503.71,889.495 1505.76,890.053 1507.81,890.612 1509.86,891.171 1511.91,891.731 
  1513.96,892.292 1516.01,892.854 1518.06,893.416 1520.12,893.979 1522.17,894.543 1524.22,895.107 1526.27,895.672 1528.32,896.238 1530.37,896.804 1532.42,897.372 
  1534.47,897.94 1536.52,898.509 1538.57,899.078 1540.62,899.649 1542.67,900.22 1544.73,900.792 1546.78,901.365 1548.83,901.939 1550.88,902.513 1552.93,903.088 
  1554.98,903.664 1557.03,904.241 1559.08,904.819 1561.13,905.398 1563.18,905.977 1565.23,906.558 1567.28,907.139 1569.34,907.721 1571.39,908.304 1573.44,908.888 
  1575.49,909.473 1577.54,910.059 1579.59,910.646 1581.64,911.234 1583.69,911.823 1585.74,912.412 1587.79,913.003 1589.84,913.595 1591.89,914.187 1593.95,914.781 
  1596,915.376 1598.05,915.971 1600.1,916.568 1602.15,917.166 1604.2,917.765 1606.25,918.365 1608.3,918.966 1610.35,919.568 1612.4,920.171 1614.45,920.775 
  1616.5,921.38 1618.56,921.987 1620.61,922.594 1622.66,923.203 1624.71,923.813 1626.76,924.424 1628.81,925.036 1630.86,925.65 1632.91,926.264 1634.96,926.88 
  1637.01,927.497 1639.06,928.115 1641.11,928.735 1643.17,929.356 1645.22,929.978 1647.27,930.601 1649.32,931.226 1651.37,931.852 1653.42,932.479 1655.47,933.107 
  1657.52,933.737 1659.57,934.368 1661.62,935.001 1663.67,935.635 1665.72,936.27 1667.78,936.907 1669.83,937.545 1671.88,938.184 1673.93,938.825 1675.98,939.468 
  1678.03,940.111 1680.08,940.757 1682.13,941.403 1684.18,942.052 1686.23,942.702 1688.28,943.353 1690.33,944.006 1692.39,944.66 1694.44,945.316 1696.49,945.974 
  1698.54,946.633 1700.59,947.294 1702.64,947.956 1704.69,948.62 1706.74,949.286 1708.79,949.953 1710.84,950.622 1712.89,951.293 1714.94,951.965 1717,952.639 
  1719.05,953.315 1721.1,953.993 1723.15,954.672 1725.2,955.354 1727.25,956.037 1729.3,956.721 1731.35,957.408 1733.4,958.097 1735.45,958.787 1737.5,959.479 
  1739.56,960.174 1741.61,960.87 1743.66,961.568 1745.71,962.268 1747.76,962.97 1749.81,963.674 1751.86,964.38 1753.91,965.088 1755.96,965.799 1758.01,966.511 
  1760.06,967.225 1762.11,967.942 1764.17,968.66 1766.22,969.381 1768.27,970.104 1770.32,970.829 1772.37,971.556 1774.42,972.286 1776.47,973.018 1778.52,973.752 
  1780.57,974.488 1782.62,975.227 1784.67,975.968 1786.72,976.712 1788.78,977.457 1790.83,978.206 1792.88,978.956 1794.93,979.709 1796.98,980.465 1799.03,981.223 
  1801.08,981.984 1803.13,982.747 1805.18,983.513 1807.23,984.281 1809.28,985.052 1811.33,985.826 1813.39,986.602 1815.44,987.381 1817.49,988.163 1819.54,988.948 
  1821.59,989.735 1823.64,990.525 1825.69,991.319 1827.74,992.114 1829.79,992.913 1831.84,993.715 1833.89,994.52 1835.94,995.328 1838,996.138 1840.05,996.952 
  1842.1,997.769 1844.15,998.589 1846.2,999.412 1848.25,1000.24 1850.3,1001.07 1852.35,1001.9 1854.4,1002.74 1856.45,1003.58 1858.5,1004.42 1860.55,1005.27 
  1862.61,1006.11 1864.66,1006.97 1866.71,1007.82 1868.76,1008.68 1870.81,1009.55 1872.86,1010.42 1874.91,1011.29 1876.96,1012.16 1879.01,1013.04 1881.06,1013.92 
  1883.11,1014.81 1885.16,1015.7 1887.22,1016.59 1889.27,1017.49 1891.32,1018.39 1893.37,1019.3 1895.42,1020.21 1897.47,1021.12 1899.52,1022.04 1901.57,1022.96 
  1903.62,1023.89 1905.67,1024.82 1907.72,1025.75 1909.77,1026.69 1911.83,1027.64 1913.88,1028.58 1915.93,1029.54 1917.98,1030.5 1920.03,1031.46 1922.08,1032.43 
  1924.13,1033.4 1926.18,1034.37 1928.23,1035.36 1930.28,1036.34 1932.33,1037.33 1934.38,1038.33 1936.44,1039.33 1938.49,1040.34 1940.54,1041.35 1942.59,1042.37 
  1944.64,1043.39 1946.69,1044.42 1948.74,1045.46 1950.79,1046.5 1952.84,1047.54 1954.89,1048.59 1956.94,1049.65 1958.99,1050.71 1961.05,1051.78 1963.1,1052.86 
  1965.15,1053.94 1967.2,1055.03 1969.25,1056.12 1971.3,1057.22 1973.35,1058.33 1975.4,1059.44 1977.45,1060.56 1979.5,1061.69 1981.55,1062.82 1983.6,1063.96 
  1985.66,1065.11 1987.71,1066.26 1989.76,1067.43 1991.81,1068.6 1993.86,1069.77 1995.91,1070.96 1997.96,1072.15 2000.01,1073.35 2002.06,1074.56 2004.11,1075.77 
  2006.16,1077 2008.21,1078.23 2010.27,1079.47 2012.32,1080.72 2014.37,1081.98 2016.42,1083.24 2018.47,1084.52 2020.52,1085.8 2022.57,1087.1 2024.62,1088.4 
  2026.67,1089.71 2028.72,1091.03 2030.77,1092.37 2032.83,1093.71 2034.88,1095.06 2036.93,1096.42 2038.98,1097.79 2041.03,1099.18 2043.08,1100.57 2045.13,1101.98 
  2047.18,1103.39 2049.23,1104.82 2051.28,1106.26 2053.33,1107.71 2055.38,1109.17 2057.44,1110.65 2059.49,1112.14 2061.54,1113.64 2063.59,1115.15 2065.64,1116.68 
  2067.69,1118.22 2069.74,1119.77 2071.79,1121.34 2073.84,1122.92 2075.89,1124.52 2077.94,1126.13 2079.99,1127.75 2082.05,1129.39 2084.1,1131.05 2086.15,1132.72 
  2088.2,1134.41 2090.25,1136.11 2092.3,1137.84 2094.35,1139.58 2096.4,1141.33 2098.45,1143.11 2100.5,1144.9 2102.55,1146.71 2104.6,1148.55 2106.66,1150.4 
  2108.71,1152.27 2110.76,1154.16 2112.81,1156.07 2114.86,1158.01 2116.91,1159.96 2118.96,1161.94 2121.01,1163.95 2123.06,1165.97 2125.11,1168.02 2127.16,1170.1 
  2129.21,1172.2 2131.27,1174.32 2133.32,1176.48 2135.37,1178.66 2137.42,1180.87 2139.47,1183.11 2141.52,1185.38 2143.57,1187.68 2145.62,1190.01 2147.67,1192.37 
  2149.72,1194.77 2151.77,1197.2 2153.82,1199.67 2155.88,1202.17 2157.93,1204.71 2159.98,1207.29 2162.03,1209.91 2164.08,1212.57 2166.13,1215.28 2168.18,1218.02 
  2170.23,1220.82 2172.28,1223.66 2174.33,1226.55 2176.38,1229.49 2178.43,1232.48 2180.49,1235.53 2182.54,1238.63 2184.59,1241.8 2186.64,1245.02 2188.69,1248.31 
  2190.74,1251.66 2192.79,1255.08 2194.84,1258.57 2196.89,1262.14 2198.94,1265.78 2200.99,1269.51 2203.04,1273.32 2205.1,1277.22 2207.15,1281.21 2209.2,1285.31 
  2211.25,1289.5 2213.3,1293.8 2215.35,1298.22 2217.4,1302.76 2219.45,1307.42 2221.5,1312.22 2223.55,1317.17 2225.6,1322.26 2227.65,1327.52 2229.71,1332.94 
  2231.76,1338.55 2233.81,1344.36 2235.86,1350.38 2237.91,1356.62 2239.96,1363.11 2242.01,1369.86 2244.06,1376.9 2246.11,1384.25 2248.16,1391.95 2250.21,1400.02 
  2252.26,1408.5 2254.32,1417.44 2256.37,1426.89 2258.42,1436.91 2260.47,1447.58 2262.52,1458.99 2264.57,1471.24 2266.62,1484.47 2268.67,1498.85 2270.72,1514.6 
  2272.77,1532.02 2274.82,1551.48 2276.87,1573.55 2278.93,1599.03 2280.98,1629.16 2283.03,1666.04 2285.08,1713.58 2287.13,1780.58 2289.18,1895.13 2291.23,6997.47 
  
  "/>
<path clip-path="url(#clip850)" d="
M1985.74 302.168 L2280.29 302.168 L2280.29 94.8081 L1985.74 94.8081  Z
  " fill="#ffffff" fill-rule="evenodd" fill-opacity="1"/>
<polyline clip-path="url(#clip850)" style="stroke:#000000; stroke-linecap:butt; stroke-linejoin:round; stroke-width:4; stroke-opacity:1; fill:none" points="
  1985.74,302.168 2280.29,302.168 2280.29,94.8081 1985.74,94.8081 1985.74,302.168 
  "/>
<polyline clip-path="url(#clip850)" style="stroke:#009af9; stroke-linecap:butt; stroke-linejoin:round; stroke-width:4; stroke-opacity:1; fill:none" points="
  2009.9,146.648 2154.82,146.648 
  "/>
<path clip-path="url(#clip850)" d="M2192.82 166.336 Q2191.01 170.965 2189.3 172.377 Q2187.59 173.789 2184.72 173.789 L2181.31 173.789 L2181.31 170.224 L2183.81 170.224 Q2185.57 170.224 2186.54 169.391 Q2187.52 168.558 2188.7 165.456 L2189.46 163.511 L2178.98 138.002 L2183.49 138.002 L2191.59 158.28 L2199.69 138.002 L2204.21 138.002 L2192.82 166.336 Z" fill="#000000" fill-rule="evenodd" fill-opacity="1" /><path clip-path="url(#clip850)" d="M2211.5 159.993 L2219.14 159.993 L2219.14 133.627 L2210.83 135.294 L2210.83 131.035 L2219.09 129.368 L2223.77 129.368 L2223.77 159.993 L2231.41 159.993 L2231.41 163.928 L2211.5 163.928 L2211.5 159.993 Z" fill="#000000" fill-rule="evenodd" fill-opacity="1" /><polyline clip-path="url(#clip850)" style="stroke:#e26f46; stroke-linecap:butt; stroke-linejoin:round; stroke-width:4; stroke-opacity:1; fill:none" points="
  2009.9,198.488 2154.82,198.488 
  "/>
<path clip-path="url(#clip850)" d="M2192.82 218.176 Q2191.01 222.805 2189.3 224.217 Q2187.59 225.629 2184.72 225.629 L2181.31 225.629 L2181.31 222.064 L2183.81 222.064 Q2185.57 222.064 2186.54 221.231 Q2187.52 220.398 2188.7 217.296 L2189.46 215.351 L2178.98 189.842 L2183.49 189.842 L2191.59 210.12 L2199.69 189.842 L2204.21 189.842 L2192.82 218.176 Z" fill="#000000" fill-rule="evenodd" fill-opacity="1" /><path clip-path="url(#clip850)" d="M2214.72 211.833 L2231.04 211.833 L2231.04 215.768 L2209.09 215.768 L2209.09 211.833 Q2211.75 209.078 2216.34 204.449 Q2220.94 199.796 2222.12 198.453 Q2224.37 195.93 2225.25 194.194 Q2226.15 192.435 2226.15 190.745 Q2226.15 187.99 2224.21 186.254 Q2222.29 184.518 2219.18 184.518 Q2216.98 184.518 2214.53 185.282 Q2212.1 186.046 2209.32 187.597 L2209.32 182.875 Q2212.15 181.741 2214.6 181.162 Q2217.05 180.583 2219.09 180.583 Q2224.46 180.583 2227.66 183.268 Q2230.85 185.953 2230.85 190.444 Q2230.85 192.574 2230.04 194.495 Q2229.25 196.393 2227.15 198.986 Q2226.57 199.657 2223.47 202.875 Q2220.36 206.069 2214.72 211.833 Z" fill="#000000" fill-rule="evenodd" fill-opacity="1" /><polyline clip-path="url(#clip850)" style="stroke:#3da44d; stroke-linecap:butt; stroke-linejoin:round; stroke-width:4; stroke-opacity:1; fill:none" points="
  2009.9,250.328 2154.82,250.328 
  "/>
<path clip-path="url(#clip850)" d="M2192.82 270.016 Q2191.01 274.645 2189.3 276.057 Q2187.59 277.469 2184.72 277.469 L2181.31 277.469 L2181.31 273.904 L2183.81 273.904 Q2185.57 273.904 2186.54 273.071 Q2187.52 272.238 2188.7 269.136 L2189.46 267.191 L2178.98 241.682 L2183.49 241.682 L2191.59 261.96 L2199.69 241.682 L2204.21 241.682 L2192.82 270.016 Z" fill="#000000" fill-rule="evenodd" fill-opacity="1" /><path clip-path="url(#clip850)" d="M2224.85 248.974 Q2228.21 249.692 2230.09 251.96 Q2231.98 254.229 2231.98 257.562 Q2231.98 262.678 2228.47 265.478 Q2224.95 268.279 2218.47 268.279 Q2216.29 268.279 2213.98 267.84 Q2211.68 267.423 2209.23 266.566 L2209.23 262.053 Q2211.17 263.187 2213.49 263.766 Q2215.8 264.344 2218.33 264.344 Q2222.73 264.344 2225.02 262.608 Q2227.33 260.872 2227.33 257.562 Q2227.33 254.506 2225.18 252.793 Q2223.05 251.057 2219.23 251.057 L2215.2 251.057 L2215.2 247.215 L2219.41 247.215 Q2222.86 247.215 2224.69 245.849 Q2226.52 244.46 2226.52 241.868 Q2226.52 239.205 2224.62 237.793 Q2222.75 236.358 2219.23 236.358 Q2217.31 236.358 2215.11 236.775 Q2212.91 237.192 2210.27 238.071 L2210.27 233.905 Q2212.93 233.164 2215.25 232.793 Q2217.59 232.423 2219.65 232.423 Q2224.97 232.423 2228.07 234.854 Q2231.17 237.261 2231.17 241.381 Q2231.17 244.252 2229.53 246.242 Q2227.89 248.21 2224.85 248.974 Z" fill="#000000" fill-rule="evenodd" fill-opacity="1" /></svg>
