<?xml version="1.0" encoding="utf-8"?>
<svg xmlns="http://www.w3.org/2000/svg" xmlns:xlink="http://www.w3.org/1999/xlink" width="600" height="400" viewBox="0 0 2400 1600">
<defs>
  <clipPath id="clip970">
    <rect x="0" y="0" width="2400" height="1600"/>
  </clipPath>
</defs>
<path clip-path="url(#clip970)" d="
M0 1600 L2400 1600 L2400 0 L0 0  Z
  " fill="#ffffff" fill-rule="evenodd" fill-opacity="1"/>
<defs>
  <clipPath id="clip971">
    <rect x="480" y="0" width="1681" height="1600"/>
  </clipPath>
</defs>
<path clip-path="url(#clip970)" d="
M178.867 1474.16 L2352.76 1474.16 L2352.76 47.2441 L178.867 47.2441  Z
  " fill="#ffffff" fill-rule="evenodd" fill-opacity="1"/>
<defs>
  <clipPath id="clip972">
    <rect x="178" y="47" width="2175" height="1428"/>
  </clipPath>
</defs>
<polyline clip-path="url(#clip972)" style="stroke:#000000; stroke-linecap:butt; stroke-linejoin:round; stroke-width:2; stroke-opacity:0.1; fill:none" points="
  240.392,1474.16 240.392,47.2441 
  "/>
<polyline clip-path="url(#clip972)" style="stroke:#000000; stroke-linecap:butt; stroke-linejoin:round; stroke-width:2; stroke-opacity:0.1; fill:none" points="
  705.435,1474.16 705.435,47.2441 
  "/>
<polyline clip-path="url(#clip972)" style="stroke:#000000; stroke-linecap:butt; stroke-linejoin:round; stroke-width:2; stroke-opacity:0.1; fill:none" points="
  1170.48,1474.16 1170.48,47.2441 
  "/>
<polyline clip-path="url(#clip972)" style="stroke:#000000; stroke-linecap:butt; stroke-linejoin:round; stroke-width:2; stroke-opacity:0.1; fill:none" points="
  1635.52,1474.16 1635.52,47.2441 
  "/>
<polyline clip-path="url(#clip972)" style="stroke:#000000; stroke-linecap:butt; stroke-linejoin:round; stroke-width:2; stroke-opacity:0.1; fill:none" points="
  2100.56,1474.16 2100.56,47.2441 
  "/>
<polyline clip-path="url(#clip970)" style="stroke:#000000; stroke-linecap:butt; stroke-linejoin:round; stroke-width:4; stroke-opacity:1; fill:none" points="
  178.867,1474.16 2352.76,1474.16 
  "/>
<polyline clip-path="url(#clip970)" style="stroke:#000000; stroke-linecap:butt; stroke-linejoin:round; stroke-width:4; stroke-opacity:1; fill:none" points="
  240.392,1474.16 240.392,1455.27 
  "/>
<polyline clip-path="url(#clip970)" style="stroke:#000000; stroke-linecap:butt; stroke-linejoin:round; stroke-width:4; stroke-opacity:1; fill:none" points="
  705.435,1474.16 705.435,1455.27 
  "/>
<polyline clip-path="url(#clip970)" style="stroke:#000000; stroke-linecap:butt; stroke-linejoin:round; stroke-width:4; stroke-opacity:1; fill:none" points="
  1170.48,1474.16 1170.48,1455.27 
  "/>
<polyline clip-path="url(#clip970)" style="stroke:#000000; stroke-linecap:butt; stroke-linejoin:round; stroke-width:4; stroke-opacity:1; fill:none" points="
  1635.52,1474.16 1635.52,1455.27 
  "/>
<polyline clip-path="url(#clip970)" style="stroke:#000000; stroke-linecap:butt; stroke-linejoin:round; stroke-width:4; stroke-opacity:1; fill:none" points="
  2100.56,1474.16 2100.56,1455.27 
  "/>
<path clip-path="url(#clip970)" d="M240.392 1505.08 Q236.781 1505.08 234.952 1508.65 Q233.146 1512.19 233.146 1519.32 Q233.146 1526.43 234.952 1529.99 Q236.781 1533.53 240.392 1533.53 Q244.026 1533.53 245.832 1529.99 Q247.66 1526.43 247.66 1519.32 Q247.66 1512.19 245.832 1508.65 Q244.026 1505.08 240.392 1505.08 M240.392 1501.38 Q246.202 1501.38 249.257 1505.99 Q252.336 1510.57 252.336 1519.32 Q252.336 1528.05 249.257 1532.65 Q246.202 1537.24 240.392 1537.24 Q234.582 1537.24 231.503 1532.65 Q228.447 1528.05 228.447 1519.32 Q228.447 1510.57 231.503 1505.99 Q234.582 1501.38 240.392 1501.38 Z" fill="#000000" fill-rule="evenodd" fill-opacity="1" /><path clip-path="url(#clip970)" d="M598.251 1517.66 L616.608 1517.66 L616.608 1521.6 L602.534 1521.6 L602.534 1530.07 Q603.552 1529.72 604.571 1529.56 Q605.589 1529.38 606.608 1529.38 Q612.395 1529.38 615.774 1532.55 Q619.154 1535.72 619.154 1541.14 Q619.154 1546.72 615.682 1549.82 Q612.21 1552.9 605.89 1552.9 Q603.714 1552.9 601.446 1552.53 Q599.2 1552.16 596.793 1551.41 L596.793 1546.72 Q598.876 1547.85 601.099 1548.41 Q603.321 1548.96 605.798 1548.96 Q609.802 1548.96 612.14 1546.85 Q614.478 1544.75 614.478 1541.14 Q614.478 1537.53 612.14 1535.42 Q609.802 1533.31 605.798 1533.31 Q603.923 1533.31 602.048 1533.73 Q600.196 1534.15 598.251 1535.03 L598.251 1517.66 Z" fill="#000000" fill-rule="evenodd" fill-opacity="1" /><path clip-path="url(#clip970)" d="M628.367 1546.35 L633.251 1546.35 L633.251 1552.22 L628.367 1552.22 L628.367 1546.35 Z" fill="#000000" fill-rule="evenodd" fill-opacity="1" /><path clip-path="url(#clip970)" d="M653.436 1520.74 Q649.825 1520.74 647.996 1524.31 Q646.191 1527.85 646.191 1534.98 Q646.191 1542.09 647.996 1545.65 Q649.825 1549.19 653.436 1549.19 Q657.07 1549.19 658.876 1545.65 Q660.705 1542.09 660.705 1534.98 Q660.705 1527.85 658.876 1524.31 Q657.07 1520.74 653.436 1520.74 M653.436 1517.04 Q659.246 1517.04 662.302 1521.65 Q665.381 1526.23 665.381 1534.98 Q665.381 1543.71 662.302 1548.31 Q659.246 1552.9 653.436 1552.9 Q647.626 1552.9 644.547 1548.31 Q641.492 1543.71 641.492 1534.98 Q641.492 1526.23 644.547 1521.65 Q647.626 1517.04 653.436 1517.04 Z" fill="#000000" fill-rule="evenodd" fill-opacity="1" /><path clip-path="url(#clip970)" d="M683.598 1520.74 Q679.987 1520.74 678.158 1524.31 Q676.353 1527.85 676.353 1534.98 Q676.353 1542.09 678.158 1545.65 Q679.987 1549.19 683.598 1549.19 Q687.232 1549.19 689.038 1545.65 Q690.867 1542.09 690.867 1534.98 Q690.867 1527.85 689.038 1524.31 Q687.232 1520.74 683.598 1520.74 M683.598 1517.04 Q689.408 1517.04 692.464 1521.65 Q695.542 1526.23 695.542 1534.98 Q695.542 1543.71 692.464 1548.31 Q689.408 1552.9 683.598 1552.9 Q677.788 1552.9 674.709 1548.31 Q671.654 1543.71 671.654 1534.98 Q671.654 1526.23 674.709 1521.65 Q677.788 1517.04 683.598 1517.04 Z" fill="#000000" fill-rule="evenodd" fill-opacity="1" /><path clip-path="url(#clip970)" d="M731.931 1526.76 L721.353 1537.39 L731.931 1547.97 L729.177 1550.77 L718.552 1540.14 L707.927 1550.77 L705.195 1547.97 L715.751 1537.39 L705.195 1526.76 L707.927 1523.96 L718.552 1534.59 L729.177 1523.96 L731.931 1526.76 Z" fill="#000000" fill-rule="evenodd" fill-opacity="1" /><path clip-path="url(#clip970)" d="M744.292 1548.29 L751.931 1548.29 L751.931 1521.92 L743.621 1523.59 L743.621 1519.33 L751.885 1517.66 L756.561 1517.66 L756.561 1548.29 L764.2 1548.29 L764.2 1552.22 L744.292 1552.22 L744.292 1548.29 Z" fill="#000000" fill-rule="evenodd" fill-opacity="1" /><path clip-path="url(#clip970)" d="M783.644 1520.74 Q780.033 1520.74 778.204 1524.31 Q776.399 1527.85 776.399 1534.98 Q776.399 1542.09 778.204 1545.65 Q780.033 1549.19 783.644 1549.19 Q787.278 1549.19 789.084 1545.65 Q790.912 1542.09 790.912 1534.98 Q790.912 1527.85 789.084 1524.31 Q787.278 1520.74 783.644 1520.74 M783.644 1517.04 Q789.454 1517.04 792.51 1521.65 Q795.588 1526.23 795.588 1534.98 Q795.588 1543.71 792.51 1548.31 Q789.454 1552.9 783.644 1552.9 Q777.834 1552.9 774.755 1548.31 Q771.699 1543.71 771.699 1534.98 Q771.699 1526.23 774.755 1521.65 Q777.834 1517.04 783.644 1517.04 Z" fill="#000000" fill-rule="evenodd" fill-opacity="1" /><path clip-path="url(#clip970)" d="M808.283 1509.67 Q811.011 1510.26 812.534 1512.1 Q814.076 1513.94 814.076 1516.65 Q814.076 1520.81 811.217 1523.08 Q808.359 1525.36 803.093 1525.36 Q801.325 1525.36 799.444 1525 Q797.582 1524.66 795.588 1523.97 L795.588 1520.3 Q797.168 1521.22 799.049 1521.69 Q800.93 1522.16 802.98 1522.16 Q806.553 1522.16 808.415 1520.75 Q810.296 1519.34 810.296 1516.65 Q810.296 1514.17 808.547 1512.78 Q806.816 1511.37 803.713 1511.37 L800.441 1511.37 L800.441 1508.24 L803.864 1508.24 Q806.666 1508.24 808.152 1507.13 Q809.638 1506.01 809.638 1503.9 Q809.638 1501.74 808.095 1500.59 Q806.572 1499.42 803.713 1499.42 Q802.152 1499.42 800.365 1499.76 Q798.579 1500.1 796.435 1500.82 L796.435 1497.43 Q798.597 1496.83 800.478 1496.53 Q802.378 1496.23 804.052 1496.23 Q808.378 1496.23 810.898 1498.2 Q813.418 1500.16 813.418 1503.51 Q813.418 1505.84 812.083 1507.45 Q810.747 1509.05 808.283 1509.67 Z" fill="#000000" fill-rule="evenodd" fill-opacity="1" /><path clip-path="url(#clip970)" d="M1062.3 1548.29 L1069.93 1548.29 L1069.93 1521.92 L1061.62 1523.59 L1061.62 1519.33 L1069.89 1517.66 L1074.56 1517.66 L1074.56 1548.29 L1082.2 1548.29 L1082.2 1552.22 L1062.3 1552.22 L1062.3 1548.29 Z" fill="#000000" fill-rule="evenodd" fill-opacity="1" /><path clip-path="url(#clip970)" d="M1091.65 1546.35 L1096.53 1546.35 L1096.53 1552.22 L1091.65 1552.22 L1091.65 1546.35 Z" fill="#000000" fill-rule="evenodd" fill-opacity="1" /><path clip-path="url(#clip970)" d="M1116.72 1520.74 Q1113.11 1520.74 1111.28 1524.31 Q1109.47 1527.85 1109.47 1534.98 Q1109.47 1542.09 1111.28 1545.65 Q1113.11 1549.19 1116.72 1549.19 Q1120.35 1549.19 1122.16 1545.65 Q1123.98 1542.09 1123.98 1534.98 Q1123.98 1527.85 1122.16 1524.31 Q1120.35 1520.74 1116.72 1520.74 M1116.72 1517.04 Q1122.53 1517.04 1125.58 1521.65 Q1128.66 1526.23 1128.66 1534.98 Q1128.66 1543.71 1125.58 1548.31 Q1122.53 1552.9 1116.72 1552.9 Q1110.91 1552.9 1107.83 1548.31 Q1104.77 1543.71 1104.77 1534.98 Q1104.77 1526.23 1107.83 1521.65 Q1110.91 1517.04 1116.72 1517.04 Z" fill="#000000" fill-rule="evenodd" fill-opacity="1" /><path clip-path="url(#clip970)" d="M1146.88 1520.74 Q1143.27 1520.74 1141.44 1524.31 Q1139.63 1527.85 1139.63 1534.98 Q1139.63 1542.09 1141.44 1545.65 Q1143.27 1549.19 1146.88 1549.19 Q1150.51 1549.19 1152.32 1545.65 Q1154.15 1542.09 1154.15 1534.98 Q1154.15 1527.85 1152.32 1524.31 Q1150.51 1520.74 1146.88 1520.74 M1146.88 1517.04 Q1152.69 1517.04 1155.74 1521.65 Q1158.82 1526.23 1158.82 1534.98 Q1158.82 1543.71 1155.74 1548.31 Q1152.69 1552.9 1146.88 1552.9 Q1141.07 1552.9 1137.99 1548.31 Q1134.93 1543.71 1134.93 1534.98 Q1134.93 1526.23 1137.99 1521.65 Q1141.07 1517.04 1146.88 1517.04 Z" fill="#000000" fill-rule="evenodd" fill-opacity="1" /><path clip-path="url(#clip970)" d="M1195.21 1526.76 L1184.63 1537.39 L1195.21 1547.97 L1192.46 1550.77 L1181.83 1540.14 L1171.21 1550.77 L1168.48 1547.97 L1179.03 1537.39 L1168.48 1526.76 L1171.21 1523.96 L1181.83 1534.59 L1192.46 1523.96 L1195.21 1526.76 Z" fill="#000000" fill-rule="evenodd" fill-opacity="1" /><path clip-path="url(#clip970)" d="M1207.57 1548.29 L1215.21 1548.29 L1215.21 1521.92 L1206.9 1523.59 L1206.9 1519.33 L1215.16 1517.66 L1219.84 1517.66 L1219.84 1548.29 L1227.48 1548.29 L1227.48 1552.22 L1207.57 1552.22 L1207.57 1548.29 Z" fill="#000000" fill-rule="evenodd" fill-opacity="1" /><path clip-path="url(#clip970)" d="M1246.92 1520.74 Q1243.31 1520.74 1241.48 1524.31 Q1239.68 1527.85 1239.68 1534.98 Q1239.68 1542.09 1241.48 1545.65 Q1243.31 1549.19 1246.92 1549.19 Q1250.56 1549.19 1252.36 1545.65 Q1254.19 1542.09 1254.19 1534.98 Q1254.19 1527.85 1252.36 1524.31 Q1250.56 1520.74 1246.92 1520.74 M1246.92 1517.04 Q1252.73 1517.04 1255.79 1521.65 Q1258.87 1526.23 1258.87 1534.98 Q1258.87 1543.71 1255.79 1548.31 Q1252.73 1552.9 1246.92 1552.9 Q1241.11 1552.9 1238.03 1548.31 Q1234.98 1543.71 1234.98 1534.98 Q1234.98 1526.23 1238.03 1521.65 Q1241.11 1517.04 1246.92 1517.04 Z" fill="#000000" fill-rule="evenodd" fill-opacity="1" /><path clip-path="url(#clip970)" d="M1271.54 1500.04 L1261.95 1515.03 L1271.54 1515.03 L1271.54 1500.04 M1270.55 1496.73 L1275.33 1496.73 L1275.33 1515.03 L1279.33 1515.03 L1279.33 1518.19 L1275.33 1518.19 L1275.33 1524.81 L1271.54 1524.81 L1271.54 1518.19 L1258.87 1518.19 L1258.87 1514.53 L1270.55 1496.73 Z" fill="#000000" fill-rule="evenodd" fill-opacity="1" /><path clip-path="url(#clip970)" d="M1527.34 1548.29 L1534.98 1548.29 L1534.98 1521.92 L1526.67 1523.59 L1526.67 1519.33 L1534.93 1517.66 L1539.61 1517.66 L1539.61 1548.29 L1547.25 1548.29 L1547.25 1552.22 L1527.34 1552.22 L1527.34 1548.29 Z" fill="#000000" fill-rule="evenodd" fill-opacity="1" /><path clip-path="url(#clip970)" d="M1556.69 1546.35 L1561.57 1546.35 L1561.57 1552.22 L1556.69 1552.22 L1556.69 1546.35 Z" fill="#000000" fill-rule="evenodd" fill-opacity="1" /><path clip-path="url(#clip970)" d="M1571.81 1517.66 L1590.16 1517.66 L1590.16 1521.6 L1576.09 1521.6 L1576.09 1530.07 Q1577.11 1529.72 1578.12 1529.56 Q1579.14 1529.38 1580.16 1529.38 Q1585.95 1529.38 1589.33 1532.55 Q1592.71 1535.72 1592.71 1541.14 Q1592.71 1546.72 1589.24 1549.82 Q1585.76 1552.9 1579.44 1552.9 Q1577.27 1552.9 1575 1552.53 Q1572.75 1552.16 1570.35 1551.41 L1570.35 1546.72 Q1572.43 1547.85 1574.65 1548.41 Q1576.87 1548.96 1579.35 1548.96 Q1583.36 1548.96 1585.69 1546.85 Q1588.03 1544.75 1588.03 1541.14 Q1588.03 1537.53 1585.69 1535.42 Q1583.36 1533.31 1579.35 1533.31 Q1577.48 1533.31 1575.6 1533.73 Q1573.75 1534.15 1571.81 1535.03 L1571.81 1517.66 Z" fill="#000000" fill-rule="evenodd" fill-opacity="1" /><path clip-path="url(#clip970)" d="M1611.92 1520.74 Q1608.31 1520.74 1606.48 1524.31 Q1604.68 1527.85 1604.68 1534.98 Q1604.68 1542.09 1606.48 1545.65 Q1608.31 1549.19 1611.92 1549.19 Q1615.56 1549.19 1617.36 1545.65 Q1619.19 1542.09 1619.19 1534.98 Q1619.19 1527.85 1617.36 1524.31 Q1615.56 1520.74 1611.92 1520.74 M1611.92 1517.04 Q1617.73 1517.04 1620.79 1521.65 Q1623.87 1526.23 1623.87 1534.98 Q1623.87 1543.71 1620.79 1548.31 Q1617.73 1552.9 1611.92 1552.9 Q1606.11 1552.9 1603.03 1548.31 Q1599.98 1543.71 1599.98 1534.98 Q1599.98 1526.23 1603.03 1521.65 Q1606.11 1517.04 1611.92 1517.04 Z" fill="#000000" fill-rule="evenodd" fill-opacity="1" /><path clip-path="url(#clip970)" d="M1660.25 1526.76 L1649.68 1537.39 L1660.25 1547.97 L1657.5 1550.77 L1646.87 1540.14 L1636.25 1550.77 L1633.52 1547.97 L1644.07 1537.39 L1633.52 1526.76 L1636.25 1523.96 L1646.87 1534.59 L1657.5 1523.96 L1660.25 1526.76 Z" fill="#000000" fill-rule="evenodd" fill-opacity="1" /><path clip-path="url(#clip970)" d="M1672.62 1548.29 L1680.25 1548.29 L1680.25 1521.92 L1671.94 1523.59 L1671.94 1519.33 L1680.21 1517.66 L1684.88 1517.66 L1684.88 1548.29 L1692.52 1548.29 L1692.52 1552.22 L1672.62 1552.22 L1672.62 1548.29 Z" fill="#000000" fill-rule="evenodd" fill-opacity="1" /><path clip-path="url(#clip970)" d="M1711.97 1520.74 Q1708.36 1520.74 1706.53 1524.31 Q1704.72 1527.85 1704.72 1534.98 Q1704.72 1542.09 1706.53 1545.65 Q1708.36 1549.19 1711.97 1549.19 Q1715.6 1549.19 1717.41 1545.65 Q1719.24 1542.09 1719.24 1534.98 Q1719.24 1527.85 1717.41 1524.31 Q1715.6 1520.74 1711.97 1520.74 M1711.97 1517.04 Q1717.78 1517.04 1720.83 1521.65 Q1723.91 1526.23 1723.91 1534.98 Q1723.91 1543.71 1720.83 1548.31 Q1717.78 1552.9 1711.97 1552.9 Q1706.16 1552.9 1703.08 1548.31 Q1700.02 1543.71 1700.02 1534.98 Q1700.02 1526.23 1703.08 1521.65 Q1706.16 1517.04 1711.97 1517.04 Z" fill="#000000" fill-rule="evenodd" fill-opacity="1" /><path clip-path="url(#clip970)" d="M1736.59 1500.04 L1727 1515.03 L1736.59 1515.03 L1736.59 1500.04 M1735.59 1496.73 L1740.37 1496.73 L1740.37 1515.03 L1744.37 1515.03 L1744.37 1518.19 L1740.37 1518.19 L1740.37 1524.81 L1736.59 1524.81 L1736.59 1518.19 L1723.91 1518.19 L1723.91 1514.53 L1735.59 1496.73 Z" fill="#000000" fill-rule="evenodd" fill-opacity="1" /><path clip-path="url(#clip970)" d="M1996.47 1548.29 L2012.79 1548.29 L2012.79 1552.22 L1990.84 1552.22 L1990.84 1548.29 Q1993.5 1545.53 1998.09 1540.91 Q2002.69 1536.25 2003.87 1534.91 Q2006.12 1532.39 2007 1530.65 Q2007.9 1528.89 2007.9 1527.2 Q2007.9 1524.45 2005.96 1522.71 Q2004.04 1520.97 2000.93 1520.97 Q1998.74 1520.97 1996.28 1521.74 Q1993.85 1522.5 1991.07 1524.05 L1991.07 1519.33 Q1993.9 1518.2 1996.35 1517.62 Q1998.8 1517.04 2000.84 1517.04 Q2006.21 1517.04 2009.41 1519.72 Q2012.6 1522.41 2012.6 1526.9 Q2012.6 1529.03 2011.79 1530.95 Q2011 1532.85 2008.9 1535.44 Q2008.32 1536.11 2005.22 1539.33 Q2002.11 1542.53 1996.47 1548.29 Z" fill="#000000" fill-rule="evenodd" fill-opacity="1" /><path clip-path="url(#clip970)" d="M2022.6 1546.35 L2027.48 1546.35 L2027.48 1552.22 L2022.6 1552.22 L2022.6 1546.35 Z" fill="#000000" fill-rule="evenodd" fill-opacity="1" /><path clip-path="url(#clip970)" d="M2047.67 1520.74 Q2044.06 1520.74 2042.23 1524.31 Q2040.42 1527.85 2040.42 1534.98 Q2040.42 1542.09 2042.23 1545.65 Q2044.06 1549.19 2047.67 1549.19 Q2051.3 1549.19 2053.11 1545.65 Q2054.94 1542.09 2054.94 1534.98 Q2054.94 1527.85 2053.11 1524.31 Q2051.3 1520.74 2047.67 1520.74 M2047.67 1517.04 Q2053.48 1517.04 2056.54 1521.65 Q2059.61 1526.23 2059.61 1534.98 Q2059.61 1543.71 2056.54 1548.31 Q2053.48 1552.9 2047.67 1552.9 Q2041.86 1552.9 2038.78 1548.31 Q2035.73 1543.71 2035.73 1534.98 Q2035.73 1526.23 2038.78 1521.65 Q2041.86 1517.04 2047.67 1517.04 Z" fill="#000000" fill-rule="evenodd" fill-opacity="1" /><path clip-path="url(#clip970)" d="M2077.83 1520.74 Q2074.22 1520.74 2072.39 1524.31 Q2070.59 1527.85 2070.59 1534.98 Q2070.59 1542.09 2072.39 1545.65 Q2074.22 1549.19 2077.83 1549.19 Q2081.47 1549.19 2083.27 1545.65 Q2085.1 1542.09 2085.1 1534.98 Q2085.1 1527.85 2083.27 1524.31 Q2081.47 1520.74 2077.83 1520.74 M2077.83 1517.04 Q2083.64 1517.04 2086.7 1521.65 Q2089.78 1526.23 2089.78 1534.98 Q2089.78 1543.71 2086.7 1548.31 Q2083.64 1552.9 2077.83 1552.9 Q2072.02 1552.9 2068.94 1548.31 Q2065.89 1543.71 2065.89 1534.98 Q2065.89 1526.23 2068.94 1521.65 Q2072.02 1517.04 2077.83 1517.04 Z" fill="#000000" fill-rule="evenodd" fill-opacity="1" /><path clip-path="url(#clip970)" d="M2126.16 1526.76 L2115.59 1537.39 L2126.16 1547.97 L2123.41 1550.77 L2112.79 1540.14 L2102.16 1550.77 L2099.43 1547.97 L2109.98 1537.39 L2099.43 1526.76 L2102.16 1523.96 L2112.79 1534.59 L2123.41 1523.96 L2126.16 1526.76 Z" fill="#000000" fill-rule="evenodd" fill-opacity="1" /><path clip-path="url(#clip970)" d="M2138.53 1548.29 L2146.16 1548.29 L2146.16 1521.92 L2137.85 1523.59 L2137.85 1519.33 L2146.12 1517.66 L2150.79 1517.66 L2150.79 1548.29 L2158.43 1548.29 L2158.43 1552.22 L2138.53 1552.22 L2138.53 1548.29 Z" fill="#000000" fill-rule="evenodd" fill-opacity="1" /><path clip-path="url(#clip970)" d="M2177.88 1520.74 Q2174.27 1520.74 2172.44 1524.31 Q2170.63 1527.85 2170.63 1534.98 Q2170.63 1542.09 2172.44 1545.65 Q2174.27 1549.19 2177.88 1549.19 Q2181.51 1549.19 2183.32 1545.65 Q2185.15 1542.09 2185.15 1534.98 Q2185.15 1527.85 2183.32 1524.31 Q2181.51 1520.74 2177.88 1520.74 M2177.88 1517.04 Q2183.69 1517.04 2186.74 1521.65 Q2189.82 1526.23 2189.82 1534.98 Q2189.82 1543.71 2186.74 1548.31 Q2183.69 1552.9 2177.88 1552.9 Q2172.07 1552.9 2168.99 1548.31 Q2165.93 1543.71 2165.93 1534.98 Q2165.93 1526.23 2168.99 1521.65 Q2172.07 1517.04 2177.88 1517.04 Z" fill="#000000" fill-rule="evenodd" fill-opacity="1" /><path clip-path="url(#clip970)" d="M2202.5 1500.04 L2192.91 1515.03 L2202.5 1515.03 L2202.5 1500.04 M2201.5 1496.73 L2206.28 1496.73 L2206.28 1515.03 L2210.28 1515.03 L2210.28 1518.19 L2206.28 1518.19 L2206.28 1524.81 L2202.5 1524.81 L2202.5 1518.19 L2189.82 1518.19 L2189.82 1514.53 L2201.5 1496.73 Z" fill="#000000" fill-rule="evenodd" fill-opacity="1" /><polyline clip-path="url(#clip972)" style="stroke:#000000; stroke-linecap:butt; stroke-linejoin:round; stroke-width:2; stroke-opacity:0.1; fill:none" points="
  178.867,1283.91 2352.76,1283.91 
  "/>
<polyline clip-path="url(#clip972)" style="stroke:#000000; stroke-linecap:butt; stroke-linejoin:round; stroke-width:2; stroke-opacity:0.1; fill:none" points="
  178.867,903.396 2352.76,903.396 
  "/>
<polyline clip-path="url(#clip972)" style="stroke:#000000; stroke-linecap:butt; stroke-linejoin:round; stroke-width:2; stroke-opacity:0.1; fill:none" points="
  178.867,522.884 2352.76,522.884 
  "/>
<polyline clip-path="url(#clip972)" style="stroke:#000000; stroke-linecap:butt; stroke-linejoin:round; stroke-width:2; stroke-opacity:0.1; fill:none" points="
  178.867,142.372 2352.76,142.372 
  "/>
<polyline clip-path="url(#clip970)" style="stroke:#000000; stroke-linecap:butt; stroke-linejoin:round; stroke-width:4; stroke-opacity:1; fill:none" points="
  178.867,1474.16 178.867,47.2441 
  "/>
<polyline clip-path="url(#clip970)" style="stroke:#000000; stroke-linecap:butt; stroke-linejoin:round; stroke-width:4; stroke-opacity:1; fill:none" points="
  178.867,1283.91 197.764,1283.91 
  "/>
<polyline clip-path="url(#clip970)" style="stroke:#000000; stroke-linecap:butt; stroke-linejoin:round; stroke-width:4; stroke-opacity:1; fill:none" points="
  178.867,903.396 197.764,903.396 
  "/>
<polyline clip-path="url(#clip970)" style="stroke:#000000; stroke-linecap:butt; stroke-linejoin:round; stroke-width:4; stroke-opacity:1; fill:none" points="
  178.867,522.884 197.764,522.884 
  "/>
<polyline clip-path="url(#clip970)" style="stroke:#000000; stroke-linecap:butt; stroke-linejoin:round; stroke-width:4; stroke-opacity:1; fill:none" points="
  178.867,142.372 197.764,142.372 
  "/>
<path clip-path="url(#clip970)" d="M50.9921 1284.36 L80.6679 1284.36 L80.6679 1288.3 L50.9921 1288.3 L50.9921 1284.36 Z" fill="#000000" fill-rule="evenodd" fill-opacity="1" /><path clip-path="url(#clip970)" d="M101.339 1282.05 Q98.1909 1282.05 96.3391 1284.2 Q94.5104 1286.35 94.5104 1290.1 Q94.5104 1293.83 96.3391 1296 Q98.1909 1298.16 101.339 1298.16 Q104.487 1298.16 106.316 1296 Q108.168 1293.83 108.168 1290.1 Q108.168 1286.35 106.316 1284.2 Q104.487 1282.05 101.339 1282.05 M110.621 1267.39 L110.621 1271.65 Q108.862 1270.82 107.057 1270.38 Q105.274 1269.94 103.515 1269.94 Q98.8854 1269.94 96.4317 1273.06 Q94.0012 1276.19 93.6539 1282.51 Q95.0197 1280.49 97.0798 1279.43 Q99.14 1278.34 101.617 1278.34 Q106.825 1278.34 109.834 1281.51 Q112.867 1284.66 112.867 1290.1 Q112.867 1295.42 109.719 1298.64 Q106.571 1301.86 101.339 1301.86 Q95.3437 1301.86 92.1725 1297.28 Q89.0012 1292.67 89.0012 1283.94 Q89.0012 1275.75 92.89 1270.89 Q96.7789 1266 103.33 1266 Q105.089 1266 106.871 1266.35 Q108.677 1266.7 110.621 1267.39 Z" fill="#000000" fill-rule="evenodd" fill-opacity="1" /><path clip-path="url(#clip970)" d="M130.922 1269.71 Q127.311 1269.71 125.482 1273.27 Q123.677 1276.81 123.677 1283.94 Q123.677 1291.05 125.482 1294.61 Q127.311 1298.16 130.922 1298.16 Q134.556 1298.16 136.362 1294.61 Q138.191 1291.05 138.191 1283.94 Q138.191 1276.81 136.362 1273.27 Q134.556 1269.71 130.922 1269.71 M130.922 1266 Q136.732 1266 139.788 1270.61 Q142.867 1275.19 142.867 1283.94 Q142.867 1292.67 139.788 1297.28 Q136.732 1301.86 130.922 1301.86 Q125.112 1301.86 122.033 1297.28 Q118.978 1292.67 118.978 1283.94 Q118.978 1275.19 122.033 1270.61 Q125.112 1266 130.922 1266 Z" fill="#000000" fill-rule="evenodd" fill-opacity="1" /><path clip-path="url(#clip970)" d="M50.9921 903.848 L80.6679 903.848 L80.6679 907.783 L50.9921 907.783 L50.9921 903.848 Z" fill="#000000" fill-rule="evenodd" fill-opacity="1" /><path clip-path="url(#clip970)" d="M103.608 890.19 L91.8021 908.639 L103.608 908.639 L103.608 890.19 M102.381 886.116 L108.26 886.116 L108.26 908.639 L113.191 908.639 L113.191 912.528 L108.26 912.528 L108.26 920.676 L103.608 920.676 L103.608 912.528 L88.0058 912.528 L88.0058 908.014 L102.381 886.116 Z" fill="#000000" fill-rule="evenodd" fill-opacity="1" /><path clip-path="url(#clip970)" d="M130.922 889.195 Q127.311 889.195 125.482 892.76 Q123.677 896.302 123.677 903.431 Q123.677 910.538 125.482 914.102 Q127.311 917.644 130.922 917.644 Q134.556 917.644 136.362 914.102 Q138.191 910.538 138.191 903.431 Q138.191 896.302 136.362 892.76 Q134.556 889.195 130.922 889.195 M130.922 885.491 Q136.732 885.491 139.788 890.098 Q142.867 894.681 142.867 903.431 Q142.867 912.158 139.788 916.764 Q136.732 921.348 130.922 921.348 Q125.112 921.348 122.033 916.764 Q118.978 912.158 118.978 903.431 Q118.978 894.681 122.033 890.098 Q125.112 885.491 130.922 885.491 Z" fill="#000000" fill-rule="evenodd" fill-opacity="1" /><path clip-path="url(#clip970)" d="M50.9921 523.336 L80.6679 523.336 L80.6679 527.271 L50.9921 527.271 L50.9921 523.336 Z" fill="#000000" fill-rule="evenodd" fill-opacity="1" /><path clip-path="url(#clip970)" d="M94.7882 536.229 L111.108 536.229 L111.108 540.164 L89.1632 540.164 L89.1632 536.229 Q91.8252 533.475 96.4085 528.845 Q101.015 524.192 102.196 522.85 Q104.441 520.326 105.321 518.59 Q106.223 516.831 106.223 515.141 Q106.223 512.387 104.279 510.651 Q102.358 508.914 99.2558 508.914 Q97.0567 508.914 94.603 509.678 Q92.1725 510.442 89.3947 511.993 L89.3947 507.271 Q92.2188 506.137 94.6724 505.558 Q97.1261 504.979 99.1632 504.979 Q104.534 504.979 107.728 507.664 Q110.922 510.35 110.922 514.84 Q110.922 516.97 110.112 518.891 Q109.325 520.789 107.219 523.382 Q106.64 524.053 103.538 527.271 Q100.436 530.465 94.7882 536.229 Z" fill="#000000" fill-rule="evenodd" fill-opacity="1" /><path clip-path="url(#clip970)" d="M130.922 508.683 Q127.311 508.683 125.482 512.248 Q123.677 515.789 123.677 522.919 Q123.677 530.025 125.482 533.59 Q127.311 537.132 130.922 537.132 Q134.556 537.132 136.362 533.59 Q138.191 530.025 138.191 522.919 Q138.191 515.789 136.362 512.248 Q134.556 508.683 130.922 508.683 M130.922 504.979 Q136.732 504.979 139.788 509.586 Q142.867 514.169 142.867 522.919 Q142.867 531.646 139.788 536.252 Q136.732 540.836 130.922 540.836 Q125.112 540.836 122.033 536.252 Q118.978 531.646 118.978 522.919 Q118.978 514.169 122.033 509.586 Q125.112 504.979 130.922 504.979 Z" fill="#000000" fill-rule="evenodd" fill-opacity="1" /><path clip-path="url(#clip970)" d="M130.922 128.171 Q127.311 128.171 125.482 131.736 Q123.677 135.277 123.677 142.407 Q123.677 149.513 125.482 153.078 Q127.311 156.62 130.922 156.62 Q134.556 156.62 136.362 153.078 Q138.191 149.513 138.191 142.407 Q138.191 135.277 136.362 131.736 Q134.556 128.171 130.922 128.171 M130.922 124.467 Q136.732 124.467 139.788 129.074 Q142.867 133.657 142.867 142.407 Q142.867 151.134 139.788 155.74 Q136.732 160.323 130.922 160.323 Q125.112 160.323 122.033 155.74 Q118.978 151.134 118.978 142.407 Q118.978 133.657 122.033 129.074 Q125.112 124.467 130.922 124.467 Z" fill="#000000" fill-rule="evenodd" fill-opacity="1" /><polyline clip-path="url(#clip972)" style="stroke:#009af9; stroke-linecap:butt; stroke-linejoin:round; stroke-width:4; stroke-opacity:1; fill:none" points="
  242.443,1923.04 244.493,1693.5 246.544,1558.74 248.595,1462.61 250.646,1387.5 252.697,1325.57 254.748,1272.65 256.799,1226.22 258.849,1184.67 260.9,1146.89 
  262.951,1112.09 265.002,1079.68 267.053,1049.21 269.104,1020.33 271.154,992.749 273.205,966.234 275.256,940.588 277.307,915.644 279.358,891.254 281.409,867.289 
  283.459,843.63 285.51,820.169 287.561,796.803 289.612,773.432 291.663,749.959 293.714,726.286 295.764,702.313 297.815,677.934 299.866,653.038 301.917,627.503 
  303.968,601.196 306.019,573.967 308.069,545.647 310.12,516.041 312.171,484.926 314.222,452.042 316.273,417.093 318.324,379.749 320.375,339.674 322.425,296.609 
  324.476,250.588 326.527,202.488 328.578,155.092 330.629,114.185 332.68,86.6759 334.73,74.5609 336.781,74.1219 338.832,82.4919 340.883,100.105 342.934,127.277 
  344.985,161.438 347.035,198.565 349.086,235.536 351.137,270.706 353.188,303.46 355.239,333.705 357.29,361.581 359.34,387.303 361.391,411.103 363.442,433.196 
  365.493,453.776 367.544,473.015 369.595,491.059 371.645,508.035 373.696,524.054 375.747,539.211 377.798,553.588 379.849,567.257 381.9,580.282 383.951,592.718 
  386.001,604.613 388.052,616.013 390.103,626.954 392.154,637.472 394.205,647.597 396.256,657.357 398.306,666.777 400.357,675.88 402.408,684.686 404.459,693.213 
  406.51,701.48 408.561,709.501 410.611,717.29 412.662,724.861 414.713,732.226 416.764,739.395 418.815,746.38 420.866,753.189 422.916,759.831 424.967,766.315 
  427.018,772.647 429.069,778.836 431.12,784.888 433.171,790.808 435.222,796.603 437.272,802.278 439.323,807.839 441.374,813.289 443.425,818.633 445.476,823.876 
  447.527,829.022 449.577,834.074 451.628,839.036 453.679,843.911 455.73,848.702 457.781,853.413 459.832,858.046 461.882,862.604 463.933,867.09 465.984,871.505 
  468.035,875.853 470.086,880.135 472.137,884.353 474.187,888.51 476.238,892.608 478.289,896.648 480.34,900.631 482.391,904.561 484.442,908.438 486.492,912.263 
  488.543,916.039 490.594,919.767 492.645,923.448 494.696,927.082 496.747,930.673 498.798,934.22 500.848,937.725 502.899,941.189 504.95,944.613 507.001,947.998 
  509.052,951.345 511.103,954.655 513.153,957.928 515.204,961.167 517.255,964.371 519.306,967.541 521.357,970.679 523.408,973.785 525.458,976.859 527.509,979.902 
  529.56,982.916 531.611,985.9 533.662,988.856 535.713,991.783 537.763,994.683 539.814,997.557 541.865,1000.4 543.916,1003.22 545.967,1006.02 548.018,1008.79 
  550.068,1011.54 552.119,1014.26 554.17,1016.96 556.221,1019.64 558.272,1022.3 560.323,1024.93 562.374,1027.54 564.424,1030.13 566.475,1032.7 568.526,1035.25 
  570.577,1037.78 572.628,1040.29 574.679,1042.78 576.729,1045.25 578.78,1047.7 580.831,1050.14 582.882,1052.56 584.933,1054.95 586.984,1057.34 589.034,1059.7 
  591.085,1062.05 593.136,1064.38 595.187,1066.7 597.238,1069 599.289,1071.28 601.339,1073.55 603.39,1075.8 605.441,1078.04 607.492,1080.27 609.543,1082.48 
  611.594,1084.67 613.644,1086.85 615.695,1089.02 617.746,1091.17 619.797,1093.31 621.848,1095.44 623.899,1097.56 625.95,1099.66 628,1101.75 630.051,1103.82 
  632.102,1105.89 634.153,1107.94 636.204,1109.98 638.255,1112.01 640.305,1114.03 642.356,1116.03 644.407,1118.03 646.458,1120.01 648.509,1121.99 650.56,1123.95 
  652.61,1125.9 654.661,1127.84 656.712,1129.77 658.763,1131.69 660.814,1133.6 662.865,1135.5 664.915,1137.39 666.966,1139.27 669.017,1141.15 671.068,1143.01 
  673.119,1144.86 675.17,1146.71 677.22,1148.54 679.271,1150.37 681.322,1152.18 683.373,1153.99 685.424,1155.79 687.475,1157.58 689.526,1159.37 691.576,1161.14 
  693.627,1162.91 695.678,1164.66 697.729,1166.41 699.78,1168.16 701.831,1169.89 703.881,1171.62 705.932,1173.34 707.983,1175.05 710.034,1176.75 712.085,1178.45 
  714.136,1180.14 716.186,1181.82 718.237,1183.5 720.288,1185.17 722.339,1186.83 724.39,1188.48 726.441,1190.13 728.491,1191.77 730.542,1193.41 732.593,1195.04 
  734.644,1196.66 736.695,1198.27 738.746,1199.88 740.797,1201.49 742.847,1203.08 744.898,1204.67 746.949,1206.26 749,1207.84 751.051,1209.41 753.102,1210.98 
  755.152,1212.54 757.203,1214.09 759.254,1215.64 761.305,1217.18 763.356,1218.72 765.407,1220.26 767.457,1221.78 769.508,1223.31 771.559,1224.82 773.61,1226.33 
  775.661,1227.84 777.712,1229.34 779.762,1230.84 781.813,1232.33 783.864,1233.81 785.915,1235.3 787.966,1236.77 790.017,1238.24 792.067,1239.71 794.118,1241.17 
  796.169,1242.63 798.22,1244.08 800.271,1245.53 802.322,1246.97 804.373,1248.41 806.423,1249.85 808.474,1251.28 810.525,1252.7 812.576,1254.12 814.627,1255.54 
  816.678,1256.95 818.728,1258.36 820.779,1259.77 822.83,1261.17 824.881,1262.56 826.932,1263.95 828.983,1265.34 831.033,1266.73 833.084,1268.11 835.135,1269.48 
  837.186,1270.86 839.237,1272.23 841.288,1273.59 843.338,1274.95 845.389,1276.31 847.44,1277.66 849.491,1279.01 851.542,1280.36 853.593,1281.7 855.643,1283.04 
  857.694,1284.38 859.745,1285.71 861.796,1287.04 863.847,1288.37 865.898,1289.69 867.949,1291.01 869.999,1292.33 872.05,1293.64 874.101,1294.95 876.152,1296.25 
  878.203,1297.56 880.254,1298.86 882.304,1300.15 884.355,1301.45 886.406,1302.74 888.457,1304.03 890.508,1305.31 892.559,1306.59 894.609,1307.87 896.66,1309.15 
  898.711,1310.42 900.762,1311.69 902.813,1312.96 904.864,1314.22 906.914,1315.49 908.965,1316.74 911.016,1318 913.067,1319.25 915.118,1320.51 917.169,1321.75 
  919.219,1323 921.27,1324.24 923.321,1325.48 925.372,1326.72 927.423,1327.96 929.474,1329.19 931.525,1330.42 933.575,1331.65 935.626,1332.87 937.677,1334.1 
  939.728,1335.32 941.779,1336.54 943.83,1337.75 945.88,1338.97 947.931,1340.18 949.982,1341.39 952.033,1342.59 954.084,1343.8 956.135,1345 958.185,1346.2 
  960.236,1347.4 962.287,1348.6 964.338,1349.79 966.389,1350.98 968.44,1352.17 970.49,1353.36 972.541,1354.55 974.592,1355.73 976.643,1356.91 978.694,1358.09 
  980.745,1359.27 982.795,1360.44 984.846,1361.62 986.897,1362.79 988.948,1363.96 990.999,1365.13 993.05,1366.29 995.101,1367.46 997.151,1368.62 999.202,1369.78 
  1001.25,1370.94 1003.3,1372.1 1005.35,1373.25 1007.41,1374.41 1009.46,1375.56 1011.51,1376.71 1013.56,1377.86 1015.61,1379.01 1017.66,1380.15 1019.71,1381.3 
  1021.76,1382.44 1023.81,1383.58 1025.86,1384.72 1027.91,1385.86 1029.96,1386.99 1032.02,1388.13 1034.07,1389.26 1036.12,1390.39 1038.17,1391.52 1040.22,1392.65 
  1042.27,1393.78 1044.32,1394.9 1046.37,1396.03 1048.42,1397.15 1050.47,1398.27 1052.52,1399.39 1054.57,1400.51 1056.63,1401.63 1058.68,1402.75 1060.73,1403.86 
  1062.78,1404.98 1064.83,1406.09 1066.88,1407.2 1068.93,1408.31 1070.98,1409.42 1073.03,1410.52 1075.08,1411.63 1077.13,1412.74 1079.18,1413.84 1081.24,1414.94 
  1083.29,1416.04 1085.34,1417.14 1087.39,1418.24 1089.44,1419.34 1091.49,1420.44 1093.54,1421.54 1095.59,1422.63 1097.64,1423.72 1099.69,1424.82 1101.74,1425.91 
  1103.79,1427 1105.85,1428.09 1107.9,1429.18 1109.95,1430.27 1112,1431.35 1114.05,1432.44 1116.1,1433.53 1118.15,1434.61 1120.2,1435.69 1122.25,1436.78 
  1124.3,1437.86 1126.35,1438.94 1128.41,1440.02 1130.46,1441.1 1132.51,1442.17 1134.56,1443.25 1136.61,1444.33 1138.66,1445.4 1140.71,1446.48 1142.76,1447.55 
  1144.81,1448.63 1146.86,1449.7 1148.91,1450.77 1150.96,1451.84 1153.02,1452.91 1155.07,1453.98 1157.12,1455.05 1159.17,1456.12 1161.22,1457.19 1163.27,1458.26 
  1165.32,1459.32 1167.37,1460.39 1169.42,1461.45 1171.47,1462.52 1173.52,1463.58 1175.57,1464.65 1177.63,1465.71 1179.68,1466.77 1181.73,1467.84 1183.78,1468.9 
  1185.83,1469.96 1187.88,1471.02 1189.93,1472.08 1191.98,1473.14 1194.03,1474.2 1196.08,1475.26 1198.13,1476.31 1200.18,1477.37 1202.24,1478.43 1204.29,1479.48 
  1206.34,1480.54 1208.39,1481.6 1210.44,1482.65 1212.49,1483.71 1214.54,1484.76 1216.59,1485.82 1218.64,1486.87 1220.69,1487.93 1222.74,1488.98 1224.79,1490.03 
  1226.85,1491.09 1228.9,1492.14 1230.95,1493.19 1233,1494.24 1235.05,1495.3 1237.1,1496.35 1239.15,1497.4 1241.2,1498.45 1243.25,1499.5 1245.3,1500.55 
  1247.35,1501.6 1249.4,1502.65 1251.46,1503.7 1253.51,1504.75 1255.56,1505.8 1257.61,1506.85 1259.66,1507.9 1261.71,1508.95 1263.76,1510 1265.81,1511.05 
  1267.86,1512.1 1269.91,1513.15 1271.96,1514.2 1274.01,1515.25 1276.07,1516.3 1278.12,1517.35 1280.17,1518.4 1282.22,1519.45 1284.27,1520.5 1286.32,1521.55 
  1288.37,1522.6 1290.42,1523.65 1292.47,1524.7 1294.52,1525.75 1296.57,1526.8 1298.62,1527.85 1300.68,1528.9 1302.73,1529.95 1304.78,1531 1306.83,1532.05 
  1308.88,1533.1 1310.93,1534.15 1312.98,1535.2 1315.03,1536.25 1317.08,1537.3 1319.13,1538.35 1321.18,1539.4 1323.23,1540.45 1325.29,1541.51 1327.34,1542.56 
  1329.39,1543.61 1331.44,1544.66 1333.49,1545.72 1335.54,1546.77 1337.59,1547.82 1339.64,1548.88 1341.69,1549.93 1343.74,1550.99 1345.79,1552.04 1347.84,1553.1 
  1349.9,1554.15 1351.95,1555.21 1354,1556.26 1356.05,1557.32 1358.1,1558.38 1360.15,1559.44 1362.2,1560.49 1364.25,1561.55 1366.3,1562.61 1368.35,1563.67 
  1370.4,1564.73 1372.45,1565.79 1374.51,1566.85 1376.56,1567.91 1378.61,1568.97 1380.66,1570.04 1382.71,1571.1 1384.76,1572.16 1386.81,1573.23 1388.86,1574.29 
  1390.91,1575.36 1392.96,1576.42 1395.01,1577.49 1397.06,1578.56 1399.12,1579.62 1401.17,1580.69 1403.22,1581.76 1405.27,1582.83 1407.32,1583.9 1409.37,1584.97 
  1411.42,1586.04 1413.47,1587.12 1415.52,1588.19 1417.57,1589.26 1419.62,1590.34 1421.68,1591.41 1423.73,1592.49 1425.78,1593.57 1427.83,1594.64 1429.88,1595.72 
  1431.93,1596.8 1433.98,1597.88 1436.03,1598.96 1438.08,1600.04 1440.13,1601.13 1442.18,1602.21 1444.23,1603.3 1446.29,1604.38 1448.34,1605.47 1450.39,1606.56 
  1452.44,1607.64 1454.49,1608.73 1456.54,1609.82 1458.59,1610.91 1460.64,1612.01 1462.69,1613.1 1464.74,1614.19 1466.79,1615.29 1468.84,1616.39 1470.9,1617.48 
  1472.95,1618.58 1475,1619.68 1477.05,1620.78 1479.1,1621.88 1481.15,1622.99 1483.2,1624.09 1485.25,1625.2 1487.3,1626.3 1489.35,1627.41 1491.4,1628.52 
  1493.45,1629.63 1495.51,1630.74 1497.56,1631.85 1499.61,1632.97 1501.66,1634.08 1503.71,1635.2 1505.76,1636.32 1507.81,1637.44 1509.86,1638.56 1511.91,1639.68 
  1513.96,1640.8 1516.01,1641.92 1518.06,1643.05 1520.12,1644.18 1522.17,1645.31 1524.22,1646.44 1526.27,1647.57 1528.32,1648.7 1530.37,1649.84 1532.42,1650.97 
  1534.47,1652.11 1536.52,1653.25 1538.57,1654.39 1540.62,1655.53 1542.67,1656.67 1544.73,1657.82 1546.78,1658.97 1548.83,1660.11 1550.88,1661.26 1552.93,1662.42 
  1554.98,1663.57 1557.03,1664.72 1559.08,1665.88 1561.13,1667.04 1563.18,1668.2 1565.23,1669.36 1567.28,1670.53 1569.34,1671.69 1571.39,1672.86 1573.44,1674.03 
  1575.49,1675.2 1577.54,1676.37 1579.59,1677.55 1581.64,1678.72 1583.69,1679.9 1585.74,1681.08 1587.79,1682.26 1589.84,1683.45 1591.89,1684.63 1593.95,1685.82 
  1596,1687.01 1598.05,1688.21 1600.1,1689.4 1602.15,1690.6 1604.2,1691.8 1606.25,1693 1608.3,1694.2 1610.35,1695.4 1612.4,1696.61 1614.45,1697.82 
  1616.5,1699.03 1618.56,1700.25 1620.61,1701.46 1622.66,1702.68 1624.71,1703.9 1626.76,1705.13 1628.81,1706.35 1630.86,1707.58 1632.91,1708.81 1634.96,1710.04 
  1637.01,1711.28 1639.06,1712.51 1641.11,1713.75 1643.17,1715 1645.22,1716.24 1647.27,1717.49 1649.32,1718.74 1651.37,1719.99 1653.42,1721.25 1655.47,1722.5 
  1657.52,1723.76 1659.57,1725.03 1661.62,1726.29 1663.67,1727.56 1665.72,1728.83 1667.78,1730.11 1669.83,1731.39 1671.88,1732.67 1673.93,1733.95 1675.98,1735.23 
  1678.03,1736.52 1680.08,1737.81 1682.13,1739.11 1684.18,1740.41 1686.23,1741.71 1688.28,1743.01 1690.33,1744.32 1692.39,1745.63 1694.44,1746.94 1696.49,1748.25 
  1698.54,1749.57 1700.59,1750.9 1702.64,1752.22 1704.69,1753.55 1706.74,1754.88 1708.79,1756.22 1710.84,1757.56 1712.89,1758.9 1714.94,1760.24 1717,1761.59 
  1719.05,1762.95 1721.1,1764.3 1723.15,1765.66 1725.2,1767.02 1727.25,1768.39 1729.3,1769.76 1731.35,1771.14 1733.4,1772.51 1735.45,1773.9 1737.5,1775.28 
  1739.56,1776.67 1741.61,1778.06 1743.66,1779.46 1745.71,1780.86 1747.76,1782.27 1749.81,1783.67 1751.86,1785.09 1753.91,1786.5 1755.96,1787.92 1758.01,1789.35 
  1760.06,1790.78 1762.11,1792.21 1764.17,1793.65 1766.22,1795.09 1768.27,1796.54 1770.32,1797.99 1772.37,1799.45 1774.42,1800.91 1776.47,1802.37 1778.52,1803.84 
  1780.57,1805.31 1782.62,1806.79 1784.67,1808.27 1786.72,1809.76 1788.78,1811.25 1790.83,1812.75 1792.88,1814.25 1794.93,1815.76 1796.98,1817.27 1799.03,1818.79 
  1801.08,1820.31 1803.13,1821.84 1805.18,1823.37 1807.23,1824.91 1809.28,1826.45 1811.33,1828 1813.39,1829.55 1815.44,1831.11 1817.49,1832.67 1819.54,1834.24 
  1821.59,1835.82 1823.64,1837.4 1825.69,1838.99 1827.74,1840.58 1829.79,1842.18 1831.84,1843.78 1833.89,1845.39 1835.94,1847.01 1838,1848.63 1840.05,1850.26 
  1842.1,1851.89 1844.15,1853.53 1846.2,1855.18 1848.25,1856.83 1850.3,1858.49 1852.35,1860.16 1854.4,1861.83 1856.45,1863.51 1858.5,1865.19 1860.55,1866.89 
  1862.61,1868.59 1864.66,1870.29 1866.71,1872.01 1868.76,1873.73 1870.81,1875.46 1872.86,1877.19 1874.91,1878.93 1876.96,1880.68 1879.01,1882.44 1881.06,1884.21 
  1883.11,1885.98 1885.16,1887.76 1887.22,1889.55 1889.27,1891.34 1891.32,1893.14 1893.37,1894.96 1895.42,1896.78 1897.47,1898.6 1899.52,1900.44 1901.57,1902.29 
  1903.62,1904.14 1905.67,1906 1907.72,1907.87 1909.77,1909.75 1911.83,1911.64 1913.88,1913.54 1915.93,1915.44 1917.98,1917.36 1920.03,1919.29 1922.08,1921.22 
  1924.13,1923.17 1926.18,1925.12 1928.23,1927.08 1930.28,1929.06 1932.33,1931.04 1934.38,1933.03 1936.44,1935.04 1938.49,1937.05 1940.54,1939.08 1942.59,1941.12 
  1944.64,1943.16 1946.69,1945.22 1948.74,1947.29 1950.79,1949.37 1952.84,1951.46 1954.89,1953.56 1956.94,1955.68 1958.99,1957.81 1961.05,1959.94 1963.1,1962.09 
  1965.15,1964.26 1967.2,1966.43 1969.25,1968.62 1971.3,1970.82 1973.35,1973.04 1975.4,1975.26 1977.45,1977.5 1979.5,1979.76 1981.55,1982.02 1983.6,1984.31 
  1985.66,1986.6 1987.71,1988.91 1989.76,1991.24 1991.81,1993.58 1993.86,1995.93 1995.91,1998.3 1997.96,2000.68 2000.01,2003.08 2002.06,2005.5 2004.11,2007.93 
  2006.16,2010.38 2008.21,2012.84 2010.27,2015.32 2012.32,2017.82 2014.37,2020.34 2016.42,2022.87 2018.47,2025.42 2020.52,2027.99 2022.57,2030.58 2024.62,2033.19 
  2026.67,2035.81 2028.72,2038.46 2030.77,2041.12 2032.83,2043.8 2034.88,2046.51 2036.93,2049.23 2038.98,2051.98 2041.03,2054.75 2043.08,2057.53 2045.13,2060.34 
  2047.18,2063.18 2049.23,2066.03 2051.28,2068.91 2053.33,2071.81 2055.38,2074.74 2057.44,2077.69 2059.49,2080.67 2061.54,2083.67 2063.59,2086.7 2065.64,2089.75 
  2067.69,2092.83 2069.74,2095.93 2071.79,2099.07 2073.84,2102.23 2075.89,2105.42 2077.94,2108.65 2079.99,2111.9 2082.05,2115.18 2084.1,2118.49 2086.15,2121.84 
  2088.2,2125.21 2090.25,2128.62 2092.3,2132.07 2094.35,2135.55 2096.4,2139.06 2098.45,2142.61 2100.5,2146.2 2102.55,2149.82 2104.6,2153.49 2106.66,2157.19 
  2108.71,2160.93 2110.76,2164.72 2112.81,2168.54 2114.86,2172.41 2116.91,2176.33 2118.96,2180.28 2121.01,2184.29 2123.06,2188.34 2125.11,2192.44 2127.16,2196.59 
  2129.21,2200.79 2131.27,2205.05 2133.32,2209.36 2135.37,2213.72 2137.42,2218.14 2139.47,2222.62 2141.52,2227.15 2143.57,2231.75 2145.62,2236.41 2147.67,2241.14 
  2149.72,2245.94 2151.77,2250.8 2153.82,2255.73 2155.88,2260.74 2157.93,2265.82 2159.98,2270.98 2162.03,2276.22 2164.08,2281.55 2166.13,2286.95 2168.18,2292.45 
  2170.23,2298.04 2172.28,2303.72 2174.33,2309.5 2176.38,2315.38 2178.43,2321.37 2180.49,2327.46 2182.54,2333.67 2184.59,2340 2186.64,2346.44 2188.69,2353.02 
  2190.74,2359.72 2192.79,2366.56 2194.84,2373.55 2196.89,2380.68 2198.94,2387.97 2200.99,2395.42 2203.04,2403.04 2205.1,2410.84 2207.15,2418.83 2209.2,2427.02 
  2211.25,2435.4 2213.3,2444.01 2215.35,2452.85 2217.4,2461.92 2219.45,2471.25 2221.5,2480.85 2223.55,2490.74 2225.6,2500.93 2227.65,2511.44 2229.71,2522.29 
  2231.76,2533.51 2233.81,2545.13 2235.86,2557.16 2237.91,2569.65 2239.96,2582.63 2242.01,2596.13 2244.06,2610.21 2246.11,2624.91 2248.16,2640.3 2250.21,2656.44 
  2252.26,2673.4 2254.32,2691.28 2256.37,2710.18 2258.42,2730.23 2260.47,2751.57 2262.52,2774.38 2264.57,2798.88 2266.62,2825.34 2268.67,2854.11 2270.72,2885.61 
  2272.77,2920.44 2274.82,2959.37 2276.87,3003.51 2278.93,3054.46 2280.98,3114.72 2283.03,3188.48 2285.08,3283.56 2287.13,3417.57 2289.18,3646.66 2291.23,13851.3 
  
  "/>
<polyline clip-path="url(#clip972)" style="stroke:#e26f46; stroke-linecap:butt; stroke-linejoin:round; stroke-width:4; stroke-opacity:1; fill:none" points="
  242.443,1047.78 244.493,933.027 246.544,865.682 248.595,817.665 250.646,780.176 252.697,749.293 254.748,722.923 256.799,699.818 258.849,679.169 260.9,660.423 
  262.951,643.185 265.002,627.162 267.053,612.129 269.104,597.911 271.154,584.366 273.205,571.379 275.256,558.854 277.307,546.708 279.358,534.872 281.409,523.283 
  283.459,511.885 285.51,500.628 287.561,489.466 289.612,478.355 291.663,467.251 293.714,456.114 295.764,444.902 297.815,433.574 299.866,422.087 301.917,410.395 
  303.968,398.451 306.019,386.201 308.069,373.591 310.12,360.556 312.171,347.026 314.222,332.921 316.273,318.153 318.324,302.618 320.375,286.201 322.425,268.776 
  324.476,250.208 326.527,230.37 328.578,209.175 330.629,186.658 332.68,163.141 334.73,139.566 336.781,118.001 338.832,101.974 340.883,95.5048 342.934,100.284 
  344.985,114.07 347.035,132.764 349.086,153.041 351.137,173.037 353.188,191.928 355.239,209.448 357.29,225.582 359.34,240.421 361.391,254.09 363.442,266.716 
  365.493,278.417 367.544,289.299 369.595,299.455 371.645,308.966 373.696,317.9 375.747,326.318 377.798,334.27 379.849,341.803 381.9,348.956 383.951,355.762 
  386.001,362.252 388.052,368.453 390.103,374.388 392.154,380.078 394.205,385.542 396.256,390.797 398.306,395.857 400.357,400.736 402.408,405.446 404.459,409.999 
  406.51,414.404 408.561,418.67 410.611,422.807 412.662,426.821 414.713,430.719 416.764,434.509 418.815,438.196 420.866,441.785 422.916,445.282 424.967,448.691 
  427.018,452.016 429.069,455.262 431.12,458.433 433.171,461.532 435.222,464.562 437.272,467.526 439.323,470.427 441.374,473.269 443.425,476.052 445.476,478.781 
  447.527,481.457 449.577,484.081 451.628,486.657 453.679,489.186 455.73,491.67 457.781,494.11 459.832,496.508 461.882,498.866 463.933,501.185 465.984,503.466 
  468.035,505.71 470.086,507.92 472.137,510.095 474.187,512.238 476.238,514.348 478.289,516.428 480.34,518.478 482.391,520.499 484.442,522.492 486.492,524.458 
  488.543,526.397 490.594,528.31 492.645,530.199 494.696,532.063 496.747,533.904 498.798,535.722 500.848,537.517 502.899,539.291 504.95,541.043 507.001,542.775 
  509.052,544.487 511.103,546.18 513.153,547.853 515.204,549.508 517.255,551.144 519.306,552.763 521.357,554.364 523.408,555.949 525.458,557.517 527.509,559.07 
  529.56,560.606 531.611,562.127 533.662,563.633 535.713,565.124 537.763,566.601 539.814,568.064 541.865,569.513 543.916,570.949 545.967,572.371 548.018,573.781 
  550.068,575.178 552.119,576.563 554.17,577.935 556.221,579.296 558.272,580.644 560.323,581.982 562.374,583.308 564.424,584.623 566.475,585.928 568.526,587.222 
  570.577,588.505 572.628,589.779 574.679,591.042 576.729,592.295 578.78,593.539 580.831,594.774 582.882,595.999 584.933,597.215 586.984,598.422 589.034,599.62 
  591.085,600.81 593.136,601.991 595.187,603.163 597.238,604.328 599.289,605.484 601.339,606.632 603.39,607.773 605.441,608.906 607.492,610.031 609.543,611.148 
  611.594,612.259 613.644,613.362 615.695,614.458 617.746,615.547 619.797,616.629 621.848,617.705 623.899,618.774 625.95,619.836 628,620.891 630.051,621.941 
  632.102,622.983 634.153,624.02 636.204,625.051 638.255,626.076 640.305,627.094 642.356,628.107 644.407,629.114 646.458,630.116 648.509,631.111 650.56,632.102 
  652.61,633.086 654.661,634.066 656.712,635.04 658.763,636.009 660.814,636.973 662.865,637.931 664.915,638.885 666.966,639.834 669.017,640.777 671.068,641.716 
  673.119,642.651 675.17,643.58 677.22,644.505 679.271,645.425 681.322,646.341 683.373,647.253 685.424,648.16 687.475,649.062 689.526,649.96 691.576,650.855 
  693.627,651.744 695.678,652.63 697.729,653.512 699.78,654.389 701.831,655.263 703.881,656.133 705.932,656.999 707.983,657.861 710.034,658.719 712.085,659.573 
  714.136,660.424 716.186,661.271 718.237,662.114 720.288,662.954 722.339,663.791 724.39,664.623 726.441,665.453 728.491,666.279 730.542,667.101 732.593,667.921 
  734.644,668.737 736.695,669.549 738.746,670.359 740.797,671.165 742.847,671.968 744.898,672.768 746.949,673.565 749,674.359 751.051,675.15 753.102,675.938 
  755.152,676.723 757.203,677.505 759.254,678.284 761.305,679.06 763.356,679.833 765.407,680.604 767.457,681.372 769.508,682.137 771.559,682.899 773.61,683.659 
  775.661,684.416 777.712,685.171 779.762,685.923 781.813,686.672 783.864,687.419 785.915,688.163 787.966,688.905 790.017,689.644 792.067,690.381 794.118,691.116 
  796.169,691.848 798.22,692.577 800.271,693.305 802.322,694.03 804.373,694.753 806.423,695.473 808.474,696.191 810.525,696.908 812.576,697.621 814.627,698.333 
  816.678,699.043 818.728,699.75 820.779,700.455 822.83,701.159 824.881,701.86 826.932,702.559 828.983,703.256 831.033,703.951 833.084,704.644 835.135,705.335 
  837.186,706.024 839.237,706.711 841.288,707.397 843.338,708.08 845.389,708.761 847.44,709.441 849.491,710.119 851.542,710.795 853.593,711.469 855.643,712.141 
  857.694,712.812 859.745,713.481 861.796,714.148 863.847,714.814 865.898,715.477 867.949,716.139 869.999,716.8 872.05,717.458 874.101,718.115 876.152,718.771 
  878.203,719.425 880.254,720.077 882.304,720.728 884.355,721.377 886.406,722.024 888.457,722.67 890.508,723.315 892.559,723.958 894.609,724.599 896.66,725.24 
  898.711,725.878 900.762,726.515 902.813,727.151 904.864,727.785 906.914,728.418 908.965,729.05 911.016,729.68 913.067,730.309 915.118,730.936 917.169,731.562 
  919.219,732.187 921.27,732.81 923.321,733.432 925.372,734.053 927.423,734.673 929.474,735.291 931.525,735.908 933.575,736.524 935.626,737.138 937.677,737.752 
  939.728,738.364 941.779,738.975 943.83,739.585 945.88,740.193 947.931,740.801 949.982,741.407 952.033,742.012 954.084,742.616 956.135,743.219 958.185,743.821 
  960.236,744.421 962.287,745.021 964.338,745.62 966.389,746.217 968.44,746.813 970.49,747.409 972.541,748.003 974.592,748.596 976.643,749.189 978.694,749.78 
  980.745,750.37 982.795,750.96 984.846,751.548 986.897,752.135 988.948,752.722 990.999,753.307 993.05,753.892 995.101,754.476 997.151,755.058 999.202,755.64 
  1001.25,756.221 1003.3,756.801 1005.35,757.38 1007.41,757.958 1009.46,758.536 1011.51,759.112 1013.56,759.688 1015.61,760.263 1017.66,760.837 1019.71,761.41 
  1021.76,761.982 1023.81,762.554 1025.86,763.125 1027.91,763.695 1029.96,764.264 1032.02,764.833 1034.07,765.4 1036.12,765.967 1038.17,766.533 1040.22,767.099 
  1042.27,767.664 1044.32,768.228 1046.37,768.791 1048.42,769.354 1050.47,769.915 1052.52,770.477 1054.57,771.037 1056.63,771.597 1058.68,772.156 1060.73,772.715 
  1062.78,773.273 1064.83,773.83 1066.88,774.386 1068.93,774.942 1070.98,775.498 1073.03,776.053 1075.08,776.607 1077.13,777.16 1079.18,777.713 1081.24,778.265 
  1083.29,778.817 1085.34,779.368 1087.39,779.919 1089.44,780.469 1091.49,781.019 1093.54,781.568 1095.59,782.116 1097.64,782.664 1099.69,783.211 1101.74,783.758 
  1103.79,784.304 1105.85,784.85 1107.9,785.396 1109.95,785.94 1112,786.485 1114.05,787.029 1116.1,787.572 1118.15,788.115 1120.2,788.658 1122.25,789.2 
  1124.3,789.741 1126.35,790.282 1128.41,790.823 1130.46,791.364 1132.51,791.903 1134.56,792.443 1136.61,792.982 1138.66,793.521 1140.71,794.059 1142.76,794.597 
  1144.81,795.134 1146.86,795.671 1148.91,796.208 1150.96,796.745 1153.02,797.281 1155.07,797.816 1157.12,798.352 1159.17,798.887 1161.22,799.421 1163.27,799.956 
  1165.32,800.49 1167.37,801.024 1169.42,801.557 1171.47,802.09 1173.52,802.623 1175.57,803.155 1177.63,803.688 1179.68,804.22 1181.73,804.751 1183.78,805.283 
  1185.83,805.814 1187.88,806.345 1189.93,806.875 1191.98,807.406 1194.03,807.936 1196.08,808.466 1198.13,808.996 1200.18,809.525 1202.24,810.054 1204.29,810.583 
  1206.34,811.112 1208.39,811.641 1210.44,812.169 1212.49,812.698 1214.54,813.226 1216.59,813.754 1218.64,814.281 1220.69,814.809 1222.74,815.336 1224.79,815.864 
  1226.85,816.391 1228.9,816.918 1230.95,817.445 1233,817.971 1235.05,818.498 1237.1,819.024 1239.15,819.551 1241.2,820.077 1243.25,820.603 1245.3,821.129 
  1247.35,821.655 1249.4,822.181 1251.46,822.707 1253.51,823.232 1255.56,823.758 1257.61,824.283 1259.66,824.809 1261.71,825.334 1263.76,825.86 1265.81,826.385 
  1267.86,826.91 1269.91,827.436 1271.96,827.961 1274.01,828.486 1276.07,829.011 1278.12,829.536 1280.17,830.062 1282.22,830.587 1284.27,831.112 1286.32,831.637 
  1288.37,832.162 1290.42,832.688 1292.47,833.213 1294.52,833.738 1296.57,834.263 1298.62,834.789 1300.68,835.314 1302.73,835.84 1304.78,836.365 1306.83,836.891 
  1308.88,837.416 1310.93,837.942 1312.98,838.468 1315.03,838.994 1317.08,839.52 1319.13,840.046 1321.18,840.572 1323.23,841.098 1325.29,841.625 1327.34,842.151 
  1329.39,842.678 1331.44,843.205 1333.49,843.732 1335.54,844.259 1337.59,844.786 1339.64,845.313 1341.69,845.841 1343.74,846.369 1345.79,846.896 1347.84,847.424 
  1349.9,847.953 1351.95,848.481 1354,849.01 1356.05,849.538 1358.1,850.067 1360.15,850.596 1362.2,851.126 1364.25,851.655 1366.3,852.185 1368.35,852.715 
  1370.4,853.246 1372.45,853.776 1374.51,854.307 1376.56,854.838 1378.61,855.369 1380.66,855.901 1382.71,856.433 1384.76,856.965 1386.81,857.497 1388.86,858.03 
  1390.91,858.563 1392.96,859.096 1395.01,859.629 1397.06,860.163 1399.12,860.697 1401.17,861.232 1403.22,861.767 1405.27,862.302 1407.32,862.837 1409.37,863.373 
  1411.42,863.909 1413.47,864.446 1415.52,864.983 1417.57,865.52 1419.62,866.058 1421.68,866.596 1423.73,867.134 1425.78,867.673 1427.83,868.212 1429.88,868.752 
  1431.93,869.292 1433.98,869.832 1436.03,870.373 1438.08,870.915 1440.13,871.456 1442.18,871.998 1444.23,872.541 1446.29,873.084 1448.34,873.628 1450.39,874.172 
  1452.44,874.716 1454.49,875.261 1456.54,875.806 1458.59,876.352 1460.64,876.899 1462.69,877.446 1464.74,877.993 1466.79,878.541 1468.84,879.09 1470.9,879.639 
  1472.95,880.188 1475,880.738 1477.05,881.289 1479.1,881.84 1481.15,882.392 1483.2,882.944 1485.25,883.497 1487.3,884.051 1489.35,884.605 1491.4,885.16 
  1493.45,885.715 1495.51,886.271 1497.56,886.827 1499.61,887.384 1501.66,887.942 1503.71,888.501 1505.76,889.06 1507.81,889.62 1509.86,890.18 1511.91,890.741 
  1513.96,891.303 1516.01,891.865 1518.06,892.428 1520.12,892.992 1522.17,893.557 1524.22,894.122 1526.27,894.688 1528.32,895.255 1530.37,895.822 1532.42,896.39 
  1534.47,896.959 1536.52,897.529 1538.57,898.1 1540.62,898.671 1542.67,899.243 1544.73,899.816 1546.78,900.389 1548.83,900.964 1550.88,901.539 1552.93,902.115 
  1554.98,902.692 1557.03,903.27 1559.08,903.848 1561.13,904.428 1563.18,905.008 1565.23,905.589 1567.28,906.171 1569.34,906.754 1571.39,907.338 1573.44,907.923 
  1575.49,908.509 1577.54,909.095 1579.59,909.683 1581.64,910.272 1583.69,910.861 1585.74,911.452 1587.79,912.043 1589.84,912.635 1591.89,913.229 1593.95,913.823 
  1596,914.418 1598.05,915.015 1600.1,915.612 1602.15,916.211 1604.2,916.81 1606.25,917.411 1608.3,918.013 1610.35,918.615 1612.4,919.219 1614.45,919.824 
  1616.5,920.43 1618.56,921.037 1620.61,921.646 1622.66,922.255 1624.71,922.866 1626.76,923.477 1628.81,924.09 1630.86,924.704 1632.91,925.319 1634.96,925.936 
  1637.01,926.554 1639.06,927.173 1641.11,927.793 1643.17,928.414 1645.22,929.037 1647.27,929.661 1649.32,930.286 1651.37,930.912 1653.42,931.54 1655.47,932.169 
  1657.52,932.8 1659.57,933.432 1661.62,934.065 1663.67,934.699 1665.72,935.335 1667.78,935.972 1669.83,936.611 1671.88,937.251 1673.93,937.893 1675.98,938.536 
  1678.03,939.18 1680.08,939.826 1682.13,940.473 1684.18,941.122 1686.23,941.772 1688.28,942.424 1690.33,943.078 1692.39,943.733 1694.44,944.389 1696.49,945.047 
  1698.54,945.707 1700.59,946.368 1702.64,947.031 1704.69,947.696 1706.74,948.362 1708.79,949.03 1710.84,949.699 1712.89,950.371 1714.94,951.044 1717,951.718 
  1719.05,952.395 1721.1,953.073 1723.15,953.753 1725.2,954.435 1727.25,955.118 1729.3,955.804 1731.35,956.491 1733.4,957.18 1735.45,957.871 1737.5,958.564 
  1739.56,959.258 1741.61,959.955 1743.66,960.654 1745.71,961.354 1747.76,962.057 1749.81,962.761 1751.86,963.468 1753.91,964.176 1755.96,964.887 1758.01,965.6 
  1760.06,966.315 1762.11,967.031 1764.17,967.751 1766.22,968.472 1768.27,969.195 1770.32,969.921 1772.37,970.648 1774.42,971.378 1776.47,972.111 1778.52,972.845 
  1780.57,973.582 1782.62,974.321 1784.67,975.063 1786.72,975.807 1788.78,976.553 1790.83,977.302 1792.88,978.053 1794.93,978.806 1796.98,979.562 1799.03,980.321 
  1801.08,981.082 1803.13,981.846 1805.18,982.612 1807.23,983.381 1809.28,984.152 1811.33,984.926 1813.39,985.703 1815.44,986.482 1817.49,987.265 1819.54,988.05 
  1821.59,988.837 1823.64,989.628 1825.69,990.421 1827.74,991.218 1829.79,992.017 1831.84,992.819 1833.89,993.624 1835.94,994.432 1838,995.243 1840.05,996.058 
  1842.1,996.875 1844.15,997.695 1846.2,998.519 1848.25,999.345 1850.3,1000.18 1852.35,1001.01 1854.4,1001.84 1856.45,1002.68 1858.5,1003.53 1860.55,1004.37 
  1862.61,1005.22 1864.66,1006.08 1866.71,1006.93 1868.76,1007.8 1870.81,1008.66 1872.86,1009.53 1874.91,1010.4 1876.96,1011.27 1879.01,1012.15 1881.06,1013.03 
  1883.11,1013.92 1885.16,1014.81 1887.22,1015.7 1889.27,1016.6 1891.32,1017.5 1893.37,1018.41 1895.42,1019.32 1897.47,1020.23 1899.52,1021.15 1901.57,1022.08 
  1903.62,1023 1905.67,1023.93 1907.72,1024.87 1909.77,1025.81 1911.83,1026.75 1913.88,1027.7 1915.93,1028.66 1917.98,1029.61 1920.03,1030.58 1922.08,1031.54 
  1924.13,1032.52 1926.18,1033.49 1928.23,1034.47 1930.28,1035.46 1932.33,1036.45 1934.38,1037.45 1936.44,1038.45 1938.49,1039.46 1940.54,1040.47 1942.59,1041.49 
  1944.64,1042.52 1946.69,1043.54 1948.74,1044.58 1950.79,1045.62 1952.84,1046.66 1954.89,1047.72 1956.94,1048.77 1958.99,1049.84 1961.05,1050.91 1963.1,1051.98 
  1965.15,1053.06 1967.2,1054.15 1969.25,1055.25 1971.3,1056.35 1973.35,1057.45 1975.4,1058.57 1977.45,1059.69 1979.5,1060.81 1981.55,1061.95 1983.6,1063.09 
  1985.66,1064.24 1987.71,1065.39 1989.76,1066.55 1991.81,1067.72 1993.86,1068.9 1995.91,1070.08 1997.96,1071.28 2000.01,1072.48 2002.06,1073.69 2004.11,1074.9 
  2006.16,1076.13 2008.21,1077.36 2010.27,1078.6 2012.32,1079.85 2014.37,1081.11 2016.42,1082.37 2018.47,1083.65 2020.52,1084.93 2022.57,1086.23 2024.62,1087.53 
  2026.67,1088.84 2028.72,1090.16 2030.77,1091.5 2032.83,1092.84 2034.88,1094.19 2036.93,1095.55 2038.98,1096.93 2041.03,1098.31 2043.08,1099.7 2045.13,1101.11 
  2047.18,1102.53 2049.23,1103.95 2051.28,1105.39 2053.33,1106.84 2055.38,1108.31 2057.44,1109.78 2059.49,1111.27 2061.54,1112.77 2063.59,1114.29 2065.64,1115.81 
  2067.69,1117.35 2069.74,1118.91 2071.79,1120.47 2073.84,1122.05 2075.89,1123.65 2077.94,1125.26 2079.99,1126.89 2082.05,1128.53 2084.1,1130.18 2086.15,1131.86 
  2088.2,1133.55 2090.25,1135.25 2092.3,1136.97 2094.35,1138.71 2096.4,1140.47 2098.45,1142.24 2100.5,1144.04 2102.55,1145.85 2104.6,1147.68 2106.66,1149.53 
  2108.71,1151.4 2110.76,1153.3 2112.81,1155.21 2114.86,1157.14 2116.91,1159.1 2118.96,1161.08 2121.01,1163.08 2123.06,1165.11 2125.11,1167.16 2127.16,1169.23 
  2129.21,1171.34 2131.27,1173.46 2133.32,1175.62 2135.37,1177.8 2137.42,1180.01 2139.47,1182.25 2141.52,1184.52 2143.57,1186.82 2145.62,1189.15 2147.67,1191.51 
  2149.72,1193.91 2151.77,1196.34 2153.82,1198.81 2155.88,1201.31 2157.93,1203.85 2159.98,1206.43 2162.03,1209.05 2164.08,1211.71 2166.13,1214.42 2168.18,1217.16 
  2170.23,1219.96 2172.28,1222.8 2174.33,1225.69 2176.38,1228.63 2178.43,1231.62 2180.49,1234.67 2182.54,1237.78 2184.59,1240.94 2186.64,1244.16 2188.69,1247.45 
  2190.74,1250.8 2192.79,1254.22 2194.84,1257.71 2196.89,1261.28 2198.94,1264.92 2200.99,1268.65 2203.04,1272.46 2205.1,1276.36 2207.15,1280.36 2209.2,1284.45 
  2211.25,1288.64 2213.3,1292.95 2215.35,1297.36 2217.4,1301.9 2219.45,1306.57 2221.5,1311.37 2223.55,1316.31 2225.6,1321.4 2227.65,1326.66 2229.71,1332.08 
  2231.76,1337.7 2233.81,1343.5 2235.86,1349.52 2237.91,1355.76 2239.96,1362.25 2242.01,1369.01 2244.06,1376.04 2246.11,1383.4 2248.16,1391.09 2250.21,1399.16 
  2252.26,1407.64 2254.32,1416.58 2256.37,1426.03 2258.42,1436.05 2260.47,1446.72 2262.52,1458.13 2264.57,1470.38 2266.62,1483.61 2268.67,1497.99 2270.72,1513.75 
  2272.77,1531.16 2274.82,1550.63 2276.87,1572.7 2278.93,1598.17 2280.98,1628.3 2283.03,1665.18 2285.08,1712.72 2287.13,1779.73 2289.18,1894.27 2291.23,6996.61 
  
  "/>
<polyline clip-path="url(#clip972)" style="stroke:#3da44d; stroke-linecap:butt; stroke-linejoin:round; stroke-width:4; stroke-opacity:1; fill:none" points="
  242.443,1017.63 244.493,902.841 246.544,835.427 248.595,787.312 250.646,749.695 252.697,718.654 254.748,692.097 256.799,668.771 258.849,647.869 260.9,628.837 
  262.951,611.275 265.002,594.891 267.053,579.456 269.104,564.792 271.154,550.755 273.205,537.227 275.256,524.106 277.307,511.307 279.358,498.754 281.409,486.378 
  283.459,474.117 285.51,461.913 287.561,449.709 289.612,437.45 291.663,425.08 293.714,412.544 295.764,399.783 297.815,386.732 299.866,373.323 301.917,359.48 
  303.968,345.118 306.019,330.138 308.069,314.428 310.12,297.857 312.171,280.272 314.222,261.492 316.273,241.312 318.324,219.503 320.375,195.846 322.425,170.205 
  324.476,142.752 326.527,114.49 328.578,88.2896 330.629,69.8999 332.68,65.907 334.73,77.3669 336.781,98.4934 338.832,122.89 340.883,146.973 342.934,169.365 
  344.985,189.74 347.035,208.173 349.086,224.866 351.137,240.042 353.188,253.904 355.239,266.63 357.29,278.371 359.34,289.254 361.391,299.385 363.442,308.852 
  365.493,317.732 367.544,326.088 369.595,333.976 371.645,341.442 373.696,348.526 375.747,355.265 377.798,361.689 379.849,367.826 381.9,373.698 383.951,379.328 
  386.001,384.734 388.052,389.932 390.103,394.938 392.154,399.766 394.205,404.427 396.256,408.933 398.306,413.293 400.357,417.516 402.408,421.612 404.459,425.587 
  406.51,429.448 408.561,433.203 410.611,436.855 412.662,440.412 414.713,443.879 416.764,447.258 418.815,450.556 420.866,453.776 422.916,456.921 424.967,459.996 
  427.018,463.003 429.069,465.946 431.12,468.827 433.171,471.649 435.222,474.414 437.272,477.125 439.323,479.783 441.374,482.392 443.425,484.953 445.476,487.468 
  447.527,489.938 449.577,492.365 451.628,494.751 453.679,497.097 455.73,499.405 457.781,501.675 459.832,503.91 461.882,506.11 463.933,508.277 465.984,510.411 
  468.035,512.514 470.086,514.587 472.137,516.63 474.187,518.645 476.238,520.631 478.289,522.591 480.34,524.525 482.391,526.434 484.442,528.318 486.492,530.178 
  488.543,532.015 490.594,533.829 492.645,535.621 494.696,537.391 496.747,539.141 498.798,540.87 500.848,542.58 502.899,544.27 504.95,545.942 507.001,547.595 
  509.052,549.23 511.103,550.847 513.153,552.448 515.204,554.032 517.255,555.599 519.306,557.151 521.357,558.687 523.408,560.207 525.458,561.713 527.509,563.205 
  529.56,564.682 531.611,566.145 533.662,567.595 535.713,569.031 537.763,570.454 539.814,571.865 541.865,573.262 543.916,574.648 545.967,576.022 548.018,577.383 
  550.068,578.733 552.119,580.072 554.17,581.4 556.221,582.717 558.272,584.023 560.323,585.318 562.374,586.604 564.424,587.879 566.475,589.144 568.526,590.4 
  570.577,591.645 572.628,592.882 574.679,594.109 576.729,595.327 578.78,596.537 580.831,597.737 582.882,598.929 584.933,600.112 586.984,601.287 589.034,602.454 
  591.085,603.613 593.136,604.764 595.187,605.907 597.238,607.042 599.289,608.17 601.339,609.29 603.39,610.403 605.441,611.509 607.492,612.608 609.543,613.7 
  611.594,614.785 613.644,615.863 615.695,616.934 617.746,617.999 619.797,619.058 621.848,620.11 623.899,621.155 625.95,622.195 628,623.228 630.051,624.256 
  632.102,625.278 634.153,626.293 636.204,627.303 638.255,628.308 640.305,629.306 642.356,630.299 644.407,631.287 646.458,632.27 648.509,633.247 650.56,634.218 
  652.61,635.185 654.661,636.147 656.712,637.103 658.763,638.055 660.814,639.002 662.865,639.944 664.915,640.881 666.966,641.813 669.017,642.741 671.068,643.664 
  673.119,644.583 675.17,645.497 677.22,646.407 679.271,647.313 681.322,648.214 683.373,649.111 685.424,650.004 687.475,650.892 689.526,651.777 691.576,652.657 
  693.627,653.534 695.678,654.407 697.729,655.275 699.78,656.14 701.831,657.001 703.881,657.858 705.932,658.712 707.983,659.562 710.034,660.408 712.085,661.251 
  714.136,662.09 716.186,662.925 718.237,663.757 720.288,664.586 722.339,665.412 724.39,666.233 726.441,667.052 728.491,667.868 730.542,668.68 732.593,669.489 
  734.644,670.295 736.695,671.097 738.746,671.897 740.797,672.693 742.847,673.487 744.898,674.277 746.949,675.065 749,675.849 751.051,676.631 753.102,677.41 
  755.152,678.186 757.203,678.959 759.254,679.729 761.305,680.497 763.356,681.262 765.407,682.024 767.457,682.784 769.508,683.541 771.559,684.295 773.61,685.047 
  775.661,685.796 777.712,686.543 779.762,687.287 781.813,688.029 783.864,688.768 785.915,689.505 787.966,690.239 790.017,690.971 792.067,691.701 794.118,692.429 
  796.169,693.154 798.22,693.876 800.271,694.597 802.322,695.315 804.373,696.031 806.423,696.745 808.474,697.457 810.525,698.167 812.576,698.874 814.627,699.579 
  816.678,700.283 818.728,700.984 820.779,701.683 822.83,702.38 824.881,703.075 826.932,703.768 828.983,704.46 831.033,705.149 833.084,705.836 835.135,706.522 
  837.186,707.205 839.237,707.887 841.288,708.566 843.338,709.244 845.389,709.921 847.44,710.595 849.491,711.267 851.542,711.938 853.593,712.607 855.643,713.275 
  857.694,713.94 859.745,714.604 861.796,715.266 863.847,715.927 865.898,716.586 867.949,717.243 869.999,717.898 872.05,718.552 874.101,719.205 876.152,719.856 
  878.203,720.505 880.254,721.153 882.304,721.799 884.355,722.444 886.406,723.087 888.457,723.728 890.508,724.369 892.559,725.007 894.609,725.645 896.66,726.281 
  898.711,726.915 900.762,727.548 902.813,728.18 904.864,728.81 906.914,729.439 908.965,730.067 911.016,730.693 913.067,731.318 915.118,731.941 917.169,732.563 
  919.219,733.184 921.27,733.804 923.321,734.423 925.372,735.04 927.423,735.656 929.474,736.27 931.525,736.884 933.575,737.496 935.626,738.107 937.677,738.717 
  939.728,739.326 941.779,739.933 943.83,740.54 945.88,741.145 947.931,741.749 949.982,742.352 952.033,742.954 954.084,743.555 956.135,744.155 958.185,744.753 
  960.236,745.351 962.287,745.947 964.338,746.543 966.389,747.137 968.44,747.73 970.49,748.323 972.541,748.914 974.592,749.505 976.643,750.094 978.694,750.682 
  980.745,751.27 982.795,751.856 984.846,752.442 986.897,753.026 988.948,753.61 990.999,754.193 993.05,754.775 995.101,755.356 997.151,755.936 999.202,756.515 
  1001.25,757.093 1003.3,757.67 1005.35,758.247 1007.41,758.823 1009.46,759.397 1011.51,759.971 1013.56,760.545 1015.61,761.117 1017.66,761.688 1019.71,762.259 
  1021.76,762.829 1023.81,763.398 1025.86,763.967 1027.91,764.534 1029.96,765.101 1032.02,765.667 1034.07,766.233 1036.12,766.797 1038.17,767.361 1040.22,767.925 
  1042.27,768.487 1044.32,769.049 1046.37,769.61 1048.42,770.17 1050.47,770.73 1052.52,771.289 1054.57,771.848 1056.63,772.405 1058.68,772.962 1060.73,773.519 
  1062.78,774.075 1064.83,774.63 1066.88,775.184 1068.93,775.738 1070.98,776.292 1073.03,776.844 1075.08,777.397 1077.13,777.948 1079.18,778.499 1081.24,779.049 
  1083.29,779.599 1085.34,780.149 1087.39,780.697 1089.44,781.245 1091.49,781.793 1093.54,782.34 1095.59,782.887 1097.64,783.433 1099.69,783.979 1101.74,784.524 
  1103.79,785.068 1105.85,785.612 1107.9,786.156 1109.95,786.699 1112,787.242 1114.05,787.784 1116.1,788.325 1118.15,788.867 1120.2,789.408 1122.25,789.948 
  1124.3,790.488 1126.35,791.027 1128.41,791.567 1130.46,792.105 1132.51,792.643 1134.56,793.181 1136.61,793.719 1138.66,794.256 1140.71,794.793 1142.76,795.329 
  1144.81,795.865 1146.86,796.401 1148.91,796.936 1150.96,797.471 1153.02,798.005 1155.07,798.54 1157.12,799.073 1159.17,799.607 1161.22,800.14 1163.27,800.673 
  1165.32,801.206 1167.37,801.738 1169.42,802.27 1171.47,802.802 1173.52,803.333 1175.57,803.864 1177.63,804.395 1179.68,804.926 1181.73,805.456 1183.78,805.986 
  1185.83,806.516 1187.88,807.045 1189.93,807.575 1191.98,808.104 1194.03,808.633 1196.08,809.161 1198.13,809.69 1200.18,810.218 1202.24,810.746 1204.29,811.274 
  1206.34,811.801 1208.39,812.329 1210.44,812.856 1212.49,813.383 1214.54,813.91 1216.59,814.436 1218.64,814.963 1220.69,815.489 1222.74,816.016 1224.79,816.542 
  1226.85,817.068 1228.9,817.593 1230.95,818.119 1233,818.645 1235.05,819.17 1237.1,819.695 1239.15,820.221 1241.2,820.746 1243.25,821.271 1245.3,821.796 
  1247.35,822.321 1249.4,822.845 1251.46,823.37 1253.51,823.895 1255.56,824.419 1257.61,824.944 1259.66,825.468 1261.71,825.992 1263.76,826.517 1265.81,827.041 
  1267.86,827.565 1269.91,828.089 1271.96,828.614 1274.01,829.138 1276.07,829.662 1278.12,830.186 1280.17,830.71 1282.22,831.235 1284.27,831.759 1286.32,832.283 
  1288.37,832.807 1290.42,833.332 1292.47,833.856 1294.52,834.38 1296.57,834.905 1298.62,835.429 1300.68,835.953 1302.73,836.478 1304.78,837.003 1306.83,837.527 
  1308.88,838.052 1310.93,838.577 1312.98,839.102 1315.03,839.627 1317.08,840.152 1319.13,840.677 1321.18,841.202 1323.23,841.728 1325.29,842.253 1327.34,842.779 
  1329.39,843.305 1331.44,843.831 1333.49,844.357 1335.54,844.883 1337.59,845.409 1339.64,845.936 1341.69,846.463 1343.74,846.989 1345.79,847.517 1347.84,848.044 
  1349.9,848.571 1351.95,849.099 1354,849.626 1356.05,850.154 1358.1,850.683 1360.15,851.211 1362.2,851.74 1364.25,852.268 1366.3,852.797 1368.35,853.327 
  1370.4,853.856 1372.45,854.386 1374.51,854.916 1376.56,855.446 1378.61,855.977 1380.66,856.508 1382.71,857.039 1384.76,857.57 1386.81,858.102 1388.86,858.634 
  1390.91,859.166 1392.96,859.699 1395.01,860.231 1397.06,860.765 1399.12,861.298 1401.17,861.832 1403.22,862.366 1405.27,862.9 1407.32,863.435 1409.37,863.97 
  1411.42,864.506 1413.47,865.042 1415.52,865.578 1417.57,866.115 1419.62,866.652 1421.68,867.189 1423.73,867.727 1425.78,868.265 1427.83,868.803 1429.88,869.342 
  1431.93,869.882 1433.98,870.422 1436.03,870.962 1438.08,871.502 1440.13,872.044 1442.18,872.585 1444.23,873.127 1446.29,873.67 1448.34,874.213 1450.39,874.756 
  1452.44,875.3 1454.49,875.844 1456.54,876.389 1458.59,876.934 1460.64,877.48 1462.69,878.026 1464.74,878.573 1466.79,879.121 1468.84,879.669 1470.9,880.217 
  1472.95,880.766 1475,881.316 1477.05,881.866 1479.1,882.416 1481.15,882.968 1483.2,883.519 1485.25,884.072 1487.3,884.625 1489.35,885.178 1491.4,885.732 
  1493.45,886.287 1495.51,886.843 1497.56,887.399 1499.61,887.955 1501.66,888.512 1503.71,889.07 1505.76,889.629 1507.81,890.188 1509.86,890.748 1511.91,891.309 
  1513.96,891.87 1516.01,892.432 1518.06,892.994 1520.12,893.558 1522.17,894.122 1524.22,894.687 1526.27,895.252 1528.32,895.818 1530.37,896.385 1532.42,896.953 
  1534.47,897.521 1536.52,898.091 1538.57,898.661 1540.62,899.231 1542.67,899.803 1544.73,900.375 1546.78,900.949 1548.83,901.523 1550.88,902.097 1552.93,902.673 
  1554.98,903.249 1557.03,903.827 1559.08,904.405 1561.13,904.984 1563.18,905.564 1565.23,906.145 1567.28,906.726 1569.34,907.309 1571.39,907.892 1573.44,908.477 
  1575.49,909.062 1577.54,909.648 1579.59,910.235 1581.64,910.823 1583.69,911.412 1585.74,912.002 1587.79,912.593 1589.84,913.185 1591.89,913.778 1593.95,914.372 
  1596,914.967 1598.05,915.563 1600.1,916.16 1602.15,916.758 1604.2,917.358 1606.25,917.958 1608.3,918.559 1610.35,919.161 1612.4,919.765 1614.45,920.369 
  1616.5,920.975 1618.56,921.582 1620.61,922.19 1622.66,922.799 1624.71,923.409 1626.76,924.02 1628.81,924.633 1630.86,925.246 1632.91,925.861 1634.96,926.477 
  1637.01,927.095 1639.06,927.713 1641.11,928.333 1643.17,928.954 1645.22,929.576 1647.27,930.2 1649.32,930.825 1651.37,931.451 1653.42,932.078 1655.47,932.707 
  1657.52,933.337 1659.57,933.969 1661.62,934.601 1663.67,935.236 1665.72,935.871 1667.78,936.508 1669.83,937.146 1671.88,937.786 1673.93,938.427 1675.98,939.07 
  1678.03,939.714 1680.08,940.36 1682.13,941.007 1684.18,941.655 1686.23,942.305 1688.28,942.957 1690.33,943.61 1692.39,944.265 1694.44,944.921 1696.49,945.579 
  1698.54,946.238 1700.59,946.899 1702.64,947.562 1704.69,948.226 1706.74,948.892 1708.79,949.559 1710.84,950.229 1712.89,950.9 1714.94,951.572 1717,952.247 
  1719.05,952.923 1721.1,953.601 1723.15,954.28 1725.2,954.962 1727.25,955.645 1729.3,956.33 1731.35,957.017 1733.4,957.706 1735.45,958.396 1737.5,959.089 
  1739.56,959.783 1741.61,960.48 1743.66,961.178 1745.71,961.878 1747.76,962.581 1749.81,963.285 1751.86,963.991 1753.91,964.7 1755.96,965.41 1758.01,966.122 
  1760.06,966.837 1762.11,967.554 1764.17,968.272 1766.22,968.993 1768.27,969.716 1770.32,970.442 1772.37,971.169 1774.42,971.899 1776.47,972.631 1778.52,973.365 
  1780.57,974.102 1782.62,974.841 1784.67,975.582 1786.72,976.326 1788.78,977.072 1790.83,977.82 1792.88,978.571 1794.93,979.324 1796.98,980.08 1799.03,980.839 
  1801.08,981.599 1803.13,982.363 1805.18,983.129 1807.23,983.897 1809.28,984.668 1811.33,985.442 1813.39,986.219 1815.44,986.998 1817.49,987.78 1819.54,988.565 
  1821.59,989.352 1823.64,990.143 1825.69,990.936 1827.74,991.732 1829.79,992.531 1831.84,993.333 1833.89,994.138 1835.94,994.946 1838,995.757 1840.05,996.571 
  1842.1,997.388 1844.15,998.208 1846.2,999.031 1848.25,999.858 1850.3,1000.69 1852.35,1001.52 1854.4,1002.36 1856.45,1003.2 1858.5,1004.04 1860.55,1004.89 
  1862.61,1005.74 1864.66,1006.59 1866.71,1007.45 1868.76,1008.31 1870.81,1009.17 1872.86,1010.04 1874.91,1010.91 1876.96,1011.78 1879.01,1012.66 1881.06,1013.54 
  1883.11,1014.43 1885.16,1015.32 1887.22,1016.21 1889.27,1017.11 1891.32,1018.01 1893.37,1018.92 1895.42,1019.83 1897.47,1020.74 1899.52,1021.66 1901.57,1022.58 
  1903.62,1023.51 1905.67,1024.44 1907.72,1025.38 1909.77,1026.32 1911.83,1027.26 1913.88,1028.21 1915.93,1029.16 1917.98,1030.12 1920.03,1031.08 1922.08,1032.05 
  1924.13,1033.02 1926.18,1034 1928.23,1034.98 1930.28,1035.97 1932.33,1036.96 1934.38,1037.96 1936.44,1038.96 1938.49,1039.97 1940.54,1040.98 1942.59,1042 
  1944.64,1043.02 1946.69,1044.05 1948.74,1045.08 1950.79,1046.12 1952.84,1047.17 1954.89,1048.22 1956.94,1049.28 1958.99,1050.34 1961.05,1051.41 1963.1,1052.48 
  1965.15,1053.57 1967.2,1054.65 1969.25,1055.75 1971.3,1056.85 1973.35,1057.96 1975.4,1059.07 1977.45,1060.19 1979.5,1061.32 1981.55,1062.45 1983.6,1063.59 
  1985.66,1064.74 1987.71,1065.89 1989.76,1067.05 1991.81,1068.22 1993.86,1069.4 1995.91,1070.59 1997.96,1071.78 2000.01,1072.98 2002.06,1074.19 2004.11,1075.4 
  2006.16,1076.63 2008.21,1077.86 2010.27,1079.1 2012.32,1080.35 2014.37,1081.61 2016.42,1082.87 2018.47,1084.15 2020.52,1085.43 2022.57,1086.73 2024.62,1088.03 
  2026.67,1089.34 2028.72,1090.66 2030.77,1092 2032.83,1093.34 2034.88,1094.69 2036.93,1096.05 2038.98,1097.42 2041.03,1098.81 2043.08,1100.2 2045.13,1101.61 
  2047.18,1103.02 2049.23,1104.45 2051.28,1105.89 2053.33,1107.34 2055.38,1108.81 2057.44,1110.28 2059.49,1111.77 2061.54,1113.27 2063.59,1114.78 2065.64,1116.31 
  2067.69,1117.85 2069.74,1119.4 2071.79,1120.97 2073.84,1122.55 2075.89,1124.15 2077.94,1125.76 2079.99,1127.38 2082.05,1129.02 2084.1,1130.68 2086.15,1132.35 
  2088.2,1134.04 2090.25,1135.75 2092.3,1137.47 2094.35,1139.21 2096.4,1140.96 2098.45,1142.74 2100.5,1144.53 2102.55,1146.35 2104.6,1148.18 2106.66,1150.03 
  2108.71,1151.9 2110.76,1153.79 2112.81,1155.7 2114.86,1157.64 2116.91,1159.6 2118.96,1161.58 2121.01,1163.58 2123.06,1165.6 2125.11,1167.65 2127.16,1169.73 
  2129.21,1171.83 2131.27,1173.96 2133.32,1176.11 2135.37,1178.29 2137.42,1180.5 2139.47,1182.74 2141.52,1185.01 2143.57,1187.31 2145.62,1189.64 2147.67,1192 
  2149.72,1194.4 2151.77,1196.83 2153.82,1199.3 2155.88,1201.8 2157.93,1204.34 2159.98,1206.92 2162.03,1209.54 2164.08,1212.21 2166.13,1214.91 2168.18,1217.66 
  2170.23,1220.45 2172.28,1223.29 2174.33,1226.18 2176.38,1229.12 2178.43,1232.12 2180.49,1235.16 2182.54,1238.27 2184.59,1241.43 2186.64,1244.65 2188.69,1247.94 
  2190.74,1251.29 2192.79,1254.71 2194.84,1258.21 2196.89,1261.77 2198.94,1265.42 2200.99,1269.14 2203.04,1272.95 2205.1,1276.85 2207.15,1280.85 2209.2,1284.94 
  2211.25,1289.13 2213.3,1293.44 2215.35,1297.86 2217.4,1302.39 2219.45,1307.06 2221.5,1311.86 2223.55,1316.8 2225.6,1321.9 2227.65,1327.15 2229.71,1332.58 
  2231.76,1338.19 2233.81,1343.99 2235.86,1350.01 2237.91,1356.26 2239.96,1362.74 2242.01,1369.5 2244.06,1376.54 2246.11,1383.89 2248.16,1391.58 2250.21,1399.65 
  2252.26,1408.13 2254.32,1417.07 2256.37,1426.52 2258.42,1436.55 2260.47,1447.22 2262.52,1458.62 2264.57,1470.87 2266.62,1484.1 2268.67,1498.48 2270.72,1514.24 
  2272.77,1531.65 2274.82,1551.12 2276.87,1573.19 2278.93,1598.66 2280.98,1628.79 2283.03,1665.67 2285.08,1713.21 2287.13,1780.22 2289.18,1894.76 2291.23,6997.1 
  
  "/>
<path clip-path="url(#clip970)" d="
M1985.74 302.168 L2280.29 302.168 L2280.29 94.8081 L1985.74 94.8081  Z
  " fill="#ffffff" fill-rule="evenodd" fill-opacity="1"/>
<polyline clip-path="url(#clip970)" style="stroke:#000000; stroke-linecap:butt; stroke-linejoin:round; stroke-width:4; stroke-opacity:1; fill:none" points="
  1985.74,302.168 2280.29,302.168 2280.29,94.8081 1985.74,94.8081 1985.74,302.168 
  "/>
<polyline clip-path="url(#clip970)" style="stroke:#009af9; stroke-linecap:butt; stroke-linejoin:round; stroke-width:4; stroke-opacity:1; fill:none" points="
  2009.9,146.648 2154.82,146.648 
  "/>
<path clip-path="url(#clip970)" d="M2192.82 166.336 Q2191.01 170.965 2189.3 172.377 Q2187.59 173.789 2184.72 173.789 L2181.31 173.789 L2181.31 170.224 L2183.81 170.224 Q2185.57 170.224 2186.54 169.391 Q2187.52 168.558 2188.7 165.456 L2189.46 163.511 L2178.98 138.002 L2183.49 138.002 L2191.59 158.28 L2199.69 138.002 L2204.21 138.002 L2192.82 166.336 Z" fill="#000000" fill-rule="evenodd" fill-opacity="1" /><path clip-path="url(#clip970)" d="M2211.5 159.993 L2219.14 159.993 L2219.14 133.627 L2210.83 135.294 L2210.83 131.035 L2219.09 129.368 L2223.77 129.368 L2223.77 159.993 L2231.41 159.993 L2231.41 163.928 L2211.5 163.928 L2211.5 159.993 Z" fill="#000000" fill-rule="evenodd" fill-opacity="1" /><polyline clip-path="url(#clip970)" style="stroke:#e26f46; stroke-linecap:butt; stroke-linejoin:round; stroke-width:4; stroke-opacity:1; fill:none" points="
  2009.9,198.488 2154.82,198.488 
  "/>
<path clip-path="url(#clip970)" d="M2192.82 218.176 Q2191.01 222.805 2189.3 224.217 Q2187.59 225.629 2184.72 225.629 L2181.31 225.629 L2181.31 222.064 L2183.81 222.064 Q2185.57 222.064 2186.54 221.231 Q2187.52 220.398 2188.7 217.296 L2189.46 215.351 L2178.98 189.842 L2183.49 189.842 L2191.59 210.12 L2199.69 189.842 L2204.21 189.842 L2192.82 218.176 Z" fill="#000000" fill-rule="evenodd" fill-opacity="1" /><path clip-path="url(#clip970)" d="M2214.72 211.833 L2231.04 211.833 L2231.04 215.768 L2209.09 215.768 L2209.09 211.833 Q2211.75 209.078 2216.34 204.449 Q2220.94 199.796 2222.12 198.453 Q2224.37 195.93 2225.25 194.194 Q2226.15 192.435 2226.15 190.745 Q2226.15 187.99 2224.21 186.254 Q2222.29 184.518 2219.18 184.518 Q2216.98 184.518 2214.53 185.282 Q2212.1 186.046 2209.32 187.597 L2209.32 182.875 Q2212.15 181.741 2214.6 181.162 Q2217.05 180.583 2219.09 180.583 Q2224.46 180.583 2227.66 183.268 Q2230.85 185.953 2230.85 190.444 Q2230.85 192.574 2230.04 194.495 Q2229.25 196.393 2227.15 198.986 Q2226.57 199.657 2223.47 202.875 Q2220.36 206.069 2214.72 211.833 Z" fill="#000000" fill-rule="evenodd" fill-opacity="1" /><polyline clip-path="url(#clip970)" style="stroke:#3da44d; stroke-linecap:butt; stroke-linejoin:round; stroke-width:4; stroke-opacity:1; fill:none" points="
  2009.9,250.328 2154.82,250.328 
  "/>
<path clip-path="url(#clip970)" d="M2192.82 270.016 Q2191.01 274.645 2189.3 276.057 Q2187.59 277.469 2184.72 277.469 L2181.31 277.469 L2181.31 273.904 L2183.81 273.904 Q2185.57 273.904 2186.54 273.071 Q2187.52 272.238 2188.7 269.136 L2189.46 267.191 L2178.98 241.682 L2183.49 241.682 L2191.59 261.96 L2199.69 241.682 L2204.21 241.682 L2192.82 270.016 Z" fill="#000000" fill-rule="evenodd" fill-opacity="1" /><path clip-path="url(#clip970)" d="M2224.85 248.974 Q2228.21 249.692 2230.09 251.96 Q2231.98 254.229 2231.98 257.562 Q2231.98 262.678 2228.47 265.478 Q2224.95 268.279 2218.47 268.279 Q2216.29 268.279 2213.98 267.84 Q2211.68 267.423 2209.23 266.566 L2209.23 262.053 Q2211.17 263.187 2213.49 263.766 Q2215.8 264.344 2218.33 264.344 Q2222.73 264.344 2225.02 262.608 Q2227.33 260.872 2227.33 257.562 Q2227.33 254.506 2225.18 252.793 Q2223.05 251.057 2219.23 251.057 L2215.2 251.057 L2215.2 247.215 L2219.41 247.215 Q2222.86 247.215 2224.69 245.849 Q2226.52 244.46 2226.52 241.868 Q2226.52 239.205 2224.62 237.793 Q2222.75 236.358 2219.23 236.358 Q2217.31 236.358 2215.11 236.775 Q2212.91 237.192 2210.27 238.071 L2210.27 233.905 Q2212.93 233.164 2215.25 232.793 Q2217.59 232.423 2219.65 232.423 Q2224.97 232.423 2228.07 234.854 Q2231.17 237.261 2231.17 241.381 Q2231.17 244.252 2229.53 246.242 Q2227.89 248.21 2224.85 248.974 Z" fill="#000000" fill-rule="evenodd" fill-opacity="1" /></svg>
