<?xml version="1.0" encoding="utf-8"?>
<svg xmlns="http://www.w3.org/2000/svg" xmlns:xlink="http://www.w3.org/1999/xlink" width="600" height="400" viewBox="0 0 2400 1600">
<defs>
  <clipPath id="clip940">
    <rect x="0" y="0" width="2400" height="1600"/>
  </clipPath>
</defs>
<path clip-path="url(#clip940)" d="
M0 1600 L2400 1600 L2400 0 L0 0  Z
  " fill="#ffffff" fill-rule="evenodd" fill-opacity="1"/>
<defs>
  <clipPath id="clip941">
    <rect x="480" y="0" width="1681" height="1600"/>
  </clipPath>
</defs>
<path clip-path="url(#clip940)" d="
M178.867 1474.16 L2352.76 1474.16 L2352.76 47.2441 L178.867 47.2441  Z
  " fill="#ffffff" fill-rule="evenodd" fill-opacity="1"/>
<defs>
  <clipPath id="clip942">
    <rect x="178" y="47" width="2175" height="1428"/>
  </clipPath>
</defs>
<polyline clip-path="url(#clip942)" style="stroke:#000000; stroke-linecap:butt; stroke-linejoin:round; stroke-width:2; stroke-opacity:0.1; fill:none" points="
  240.392,1474.16 240.392,47.2441 
  "/>
<polyline clip-path="url(#clip942)" style="stroke:#000000; stroke-linecap:butt; stroke-linejoin:round; stroke-width:2; stroke-opacity:0.1; fill:none" points="
  705.435,1474.16 705.435,47.2441 
  "/>
<polyline clip-path="url(#clip942)" style="stroke:#000000; stroke-linecap:butt; stroke-linejoin:round; stroke-width:2; stroke-opacity:0.1; fill:none" points="
  1170.48,1474.16 1170.48,47.2441 
  "/>
<polyline clip-path="url(#clip942)" style="stroke:#000000; stroke-linecap:butt; stroke-linejoin:round; stroke-width:2; stroke-opacity:0.1; fill:none" points="
  1635.52,1474.16 1635.52,47.2441 
  "/>
<polyline clip-path="url(#clip942)" style="stroke:#000000; stroke-linecap:butt; stroke-linejoin:round; stroke-width:2; stroke-opacity:0.1; fill:none" points="
  2100.56,1474.16 2100.56,47.2441 
  "/>
<polyline clip-path="url(#clip940)" style="stroke:#000000; stroke-linecap:butt; stroke-linejoin:round; stroke-width:4; stroke-opacity:1; fill:none" points="
  178.867,1474.16 2352.76,1474.16 
  "/>
<polyline clip-path="url(#clip940)" style="stroke:#000000; stroke-linecap:butt; stroke-linejoin:round; stroke-width:4; stroke-opacity:1; fill:none" points="
  240.392,1474.16 240.392,1455.27 
  "/>
<polyline clip-path="url(#clip940)" style="stroke:#000000; stroke-linecap:butt; stroke-linejoin:round; stroke-width:4; stroke-opacity:1; fill:none" points="
  705.435,1474.16 705.435,1455.27 
  "/>
<polyline clip-path="url(#clip940)" style="stroke:#000000; stroke-linecap:butt; stroke-linejoin:round; stroke-width:4; stroke-opacity:1; fill:none" points="
  1170.48,1474.16 1170.48,1455.27 
  "/>
<polyline clip-path="url(#clip940)" style="stroke:#000000; stroke-linecap:butt; stroke-linejoin:round; stroke-width:4; stroke-opacity:1; fill:none" points="
  1635.52,1474.16 1635.52,1455.27 
  "/>
<polyline clip-path="url(#clip940)" style="stroke:#000000; stroke-linecap:butt; stroke-linejoin:round; stroke-width:4; stroke-opacity:1; fill:none" points="
  2100.56,1474.16 2100.56,1455.27 
  "/>
<path clip-path="url(#clip940)" d="M240.392 1505.08 Q236.781 1505.08 234.952 1508.65 Q233.146 1512.19 233.146 1519.32 Q233.146 1526.43 234.952 1529.99 Q236.781 1533.53 240.392 1533.53 Q244.026 1533.53 245.832 1529.99 Q247.66 1526.43 247.66 1519.32 Q247.66 1512.19 245.832 1508.65 Q244.026 1505.08 240.392 1505.08 M240.392 1501.38 Q246.202 1501.38 249.257 1505.99 Q252.336 1510.57 252.336 1519.32 Q252.336 1528.05 249.257 1532.65 Q246.202 1537.24 240.392 1537.24 Q234.582 1537.24 231.503 1532.65 Q228.447 1528.05 228.447 1519.32 Q228.447 1510.57 231.503 1505.99 Q234.582 1501.38 240.392 1501.38 Z" fill="#000000" fill-rule="evenodd" fill-opacity="1" /><path clip-path="url(#clip940)" d="M598.251 1517.66 L616.608 1517.66 L616.608 1521.6 L602.534 1521.6 L602.534 1530.07 Q603.552 1529.72 604.571 1529.56 Q605.589 1529.38 606.608 1529.38 Q612.395 1529.38 615.774 1532.55 Q619.154 1535.72 619.154 1541.14 Q619.154 1546.72 615.682 1549.82 Q612.21 1552.9 605.89 1552.9 Q603.714 1552.9 601.446 1552.53 Q599.2 1552.16 596.793 1551.41 L596.793 1546.72 Q598.876 1547.85 601.099 1548.41 Q603.321 1548.96 605.798 1548.96 Q609.802 1548.96 612.14 1546.85 Q614.478 1544.75 614.478 1541.14 Q614.478 1537.53 612.14 1535.42 Q609.802 1533.31 605.798 1533.31 Q603.923 1533.31 602.048 1533.73 Q600.196 1534.15 598.251 1535.03 L598.251 1517.66 Z" fill="#000000" fill-rule="evenodd" fill-opacity="1" /><path clip-path="url(#clip940)" d="M628.367 1546.35 L633.251 1546.35 L633.251 1552.22 L628.367 1552.22 L628.367 1546.35 Z" fill="#000000" fill-rule="evenodd" fill-opacity="1" /><path clip-path="url(#clip940)" d="M653.436 1520.74 Q649.825 1520.74 647.996 1524.31 Q646.191 1527.85 646.191 1534.98 Q646.191 1542.09 647.996 1545.65 Q649.825 1549.19 653.436 1549.19 Q657.07 1549.19 658.876 1545.65 Q660.705 1542.09 660.705 1534.98 Q660.705 1527.85 658.876 1524.31 Q657.07 1520.74 653.436 1520.74 M653.436 1517.04 Q659.246 1517.04 662.302 1521.65 Q665.381 1526.23 665.381 1534.98 Q665.381 1543.71 662.302 1548.31 Q659.246 1552.9 653.436 1552.9 Q647.626 1552.9 644.547 1548.31 Q641.492 1543.71 641.492 1534.98 Q641.492 1526.23 644.547 1521.65 Q647.626 1517.04 653.436 1517.04 Z" fill="#000000" fill-rule="evenodd" fill-opacity="1" /><path clip-path="url(#clip940)" d="M683.598 1520.74 Q679.987 1520.74 678.158 1524.31 Q676.353 1527.85 676.353 1534.98 Q676.353 1542.09 678.158 1545.65 Q679.987 1549.19 683.598 1549.19 Q687.232 1549.19 689.038 1545.65 Q690.867 1542.09 690.867 1534.98 Q690.867 1527.85 689.038 1524.31 Q687.232 1520.74 683.598 1520.74 M683.598 1517.04 Q689.408 1517.04 692.464 1521.65 Q695.542 1526.23 695.542 1534.98 Q695.542 1543.71 692.464 1548.31 Q689.408 1552.9 683.598 1552.9 Q677.788 1552.9 674.709 1548.31 Q671.654 1543.71 671.654 1534.98 Q671.654 1526.23 674.709 1521.65 Q677.788 1517.04 683.598 1517.04 Z" fill="#000000" fill-rule="evenodd" fill-opacity="1" /><path clip-path="url(#clip940)" d="M731.931 1526.76 L721.353 1537.39 L731.931 1547.97 L729.177 1550.77 L718.552 1540.14 L707.927 1550.77 L705.195 1547.97 L715.751 1537.39 L705.195 1526.76 L707.927 1523.96 L718.552 1534.59 L729.177 1523.96 L731.931 1526.76 Z" fill="#000000" fill-rule="evenodd" fill-opacity="1" /><path clip-path="url(#clip940)" d="M744.292 1548.29 L751.931 1548.29 L751.931 1521.92 L743.621 1523.59 L743.621 1519.33 L751.885 1517.66 L756.561 1517.66 L756.561 1548.29 L764.2 1548.29 L764.2 1552.22 L744.292 1552.22 L744.292 1548.29 Z" fill="#000000" fill-rule="evenodd" fill-opacity="1" /><path clip-path="url(#clip940)" d="M783.644 1520.74 Q780.033 1520.74 778.204 1524.31 Q776.399 1527.85 776.399 1534.98 Q776.399 1542.09 778.204 1545.65 Q780.033 1549.19 783.644 1549.19 Q787.278 1549.19 789.084 1545.65 Q790.912 1542.09 790.912 1534.98 Q790.912 1527.85 789.084 1524.31 Q787.278 1520.74 783.644 1520.74 M783.644 1517.04 Q789.454 1517.04 792.51 1521.65 Q795.588 1526.23 795.588 1534.98 Q795.588 1543.71 792.51 1548.31 Q789.454 1552.9 783.644 1552.9 Q777.834 1552.9 774.755 1548.31 Q771.699 1543.71 771.699 1534.98 Q771.699 1526.23 774.755 1521.65 Q777.834 1517.04 783.644 1517.04 Z" fill="#000000" fill-rule="evenodd" fill-opacity="1" /><path clip-path="url(#clip940)" d="M808.283 1509.67 Q811.011 1510.26 812.534 1512.1 Q814.076 1513.94 814.076 1516.65 Q814.076 1520.81 811.217 1523.08 Q808.359 1525.36 803.093 1525.36 Q801.325 1525.36 799.444 1525 Q797.582 1524.66 795.588 1523.97 L795.588 1520.3 Q797.168 1521.22 799.049 1521.69 Q800.93 1522.16 802.98 1522.16 Q806.553 1522.16 808.415 1520.75 Q810.296 1519.34 810.296 1516.65 Q810.296 1514.17 808.547 1512.78 Q806.816 1511.37 803.713 1511.37 L800.441 1511.37 L800.441 1508.24 L803.864 1508.24 Q806.666 1508.24 808.152 1507.13 Q809.638 1506.01 809.638 1503.9 Q809.638 1501.74 808.095 1500.59 Q806.572 1499.42 803.713 1499.42 Q802.152 1499.42 800.365 1499.76 Q798.579 1500.1 796.435 1500.82 L796.435 1497.43 Q798.597 1496.83 800.478 1496.53 Q802.378 1496.23 804.052 1496.23 Q808.378 1496.23 810.898 1498.2 Q813.418 1500.16 813.418 1503.51 Q813.418 1505.84 812.083 1507.45 Q810.747 1509.05 808.283 1509.67 Z" fill="#000000" fill-rule="evenodd" fill-opacity="1" /><path clip-path="url(#clip940)" d="M1062.3 1548.29 L1069.93 1548.29 L1069.93 1521.92 L1061.62 1523.59 L1061.62 1519.33 L1069.89 1517.66 L1074.56 1517.66 L1074.56 1548.29 L1082.2 1548.29 L1082.2 1552.22 L1062.3 1552.22 L1062.3 1548.29 Z" fill="#000000" fill-rule="evenodd" fill-opacity="1" /><path clip-path="url(#clip940)" d="M1091.65 1546.35 L1096.53 1546.35 L1096.53 1552.22 L1091.65 1552.22 L1091.65 1546.35 Z" fill="#000000" fill-rule="evenodd" fill-opacity="1" /><path clip-path="url(#clip940)" d="M1116.72 1520.74 Q1113.11 1520.74 1111.28 1524.31 Q1109.47 1527.85 1109.47 1534.98 Q1109.47 1542.09 1111.28 1545.65 Q1113.11 1549.19 1116.72 1549.19 Q1120.35 1549.19 1122.16 1545.65 Q1123.98 1542.09 1123.98 1534.98 Q1123.98 1527.85 1122.16 1524.31 Q1120.35 1520.74 1116.72 1520.74 M1116.72 1517.04 Q1122.53 1517.04 1125.58 1521.65 Q1128.66 1526.23 1128.66 1534.98 Q1128.66 1543.71 1125.58 1548.31 Q1122.53 1552.9 1116.72 1552.9 Q1110.91 1552.9 1107.83 1548.31 Q1104.77 1543.71 1104.77 1534.98 Q1104.77 1526.23 1107.83 1521.65 Q1110.91 1517.04 1116.72 1517.04 Z" fill="#000000" fill-rule="evenodd" fill-opacity="1" /><path clip-path="url(#clip940)" d="M1146.88 1520.74 Q1143.27 1520.74 1141.44 1524.31 Q1139.63 1527.85 1139.63 1534.98 Q1139.63 1542.09 1141.44 1545.65 Q1143.27 1549.19 1146.88 1549.19 Q1150.51 1549.19 1152.32 1545.65 Q1154.15 1542.09 1154.15 1534.98 Q1154.15 1527.85 1152.32 1524.31 Q1150.51 1520.74 1146.88 1520.74 M1146.88 1517.04 Q1152.69 1517.04 1155.74 1521.65 Q1158.82 1526.23 1158.82 1534.98 Q1158.82 1543.71 1155.74 1548.31 Q1152.69 1552.9 1146.88 1552.9 Q1141.07 1552.9 1137.99 1548.31 Q1134.93 1543.71 1134.93 1534.98 Q1134.93 1526.23 1137.99 1521.65 Q1141.07 1517.04 1146.88 1517.04 Z" fill="#000000" fill-rule="evenodd" fill-opacity="1" /><path clip-path="url(#clip940)" d="M1195.21 1526.76 L1184.63 1537.39 L1195.21 1547.97 L1192.46 1550.77 L1181.83 1540.14 L1171.21 1550.77 L1168.48 1547.97 L1179.03 1537.39 L1168.48 1526.76 L1171.21 1523.96 L1181.83 1534.59 L1192.46 1523.96 L1195.21 1526.76 Z" fill="#000000" fill-rule="evenodd" fill-opacity="1" /><path clip-path="url(#clip940)" d="M1207.57 1548.29 L1215.21 1548.29 L1215.21 1521.92 L1206.9 1523.59 L1206.9 1519.33 L1215.16 1517.66 L1219.84 1517.66 L1219.84 1548.29 L1227.48 1548.29 L1227.48 1552.22 L1207.57 1552.22 L1207.57 1548.29 Z" fill="#000000" fill-rule="evenodd" fill-opacity="1" /><path clip-path="url(#clip940)" d="M1246.92 1520.74 Q1243.31 1520.74 1241.48 1524.31 Q1239.68 1527.85 1239.68 1534.98 Q1239.68 1542.09 1241.48 1545.65 Q1243.31 1549.19 1246.92 1549.19 Q1250.56 1549.19 1252.36 1545.65 Q1254.19 1542.09 1254.19 1534.98 Q1254.19 1527.85 1252.36 1524.31 Q1250.56 1520.74 1246.92 1520.74 M1246.92 1517.04 Q1252.73 1517.04 1255.79 1521.65 Q1258.87 1526.23 1258.87 1534.98 Q1258.87 1543.71 1255.79 1548.31 Q1252.73 1552.9 1246.92 1552.9 Q1241.11 1552.9 1238.03 1548.31 Q1234.98 1543.71 1234.98 1534.98 Q1234.98 1526.23 1238.03 1521.65 Q1241.11 1517.04 1246.92 1517.04 Z" fill="#000000" fill-rule="evenodd" fill-opacity="1" /><path clip-path="url(#clip940)" d="M1271.54 1500.04 L1261.95 1515.03 L1271.54 1515.03 L1271.54 1500.04 M1270.55 1496.73 L1275.33 1496.73 L1275.33 1515.03 L1279.33 1515.03 L1279.33 1518.19 L1275.33 1518.19 L1275.33 1524.81 L1271.54 1524.81 L1271.54 1518.19 L1258.87 1518.19 L1258.87 1514.53 L1270.55 1496.73 Z" fill="#000000" fill-rule="evenodd" fill-opacity="1" /><path clip-path="url(#clip940)" d="M1527.34 1548.29 L1534.98 1548.29 L1534.98 1521.92 L1526.67 1523.59 L1526.67 1519.33 L1534.93 1517.66 L1539.61 1517.66 L1539.61 1548.29 L1547.25 1548.29 L1547.25 1552.22 L1527.34 1552.22 L1527.34 1548.29 Z" fill="#000000" fill-rule="evenodd" fill-opacity="1" /><path clip-path="url(#clip940)" d="M1556.69 1546.35 L1561.57 1546.35 L1561.57 1552.22 L1556.69 1552.22 L1556.69 1546.35 Z" fill="#000000" fill-rule="evenodd" fill-opacity="1" /><path clip-path="url(#clip940)" d="M1571.81 1517.66 L1590.16 1517.66 L1590.16 1521.6 L1576.09 1521.6 L1576.09 1530.07 Q1577.11 1529.72 1578.12 1529.56 Q1579.14 1529.38 1580.16 1529.38 Q1585.95 1529.38 1589.33 1532.55 Q1592.71 1535.72 1592.71 1541.14 Q1592.71 1546.72 1589.24 1549.82 Q1585.76 1552.9 1579.44 1552.9 Q1577.27 1552.9 1575 1552.53 Q1572.75 1552.16 1570.35 1551.41 L1570.35 1546.72 Q1572.43 1547.85 1574.65 1548.41 Q1576.87 1548.96 1579.35 1548.96 Q1583.36 1548.96 1585.69 1546.85 Q1588.03 1544.75 1588.03 1541.14 Q1588.03 1537.53 1585.69 1535.42 Q1583.36 1533.31 1579.35 1533.31 Q1577.48 1533.31 1575.6 1533.73 Q1573.75 1534.15 1571.81 1535.03 L1571.81 1517.66 Z" fill="#000000" fill-rule="evenodd" fill-opacity="1" /><path clip-path="url(#clip940)" d="M1611.92 1520.74 Q1608.31 1520.74 1606.48 1524.31 Q1604.68 1527.85 1604.68 1534.98 Q1604.68 1542.09 1606.48 1545.65 Q1608.31 1549.19 1611.92 1549.19 Q1615.56 1549.19 1617.36 1545.65 Q1619.19 1542.09 1619.19 1534.98 Q1619.19 1527.85 1617.36 1524.31 Q1615.56 1520.74 1611.92 1520.74 M1611.92 1517.04 Q1617.73 1517.04 1620.79 1521.65 Q1623.87 1526.23 1623.87 1534.98 Q1623.87 1543.71 1620.79 1548.31 Q1617.73 1552.9 1611.92 1552.9 Q1606.11 1552.9 1603.03 1548.31 Q1599.98 1543.71 1599.98 1534.98 Q1599.98 1526.23 1603.03 1521.65 Q1606.11 1517.04 1611.92 1517.04 Z" fill="#000000" fill-rule="evenodd" fill-opacity="1" /><path clip-path="url(#clip940)" d="M1660.25 1526.76 L1649.68 1537.39 L1660.25 1547.97 L1657.5 1550.77 L1646.87 1540.14 L1636.25 1550.77 L1633.52 1547.97 L1644.07 1537.39 L1633.52 1526.76 L1636.25 1523.96 L1646.87 1534.59 L1657.5 1523.96 L1660.25 1526.76 Z" fill="#000000" fill-rule="evenodd" fill-opacity="1" /><path clip-path="url(#clip940)" d="M1672.62 1548.29 L1680.25 1548.29 L1680.25 1521.92 L1671.94 1523.59 L1671.94 1519.33 L1680.21 1517.66 L1684.88 1517.66 L1684.88 1548.29 L1692.52 1548.29 L1692.52 1552.22 L1672.62 1552.22 L1672.62 1548.29 Z" fill="#000000" fill-rule="evenodd" fill-opacity="1" /><path clip-path="url(#clip940)" d="M1711.97 1520.74 Q1708.36 1520.74 1706.53 1524.31 Q1704.72 1527.85 1704.72 1534.98 Q1704.72 1542.09 1706.53 1545.65 Q1708.36 1549.19 1711.97 1549.19 Q1715.6 1549.19 1717.41 1545.65 Q1719.24 1542.09 1719.24 1534.98 Q1719.24 1527.85 1717.41 1524.31 Q1715.6 1520.74 1711.97 1520.74 M1711.97 1517.04 Q1717.78 1517.04 1720.83 1521.65 Q1723.91 1526.23 1723.91 1534.98 Q1723.91 1543.71 1720.83 1548.31 Q1717.78 1552.9 1711.97 1552.9 Q1706.16 1552.9 1703.08 1548.31 Q1700.02 1543.71 1700.02 1534.98 Q1700.02 1526.23 1703.08 1521.65 Q1706.16 1517.04 1711.97 1517.04 Z" fill="#000000" fill-rule="evenodd" fill-opacity="1" /><path clip-path="url(#clip940)" d="M1736.59 1500.04 L1727 1515.03 L1736.59 1515.03 L1736.59 1500.04 M1735.59 1496.73 L1740.37 1496.73 L1740.37 1515.03 L1744.37 1515.03 L1744.37 1518.19 L1740.37 1518.19 L1740.37 1524.81 L1736.59 1524.81 L1736.59 1518.19 L1723.91 1518.19 L1723.91 1514.53 L1735.59 1496.73 Z" fill="#000000" fill-rule="evenodd" fill-opacity="1" /><path clip-path="url(#clip940)" d="M1996.47 1548.29 L2012.79 1548.29 L2012.79 1552.22 L1990.84 1552.22 L1990.84 1548.29 Q1993.5 1545.53 1998.09 1540.91 Q2002.69 1536.25 2003.87 1534.91 Q2006.12 1532.39 2007 1530.65 Q2007.9 1528.89 2007.9 1527.2 Q2007.9 1524.45 2005.96 1522.71 Q2004.04 1520.97 2000.93 1520.97 Q1998.74 1520.97 1996.28 1521.74 Q1993.85 1522.5 1991.07 1524.05 L1991.07 1519.33 Q1993.9 1518.2 1996.35 1517.62 Q1998.8 1517.04 2000.84 1517.04 Q2006.21 1517.04 2009.41 1519.72 Q2012.6 1522.41 2012.6 1526.9 Q2012.6 1529.03 2011.79 1530.95 Q2011 1532.85 2008.9 1535.44 Q2008.32 1536.11 2005.22 1539.33 Q2002.11 1542.53 1996.47 1548.29 Z" fill="#000000" fill-rule="evenodd" fill-opacity="1" /><path clip-path="url(#clip940)" d="M2022.6 1546.35 L2027.48 1546.35 L2027.48 1552.22 L2022.6 1552.22 L2022.6 1546.35 Z" fill="#000000" fill-rule="evenodd" fill-opacity="1" /><path clip-path="url(#clip940)" d="M2047.67 1520.74 Q2044.06 1520.74 2042.23 1524.31 Q2040.42 1527.85 2040.42 1534.98 Q2040.42 1542.09 2042.23 1545.65 Q2044.06 1549.19 2047.67 1549.19 Q2051.3 1549.19 2053.11 1545.65 Q2054.94 1542.09 2054.94 1534.98 Q2054.94 1527.85 2053.11 1524.31 Q2051.3 1520.74 2047.67 1520.74 M2047.67 1517.04 Q2053.48 1517.04 2056.54 1521.65 Q2059.61 1526.23 2059.61 1534.98 Q2059.61 1543.71 2056.54 1548.31 Q2053.48 1552.9 2047.67 1552.9 Q2041.86 1552.9 2038.78 1548.31 Q2035.73 1543.71 2035.73 1534.98 Q2035.73 1526.23 2038.78 1521.65 Q2041.86 1517.04 2047.67 1517.04 Z" fill="#000000" fill-rule="evenodd" fill-opacity="1" /><path clip-path="url(#clip940)" d="M2077.83 1520.74 Q2074.22 1520.74 2072.39 1524.31 Q2070.59 1527.85 2070.59 1534.98 Q2070.59 1542.09 2072.39 1545.65 Q2074.22 1549.19 2077.83 1549.19 Q2081.47 1549.19 2083.27 1545.65 Q2085.1 1542.09 2085.1 1534.98 Q2085.1 1527.85 2083.27 1524.31 Q2081.47 1520.74 2077.83 1520.74 M2077.83 1517.04 Q2083.64 1517.04 2086.7 1521.65 Q2089.78 1526.23 2089.78 1534.98 Q2089.78 1543.71 2086.7 1548.31 Q2083.64 1552.9 2077.83 1552.9 Q2072.02 1552.9 2068.94 1548.31 Q2065.89 1543.71 2065.89 1534.98 Q2065.89 1526.23 2068.94 1521.65 Q2072.02 1517.04 2077.83 1517.04 Z" fill="#000000" fill-rule="evenodd" fill-opacity="1" /><path clip-path="url(#clip940)" d="M2126.16 1526.76 L2115.59 1537.39 L2126.16 1547.97 L2123.41 1550.77 L2112.79 1540.14 L2102.16 1550.77 L2099.43 1547.97 L2109.98 1537.39 L2099.43 1526.76 L2102.16 1523.96 L2112.79 1534.59 L2123.41 1523.96 L2126.16 1526.76 Z" fill="#000000" fill-rule="evenodd" fill-opacity="1" /><path clip-path="url(#clip940)" d="M2138.53 1548.29 L2146.16 1548.29 L2146.16 1521.92 L2137.85 1523.59 L2137.85 1519.33 L2146.12 1517.66 L2150.79 1517.66 L2150.79 1548.29 L2158.43 1548.29 L2158.43 1552.22 L2138.53 1552.22 L2138.53 1548.29 Z" fill="#000000" fill-rule="evenodd" fill-opacity="1" /><path clip-path="url(#clip940)" d="M2177.88 1520.74 Q2174.27 1520.74 2172.44 1524.31 Q2170.63 1527.85 2170.63 1534.98 Q2170.63 1542.09 2172.44 1545.65 Q2174.27 1549.19 2177.88 1549.19 Q2181.51 1549.19 2183.32 1545.65 Q2185.15 1542.09 2185.15 1534.98 Q2185.15 1527.85 2183.32 1524.31 Q2181.51 1520.74 2177.88 1520.74 M2177.88 1517.04 Q2183.69 1517.04 2186.74 1521.65 Q2189.82 1526.23 2189.82 1534.98 Q2189.82 1543.71 2186.74 1548.31 Q2183.69 1552.9 2177.88 1552.9 Q2172.07 1552.9 2168.99 1548.31 Q2165.93 1543.71 2165.93 1534.98 Q2165.93 1526.23 2168.99 1521.65 Q2172.07 1517.04 2177.88 1517.04 Z" fill="#000000" fill-rule="evenodd" fill-opacity="1" /><path clip-path="url(#clip940)" d="M2202.5 1500.04 L2192.91 1515.03 L2202.5 1515.03 L2202.5 1500.04 M2201.5 1496.73 L2206.28 1496.73 L2206.28 1515.03 L2210.28 1515.03 L2210.28 1518.19 L2206.28 1518.19 L2206.28 1524.81 L2202.5 1524.81 L2202.5 1518.19 L2189.82 1518.19 L2189.82 1514.53 L2201.5 1496.73 Z" fill="#000000" fill-rule="evenodd" fill-opacity="1" /><polyline clip-path="url(#clip942)" style="stroke:#000000; stroke-linecap:butt; stroke-linejoin:round; stroke-width:2; stroke-opacity:0.1; fill:none" points="
  178.867,1283.91 2352.76,1283.91 
  "/>
<polyline clip-path="url(#clip942)" style="stroke:#000000; stroke-linecap:butt; stroke-linejoin:round; stroke-width:2; stroke-opacity:0.1; fill:none" points="
  178.867,903.396 2352.76,903.396 
  "/>
<polyline clip-path="url(#clip942)" style="stroke:#000000; stroke-linecap:butt; stroke-linejoin:round; stroke-width:2; stroke-opacity:0.1; fill:none" points="
  178.867,522.884 2352.76,522.884 
  "/>
<polyline clip-path="url(#clip942)" style="stroke:#000000; stroke-linecap:butt; stroke-linejoin:round; stroke-width:2; stroke-opacity:0.1; fill:none" points="
  178.867,142.372 2352.76,142.372 
  "/>
<polyline clip-path="url(#clip940)" style="stroke:#000000; stroke-linecap:butt; stroke-linejoin:round; stroke-width:4; stroke-opacity:1; fill:none" points="
  178.867,1474.16 178.867,47.2441 
  "/>
<polyline clip-path="url(#clip940)" style="stroke:#000000; stroke-linecap:butt; stroke-linejoin:round; stroke-width:4; stroke-opacity:1; fill:none" points="
  178.867,1283.91 197.764,1283.91 
  "/>
<polyline clip-path="url(#clip940)" style="stroke:#000000; stroke-linecap:butt; stroke-linejoin:round; stroke-width:4; stroke-opacity:1; fill:none" points="
  178.867,903.396 197.764,903.396 
  "/>
<polyline clip-path="url(#clip940)" style="stroke:#000000; stroke-linecap:butt; stroke-linejoin:round; stroke-width:4; stroke-opacity:1; fill:none" points="
  178.867,522.884 197.764,522.884 
  "/>
<polyline clip-path="url(#clip940)" style="stroke:#000000; stroke-linecap:butt; stroke-linejoin:round; stroke-width:4; stroke-opacity:1; fill:none" points="
  178.867,142.372 197.764,142.372 
  "/>
<path clip-path="url(#clip940)" d="M50.9921 1284.36 L80.6679 1284.36 L80.6679 1288.3 L50.9921 1288.3 L50.9921 1284.36 Z" fill="#000000" fill-rule="evenodd" fill-opacity="1" /><path clip-path="url(#clip940)" d="M101.339 1282.05 Q98.1909 1282.05 96.3391 1284.2 Q94.5104 1286.35 94.5104 1290.1 Q94.5104 1293.83 96.3391 1296 Q98.1909 1298.16 101.339 1298.16 Q104.487 1298.16 106.316 1296 Q108.168 1293.83 108.168 1290.1 Q108.168 1286.35 106.316 1284.2 Q104.487 1282.05 101.339 1282.05 M110.621 1267.39 L110.621 1271.65 Q108.862 1270.82 107.057 1270.38 Q105.274 1269.94 103.515 1269.94 Q98.8854 1269.94 96.4317 1273.06 Q94.0012 1276.19 93.6539 1282.51 Q95.0197 1280.49 97.0798 1279.43 Q99.14 1278.34 101.617 1278.34 Q106.825 1278.34 109.834 1281.51 Q112.867 1284.66 112.867 1290.1 Q112.867 1295.42 109.719 1298.64 Q106.571 1301.86 101.339 1301.86 Q95.3437 1301.86 92.1725 1297.28 Q89.0012 1292.67 89.0012 1283.94 Q89.0012 1275.75 92.89 1270.89 Q96.7789 1266 103.33 1266 Q105.089 1266 106.871 1266.35 Q108.677 1266.7 110.621 1267.39 Z" fill="#000000" fill-rule="evenodd" fill-opacity="1" /><path clip-path="url(#clip940)" d="M130.922 1269.71 Q127.311 1269.71 125.482 1273.27 Q123.677 1276.81 123.677 1283.94 Q123.677 1291.05 125.482 1294.61 Q127.311 1298.16 130.922 1298.16 Q134.556 1298.16 136.362 1294.61 Q138.191 1291.05 138.191 1283.94 Q138.191 1276.81 136.362 1273.27 Q134.556 1269.71 130.922 1269.71 M130.922 1266 Q136.732 1266 139.788 1270.61 Q142.867 1275.19 142.867 1283.94 Q142.867 1292.67 139.788 1297.28 Q136.732 1301.86 130.922 1301.86 Q125.112 1301.86 122.033 1297.28 Q118.978 1292.67 118.978 1283.94 Q118.978 1275.19 122.033 1270.61 Q125.112 1266 130.922 1266 Z" fill="#000000" fill-rule="evenodd" fill-opacity="1" /><path clip-path="url(#clip940)" d="M50.9921 903.848 L80.6679 903.848 L80.6679 907.783 L50.9921 907.783 L50.9921 903.848 Z" fill="#000000" fill-rule="evenodd" fill-opacity="1" /><path clip-path="url(#clip940)" d="M103.608 890.19 L91.8021 908.639 L103.608 908.639 L103.608 890.19 M102.381 886.116 L108.26 886.116 L108.26 908.639 L113.191 908.639 L113.191 912.528 L108.26 912.528 L108.26 920.676 L103.608 920.676 L103.608 912.528 L88.0058 912.528 L88.0058 908.014 L102.381 886.116 Z" fill="#000000" fill-rule="evenodd" fill-opacity="1" /><path clip-path="url(#clip940)" d="M130.922 889.195 Q127.311 889.195 125.482 892.76 Q123.677 896.302 123.677 903.431 Q123.677 910.538 125.482 914.102 Q127.311 917.644 130.922 917.644 Q134.556 917.644 136.362 914.102 Q138.191 910.538 138.191 903.431 Q138.191 896.302 136.362 892.76 Q134.556 889.195 130.922 889.195 M130.922 885.491 Q136.732 885.491 139.788 890.098 Q142.867 894.681 142.867 903.431 Q142.867 912.158 139.788 916.764 Q136.732 921.348 130.922 921.348 Q125.112 921.348 122.033 916.764 Q118.978 912.158 118.978 903.431 Q118.978 894.681 122.033 890.098 Q125.112 885.491 130.922 885.491 Z" fill="#000000" fill-rule="evenodd" fill-opacity="1" /><path clip-path="url(#clip940)" d="M50.9921 523.336 L80.6679 523.336 L80.6679 527.271 L50.9921 527.271 L50.9921 523.336 Z" fill="#000000" fill-rule="evenodd" fill-opacity="1" /><path clip-path="url(#clip940)" d="M94.7882 536.229 L111.108 536.229 L111.108 540.164 L89.1632 540.164 L89.1632 536.229 Q91.8252 533.475 96.4085 528.845 Q101.015 524.192 102.196 522.85 Q104.441 520.326 105.321 518.59 Q106.223 516.831 106.223 515.141 Q106.223 512.387 104.279 510.651 Q102.358 508.914 99.2558 508.914 Q97.0567 508.914 94.603 509.678 Q92.1725 510.442 89.3947 511.993 L89.3947 507.271 Q92.2188 506.137 94.6724 505.558 Q97.1261 504.979 99.1632 504.979 Q104.534 504.979 107.728 507.664 Q110.922 510.35 110.922 514.84 Q110.922 516.97 110.112 518.891 Q109.325 520.789 107.219 523.382 Q106.64 524.053 103.538 527.271 Q100.436 530.465 94.7882 536.229 Z" fill="#000000" fill-rule="evenodd" fill-opacity="1" /><path clip-path="url(#clip940)" d="M130.922 508.683 Q127.311 508.683 125.482 512.248 Q123.677 515.789 123.677 522.919 Q123.677 530.025 125.482 533.59 Q127.311 537.132 130.922 537.132 Q134.556 537.132 136.362 533.59 Q138.191 530.025 138.191 522.919 Q138.191 515.789 136.362 512.248 Q134.556 508.683 130.922 508.683 M130.922 504.979 Q136.732 504.979 139.788 509.586 Q142.867 514.169 142.867 522.919 Q142.867 531.646 139.788 536.252 Q136.732 540.836 130.922 540.836 Q125.112 540.836 122.033 536.252 Q118.978 531.646 118.978 522.919 Q118.978 514.169 122.033 509.586 Q125.112 504.979 130.922 504.979 Z" fill="#000000" fill-rule="evenodd" fill-opacity="1" /><path clip-path="url(#clip940)" d="M130.922 128.171 Q127.311 128.171 125.482 131.736 Q123.677 135.277 123.677 142.407 Q123.677 149.513 125.482 153.078 Q127.311 156.62 130.922 156.62 Q134.556 156.62 136.362 153.078 Q138.191 149.513 138.191 142.407 Q138.191 135.277 136.362 131.736 Q134.556 128.171 130.922 128.171 M130.922 124.467 Q136.732 124.467 139.788 129.074 Q142.867 133.657 142.867 142.407 Q142.867 151.134 139.788 155.74 Q136.732 160.323 130.922 160.323 Q125.112 160.323 122.033 155.74 Q118.978 151.134 118.978 142.407 Q118.978 133.657 122.033 129.074 Q125.112 124.467 130.922 124.467 Z" fill="#000000" fill-rule="evenodd" fill-opacity="1" /><polyline clip-path="url(#clip942)" style="stroke:#009af9; stroke-linecap:butt; stroke-linejoin:round; stroke-width:4; stroke-opacity:1; fill:none" points="
  242.443,1902.14 244.493,1672.57 246.544,1537.75 248.595,1441.55 250.646,1366.34 252.697,1304.29 254.748,1251.22 256.799,1204.62 258.849,1162.87 260.9,1124.86 
  262.951,1089.81 265.002,1057.12 267.053,1026.33 269.104,997.095 271.154,969.122 273.205,942.174 275.256,916.051 277.307,890.58 279.358,865.61 281.409,841.006 
  283.459,816.641 285.51,792.401 287.561,768.171 289.612,743.844 291.663,719.307 293.714,694.449 295.764,669.15 297.815,643.284 299.866,616.713 301.917,589.284 
  303.968,560.825 306.019,531.141 308.069,500.011 310.12,467.184 312.171,432.383 314.222,395.322 316.273,355.766 318.324,313.681 320.375,269.6 322.425,225.392 
  324.476,185.274 326.527,155.335 328.578,139.008 330.629,133.216 332.68,132.196 334.73,132.629 336.781,134.817 338.832,141.792 340.883,157.052 342.934,181.381 
  344.985,212.056 347.035,245.305 349.086,278.409 351.137,309.982 353.188,339.501 355.239,366.883 357.29,392.236 359.34,415.735 361.391,437.568 363.442,457.915 
  365.493,476.939 367.544,494.783 369.595,511.572 371.645,527.414 373.696,542.404 375.747,556.622 377.798,570.142 379.849,583.024 381.9,595.326 383.951,607.094 
  386.001,618.372 388.052,629.198 390.103,639.607 392.154,649.628 394.205,659.29 396.256,668.616 398.306,677.63 400.357,686.351 402.408,694.798 404.459,702.987 
  406.51,710.935 408.561,718.654 410.611,726.158 412.662,733.459 414.713,740.568 416.764,747.494 418.815,754.247 420.866,760.836 422.916,767.269 424.967,773.553 
  427.018,779.695 429.069,785.702 431.12,791.58 433.171,797.334 435.222,802.97 437.272,808.492 439.323,813.906 441.374,819.216 443.425,824.425 445.476,829.539 
  447.527,834.56 449.577,839.492 451.628,844.339 453.679,849.103 455.73,853.787 457.781,858.395 459.832,862.928 461.882,867.39 463.933,871.783 465.984,876.108 
  468.035,880.369 470.086,884.568 472.137,888.705 474.187,892.784 476.238,896.805 478.289,900.772 480.34,904.684 482.391,908.545 484.442,912.355 486.492,916.115 
  488.543,919.828 490.594,923.494 492.645,927.116 494.696,930.693 496.747,934.227 498.798,937.72 500.848,941.172 502.899,944.584 504.95,947.958 507.001,951.294 
  509.052,954.593 511.103,957.857 513.153,961.086 515.204,964.28 517.255,967.442 519.306,970.57 521.357,973.667 523.408,976.733 525.458,979.769 527.509,982.775 
  529.56,985.751 531.611,988.7 533.662,991.62 535.713,994.514 537.763,997.38 539.814,1000.22 541.865,1003.04 543.916,1005.83 545.967,1008.59 548.018,1011.33 
  550.068,1014.05 552.119,1016.75 554.17,1019.42 556.221,1022.07 558.272,1024.7 560.323,1027.3 562.374,1029.89 564.424,1032.46 566.475,1035 568.526,1037.53 
  570.577,1040.03 572.628,1042.52 574.679,1044.99 576.729,1047.44 578.78,1049.87 580.831,1052.28 582.882,1054.68 584.933,1057.06 586.984,1059.42 589.034,1061.76 
  591.085,1064.09 593.136,1066.41 595.187,1068.7 597.238,1070.98 599.289,1073.25 601.339,1075.5 603.39,1077.74 605.441,1079.96 607.492,1082.17 609.543,1084.36 
  611.594,1086.54 613.644,1088.71 615.695,1090.86 617.746,1093 619.797,1095.12 621.848,1097.24 623.899,1099.34 625.95,1101.42 628,1103.5 630.051,1105.56 
  632.102,1107.61 634.153,1109.65 636.204,1111.68 638.255,1113.7 640.305,1115.7 642.356,1117.69 644.407,1119.68 646.458,1121.65 648.509,1123.61 650.56,1125.56 
  652.61,1127.5 654.661,1129.43 656.712,1131.35 658.763,1133.26 660.814,1135.16 662.865,1137.05 664.915,1138.93 666.966,1140.8 669.017,1142.66 671.068,1144.52 
  673.119,1146.36 675.17,1148.19 677.22,1150.02 679.271,1151.83 681.322,1153.64 683.373,1155.44 685.424,1157.23 687.475,1159.02 689.526,1160.79 691.576,1162.56 
  693.627,1164.31 695.678,1166.06 697.729,1167.81 699.78,1169.54 701.831,1171.27 703.881,1172.99 705.932,1174.7 707.983,1176.4 710.034,1178.1 712.085,1179.79 
  714.136,1181.47 716.186,1183.15 718.237,1184.81 720.288,1186.48 722.339,1188.13 724.39,1189.78 726.441,1191.42 728.491,1193.05 730.542,1194.68 732.593,1196.3 
  734.644,1197.92 736.695,1199.53 738.746,1201.13 740.797,1202.73 742.847,1204.32 744.898,1205.9 746.949,1207.48 749,1209.05 751.051,1210.62 753.102,1212.18 
  755.152,1213.74 757.203,1215.29 759.254,1216.83 761.305,1218.37 763.356,1219.9 765.407,1221.43 767.457,1222.95 769.508,1224.47 771.559,1225.98 773.61,1227.49 
  775.661,1228.99 777.712,1230.49 779.762,1231.98 781.813,1233.46 783.864,1234.94 785.915,1236.42 787.966,1237.89 790.017,1239.36 792.067,1240.82 794.118,1242.28 
  796.169,1243.73 798.22,1245.18 800.271,1246.62 802.322,1248.06 804.373,1249.5 806.423,1250.93 808.474,1252.35 810.525,1253.77 812.576,1255.19 814.627,1256.61 
  816.678,1258.01 818.728,1259.42 820.779,1260.82 822.83,1262.22 824.881,1263.61 826.932,1265 828.983,1266.38 831.033,1267.76 833.084,1269.14 835.135,1270.51 
  837.186,1271.88 839.237,1273.25 841.288,1274.61 843.338,1275.97 845.389,1277.32 847.44,1278.67 849.491,1280.02 851.542,1281.36 853.593,1282.7 855.643,1284.04 
  857.694,1285.37 859.745,1286.7 861.796,1288.03 863.847,1289.35 865.898,1290.67 867.949,1291.98 869.999,1293.3 872.05,1294.61 874.101,1295.91 876.152,1297.22 
  878.203,1298.52 880.254,1299.81 882.304,1301.11 884.355,1302.4 886.406,1303.69 888.457,1304.97 890.508,1306.25 892.559,1307.53 894.609,1308.81 896.66,1310.08 
  898.711,1311.35 900.762,1312.62 902.813,1313.89 904.864,1315.15 906.914,1316.41 908.965,1317.66 911.016,1318.92 913.067,1320.17 915.118,1321.42 917.169,1322.66 
  919.219,1323.91 921.27,1325.15 923.321,1326.39 925.372,1327.62 927.423,1328.85 929.474,1330.09 931.525,1331.31 933.575,1332.54 935.626,1333.76 937.677,1334.98 
  939.728,1336.2 941.779,1337.42 943.83,1338.63 945.88,1339.84 947.931,1341.05 949.982,1342.26 952.033,1343.47 954.084,1344.67 956.135,1345.87 958.185,1347.07 
  960.236,1348.26 962.287,1349.46 964.338,1350.65 966.389,1351.84 968.44,1353.03 970.49,1354.21 972.541,1355.4 974.592,1356.58 976.643,1357.76 978.694,1358.94 
  980.745,1360.11 982.795,1361.29 984.846,1362.46 986.897,1363.63 988.948,1364.8 990.999,1365.96 993.05,1367.13 995.101,1368.29 997.151,1369.45 999.202,1370.61 
  1001.25,1371.77 1003.3,1372.93 1005.35,1374.08 1007.41,1375.23 1009.46,1376.38 1011.51,1377.53 1013.56,1378.68 1015.61,1379.82 1017.66,1380.97 1019.71,1382.11 
  1021.76,1383.25 1023.81,1384.39 1025.86,1385.53 1027.91,1386.67 1029.96,1387.8 1032.02,1388.93 1034.07,1390.06 1036.12,1391.19 1038.17,1392.32 1040.22,1393.45 
  1042.27,1394.58 1044.32,1395.7 1046.37,1396.82 1048.42,1397.95 1050.47,1399.07 1052.52,1400.18 1054.57,1401.3 1056.63,1402.42 1058.68,1403.53 1060.73,1404.65 
  1062.78,1405.76 1064.83,1406.87 1066.88,1407.98 1068.93,1409.09 1070.98,1410.2 1073.03,1411.3 1075.08,1412.41 1077.13,1413.51 1079.18,1414.61 1081.24,1415.72 
  1083.29,1416.82 1085.34,1417.92 1087.39,1419.01 1089.44,1420.11 1091.49,1421.21 1093.54,1422.3 1095.59,1423.4 1097.64,1424.49 1099.69,1425.58 1101.74,1426.67 
  1103.79,1427.76 1105.85,1428.85 1107.9,1429.94 1109.95,1431.02 1112,1432.11 1114.05,1433.19 1116.1,1434.28 1118.15,1435.36 1120.2,1436.44 1122.25,1437.53 
  1124.3,1438.61 1126.35,1439.69 1128.41,1440.76 1130.46,1441.84 1132.51,1442.92 1134.56,1444 1136.61,1445.07 1138.66,1446.15 1140.71,1447.22 1142.76,1448.29 
  1144.81,1449.37 1146.86,1450.44 1148.91,1451.51 1150.96,1452.58 1153.02,1453.65 1155.07,1454.72 1157.12,1455.79 1159.17,1456.85 1161.22,1457.92 1163.27,1458.99 
  1165.32,1460.05 1167.37,1461.12 1169.42,1462.18 1171.47,1463.25 1173.52,1464.31 1175.57,1465.37 1177.63,1466.43 1179.68,1467.5 1181.73,1468.56 1183.78,1469.62 
  1185.83,1470.68 1187.88,1471.74 1189.93,1472.8 1191.98,1473.86 1194.03,1474.91 1196.08,1475.97 1198.13,1477.03 1200.18,1478.09 1202.24,1479.14 1204.29,1480.2 
  1206.34,1481.25 1208.39,1482.31 1210.44,1483.36 1212.49,1484.42 1214.54,1485.47 1216.59,1486.53 1218.64,1487.58 1220.69,1488.63 1222.74,1489.69 1224.79,1490.74 
  1226.85,1491.79 1228.9,1492.84 1230.95,1493.9 1233,1494.95 1235.05,1496 1237.1,1497.05 1239.15,1498.1 1241.2,1499.15 1243.25,1500.2 1245.3,1501.25 
  1247.35,1502.3 1249.4,1503.35 1251.46,1504.4 1253.51,1505.45 1255.56,1506.5 1257.61,1507.55 1259.66,1508.6 1261.71,1509.65 1263.76,1510.7 1265.81,1511.75 
  1267.86,1512.79 1269.91,1513.84 1271.96,1514.89 1274.01,1515.94 1276.07,1516.99 1278.12,1518.04 1280.17,1519.09 1282.22,1520.14 1284.27,1521.18 1286.32,1522.23 
  1288.37,1523.28 1290.42,1524.33 1292.47,1525.38 1294.52,1526.43 1296.57,1527.48 1298.62,1528.53 1300.68,1529.58 1302.73,1530.63 1304.78,1531.68 1306.83,1532.73 
  1308.88,1533.78 1310.93,1534.83 1312.98,1535.88 1315.03,1536.93 1317.08,1537.98 1319.13,1539.03 1321.18,1540.08 1323.23,1541.13 1325.29,1542.18 1327.34,1543.23 
  1329.39,1544.28 1331.44,1545.34 1333.49,1546.39 1335.54,1547.44 1337.59,1548.49 1339.64,1549.55 1341.69,1550.6 1343.74,1551.66 1345.79,1552.71 1347.84,1553.76 
  1349.9,1554.82 1351.95,1555.88 1354,1556.93 1356.05,1557.99 1358.1,1559.04 1360.15,1560.1 1362.2,1561.16 1364.25,1562.22 1366.3,1563.27 1368.35,1564.33 
  1370.4,1565.39 1372.45,1566.45 1374.51,1567.51 1376.56,1568.57 1378.61,1569.64 1380.66,1570.7 1382.71,1571.76 1384.76,1572.82 1386.81,1573.89 1388.86,1574.95 
  1390.91,1576.01 1392.96,1577.08 1395.01,1578.15 1397.06,1579.21 1399.12,1580.28 1401.17,1581.35 1403.22,1582.42 1405.27,1583.49 1407.32,1584.56 1409.37,1585.63 
  1411.42,1586.7 1413.47,1587.77 1415.52,1588.84 1417.57,1589.92 1419.62,1590.99 1421.68,1592.06 1423.73,1593.14 1425.78,1594.22 1427.83,1595.29 1429.88,1596.37 
  1431.93,1597.45 1433.98,1598.53 1436.03,1599.61 1438.08,1600.69 1440.13,1601.78 1442.18,1602.86 1444.23,1603.94 1446.29,1605.03 1448.34,1606.11 1450.39,1607.2 
  1452.44,1608.29 1454.49,1609.38 1456.54,1610.47 1458.59,1611.56 1460.64,1612.65 1462.69,1613.74 1464.74,1614.84 1466.79,1615.93 1468.84,1617.03 1470.9,1618.13 
  1472.95,1619.22 1475,1620.32 1477.05,1621.42 1479.1,1622.53 1481.15,1623.63 1483.2,1624.73 1485.25,1625.84 1487.3,1626.94 1489.35,1628.05 1491.4,1629.16 
  1493.45,1630.27 1495.51,1631.38 1497.56,1632.49 1499.61,1633.61 1501.66,1634.72 1503.71,1635.84 1505.76,1636.95 1507.81,1638.07 1509.86,1639.19 1511.91,1640.31 
  1513.96,1641.44 1516.01,1642.56 1518.06,1643.69 1520.12,1644.81 1522.17,1645.94 1524.22,1647.07 1526.27,1648.2 1528.32,1649.33 1530.37,1650.47 1532.42,1651.6 
  1534.47,1652.74 1536.52,1653.88 1538.57,1655.02 1540.62,1656.16 1542.67,1657.3 1544.73,1658.45 1546.78,1659.6 1548.83,1660.74 1550.88,1661.89 1552.93,1663.05 
  1554.98,1664.2 1557.03,1665.35 1559.08,1666.51 1561.13,1667.67 1563.18,1668.83 1565.23,1669.99 1567.28,1671.15 1569.34,1672.32 1571.39,1673.49 1573.44,1674.65 
  1575.49,1675.83 1577.54,1677 1579.59,1678.17 1581.64,1679.35 1583.69,1680.53 1585.74,1681.71 1587.79,1682.89 1589.84,1684.07 1591.89,1685.26 1593.95,1686.45 
  1596,1687.64 1598.05,1688.83 1600.1,1690.02 1602.15,1691.22 1604.2,1692.42 1606.25,1693.62 1608.3,1694.82 1610.35,1696.03 1612.4,1697.23 1614.45,1698.44 
  1616.5,1699.65 1618.56,1700.87 1620.61,1702.08 1622.66,1703.3 1624.71,1704.52 1626.76,1705.75 1628.81,1706.97 1630.86,1708.2 1632.91,1709.43 1634.96,1710.66 
  1637.01,1711.9 1639.06,1713.13 1641.11,1714.37 1643.17,1715.61 1645.22,1716.86 1647.27,1718.11 1649.32,1719.36 1651.37,1720.61 1653.42,1721.86 1655.47,1723.12 
  1657.52,1724.38 1659.57,1725.64 1661.62,1726.91 1663.67,1728.18 1665.72,1729.45 1667.78,1730.72 1669.83,1732 1671.88,1733.28 1673.93,1734.56 1675.98,1735.85 
  1678.03,1737.14 1680.08,1738.43 1682.13,1739.72 1684.18,1741.02 1686.23,1742.32 1688.28,1743.62 1690.33,1744.93 1692.39,1746.24 1694.44,1747.55 1696.49,1748.87 
  1698.54,1750.19 1700.59,1751.51 1702.64,1752.83 1704.69,1754.16 1706.74,1755.49 1708.79,1756.83 1710.84,1758.17 1712.89,1759.51 1714.94,1760.85 1717,1762.2 
  1719.05,1763.56 1721.1,1764.91 1723.15,1766.27 1725.2,1767.63 1727.25,1769 1729.3,1770.37 1731.35,1771.75 1733.4,1773.12 1735.45,1774.5 1737.5,1775.89 
  1739.56,1777.28 1741.61,1778.67 1743.66,1780.07 1745.71,1781.47 1747.76,1782.87 1749.81,1784.28 1751.86,1785.69 1753.91,1787.11 1755.96,1788.53 1758.01,1789.96 
  1760.06,1791.39 1762.11,1792.82 1764.17,1794.26 1766.22,1795.7 1768.27,1797.15 1770.32,1798.6 1772.37,1800.05 1774.42,1801.51 1776.47,1802.98 1778.52,1804.44 
  1780.57,1805.92 1782.62,1807.4 1784.67,1808.88 1786.72,1810.37 1788.78,1811.86 1790.83,1813.35 1792.88,1814.86 1794.93,1816.36 1796.98,1817.87 1799.03,1819.39 
  1801.08,1820.91 1803.13,1822.44 1805.18,1823.97 1807.23,1825.51 1809.28,1827.05 1811.33,1828.6 1813.39,1830.15 1815.44,1831.71 1817.49,1833.28 1819.54,1834.85 
  1821.59,1836.42 1823.64,1838 1825.69,1839.59 1827.74,1841.18 1829.79,1842.78 1831.84,1844.38 1833.89,1845.99 1835.94,1847.61 1838,1849.23 1840.05,1850.86 
  1842.1,1852.49 1844.15,1854.13 1846.2,1855.78 1848.25,1857.43 1850.3,1859.09 1852.35,1860.76 1854.4,1862.43 1856.45,1864.11 1858.5,1865.8 1860.55,1867.49 
  1862.61,1869.19 1864.66,1870.89 1866.71,1872.61 1868.76,1874.33 1870.81,1876.06 1872.86,1877.79 1874.91,1879.53 1876.96,1881.28 1879.01,1883.04 1881.06,1884.8 
  1883.11,1886.58 1885.16,1888.36 1887.22,1890.14 1889.27,1891.94 1891.32,1893.74 1893.37,1895.55 1895.42,1897.37 1897.47,1899.2 1899.52,1901.04 1901.57,1902.88 
  1903.62,1904.74 1905.67,1906.6 1907.72,1908.47 1909.77,1910.35 1911.83,1912.24 1913.88,1914.14 1915.93,1916.04 1917.98,1917.96 1920.03,1919.88 1922.08,1921.82 
  1924.13,1923.76 1926.18,1925.72 1928.23,1927.68 1930.28,1929.65 1932.33,1931.64 1934.38,1933.63 1936.44,1935.64 1938.49,1937.65 1940.54,1939.68 1942.59,1941.71 
  1944.64,1943.76 1946.69,1945.82 1948.74,1947.88 1950.79,1949.96 1952.84,1952.06 1954.89,1954.16 1956.94,1956.27 1958.99,1958.4 1961.05,1960.54 1963.1,1962.69 
  1965.15,1964.85 1967.2,1967.03 1969.25,1969.22 1971.3,1971.42 1973.35,1973.63 1975.4,1975.86 1977.45,1978.1 1979.5,1980.35 1981.55,1982.62 1983.6,1984.9 
  1985.66,1987.2 1987.71,1989.51 1989.76,1991.83 1991.81,1994.17 1993.86,1996.52 1995.91,1998.89 1997.96,2001.28 2000.01,2003.68 2002.06,2006.09 2004.11,2008.52 
  2006.16,2010.97 2008.21,2013.44 2010.27,2015.92 2012.32,2018.42 2014.37,2020.93 2016.42,2023.46 2018.47,2026.02 2020.52,2028.58 2022.57,2031.17 2024.62,2033.78 
  2026.67,2036.4 2028.72,2039.05 2030.77,2041.71 2032.83,2044.4 2034.88,2047.1 2036.93,2049.82 2038.98,2052.57 2041.03,2055.34 2043.08,2058.13 2045.13,2060.94 
  2047.18,2063.77 2049.23,2066.62 2051.28,2069.5 2053.33,2072.41 2055.38,2075.33 2057.44,2078.28 2059.49,2081.26 2061.54,2084.26 2063.59,2087.29 2065.64,2090.34 
  2067.69,2093.42 2069.74,2096.53 2071.79,2099.66 2073.84,2102.82 2075.89,2106.02 2077.94,2109.24 2079.99,2112.49 2082.05,2115.77 2084.1,2119.08 2086.15,2122.43 
  2088.2,2125.8 2090.25,2129.22 2092.3,2132.66 2094.35,2136.14 2096.4,2139.65 2098.45,2143.2 2100.5,2146.79 2102.55,2150.41 2104.6,2154.08 2106.66,2157.78 
  2108.71,2161.52 2110.76,2165.31 2112.81,2169.13 2114.86,2173 2116.91,2176.91 2118.96,2180.87 2121.01,2184.88 2123.06,2188.93 2125.11,2193.03 2127.16,2197.18 
  2129.21,2201.38 2131.27,2205.64 2133.32,2209.94 2135.37,2214.31 2137.42,2218.73 2139.47,2223.21 2141.52,2227.74 2143.57,2232.34 2145.62,2237 2147.67,2241.73 
  2149.72,2246.53 2151.77,2251.39 2153.82,2256.32 2155.88,2261.33 2157.93,2266.41 2159.98,2271.57 2162.03,2276.81 2164.08,2282.14 2166.13,2287.54 2168.18,2293.04 
  2170.23,2298.63 2172.28,2304.31 2174.33,2310.09 2176.38,2315.97 2178.43,2321.96 2180.49,2328.05 2182.54,2334.26 2184.59,2340.58 2186.64,2347.03 2188.69,2353.6 
  2190.74,2360.31 2192.79,2367.15 2194.84,2374.13 2196.89,2381.27 2198.94,2388.56 2200.99,2396.01 2203.04,2403.63 2205.1,2411.43 2207.15,2419.42 2209.2,2427.6 
  2211.25,2435.99 2213.3,2444.6 2215.35,2453.43 2217.4,2462.51 2219.45,2471.84 2221.5,2481.44 2223.55,2491.33 2225.6,2501.51 2227.65,2512.02 2229.71,2522.88 
  2231.76,2534.1 2233.81,2545.71 2235.86,2557.75 2237.91,2570.24 2239.96,2583.21 2242.01,2596.72 2244.06,2610.8 2246.11,2625.5 2248.16,2640.89 2250.21,2657.03 
  2252.26,2673.99 2254.32,2691.87 2256.37,2710.77 2258.42,2730.82 2260.47,2752.16 2262.52,2774.97 2264.57,2799.47 2266.62,2825.93 2268.67,2854.69 2270.72,2886.2 
  2272.77,2921.03 2274.82,2959.96 2276.87,3004.1 2278.93,3055.05 2280.98,3115.31 2283.03,3189.07 2285.08,3284.15 2287.13,3418.16 2289.18,3647.25 2291.23,13851.9 
  
  "/>
<polyline clip-path="url(#clip942)" style="stroke:#e26f46; stroke-linecap:butt; stroke-linejoin:round; stroke-width:4; stroke-opacity:1; fill:none" points="
  242.443,1046.33 244.493,931.577 246.544,864.23 248.595,816.208 250.646,778.712 252.697,747.821 254.748,721.443 256.799,698.327 258.849,677.665 260.9,658.905 
  262.951,641.652 265.002,625.612 267.053,610.56 269.104,596.32 271.154,582.752 273.205,569.739 275.256,557.186 277.307,545.01 279.358,533.14 281.409,521.514 
  283.459,510.077 285.51,498.777 287.561,487.568 289.612,476.405 291.663,465.245 293.714,454.047 295.764,442.768 297.815,431.367 299.866,419.799 301.917,408.019 
  303.968,395.976 306.019,383.619 308.069,370.889 310.12,357.721 312.171,344.043 314.222,329.773 316.273,314.82 318.324,299.079 320.375,282.435 322.425,264.759 
  324.476,245.922 326.527,225.809 328.578,204.361 330.629,181.679 332.68,158.217 334.73,135.157 336.781,114.91 338.832,101.215 340.883,97.6701 342.934,104.93 
  344.985,120.079 347.035,139.151 349.086,159.249 351.137,178.833 353.188,197.252 355.239,214.312 357.29,230.028 359.34,244.496 361.391,257.839 363.442,270.18 
  365.493,281.631 367.544,292.293 369.595,302.256 371.645,311.594 373.696,320.375 375.747,328.655 377.798,336.484 379.849,343.906 381.9,350.957 383.951,357.671 
  386.001,364.077 388.052,370.201 390.103,376.065 392.154,381.69 394.205,387.093 396.256,392.292 398.306,397.3 400.357,402.13 402.408,406.796 404.459,411.306 
  406.51,415.671 408.561,419.901 410.611,424.002 412.662,427.984 414.713,431.851 416.764,435.612 418.815,439.271 420.866,442.834 422.916,446.305 424.967,449.691 
  427.018,452.994 429.069,456.219 431.12,459.369 433.171,462.449 435.222,465.46 437.272,468.407 439.323,471.292 441.374,474.117 443.425,476.885 445.476,479.599 
  447.527,482.26 449.577,484.872 451.628,487.435 453.679,489.951 455.73,492.423 457.781,494.851 459.832,497.238 461.882,499.585 463.933,501.894 465.984,504.165 
  468.035,506.4 470.086,508.6 472.137,510.766 474.187,512.9 476.238,515.003 478.289,517.074 480.34,519.117 482.391,521.13 484.442,523.116 486.492,525.074 
  488.543,527.006 490.594,528.913 492.645,530.795 494.696,532.653 496.747,534.488 498.798,536.3 500.848,538.09 502.899,539.858 504.95,541.605 507.001,543.332 
  509.052,545.038 511.103,546.726 513.153,548.394 515.204,550.044 517.255,551.676 519.306,553.29 521.357,554.888 523.408,556.468 525.458,558.032 527.509,559.58 
  529.56,561.113 531.611,562.63 533.662,564.132 535.713,565.62 537.763,567.093 539.814,568.553 541.865,569.999 543.916,571.431 545.967,572.85 548.018,574.257 
  550.068,575.651 552.119,577.032 554.17,578.402 556.221,579.759 558.272,581.105 560.323,582.44 562.374,583.764 564.424,585.076 566.475,586.378 568.526,587.669 
  570.577,588.951 572.628,590.221 574.679,591.482 576.729,592.734 578.78,593.975 580.831,595.207 582.882,596.43 584.933,597.644 586.984,598.849 589.034,600.045 
  591.085,601.233 593.136,602.412 595.187,603.582 597.238,604.745 599.289,605.899 601.339,607.046 603.39,608.185 605.441,609.316 607.492,610.439 609.543,611.555 
  611.594,612.664 613.644,613.765 615.695,614.86 617.746,615.947 619.797,617.028 621.848,618.102 623.899,619.169 625.95,620.23 628,621.284 630.051,622.332 
  632.102,623.373 634.153,624.409 636.204,625.438 638.255,626.461 640.305,627.479 642.356,628.49 644.407,629.496 646.458,630.496 648.509,631.491 650.56,632.48 
  652.61,633.464 654.661,634.442 656.712,635.415 658.763,636.383 660.814,637.345 662.865,638.303 664.915,639.256 666.966,640.203 669.017,641.146 671.068,642.084 
  673.119,643.017 675.17,643.946 677.22,644.87 679.271,645.789 681.322,646.704 683.373,647.614 685.424,648.52 687.475,649.422 689.526,650.319 691.576,651.213 
  693.627,652.102 695.678,652.986 697.729,653.867 699.78,654.744 701.831,655.617 703.881,656.486 705.932,657.351 707.983,658.212 710.034,659.069 712.085,659.923 
  714.136,660.773 716.186,661.619 718.237,662.462 720.288,663.301 722.339,664.137 724.39,664.969 726.441,665.798 728.491,666.623 730.542,667.445 732.593,668.263 
  734.644,669.079 736.695,669.891 738.746,670.7 740.797,671.505 742.847,672.308 744.898,673.107 746.949,673.903 749,674.697 751.051,675.487 753.102,676.274 
  755.152,677.059 757.203,677.84 759.254,678.619 761.305,679.394 763.356,680.167 765.407,680.937 767.457,681.705 769.508,682.469 771.559,683.231 773.61,683.99 
  775.661,684.747 777.712,685.501 779.762,686.252 781.813,687.001 783.864,687.747 785.915,688.491 787.966,689.233 790.017,689.971 792.067,690.708 794.118,691.442 
  796.169,692.174 798.22,692.903 800.271,693.63 802.322,694.354 804.373,695.077 806.423,695.797 808.474,696.515 810.525,697.23 812.576,697.944 814.627,698.655 
  816.678,699.364 818.728,700.071 820.779,700.776 822.83,701.479 824.881,702.18 826.932,702.878 828.983,703.575 831.033,704.27 833.084,704.962 835.135,705.653 
  837.186,706.342 839.237,707.029 841.288,707.714 843.338,708.397 845.389,709.078 847.44,709.757 849.491,710.435 851.542,711.11 853.593,711.784 855.643,712.456 
  857.694,713.126 859.745,713.795 861.796,714.462 863.847,715.127 865.898,715.79 867.949,716.452 869.999,717.112 872.05,717.771 874.101,718.427 876.152,719.082 
  878.203,719.736 880.254,720.388 882.304,721.038 884.355,721.687 886.406,722.334 888.457,722.98 890.508,723.624 892.559,724.267 894.609,724.909 896.66,725.548 
  898.711,726.187 900.762,726.824 902.813,727.459 904.864,728.093 906.914,728.726 908.965,729.357 911.016,729.987 913.067,730.615 915.118,731.242 917.169,731.868 
  919.219,732.493 921.27,733.116 923.321,733.738 925.372,734.358 927.423,734.978 929.474,735.596 931.525,736.213 933.575,736.828 935.626,737.442 937.677,738.056 
  939.728,738.668 941.779,739.278 943.83,739.888 945.88,740.496 947.931,741.103 949.982,741.709 952.033,742.314 954.084,742.918 956.135,743.521 958.185,744.122 
  960.236,744.723 962.287,745.322 964.338,745.921 966.389,746.518 968.44,747.114 970.49,747.709 972.541,748.304 974.592,748.897 976.643,749.489 978.694,750.08 
  980.745,750.67 982.795,751.259 984.846,751.847 986.897,752.435 988.948,753.021 990.999,753.606 993.05,754.19 995.101,754.774 997.151,755.356 999.202,755.938 
  1001.25,756.519 1003.3,757.099 1005.35,757.678 1007.41,758.256 1009.46,758.833 1011.51,759.409 1013.56,759.985 1015.61,760.56 1017.66,761.133 1019.71,761.706 
  1021.76,762.279 1023.81,762.85 1025.86,763.421 1027.91,763.991 1029.96,764.56 1032.02,765.128 1034.07,765.696 1036.12,766.262 1038.17,766.828 1040.22,767.394 
  1042.27,767.958 1044.32,768.522 1046.37,769.085 1048.42,769.648 1050.47,770.21 1052.52,770.771 1054.57,771.331 1056.63,771.891 1058.68,772.45 1060.73,773.008 
  1062.78,773.566 1064.83,774.123 1066.88,774.68 1068.93,775.235 1070.98,775.791 1073.03,776.345 1075.08,776.899 1077.13,777.453 1079.18,778.005 1081.24,778.558 
  1083.29,779.109 1085.34,779.66 1087.39,780.211 1089.44,780.761 1091.49,781.31 1093.54,781.859 1095.59,782.407 1097.64,782.955 1099.69,783.502 1101.74,784.049 
  1103.79,784.595 1105.85,785.141 1107.9,785.686 1109.95,786.231 1112,786.775 1114.05,787.319 1116.1,787.862 1118.15,788.405 1120.2,788.948 1122.25,789.49 
  1124.3,790.031 1126.35,790.572 1128.41,791.113 1130.46,791.653 1132.51,792.193 1134.56,792.732 1136.61,793.271 1138.66,793.81 1140.71,794.348 1142.76,794.886 
  1144.81,795.423 1146.86,795.96 1148.91,796.497 1150.96,797.033 1153.02,797.569 1155.07,798.105 1157.12,798.64 1159.17,799.175 1161.22,799.71 1163.27,800.244 
  1165.32,800.778 1167.37,801.311 1169.42,801.845 1171.47,802.378 1173.52,802.91 1175.57,803.443 1177.63,803.975 1179.68,804.507 1181.73,805.038 1183.78,805.57 
  1185.83,806.101 1187.88,806.632 1189.93,807.162 1191.98,807.693 1194.03,808.223 1196.08,808.752 1198.13,809.282 1200.18,809.811 1202.24,810.341 1204.29,810.87 
  1206.34,811.398 1208.39,811.927 1210.44,812.455 1212.49,812.984 1214.54,813.512 1216.59,814.039 1218.64,814.567 1220.69,815.095 1222.74,815.622 1224.79,816.149 
  1226.85,816.676 1228.9,817.203 1230.95,817.73 1233,818.256 1235.05,818.783 1237.1,819.309 1239.15,819.836 1241.2,820.362 1243.25,820.888 1245.3,821.414 
  1247.35,821.94 1249.4,822.465 1251.46,822.991 1253.51,823.517 1255.56,824.042 1257.61,824.568 1259.66,825.093 1261.71,825.618 1263.76,826.144 1265.81,826.669 
  1267.86,827.194 1269.91,827.719 1271.96,828.245 1274.01,828.77 1276.07,829.295 1278.12,829.82 1280.17,830.345 1282.22,830.87 1284.27,831.395 1286.32,831.92 
  1288.37,832.446 1290.42,832.971 1292.47,833.496 1294.52,834.021 1296.57,834.546 1298.62,835.072 1300.68,835.597 1302.73,836.123 1304.78,836.648 1306.83,837.174 
  1308.88,837.699 1310.93,838.225 1312.98,838.751 1315.03,839.276 1317.08,839.802 1319.13,840.328 1321.18,840.855 1323.23,841.381 1325.29,841.907 1327.34,842.434 
  1329.39,842.96 1331.44,843.487 1333.49,844.014 1335.54,844.541 1337.59,845.068 1339.64,845.595 1341.69,846.123 1343.74,846.65 1345.79,847.178 1347.84,847.706 
  1349.9,848.234 1351.95,848.763 1354,849.291 1356.05,849.82 1358.1,850.349 1360.15,850.878 1362.2,851.407 1364.25,851.937 1366.3,852.466 1368.35,852.996 
  1370.4,853.527 1372.45,854.057 1374.51,854.588 1376.56,855.119 1378.61,855.65 1380.66,856.182 1382.71,856.713 1384.76,857.245 1386.81,857.778 1388.86,858.31 
  1390.91,858.843 1392.96,859.376 1395.01,859.91 1397.06,860.444 1399.12,860.978 1401.17,861.512 1403.22,862.047 1405.27,862.582 1407.32,863.118 1409.37,863.654 
  1411.42,864.19 1413.47,864.726 1415.52,865.263 1417.57,865.8 1419.62,866.338 1421.68,866.876 1423.73,867.414 1425.78,867.953 1427.83,868.492 1429.88,869.032 
  1431.93,869.572 1433.98,870.112 1436.03,870.653 1438.08,871.194 1440.13,871.736 1442.18,872.278 1444.23,872.821 1446.29,873.364 1448.34,873.907 1450.39,874.451 
  1452.44,874.995 1454.49,875.54 1456.54,876.086 1458.59,876.632 1460.64,877.178 1462.69,877.725 1464.74,878.272 1466.79,878.82 1468.84,879.369 1470.9,879.918 
  1472.95,880.467 1475,881.017 1477.05,881.568 1479.1,882.119 1481.15,882.671 1483.2,883.223 1485.25,883.776 1487.3,884.33 1489.35,884.884 1491.4,885.438 
  1493.45,885.994 1495.51,886.549 1497.56,887.106 1499.61,887.663 1501.66,888.221 1503.71,888.779 1505.76,889.338 1507.81,889.898 1509.86,890.458 1511.91,891.019 
  1513.96,891.581 1516.01,892.144 1518.06,892.707 1520.12,893.27 1522.17,893.835 1524.22,894.4 1526.27,894.966 1528.32,895.533 1530.37,896.1 1532.42,896.668 
  1534.47,897.237 1536.52,897.807 1538.57,898.377 1540.62,898.949 1542.67,899.521 1544.73,900.094 1546.78,900.667 1548.83,901.242 1550.88,901.817 1552.93,902.393 
  1554.98,902.97 1557.03,903.547 1559.08,904.126 1561.13,904.705 1563.18,905.286 1565.23,905.867 1567.28,906.449 1569.34,907.032 1571.39,907.616 1573.44,908.201 
  1575.49,908.786 1577.54,909.373 1579.59,909.96 1581.64,910.549 1583.69,911.138 1585.74,911.729 1587.79,912.32 1589.84,912.913 1591.89,913.506 1593.95,914.1 
  1596,914.696 1598.05,915.292 1600.1,915.889 1602.15,916.488 1604.2,917.087 1606.25,917.688 1608.3,918.29 1610.35,918.892 1612.4,919.496 1614.45,920.101 
  1616.5,920.707 1618.56,921.314 1620.61,921.922 1622.66,922.532 1624.71,923.142 1626.76,923.754 1628.81,924.367 1630.86,924.981 1632.91,925.596 1634.96,926.213 
  1637.01,926.83 1639.06,927.449 1641.11,928.069 1643.17,928.691 1645.22,929.313 1647.27,929.937 1649.32,930.562 1651.37,931.189 1653.42,931.817 1655.47,932.446 
  1657.52,933.076 1659.57,933.708 1661.62,934.341 1663.67,934.976 1665.72,935.611 1667.78,936.249 1669.83,936.887 1671.88,937.527 1673.93,938.169 1675.98,938.812 
  1678.03,939.456 1680.08,940.102 1682.13,940.749 1684.18,941.398 1686.23,942.049 1688.28,942.7 1690.33,943.354 1692.39,944.009 1694.44,944.665 1696.49,945.323 
  1698.54,945.983 1700.59,946.644 1702.64,947.307 1704.69,947.972 1706.74,948.638 1708.79,949.306 1710.84,949.975 1712.89,950.647 1714.94,951.32 1717,951.994 
  1719.05,952.671 1721.1,953.349 1723.15,954.029 1725.2,954.71 1727.25,955.394 1729.3,956.079 1731.35,956.766 1733.4,957.455 1735.45,958.146 1737.5,958.839 
  1739.56,959.534 1741.61,960.231 1743.66,960.929 1745.71,961.63 1747.76,962.332 1749.81,963.037 1751.86,963.743 1753.91,964.452 1755.96,965.163 1758.01,965.875 
  1760.06,966.59 1762.11,967.307 1764.17,968.026 1766.22,968.747 1768.27,969.47 1770.32,970.196 1772.37,970.924 1774.42,971.654 1776.47,972.386 1778.52,973.121 
  1780.57,973.857 1782.62,974.597 1784.67,975.338 1786.72,976.082 1788.78,976.828 1790.83,977.577 1792.88,978.328 1794.93,979.081 1796.98,979.837 1799.03,980.596 
  1801.08,981.357 1803.13,982.121 1805.18,982.887 1807.23,983.656 1809.28,984.427 1811.33,985.201 1813.39,985.978 1815.44,986.757 1817.49,987.54 1819.54,988.325 
  1821.59,989.112 1823.64,989.903 1825.69,990.696 1827.74,991.493 1829.79,992.292 1831.84,993.094 1833.89,993.899 1835.94,994.707 1838,995.518 1840.05,996.332 
  1842.1,997.15 1844.15,997.97 1846.2,998.793 1848.25,999.62 1850.3,1000.45 1852.35,1001.28 1854.4,1002.12 1856.45,1002.96 1858.5,1003.8 1860.55,1004.65 
  1862.61,1005.5 1864.66,1006.35 1866.71,1007.21 1868.76,1008.07 1870.81,1008.93 1872.86,1009.8 1874.91,1010.67 1876.96,1011.55 1879.01,1012.43 1881.06,1013.31 
  1883.11,1014.19 1885.16,1015.08 1887.22,1015.98 1889.27,1016.88 1891.32,1017.78 1893.37,1018.68 1895.42,1019.59 1897.47,1020.51 1899.52,1021.43 1901.57,1022.35 
  1903.62,1023.28 1905.67,1024.21 1907.72,1025.14 1909.77,1026.08 1911.83,1027.03 1913.88,1027.98 1915.93,1028.93 1917.98,1029.89 1920.03,1030.85 1922.08,1031.82 
  1924.13,1032.79 1926.18,1033.77 1928.23,1034.75 1930.28,1035.74 1932.33,1036.73 1934.38,1037.73 1936.44,1038.73 1938.49,1039.74 1940.54,1040.75 1942.59,1041.77 
  1944.64,1042.79 1946.69,1043.82 1948.74,1044.85 1950.79,1045.89 1952.84,1046.94 1954.89,1047.99 1956.94,1049.05 1958.99,1050.11 1961.05,1051.18 1963.1,1052.26 
  1965.15,1053.34 1967.2,1054.43 1969.25,1055.52 1971.3,1056.62 1973.35,1057.73 1975.4,1058.84 1977.45,1059.96 1979.5,1061.09 1981.55,1062.22 1983.6,1063.36 
  1985.66,1064.51 1987.71,1065.67 1989.76,1066.83 1991.81,1068 1993.86,1069.17 1995.91,1070.36 1997.96,1071.55 2000.01,1072.75 2002.06,1073.96 2004.11,1075.18 
  2006.16,1076.4 2008.21,1077.63 2010.27,1078.87 2012.32,1080.12 2014.37,1081.38 2016.42,1082.65 2018.47,1083.92 2020.52,1085.21 2022.57,1086.5 2024.62,1087.8 
  2026.67,1089.12 2028.72,1090.44 2030.77,1091.77 2032.83,1093.11 2034.88,1094.46 2036.93,1095.83 2038.98,1097.2 2041.03,1098.58 2043.08,1099.98 2045.13,1101.38 
  2047.18,1102.8 2049.23,1104.23 2051.28,1105.67 2053.33,1107.12 2055.38,1108.58 2057.44,1110.06 2059.49,1111.54 2061.54,1113.05 2063.59,1114.56 2065.64,1116.09 
  2067.69,1117.63 2069.74,1119.18 2071.79,1120.75 2073.84,1122.33 2075.89,1123.92 2077.94,1125.53 2079.99,1127.16 2082.05,1128.8 2084.1,1130.46 2086.15,1132.13 
  2088.2,1133.82 2090.25,1135.52 2092.3,1137.25 2094.35,1138.99 2096.4,1140.74 2098.45,1142.52 2100.5,1144.31 2102.55,1146.12 2104.6,1147.96 2106.66,1149.81 
  2108.71,1151.68 2110.76,1153.57 2112.81,1155.48 2114.86,1157.42 2116.91,1159.37 2118.96,1161.35 2121.01,1163.36 2123.06,1165.38 2125.11,1167.43 2127.16,1169.51 
  2129.21,1171.61 2131.27,1173.74 2133.32,1175.89 2135.37,1178.07 2137.42,1180.28 2139.47,1182.52 2141.52,1184.79 2143.57,1187.09 2145.62,1189.42 2147.67,1191.78 
  2149.72,1194.18 2151.77,1196.61 2153.82,1199.08 2155.88,1201.58 2157.93,1204.12 2159.98,1206.7 2162.03,1209.32 2164.08,1211.99 2166.13,1214.69 2168.18,1217.44 
  2170.23,1220.23 2172.28,1223.07 2174.33,1225.96 2176.38,1228.9 2178.43,1231.9 2180.49,1234.94 2182.54,1238.05 2184.59,1241.21 2186.64,1244.43 2188.69,1247.72 
  2190.74,1251.07 2192.79,1254.49 2194.84,1257.99 2196.89,1261.55 2198.94,1265.2 2200.99,1268.92 2203.04,1272.74 2205.1,1276.64 2207.15,1280.63 2209.2,1284.72 
  2211.25,1288.92 2213.3,1293.22 2215.35,1297.64 2217.4,1302.17 2219.45,1306.84 2221.5,1311.64 2223.55,1316.58 2225.6,1321.68 2227.65,1326.93 2229.71,1332.36 
  2231.76,1337.97 2233.81,1343.78 2235.86,1349.79 2237.91,1356.04 2239.96,1362.53 2242.01,1369.28 2244.06,1376.32 2246.11,1383.67 2248.16,1391.36 2250.21,1399.43 
  2252.26,1407.91 2254.32,1416.85 2256.37,1426.3 2258.42,1436.33 2260.47,1447 2262.52,1458.4 2264.57,1470.65 2266.62,1483.88 2268.67,1498.27 2270.72,1514.02 
  2272.77,1531.43 2274.82,1550.9 2276.87,1572.97 2278.93,1598.44 2280.98,1628.58 2283.03,1665.45 2285.08,1712.99 2287.13,1780 2289.18,1894.55 2291.23,6996.89 
  
  "/>
<polyline clip-path="url(#clip942)" style="stroke:#3da44d; stroke-linecap:butt; stroke-linejoin:round; stroke-width:4; stroke-opacity:1; fill:none" points="
  242.443,998.183 244.493,883.362 246.544,815.897 248.595,767.709 250.646,729.999 252.697,698.843 254.748,672.148 256.799,648.662 258.849,627.574 260.9,608.329 
  262.951,590.529 265.002,573.876 267.053,558.142 269.104,543.147 271.154,528.742 273.205,514.807 275.256,501.237 277.307,487.943 279.358,474.843 281.409,461.864 
  283.459,448.936 285.51,435.995 287.561,422.975 289.612,409.811 291.663,396.434 293.714,382.774 295.764,368.754 297.815,354.289 299.866,339.286 301.917,323.637 
  303.968,307.22 306.019,289.894 308.069,271.495 310.12,251.836 312.171,230.713 314.222,207.922 316.273,183.319 318.324,156.974 320.375,129.538 322.425,103.005 
  324.476,81.7236 326.527,71.8988 328.578,77.0184 330.629,93.9092 332.68,116.351 334.73,139.844 336.781,162.279 338.832,182.949 340.883,201.754 342.934,218.823 
  344.985,234.348 347.035,248.526 349.086,261.532 351.137,273.521 353.188,284.621 355.239,294.944 357.29,304.58 359.34,313.611 361.391,322.101 363.442,330.108 
  365.493,337.681 367.544,344.862 369.595,351.689 371.645,358.192 373.696,364.401 375.747,370.339 377.798,376.03 379.849,381.491 381.9,386.741 383.951,391.795 
  386.001,396.667 388.052,401.37 390.103,405.914 392.154,410.311 394.205,414.569 396.256,418.697 398.306,422.702 400.357,426.593 402.408,430.374 404.459,434.053 
  406.51,437.635 408.561,441.125 410.611,444.528 412.662,447.848 414.713,451.089 416.764,454.255 418.815,457.349 420.866,460.375 422.916,463.336 424.967,466.235 
  427.018,469.074 429.069,471.855 431.12,474.583 433.171,477.257 435.222,479.882 437.272,482.457 439.323,484.987 441.374,487.471 443.425,489.912 445.476,492.312 
  447.527,494.672 449.577,496.993 451.628,499.276 453.679,501.524 455.73,503.737 457.781,505.916 459.832,508.062 461.882,510.177 463.933,512.261 465.984,514.316 
  468.035,516.342 470.086,518.34 472.137,520.311 474.187,522.256 476.238,524.175 478.289,526.069 480.34,527.94 482.391,529.787 484.442,531.611 486.492,533.413 
  488.543,535.194 490.594,536.953 492.645,538.692 494.696,540.411 496.747,542.111 498.798,543.792 500.848,545.454 502.899,547.098 504.95,548.725 507.001,550.335 
  509.052,551.927 511.103,553.504 513.153,555.064 515.204,556.608 517.255,558.138 519.306,559.652 521.357,561.152 523.408,562.637 525.458,564.109 527.509,565.566 
  529.56,567.011 531.611,568.442 533.662,569.86 535.713,571.266 537.763,572.659 539.814,574.04 541.865,575.41 543.916,576.767 545.967,578.114 548.018,579.449 
  550.068,580.773 552.119,582.086 554.17,583.389 556.221,584.682 558.272,585.964 560.323,587.236 562.374,588.498 564.424,589.751 566.475,590.995 568.526,592.229 
  570.577,593.453 572.628,594.669 574.679,595.876 576.729,597.075 578.78,598.265 580.831,599.446 582.882,600.619 584.933,601.784 586.984,602.942 589.034,604.091 
  591.085,605.232 593.136,606.366 595.187,607.493 597.238,608.612 599.289,609.724 601.339,610.828 603.39,611.926 605.441,613.017 607.492,614.101 609.543,615.178 
  611.594,616.249 613.644,617.313 615.695,618.37 617.746,619.422 619.797,620.467 621.848,621.506 623.899,622.539 625.95,623.566 628,624.587 630.051,625.602 
  632.102,626.612 634.153,627.615 636.204,628.614 638.255,629.607 640.305,630.594 642.356,631.576 644.407,632.553 646.458,633.525 648.509,634.491 650.56,635.453 
  652.61,636.409 654.661,637.361 656.712,638.308 658.763,639.249 660.814,640.187 662.865,641.119 664.915,642.047 666.966,642.97 669.017,643.889 671.068,644.804 
  673.119,645.714 675.17,646.619 677.22,647.521 679.271,648.418 681.322,649.311 683.373,650.2 685.424,651.084 687.475,651.965 689.526,652.842 691.576,653.715 
  693.627,654.584 695.678,655.449 697.729,656.31 699.78,657.168 701.831,658.022 703.881,658.872 705.932,659.719 707.983,660.562 710.034,661.401 712.085,662.237 
  714.136,663.07 716.186,663.899 718.237,664.725 720.288,665.547 722.339,666.366 724.39,667.182 726.441,667.995 728.491,668.804 730.542,669.61 732.593,670.414 
  734.644,671.214 736.695,672.011 738.746,672.805 740.797,673.596 742.847,674.384 744.898,675.169 746.949,675.951 749,676.73 751.051,677.507 753.102,678.281 
  755.152,679.052 757.203,679.82 759.254,680.585 761.305,681.348 763.356,682.108 765.407,682.866 767.457,683.621 769.508,684.373 771.559,685.123 773.61,685.87 
  775.661,686.615 777.712,687.357 779.762,688.097 781.813,688.834 783.864,689.569 785.915,690.302 787.966,691.032 790.017,691.76 792.067,692.486 794.118,693.209 
  796.169,693.93 798.22,694.649 800.271,695.366 802.322,696.08 804.373,696.793 806.423,697.503 808.474,698.211 810.525,698.917 812.576,699.62 814.627,700.322 
  816.678,701.022 818.728,701.72 820.779,702.415 822.83,703.109 824.881,703.801 826.932,704.491 828.983,705.178 831.033,705.864 833.084,706.548 835.135,707.231 
  837.186,707.911 839.237,708.589 841.288,709.266 843.338,709.941 845.389,710.614 847.44,711.285 849.491,711.955 851.542,712.623 853.593,713.289 855.643,713.953 
  857.694,714.616 859.745,715.277 861.796,715.936 863.847,716.594 865.898,717.25 867.949,717.905 869.999,718.558 872.05,719.209 874.101,719.859 876.152,720.507 
  878.203,721.154 880.254,721.799 882.304,722.442 884.355,723.085 886.406,723.725 888.457,724.365 890.508,725.002 892.559,725.639 894.609,726.274 896.66,726.907 
  898.711,727.539 900.762,728.17 902.813,728.799 904.864,729.427 906.914,730.054 908.965,730.679 911.016,731.303 913.067,731.926 915.118,732.547 917.169,733.168 
  919.219,733.786 921.27,734.404 923.321,735.02 925.372,735.635 927.423,736.249 929.474,736.862 931.525,737.473 933.575,738.084 935.626,738.693 937.677,739.301 
  939.728,739.907 941.779,740.513 943.83,741.118 945.88,741.721 947.931,742.323 949.982,742.924 952.033,743.524 954.084,744.123 956.135,744.721 958.185,745.318 
  960.236,745.914 962.287,746.509 964.338,747.102 966.389,747.695 968.44,748.287 970.49,748.877 972.541,749.467 974.592,750.056 976.643,750.643 978.694,751.23 
  980.745,751.816 982.795,752.401 984.846,752.985 986.897,753.568 988.948,754.15 990.999,754.731 993.05,755.311 995.101,755.891 997.151,756.469 999.202,757.047 
  1001.25,757.623 1003.3,758.199 1005.35,758.774 1007.41,759.349 1009.46,759.922 1011.51,760.495 1013.56,761.066 1015.61,761.637 1017.66,762.207 1019.71,762.777 
  1021.76,763.345 1023.81,763.913 1025.86,764.48 1027.91,765.047 1029.96,765.612 1032.02,766.177 1034.07,766.741 1036.12,767.304 1038.17,767.867 1040.22,768.429 
  1042.27,768.99 1044.32,769.551 1046.37,770.111 1048.42,770.67 1050.47,771.228 1052.52,771.786 1054.57,772.343 1056.63,772.9 1058.68,773.456 1060.73,774.011 
  1062.78,774.565 1064.83,775.119 1066.88,775.673 1068.93,776.226 1070.98,776.778 1073.03,777.329 1075.08,777.88 1077.13,778.431 1079.18,778.981 1081.24,779.53 
  1083.29,780.079 1085.34,780.627 1087.39,781.175 1089.44,781.722 1091.49,782.268 1093.54,782.814 1095.59,783.36 1097.64,783.905 1099.69,784.45 1101.74,784.994 
  1103.79,785.537 1105.85,786.08 1107.9,786.623 1109.95,787.165 1112,787.707 1114.05,788.248 1116.1,788.789 1118.15,789.329 1120.2,789.869 1122.25,790.408 
  1124.3,790.947 1126.35,791.486 1128.41,792.024 1130.46,792.562 1132.51,793.099 1134.56,793.636 1136.61,794.173 1138.66,794.709 1140.71,795.245 1142.76,795.78 
  1144.81,796.315 1146.86,796.85 1148.91,797.384 1150.96,797.918 1153.02,798.452 1155.07,798.985 1157.12,799.518 1159.17,800.051 1161.22,800.584 1163.27,801.116 
  1165.32,801.647 1167.37,802.179 1169.42,802.71 1171.47,803.241 1173.52,803.772 1175.57,804.302 1177.63,804.832 1179.68,805.362 1181.73,805.891 1183.78,806.421 
  1185.83,806.95 1187.88,807.479 1189.93,808.007 1191.98,808.535 1194.03,809.064 1196.08,809.591 1198.13,810.119 1200.18,810.647 1202.24,811.174 1204.29,811.701 
  1206.34,812.228 1208.39,812.755 1210.44,813.281 1212.49,813.807 1214.54,814.334 1216.59,814.86 1218.64,815.385 1220.69,815.911 1222.74,816.437 1224.79,816.962 
  1226.85,817.487 1228.9,818.012 1230.95,818.537 1233,819.062 1235.05,819.587 1237.1,820.112 1239.15,820.636 1241.2,821.161 1243.25,821.685 1245.3,822.21 
  1247.35,822.734 1249.4,823.258 1251.46,823.782 1253.51,824.306 1255.56,824.83 1257.61,825.354 1259.66,825.878 1261.71,826.401 1263.76,826.925 1265.81,827.449 
  1267.86,827.972 1269.91,828.496 1271.96,829.02 1274.01,829.543 1276.07,830.067 1278.12,830.591 1280.17,831.114 1282.22,831.638 1284.27,832.161 1286.32,832.685 
  1288.37,833.209 1290.42,833.733 1292.47,834.256 1294.52,834.78 1296.57,835.304 1298.62,835.828 1300.68,836.352 1302.73,836.876 1304.78,837.4 1306.83,837.924 
  1308.88,838.448 1310.93,838.973 1312.98,839.497 1315.03,840.021 1317.08,840.546 1319.13,841.071 1321.18,841.596 1323.23,842.12 1325.29,842.646 1327.34,843.171 
  1329.39,843.696 1331.44,844.221 1333.49,844.747 1335.54,845.273 1337.59,845.799 1339.64,846.325 1341.69,846.851 1343.74,847.377 1345.79,847.904 1347.84,848.431 
  1349.9,848.958 1351.95,849.485 1354,850.012 1356.05,850.54 1358.1,851.067 1360.15,851.595 1362.2,852.123 1364.25,852.652 1366.3,853.18 1368.35,853.709 
  1370.4,854.238 1372.45,854.768 1374.51,855.297 1376.56,855.827 1378.61,856.357 1380.66,856.888 1382.71,857.418 1384.76,857.949 1386.81,858.48 1388.86,859.012 
  1390.91,859.544 1392.96,860.076 1395.01,860.608 1397.06,861.141 1399.12,861.674 1401.17,862.208 1403.22,862.741 1405.27,863.275 1407.32,863.81 1409.37,864.345 
  1411.42,864.88 1413.47,865.415 1415.52,865.951 1417.57,866.487 1419.62,867.024 1421.68,867.561 1423.73,868.098 1425.78,868.636 1427.83,869.174 1429.88,869.713 
  1431.93,870.252 1433.98,870.791 1436.03,871.331 1438.08,871.872 1440.13,872.412 1442.18,872.954 1444.23,873.495 1446.29,874.037 1448.34,874.58 1450.39,875.123 
  1452.44,875.666 1454.49,876.21 1456.54,876.755 1458.59,877.3 1460.64,877.845 1462.69,878.391 1464.74,878.938 1466.79,879.485 1468.84,880.033 1470.9,880.581 
  1472.95,881.129 1475,881.679 1477.05,882.228 1479.1,882.779 1481.15,883.33 1483.2,883.881 1485.25,884.433 1487.3,884.986 1489.35,885.539 1491.4,886.093 
  1493.45,886.647 1495.51,887.202 1497.56,887.758 1499.61,888.314 1501.66,888.871 1503.71,889.429 1505.76,889.987 1507.81,890.546 1509.86,891.106 1511.91,891.666 
  1513.96,892.227 1516.01,892.789 1518.06,893.351 1520.12,893.914 1522.17,894.478 1524.22,895.042 1526.27,895.608 1528.32,896.174 1530.37,896.74 1532.42,897.308 
  1534.47,897.876 1536.52,898.445 1538.57,899.015 1540.62,899.585 1542.67,900.156 1544.73,900.728 1546.78,901.301 1548.83,901.875 1550.88,902.45 1552.93,903.025 
  1554.98,903.601 1557.03,904.178 1559.08,904.756 1561.13,905.335 1563.18,905.914 1565.23,906.495 1567.28,907.076 1569.34,907.659 1571.39,908.242 1573.44,908.826 
  1575.49,909.411 1577.54,909.997 1579.59,910.584 1581.64,911.172 1583.69,911.761 1585.74,912.35 1587.79,912.941 1589.84,913.533 1591.89,914.126 1593.95,914.719 
  1596,915.314 1598.05,915.91 1600.1,916.507 1602.15,917.105 1604.2,917.703 1606.25,918.303 1608.3,918.904 1610.35,919.507 1612.4,920.11 1614.45,920.714 
  1616.5,921.319 1618.56,921.926 1620.61,922.534 1622.66,923.143 1624.71,923.752 1626.76,924.364 1628.81,924.976 1630.86,925.589 1632.91,926.204 1634.96,926.82 
  1637.01,927.437 1639.06,928.055 1641.11,928.675 1643.17,929.296 1645.22,929.918 1647.27,930.541 1649.32,931.166 1651.37,931.792 1653.42,932.419 1655.47,933.048 
  1657.52,933.678 1659.57,934.309 1661.62,934.941 1663.67,935.575 1665.72,936.211 1667.78,936.848 1669.83,937.486 1671.88,938.125 1673.93,938.766 1675.98,939.409 
  1678.03,940.053 1680.08,940.698 1682.13,941.345 1684.18,941.993 1686.23,942.643 1688.28,943.294 1690.33,943.947 1692.39,944.602 1694.44,945.258 1696.49,945.915 
  1698.54,946.575 1700.59,947.235 1702.64,947.898 1704.69,948.562 1706.74,949.228 1708.79,949.895 1710.84,950.564 1712.89,951.235 1714.94,951.907 1717,952.582 
  1719.05,953.258 1721.1,953.935 1723.15,954.615 1725.2,955.296 1727.25,955.979 1729.3,956.664 1731.35,957.351 1733.4,958.039 1735.45,958.73 1737.5,959.422 
  1739.56,960.117 1741.61,960.813 1743.66,961.511 1745.71,962.211 1747.76,962.913 1749.81,963.617 1751.86,964.324 1753.91,965.032 1755.96,965.742 1758.01,966.454 
  1760.06,967.169 1762.11,967.885 1764.17,968.604 1766.22,969.325 1768.27,970.048 1770.32,970.773 1772.37,971.5 1774.42,972.23 1776.47,972.962 1778.52,973.696 
  1780.57,974.432 1782.62,975.171 1784.67,975.912 1786.72,976.656 1788.78,977.402 1790.83,978.15 1792.88,978.901 1794.93,979.654 1796.98,980.409 1799.03,981.168 
  1801.08,981.928 1803.13,982.692 1805.18,983.457 1807.23,984.226 1809.28,984.997 1811.33,985.771 1813.39,986.547 1815.44,987.326 1817.49,988.108 1819.54,988.893 
  1821.59,989.68 1823.64,990.47 1825.69,991.263 1827.74,992.059 1829.79,992.858 1831.84,993.66 1833.89,994.465 1835.94,995.273 1838,996.083 1840.05,996.897 
  1842.1,997.714 1844.15,998.534 1846.2,999.357 1848.25,1000.18 1850.3,1001.01 1852.35,1001.85 1854.4,1002.68 1856.45,1003.52 1858.5,1004.36 1860.55,1005.21 
  1862.61,1006.06 1864.66,1006.91 1866.71,1007.77 1868.76,1008.63 1870.81,1009.49 1872.86,1010.36 1874.91,1011.23 1876.96,1012.11 1879.01,1012.99 1881.06,1013.87 
  1883.11,1014.75 1885.16,1015.64 1887.22,1016.54 1889.27,1017.43 1891.32,1018.34 1893.37,1019.24 1895.42,1020.15 1897.47,1021.07 1899.52,1021.98 1901.57,1022.91 
  1903.62,1023.83 1905.67,1024.76 1907.72,1025.7 1909.77,1026.64 1911.83,1027.58 1913.88,1028.53 1915.93,1029.48 1917.98,1030.44 1920.03,1031.4 1922.08,1032.37 
  1924.13,1033.34 1926.18,1034.32 1928.23,1035.3 1930.28,1036.29 1932.33,1037.28 1934.38,1038.28 1936.44,1039.28 1938.49,1040.29 1940.54,1041.3 1942.59,1042.32 
  1944.64,1043.34 1946.69,1044.37 1948.74,1045.4 1950.79,1046.44 1952.84,1047.49 1954.89,1048.54 1956.94,1049.6 1958.99,1050.66 1961.05,1051.73 1963.1,1052.81 
  1965.15,1053.89 1967.2,1054.97 1969.25,1056.07 1971.3,1057.17 1973.35,1058.28 1975.4,1059.39 1977.45,1060.51 1979.5,1061.64 1981.55,1062.77 1983.6,1063.91 
  1985.66,1065.06 1987.71,1066.21 1989.76,1067.37 1991.81,1068.54 1993.86,1069.72 1995.91,1070.9 1997.96,1072.1 2000.01,1073.3 2002.06,1074.5 2004.11,1075.72 
  2006.16,1076.94 2008.21,1078.18 2010.27,1079.42 2012.32,1080.67 2014.37,1081.92 2016.42,1083.19 2018.47,1084.47 2020.52,1085.75 2022.57,1087.04 2024.62,1088.35 
  2026.67,1089.66 2028.72,1090.98 2030.77,1092.31 2032.83,1093.66 2034.88,1095.01 2036.93,1096.37 2038.98,1097.74 2041.03,1099.13 2043.08,1100.52 2045.13,1101.93 
  2047.18,1103.34 2049.23,1104.77 2051.28,1106.21 2053.33,1107.66 2055.38,1109.12 2057.44,1110.6 2059.49,1112.09 2061.54,1113.59 2063.59,1115.1 2065.64,1116.63 
  2067.69,1118.17 2069.74,1119.72 2071.79,1121.29 2073.84,1122.87 2075.89,1124.46 2077.94,1126.07 2079.99,1127.7 2082.05,1129.34 2084.1,1131 2086.15,1132.67 
  2088.2,1134.36 2090.25,1136.06 2092.3,1137.79 2094.35,1139.52 2096.4,1141.28 2098.45,1143.06 2100.5,1144.85 2102.55,1146.66 2104.6,1148.49 2106.66,1150.35 
  2108.71,1152.22 2110.76,1154.11 2112.81,1156.02 2114.86,1157.96 2116.91,1159.91 2118.96,1161.89 2121.01,1163.89 2123.06,1165.92 2125.11,1167.97 2127.16,1170.05 
  2129.21,1172.15 2131.27,1174.27 2133.32,1176.43 2135.37,1178.61 2137.42,1180.82 2139.47,1183.06 2141.52,1185.33 2143.57,1187.63 2145.62,1189.96 2147.67,1192.32 
  2149.72,1194.72 2151.77,1197.15 2153.82,1199.62 2155.88,1202.12 2157.93,1204.66 2159.98,1207.24 2162.03,1209.86 2164.08,1212.52 2166.13,1215.23 2168.18,1217.97 
  2170.23,1220.77 2172.28,1223.61 2174.33,1226.5 2176.38,1229.44 2178.43,1232.43 2180.49,1235.48 2182.54,1238.58 2184.59,1241.75 2186.64,1244.97 2188.69,1248.26 
  2190.74,1251.61 2192.79,1255.03 2194.84,1258.52 2196.89,1262.09 2198.94,1265.73 2200.99,1269.46 2203.04,1273.27 2205.1,1277.17 2207.15,1281.16 2209.2,1285.25 
  2211.25,1289.45 2213.3,1293.75 2215.35,1298.17 2217.4,1302.71 2219.45,1307.37 2221.5,1312.17 2223.55,1317.12 2225.6,1322.21 2227.65,1327.47 2229.71,1332.89 
  2231.76,1338.5 2233.81,1344.31 2235.86,1350.33 2237.91,1356.57 2239.96,1363.06 2242.01,1369.81 2244.06,1376.85 2246.11,1384.2 2248.16,1391.9 2250.21,1399.97 
  2252.26,1408.45 2254.32,1417.39 2256.37,1426.84 2258.42,1436.86 2260.47,1447.53 2262.52,1458.94 2264.57,1471.19 2266.62,1484.42 2268.67,1498.8 2270.72,1514.55 
  2272.77,1531.97 2274.82,1551.43 2276.87,1573.5 2278.93,1598.98 2280.98,1629.11 2283.03,1665.99 2285.08,1713.53 2287.13,1780.53 2289.18,1895.08 2291.23,6997.42 
  
  "/>
<path clip-path="url(#clip940)" d="
M1985.74 302.168 L2280.29 302.168 L2280.29 94.8081 L1985.74 94.8081  Z
  " fill="#ffffff" fill-rule="evenodd" fill-opacity="1"/>
<polyline clip-path="url(#clip940)" style="stroke:#000000; stroke-linecap:butt; stroke-linejoin:round; stroke-width:4; stroke-opacity:1; fill:none" points="
  1985.74,302.168 2280.29,302.168 2280.29,94.8081 1985.74,94.8081 1985.74,302.168 
  "/>
<polyline clip-path="url(#clip940)" style="stroke:#009af9; stroke-linecap:butt; stroke-linejoin:round; stroke-width:4; stroke-opacity:1; fill:none" points="
  2009.9,146.648 2154.82,146.648 
  "/>
<path clip-path="url(#clip940)" d="M2192.82 166.336 Q2191.01 170.965 2189.3 172.377 Q2187.59 173.789 2184.72 173.789 L2181.31 173.789 L2181.31 170.224 L2183.81 170.224 Q2185.57 170.224 2186.54 169.391 Q2187.52 168.558 2188.7 165.456 L2189.46 163.511 L2178.98 138.002 L2183.49 138.002 L2191.59 158.28 L2199.69 138.002 L2204.21 138.002 L2192.82 166.336 Z" fill="#000000" fill-rule="evenodd" fill-opacity="1" /><path clip-path="url(#clip940)" d="M2211.5 159.993 L2219.14 159.993 L2219.14 133.627 L2210.83 135.294 L2210.83 131.035 L2219.09 129.368 L2223.77 129.368 L2223.77 159.993 L2231.41 159.993 L2231.41 163.928 L2211.5 163.928 L2211.5 159.993 Z" fill="#000000" fill-rule="evenodd" fill-opacity="1" /><polyline clip-path="url(#clip940)" style="stroke:#e26f46; stroke-linecap:butt; stroke-linejoin:round; stroke-width:4; stroke-opacity:1; fill:none" points="
  2009.9,198.488 2154.82,198.488 
  "/>
<path clip-path="url(#clip940)" d="M2192.82 218.176 Q2191.01 222.805 2189.3 224.217 Q2187.59 225.629 2184.72 225.629 L2181.31 225.629 L2181.31 222.064 L2183.81 222.064 Q2185.57 222.064 2186.54 221.231 Q2187.52 220.398 2188.7 217.296 L2189.46 215.351 L2178.98 189.842 L2183.49 189.842 L2191.59 210.12 L2199.69 189.842 L2204.21 189.842 L2192.82 218.176 Z" fill="#000000" fill-rule="evenodd" fill-opacity="1" /><path clip-path="url(#clip940)" d="M2214.72 211.833 L2231.04 211.833 L2231.04 215.768 L2209.09 215.768 L2209.09 211.833 Q2211.75 209.078 2216.34 204.449 Q2220.94 199.796 2222.12 198.453 Q2224.37 195.93 2225.25 194.194 Q2226.15 192.435 2226.15 190.745 Q2226.15 187.99 2224.21 186.254 Q2222.29 184.518 2219.18 184.518 Q2216.98 184.518 2214.53 185.282 Q2212.1 186.046 2209.32 187.597 L2209.32 182.875 Q2212.15 181.741 2214.6 181.162 Q2217.05 180.583 2219.09 180.583 Q2224.46 180.583 2227.66 183.268 Q2230.85 185.953 2230.85 190.444 Q2230.85 192.574 2230.04 194.495 Q2229.25 196.393 2227.15 198.986 Q2226.57 199.657 2223.47 202.875 Q2220.36 206.069 2214.72 211.833 Z" fill="#000000" fill-rule="evenodd" fill-opacity="1" /><polyline clip-path="url(#clip940)" style="stroke:#3da44d; stroke-linecap:butt; stroke-linejoin:round; stroke-width:4; stroke-opacity:1; fill:none" points="
  2009.9,250.328 2154.82,250.328 
  "/>
<path clip-path="url(#clip940)" d="M2192.82 270.016 Q2191.01 274.645 2189.3 276.057 Q2187.59 277.469 2184.72 277.469 L2181.31 277.469 L2181.31 273.904 L2183.81 273.904 Q2185.57 273.904 2186.54 273.071 Q2187.52 272.238 2188.7 269.136 L2189.46 267.191 L2178.98 241.682 L2183.49 241.682 L2191.59 261.96 L2199.69 241.682 L2204.21 241.682 L2192.82 270.016 Z" fill="#000000" fill-rule="evenodd" fill-opacity="1" /><path clip-path="url(#clip940)" d="M2224.85 248.974 Q2228.21 249.692 2230.09 251.96 Q2231.98 254.229 2231.98 257.562 Q2231.98 262.678 2228.47 265.478 Q2224.95 268.279 2218.47 268.279 Q2216.29 268.279 2213.98 267.84 Q2211.68 267.423 2209.23 266.566 L2209.23 262.053 Q2211.17 263.187 2213.49 263.766 Q2215.8 264.344 2218.33 264.344 Q2222.73 264.344 2225.02 262.608 Q2227.33 260.872 2227.33 257.562 Q2227.33 254.506 2225.18 252.793 Q2223.05 251.057 2219.23 251.057 L2215.2 251.057 L2215.2 247.215 L2219.41 247.215 Q2222.86 247.215 2224.69 245.849 Q2226.52 244.46 2226.52 241.868 Q2226.52 239.205 2224.62 237.793 Q2222.75 236.358 2219.23 236.358 Q2217.31 236.358 2215.11 236.775 Q2212.91 237.192 2210.27 238.071 L2210.27 233.905 Q2212.93 233.164 2215.25 232.793 Q2217.59 232.423 2219.65 232.423 Q2224.97 232.423 2228.07 234.854 Q2231.17 237.261 2231.17 241.381 Q2231.17 244.252 2229.53 246.242 Q2227.89 248.21 2224.85 248.974 Z" fill="#000000" fill-rule="evenodd" fill-opacity="1" /></svg>
